G04 #@! TF.GenerationSoftware,KiCad,Pcbnew,8.0.8+1*
G04 #@! TF.ProjectId,airsoft_bomb_v2,61697273-6f66-4745-9f62-6f6d625f7632,rev?*
G04 #@! TF.SameCoordinates,Original*
G04 #@! TF.FileFunction,Copper,L2,Bot*
G04 #@! TF.FilePolarity,Positive*
%FSLAX46Y46*%
G04 Gerber Fmt 4.6, Leading zero omitted, Abs format (unit mm)*
%MOMM*%
%LPD*%
G01*
G04 APERTURE LIST*
G04 #@! TA.AperFunction,Profile*
%ADD10C,0.200000*%
G04 #@! TD*
G04 #@! TA.AperFunction,ComponentPad*
%ADD11R,1.700000X1.700000*%
G04 #@! TD*
G04 #@! TA.AperFunction,ComponentPad*
%ADD12O,1.700000X1.700000*%
G04 #@! TD*
G04 #@! TA.AperFunction,ComponentPad*
%ADD13R,2.000000X2.000000*%
G04 #@! TD*
G04 #@! TA.AperFunction,ComponentPad*
%ADD14C,2.000000*%
G04 #@! TD*
G04 #@! TA.AperFunction,ComponentPad*
%ADD15C,1.600000*%
G04 #@! TD*
G04 #@! TA.AperFunction,ComponentPad*
%ADD16O,1.600000X1.600000*%
G04 #@! TD*
G04 #@! TA.AperFunction,ComponentPad*
%ADD17O,1.905000X3.905000*%
G04 #@! TD*
G04 #@! TA.AperFunction,ComponentPad*
%ADD18C,1.440000*%
G04 #@! TD*
G04 #@! TA.AperFunction,ComponentPad*
%ADD19O,3.600000X1.800000*%
G04 #@! TD*
G04 #@! TA.AperFunction,ViaPad*
%ADD20C,0.600000*%
G04 #@! TD*
G04 #@! TA.AperFunction,Conductor*
%ADD21C,0.250000*%
G04 #@! TD*
G04 #@! TA.AperFunction,Conductor*
%ADD22C,0.500000*%
G04 #@! TD*
G04 #@! TA.AperFunction,Conductor*
%ADD23C,1.000000*%
G04 #@! TD*
G04 #@! TA.AperFunction,Conductor*
%ADD24C,1.500000*%
G04 #@! TD*
G04 APERTURE END LIST*
D10*
X178890534Y-60866736D02*
X175878500Y-58216800D01*
X116027200Y-134823200D02*
X111607600Y-131216400D01*
X178890534Y-60866736D02*
G75*
G02*
X178943000Y-72262999I-1827134J-5706664D01*
G01*
X111607601Y-98145600D02*
G75*
G02*
X112827677Y-95200077I4165599J0D01*
G01*
X175878500Y-58216800D02*
X125984000Y-58216800D01*
X118059200Y-89916000D02*
X118061600Y-66240800D01*
X116027200Y-134823200D02*
X178943000Y-134874000D01*
X178943000Y-134874000D02*
X178943000Y-72263000D01*
X112827676Y-95200076D02*
X118059200Y-89916000D01*
X118061600Y-66240800D02*
X125984000Y-58216800D01*
X111607600Y-131216400D02*
X111607600Y-98145600D01*
D11*
X154140000Y-123975000D03*
D12*
X156680000Y-123975000D03*
X159220000Y-123975000D03*
X161760000Y-123975000D03*
X164300000Y-123975000D03*
X166840000Y-123975000D03*
X169380000Y-123975000D03*
X171920000Y-123975000D03*
X174460000Y-123975000D03*
X177000000Y-123975000D03*
D13*
X119481600Y-123708000D03*
D14*
X119481600Y-131308000D03*
D11*
X171470000Y-69075000D03*
D12*
X168930000Y-69075000D03*
X166390000Y-69075000D03*
X163850000Y-69075000D03*
X161310000Y-69075000D03*
X158770000Y-69075000D03*
X156230000Y-69075000D03*
X153690000Y-69075000D03*
X151150000Y-69075000D03*
X148610000Y-69075000D03*
X146070000Y-69075000D03*
X143530000Y-69075000D03*
X140990000Y-69075000D03*
X138450000Y-69075000D03*
X135910000Y-69075000D03*
X133370000Y-69075000D03*
G04 #@! TA.AperFunction,SMDPad,CuDef*
G36*
G01*
X144289200Y-80844500D02*
X143989200Y-80844500D01*
G75*
G02*
X143839200Y-80694500I0J150000D01*
G01*
X143839200Y-79519500D01*
G75*
G02*
X143989200Y-79369500I150000J0D01*
G01*
X144289200Y-79369500D01*
G75*
G02*
X144439200Y-79519500I0J-150000D01*
G01*
X144439200Y-80694500D01*
G75*
G02*
X144289200Y-80844500I-150000J0D01*
G01*
G37*
G04 #@! TD.AperFunction*
G04 #@! TA.AperFunction,SMDPad,CuDef*
G36*
G01*
X142389200Y-80844500D02*
X142089200Y-80844500D01*
G75*
G02*
X141939200Y-80694500I0J150000D01*
G01*
X141939200Y-79519500D01*
G75*
G02*
X142089200Y-79369500I150000J0D01*
G01*
X142389200Y-79369500D01*
G75*
G02*
X142539200Y-79519500I0J-150000D01*
G01*
X142539200Y-80694500D01*
G75*
G02*
X142389200Y-80844500I-150000J0D01*
G01*
G37*
G04 #@! TD.AperFunction*
G04 #@! TA.AperFunction,SMDPad,CuDef*
G36*
G01*
X143339200Y-78969500D02*
X143039200Y-78969500D01*
G75*
G02*
X142889200Y-78819500I0J150000D01*
G01*
X142889200Y-77644500D01*
G75*
G02*
X143039200Y-77494500I150000J0D01*
G01*
X143339200Y-77494500D01*
G75*
G02*
X143489200Y-77644500I0J-150000D01*
G01*
X143489200Y-78819500D01*
G75*
G02*
X143339200Y-78969500I-150000J0D01*
G01*
G37*
G04 #@! TD.AperFunction*
D13*
X129604000Y-80301600D03*
D14*
X124604000Y-83801600D03*
D13*
X123211600Y-112324000D03*
D14*
X118211600Y-115824000D03*
G04 #@! TA.AperFunction,SMDPad,CuDef*
G36*
G01*
X170256000Y-80423600D02*
X170256000Y-81323600D01*
G75*
G02*
X170006000Y-81573600I-250000J0D01*
G01*
X169306000Y-81573600D01*
G75*
G02*
X169056000Y-81323600I0J250000D01*
G01*
X169056000Y-80423600D01*
G75*
G02*
X169306000Y-80173600I250000J0D01*
G01*
X170006000Y-80173600D01*
G75*
G02*
X170256000Y-80423600I0J-250000D01*
G01*
G37*
G04 #@! TD.AperFunction*
G04 #@! TA.AperFunction,SMDPad,CuDef*
G36*
G01*
X168256000Y-80423600D02*
X168256000Y-81323600D01*
G75*
G02*
X168006000Y-81573600I-250000J0D01*
G01*
X167306000Y-81573600D01*
G75*
G02*
X167056000Y-81323600I0J250000D01*
G01*
X167056000Y-80423600D01*
G75*
G02*
X167306000Y-80173600I250000J0D01*
G01*
X168006000Y-80173600D01*
G75*
G02*
X168256000Y-80423600I0J-250000D01*
G01*
G37*
G04 #@! TD.AperFunction*
G04 #@! TA.AperFunction,SMDPad,CuDef*
G36*
G01*
X129742600Y-73540600D02*
X129742600Y-74490600D01*
G75*
G02*
X129492600Y-74740600I-250000J0D01*
G01*
X128817600Y-74740600D01*
G75*
G02*
X128567600Y-74490600I0J250000D01*
G01*
X128567600Y-73540600D01*
G75*
G02*
X128817600Y-73290600I250000J0D01*
G01*
X129492600Y-73290600D01*
G75*
G02*
X129742600Y-73540600I0J-250000D01*
G01*
G37*
G04 #@! TD.AperFunction*
G04 #@! TA.AperFunction,SMDPad,CuDef*
G36*
G01*
X127667600Y-73540600D02*
X127667600Y-74490600D01*
G75*
G02*
X127417600Y-74740600I-250000J0D01*
G01*
X126742600Y-74740600D01*
G75*
G02*
X126492600Y-74490600I0J250000D01*
G01*
X126492600Y-73540600D01*
G75*
G02*
X126742600Y-73290600I250000J0D01*
G01*
X127417600Y-73290600D01*
G75*
G02*
X127667600Y-73540600I0J-250000D01*
G01*
G37*
G04 #@! TD.AperFunction*
G04 #@! TA.AperFunction,SMDPad,CuDef*
G36*
G01*
X125550000Y-99975000D02*
X126850000Y-99975000D01*
G75*
G02*
X127100000Y-100225000I0J-250000D01*
G01*
X127100000Y-101050000D01*
G75*
G02*
X126850000Y-101300000I-250000J0D01*
G01*
X125550000Y-101300000D01*
G75*
G02*
X125300000Y-101050000I0J250000D01*
G01*
X125300000Y-100225000D01*
G75*
G02*
X125550000Y-99975000I250000J0D01*
G01*
G37*
G04 #@! TD.AperFunction*
G04 #@! TA.AperFunction,SMDPad,CuDef*
G36*
G01*
X125550000Y-103100000D02*
X126850000Y-103100000D01*
G75*
G02*
X127100000Y-103350000I0J-250000D01*
G01*
X127100000Y-104175000D01*
G75*
G02*
X126850000Y-104425000I-250000J0D01*
G01*
X125550000Y-104425000D01*
G75*
G02*
X125300000Y-104175000I0J250000D01*
G01*
X125300000Y-103350000D01*
G75*
G02*
X125550000Y-103100000I250000J0D01*
G01*
G37*
G04 #@! TD.AperFunction*
G04 #@! TA.AperFunction,SMDPad,CuDef*
G36*
G01*
X141538400Y-82796800D02*
X141538400Y-81896800D01*
G75*
G02*
X141788400Y-81646800I250000J0D01*
G01*
X142488400Y-81646800D01*
G75*
G02*
X142738400Y-81896800I0J-250000D01*
G01*
X142738400Y-82796800D01*
G75*
G02*
X142488400Y-83046800I-250000J0D01*
G01*
X141788400Y-83046800D01*
G75*
G02*
X141538400Y-82796800I0J250000D01*
G01*
G37*
G04 #@! TD.AperFunction*
G04 #@! TA.AperFunction,SMDPad,CuDef*
G36*
G01*
X143538400Y-82796800D02*
X143538400Y-81896800D01*
G75*
G02*
X143788400Y-81646800I250000J0D01*
G01*
X144488400Y-81646800D01*
G75*
G02*
X144738400Y-81896800I0J-250000D01*
G01*
X144738400Y-82796800D01*
G75*
G02*
X144488400Y-83046800I-250000J0D01*
G01*
X143788400Y-83046800D01*
G75*
G02*
X143538400Y-82796800I0J250000D01*
G01*
G37*
G04 #@! TD.AperFunction*
G04 #@! TA.AperFunction,SMDPad,CuDef*
G36*
G01*
X135617800Y-86115600D02*
X136517800Y-86115600D01*
G75*
G02*
X136767800Y-86365600I0J-250000D01*
G01*
X136767800Y-87065600D01*
G75*
G02*
X136517800Y-87315600I-250000J0D01*
G01*
X135617800Y-87315600D01*
G75*
G02*
X135367800Y-87065600I0J250000D01*
G01*
X135367800Y-86365600D01*
G75*
G02*
X135617800Y-86115600I250000J0D01*
G01*
G37*
G04 #@! TD.AperFunction*
G04 #@! TA.AperFunction,SMDPad,CuDef*
G36*
G01*
X135617800Y-88115600D02*
X136517800Y-88115600D01*
G75*
G02*
X136767800Y-88365600I0J-250000D01*
G01*
X136767800Y-89065600D01*
G75*
G02*
X136517800Y-89315600I-250000J0D01*
G01*
X135617800Y-89315600D01*
G75*
G02*
X135367800Y-89065600I0J250000D01*
G01*
X135367800Y-88365600D01*
G75*
G02*
X135617800Y-88115600I250000J0D01*
G01*
G37*
G04 #@! TD.AperFunction*
G04 #@! TA.AperFunction,SMDPad,CuDef*
G36*
G01*
X165187000Y-110568600D02*
X165187000Y-110868600D01*
G75*
G02*
X165037000Y-111018600I-150000J0D01*
G01*
X163287000Y-111018600D01*
G75*
G02*
X163137000Y-110868600I0J150000D01*
G01*
X163137000Y-110568600D01*
G75*
G02*
X163287000Y-110418600I150000J0D01*
G01*
X165037000Y-110418600D01*
G75*
G02*
X165187000Y-110568600I0J-150000D01*
G01*
G37*
G04 #@! TD.AperFunction*
G04 #@! TA.AperFunction,SMDPad,CuDef*
G36*
G01*
X165187000Y-111838600D02*
X165187000Y-112138600D01*
G75*
G02*
X165037000Y-112288600I-150000J0D01*
G01*
X163287000Y-112288600D01*
G75*
G02*
X163137000Y-112138600I0J150000D01*
G01*
X163137000Y-111838600D01*
G75*
G02*
X163287000Y-111688600I150000J0D01*
G01*
X165037000Y-111688600D01*
G75*
G02*
X165187000Y-111838600I0J-150000D01*
G01*
G37*
G04 #@! TD.AperFunction*
G04 #@! TA.AperFunction,SMDPad,CuDef*
G36*
G01*
X165187000Y-113108600D02*
X165187000Y-113408600D01*
G75*
G02*
X165037000Y-113558600I-150000J0D01*
G01*
X163287000Y-113558600D01*
G75*
G02*
X163137000Y-113408600I0J150000D01*
G01*
X163137000Y-113108600D01*
G75*
G02*
X163287000Y-112958600I150000J0D01*
G01*
X165037000Y-112958600D01*
G75*
G02*
X165187000Y-113108600I0J-150000D01*
G01*
G37*
G04 #@! TD.AperFunction*
G04 #@! TA.AperFunction,SMDPad,CuDef*
G36*
G01*
X165187000Y-114378600D02*
X165187000Y-114678600D01*
G75*
G02*
X165037000Y-114828600I-150000J0D01*
G01*
X163287000Y-114828600D01*
G75*
G02*
X163137000Y-114678600I0J150000D01*
G01*
X163137000Y-114378600D01*
G75*
G02*
X163287000Y-114228600I150000J0D01*
G01*
X165037000Y-114228600D01*
G75*
G02*
X165187000Y-114378600I0J-150000D01*
G01*
G37*
G04 #@! TD.AperFunction*
G04 #@! TA.AperFunction,SMDPad,CuDef*
G36*
G01*
X165187000Y-115648600D02*
X165187000Y-115948600D01*
G75*
G02*
X165037000Y-116098600I-150000J0D01*
G01*
X163287000Y-116098600D01*
G75*
G02*
X163137000Y-115948600I0J150000D01*
G01*
X163137000Y-115648600D01*
G75*
G02*
X163287000Y-115498600I150000J0D01*
G01*
X165037000Y-115498600D01*
G75*
G02*
X165187000Y-115648600I0J-150000D01*
G01*
G37*
G04 #@! TD.AperFunction*
G04 #@! TA.AperFunction,SMDPad,CuDef*
G36*
G01*
X165187000Y-116918600D02*
X165187000Y-117218600D01*
G75*
G02*
X165037000Y-117368600I-150000J0D01*
G01*
X163287000Y-117368600D01*
G75*
G02*
X163137000Y-117218600I0J150000D01*
G01*
X163137000Y-116918600D01*
G75*
G02*
X163287000Y-116768600I150000J0D01*
G01*
X165037000Y-116768600D01*
G75*
G02*
X165187000Y-116918600I0J-150000D01*
G01*
G37*
G04 #@! TD.AperFunction*
G04 #@! TA.AperFunction,SMDPad,CuDef*
G36*
G01*
X165187000Y-118188600D02*
X165187000Y-118488600D01*
G75*
G02*
X165037000Y-118638600I-150000J0D01*
G01*
X163287000Y-118638600D01*
G75*
G02*
X163137000Y-118488600I0J150000D01*
G01*
X163137000Y-118188600D01*
G75*
G02*
X163287000Y-118038600I150000J0D01*
G01*
X165037000Y-118038600D01*
G75*
G02*
X165187000Y-118188600I0J-150000D01*
G01*
G37*
G04 #@! TD.AperFunction*
G04 #@! TA.AperFunction,SMDPad,CuDef*
G36*
G01*
X165187000Y-119458600D02*
X165187000Y-119758600D01*
G75*
G02*
X165037000Y-119908600I-150000J0D01*
G01*
X163287000Y-119908600D01*
G75*
G02*
X163137000Y-119758600I0J150000D01*
G01*
X163137000Y-119458600D01*
G75*
G02*
X163287000Y-119308600I150000J0D01*
G01*
X165037000Y-119308600D01*
G75*
G02*
X165187000Y-119458600I0J-150000D01*
G01*
G37*
G04 #@! TD.AperFunction*
G04 #@! TA.AperFunction,SMDPad,CuDef*
G36*
G01*
X155887000Y-119458600D02*
X155887000Y-119758600D01*
G75*
G02*
X155737000Y-119908600I-150000J0D01*
G01*
X153987000Y-119908600D01*
G75*
G02*
X153837000Y-119758600I0J150000D01*
G01*
X153837000Y-119458600D01*
G75*
G02*
X153987000Y-119308600I150000J0D01*
G01*
X155737000Y-119308600D01*
G75*
G02*
X155887000Y-119458600I0J-150000D01*
G01*
G37*
G04 #@! TD.AperFunction*
G04 #@! TA.AperFunction,SMDPad,CuDef*
G36*
G01*
X155887000Y-118188600D02*
X155887000Y-118488600D01*
G75*
G02*
X155737000Y-118638600I-150000J0D01*
G01*
X153987000Y-118638600D01*
G75*
G02*
X153837000Y-118488600I0J150000D01*
G01*
X153837000Y-118188600D01*
G75*
G02*
X153987000Y-118038600I150000J0D01*
G01*
X155737000Y-118038600D01*
G75*
G02*
X155887000Y-118188600I0J-150000D01*
G01*
G37*
G04 #@! TD.AperFunction*
G04 #@! TA.AperFunction,SMDPad,CuDef*
G36*
G01*
X155887000Y-116918600D02*
X155887000Y-117218600D01*
G75*
G02*
X155737000Y-117368600I-150000J0D01*
G01*
X153987000Y-117368600D01*
G75*
G02*
X153837000Y-117218600I0J150000D01*
G01*
X153837000Y-116918600D01*
G75*
G02*
X153987000Y-116768600I150000J0D01*
G01*
X155737000Y-116768600D01*
G75*
G02*
X155887000Y-116918600I0J-150000D01*
G01*
G37*
G04 #@! TD.AperFunction*
G04 #@! TA.AperFunction,SMDPad,CuDef*
G36*
G01*
X155887000Y-115648600D02*
X155887000Y-115948600D01*
G75*
G02*
X155737000Y-116098600I-150000J0D01*
G01*
X153987000Y-116098600D01*
G75*
G02*
X153837000Y-115948600I0J150000D01*
G01*
X153837000Y-115648600D01*
G75*
G02*
X153987000Y-115498600I150000J0D01*
G01*
X155737000Y-115498600D01*
G75*
G02*
X155887000Y-115648600I0J-150000D01*
G01*
G37*
G04 #@! TD.AperFunction*
G04 #@! TA.AperFunction,SMDPad,CuDef*
G36*
G01*
X155887000Y-114378600D02*
X155887000Y-114678600D01*
G75*
G02*
X155737000Y-114828600I-150000J0D01*
G01*
X153987000Y-114828600D01*
G75*
G02*
X153837000Y-114678600I0J150000D01*
G01*
X153837000Y-114378600D01*
G75*
G02*
X153987000Y-114228600I150000J0D01*
G01*
X155737000Y-114228600D01*
G75*
G02*
X155887000Y-114378600I0J-150000D01*
G01*
G37*
G04 #@! TD.AperFunction*
G04 #@! TA.AperFunction,SMDPad,CuDef*
G36*
G01*
X155887000Y-113108600D02*
X155887000Y-113408600D01*
G75*
G02*
X155737000Y-113558600I-150000J0D01*
G01*
X153987000Y-113558600D01*
G75*
G02*
X153837000Y-113408600I0J150000D01*
G01*
X153837000Y-113108600D01*
G75*
G02*
X153987000Y-112958600I150000J0D01*
G01*
X155737000Y-112958600D01*
G75*
G02*
X155887000Y-113108600I0J-150000D01*
G01*
G37*
G04 #@! TD.AperFunction*
G04 #@! TA.AperFunction,SMDPad,CuDef*
G36*
G01*
X155887000Y-111838600D02*
X155887000Y-112138600D01*
G75*
G02*
X155737000Y-112288600I-150000J0D01*
G01*
X153987000Y-112288600D01*
G75*
G02*
X153837000Y-112138600I0J150000D01*
G01*
X153837000Y-111838600D01*
G75*
G02*
X153987000Y-111688600I150000J0D01*
G01*
X155737000Y-111688600D01*
G75*
G02*
X155887000Y-111838600I0J-150000D01*
G01*
G37*
G04 #@! TD.AperFunction*
G04 #@! TA.AperFunction,SMDPad,CuDef*
G36*
G01*
X155887000Y-110568600D02*
X155887000Y-110868600D01*
G75*
G02*
X155737000Y-111018600I-150000J0D01*
G01*
X153987000Y-111018600D01*
G75*
G02*
X153837000Y-110868600I0J150000D01*
G01*
X153837000Y-110568600D01*
G75*
G02*
X153987000Y-110418600I150000J0D01*
G01*
X155737000Y-110418600D01*
G75*
G02*
X155887000Y-110568600I0J-150000D01*
G01*
G37*
G04 #@! TD.AperFunction*
G04 #@! TA.AperFunction,SMDPad,CuDef*
G36*
G01*
X171373600Y-78391600D02*
X171373600Y-79291600D01*
G75*
G02*
X171123600Y-79541600I-250000J0D01*
G01*
X170423600Y-79541600D01*
G75*
G02*
X170173600Y-79291600I0J250000D01*
G01*
X170173600Y-78391600D01*
G75*
G02*
X170423600Y-78141600I250000J0D01*
G01*
X171123600Y-78141600D01*
G75*
G02*
X171373600Y-78391600I0J-250000D01*
G01*
G37*
G04 #@! TD.AperFunction*
G04 #@! TA.AperFunction,SMDPad,CuDef*
G36*
G01*
X169373600Y-78391600D02*
X169373600Y-79291600D01*
G75*
G02*
X169123600Y-79541600I-250000J0D01*
G01*
X168423600Y-79541600D01*
G75*
G02*
X168173600Y-79291600I0J250000D01*
G01*
X168173600Y-78391600D01*
G75*
G02*
X168423600Y-78141600I250000J0D01*
G01*
X169123600Y-78141600D01*
G75*
G02*
X169373600Y-78391600I0J-250000D01*
G01*
G37*
G04 #@! TD.AperFunction*
G04 #@! TA.AperFunction,SMDPad,CuDef*
G36*
G01*
X137726000Y-90179600D02*
X138626000Y-90179600D01*
G75*
G02*
X138876000Y-90429600I0J-250000D01*
G01*
X138876000Y-91129600D01*
G75*
G02*
X138626000Y-91379600I-250000J0D01*
G01*
X137726000Y-91379600D01*
G75*
G02*
X137476000Y-91129600I0J250000D01*
G01*
X137476000Y-90429600D01*
G75*
G02*
X137726000Y-90179600I250000J0D01*
G01*
G37*
G04 #@! TD.AperFunction*
G04 #@! TA.AperFunction,SMDPad,CuDef*
G36*
G01*
X137726000Y-92179600D02*
X138626000Y-92179600D01*
G75*
G02*
X138876000Y-92429600I0J-250000D01*
G01*
X138876000Y-93129600D01*
G75*
G02*
X138626000Y-93379600I-250000J0D01*
G01*
X137726000Y-93379600D01*
G75*
G02*
X137476000Y-93129600I0J250000D01*
G01*
X137476000Y-92429600D01*
G75*
G02*
X137726000Y-92179600I250000J0D01*
G01*
G37*
G04 #@! TD.AperFunction*
G04 #@! TA.AperFunction,SMDPad,CuDef*
G36*
G01*
X171272000Y-104553600D02*
X171272000Y-105453600D01*
G75*
G02*
X171022000Y-105703600I-250000J0D01*
G01*
X170322000Y-105703600D01*
G75*
G02*
X170072000Y-105453600I0J250000D01*
G01*
X170072000Y-104553600D01*
G75*
G02*
X170322000Y-104303600I250000J0D01*
G01*
X171022000Y-104303600D01*
G75*
G02*
X171272000Y-104553600I0J-250000D01*
G01*
G37*
G04 #@! TD.AperFunction*
G04 #@! TA.AperFunction,SMDPad,CuDef*
G36*
G01*
X169272000Y-104553600D02*
X169272000Y-105453600D01*
G75*
G02*
X169022000Y-105703600I-250000J0D01*
G01*
X168322000Y-105703600D01*
G75*
G02*
X168072000Y-105453600I0J250000D01*
G01*
X168072000Y-104553600D01*
G75*
G02*
X168322000Y-104303600I250000J0D01*
G01*
X169022000Y-104303600D01*
G75*
G02*
X169272000Y-104553600I0J-250000D01*
G01*
G37*
G04 #@! TD.AperFunction*
G04 #@! TA.AperFunction,SMDPad,CuDef*
G36*
G01*
X129866500Y-129633800D02*
X129866500Y-129933800D01*
G75*
G02*
X129716500Y-130083800I-150000J0D01*
G01*
X128541500Y-130083800D01*
G75*
G02*
X128391500Y-129933800I0J150000D01*
G01*
X128391500Y-129633800D01*
G75*
G02*
X128541500Y-129483800I150000J0D01*
G01*
X129716500Y-129483800D01*
G75*
G02*
X129866500Y-129633800I0J-150000D01*
G01*
G37*
G04 #@! TD.AperFunction*
G04 #@! TA.AperFunction,SMDPad,CuDef*
G36*
G01*
X129866500Y-131533800D02*
X129866500Y-131833800D01*
G75*
G02*
X129716500Y-131983800I-150000J0D01*
G01*
X128541500Y-131983800D01*
G75*
G02*
X128391500Y-131833800I0J150000D01*
G01*
X128391500Y-131533800D01*
G75*
G02*
X128541500Y-131383800I150000J0D01*
G01*
X129716500Y-131383800D01*
G75*
G02*
X129866500Y-131533800I0J-150000D01*
G01*
G37*
G04 #@! TD.AperFunction*
G04 #@! TA.AperFunction,SMDPad,CuDef*
G36*
G01*
X127991500Y-130583800D02*
X127991500Y-130883800D01*
G75*
G02*
X127841500Y-131033800I-150000J0D01*
G01*
X126666500Y-131033800D01*
G75*
G02*
X126516500Y-130883800I0J150000D01*
G01*
X126516500Y-130583800D01*
G75*
G02*
X126666500Y-130433800I150000J0D01*
G01*
X127841500Y-130433800D01*
G75*
G02*
X127991500Y-130583800I0J-150000D01*
G01*
G37*
G04 #@! TD.AperFunction*
G04 #@! TA.AperFunction,SMDPad,CuDef*
G36*
G01*
X137054500Y-101499000D02*
X138004500Y-101499000D01*
G75*
G02*
X138254500Y-101749000I0J-250000D01*
G01*
X138254500Y-102424000D01*
G75*
G02*
X138004500Y-102674000I-250000J0D01*
G01*
X137054500Y-102674000D01*
G75*
G02*
X136804500Y-102424000I0J250000D01*
G01*
X136804500Y-101749000D01*
G75*
G02*
X137054500Y-101499000I250000J0D01*
G01*
G37*
G04 #@! TD.AperFunction*
G04 #@! TA.AperFunction,SMDPad,CuDef*
G36*
G01*
X137054500Y-103574000D02*
X138004500Y-103574000D01*
G75*
G02*
X138254500Y-103824000I0J-250000D01*
G01*
X138254500Y-104499000D01*
G75*
G02*
X138004500Y-104749000I-250000J0D01*
G01*
X137054500Y-104749000D01*
G75*
G02*
X136804500Y-104499000I0J250000D01*
G01*
X136804500Y-103824000D01*
G75*
G02*
X137054500Y-103574000I250000J0D01*
G01*
G37*
G04 #@! TD.AperFunction*
G04 #@! TA.AperFunction,SMDPad,CuDef*
G36*
G01*
X135617800Y-82051600D02*
X136517800Y-82051600D01*
G75*
G02*
X136767800Y-82301600I0J-250000D01*
G01*
X136767800Y-83001600D01*
G75*
G02*
X136517800Y-83251600I-250000J0D01*
G01*
X135617800Y-83251600D01*
G75*
G02*
X135367800Y-83001600I0J250000D01*
G01*
X135367800Y-82301600D01*
G75*
G02*
X135617800Y-82051600I250000J0D01*
G01*
G37*
G04 #@! TD.AperFunction*
G04 #@! TA.AperFunction,SMDPad,CuDef*
G36*
G01*
X135617800Y-84051600D02*
X136517800Y-84051600D01*
G75*
G02*
X136767800Y-84301600I0J-250000D01*
G01*
X136767800Y-85001600D01*
G75*
G02*
X136517800Y-85251600I-250000J0D01*
G01*
X135617800Y-85251600D01*
G75*
G02*
X135367800Y-85001600I0J250000D01*
G01*
X135367800Y-84301600D01*
G75*
G02*
X135617800Y-84051600I250000J0D01*
G01*
G37*
G04 #@! TD.AperFunction*
D15*
X133553200Y-87122000D03*
D16*
X133553200Y-79502000D03*
G04 #@! TA.AperFunction,SMDPad,CuDef*
G36*
G01*
X139209400Y-77528000D02*
X139209400Y-78428000D01*
G75*
G02*
X138959400Y-78678000I-250000J0D01*
G01*
X138259400Y-78678000D01*
G75*
G02*
X138009400Y-78428000I0J250000D01*
G01*
X138009400Y-77528000D01*
G75*
G02*
X138259400Y-77278000I250000J0D01*
G01*
X138959400Y-77278000D01*
G75*
G02*
X139209400Y-77528000I0J-250000D01*
G01*
G37*
G04 #@! TD.AperFunction*
G04 #@! TA.AperFunction,SMDPad,CuDef*
G36*
G01*
X137209400Y-77528000D02*
X137209400Y-78428000D01*
G75*
G02*
X136959400Y-78678000I-250000J0D01*
G01*
X136259400Y-78678000D01*
G75*
G02*
X136009400Y-78428000I0J250000D01*
G01*
X136009400Y-77528000D01*
G75*
G02*
X136259400Y-77278000I250000J0D01*
G01*
X136959400Y-77278000D01*
G75*
G02*
X137209400Y-77528000I0J-250000D01*
G01*
G37*
G04 #@! TD.AperFunction*
D17*
X158490000Y-84344000D03*
X161030000Y-84344000D03*
X163570000Y-84344000D03*
X166110000Y-84344000D03*
X171190000Y-84344000D03*
X168650000Y-84344000D03*
X176270000Y-101584000D03*
X176270000Y-84344000D03*
X173730000Y-101584000D03*
X171190000Y-101584000D03*
X168650000Y-101584000D03*
X166110000Y-101584000D03*
X163570000Y-101584000D03*
X161030000Y-101584000D03*
X158490000Y-101584000D03*
X173730000Y-84344000D03*
G04 #@! TA.AperFunction,SMDPad,CuDef*
G36*
G01*
X131081500Y-124325800D02*
X131981500Y-124325800D01*
G75*
G02*
X132231500Y-124575800I0J-250000D01*
G01*
X132231500Y-125275800D01*
G75*
G02*
X131981500Y-125525800I-250000J0D01*
G01*
X131081500Y-125525800D01*
G75*
G02*
X130831500Y-125275800I0J250000D01*
G01*
X130831500Y-124575800D01*
G75*
G02*
X131081500Y-124325800I250000J0D01*
G01*
G37*
G04 #@! TD.AperFunction*
G04 #@! TA.AperFunction,SMDPad,CuDef*
G36*
G01*
X131081500Y-126325800D02*
X131981500Y-126325800D01*
G75*
G02*
X132231500Y-126575800I0J-250000D01*
G01*
X132231500Y-127275800D01*
G75*
G02*
X131981500Y-127525800I-250000J0D01*
G01*
X131081500Y-127525800D01*
G75*
G02*
X130831500Y-127275800I0J250000D01*
G01*
X130831500Y-126575800D01*
G75*
G02*
X131081500Y-126325800I250000J0D01*
G01*
G37*
G04 #@! TD.AperFunction*
G04 #@! TA.AperFunction,SMDPad,CuDef*
G36*
G01*
X128023200Y-87401600D02*
X128923200Y-87401600D01*
G75*
G02*
X129173200Y-87651600I0J-250000D01*
G01*
X129173200Y-88351600D01*
G75*
G02*
X128923200Y-88601600I-250000J0D01*
G01*
X128023200Y-88601600D01*
G75*
G02*
X127773200Y-88351600I0J250000D01*
G01*
X127773200Y-87651600D01*
G75*
G02*
X128023200Y-87401600I250000J0D01*
G01*
G37*
G04 #@! TD.AperFunction*
G04 #@! TA.AperFunction,SMDPad,CuDef*
G36*
G01*
X128023200Y-89401600D02*
X128923200Y-89401600D01*
G75*
G02*
X129173200Y-89651600I0J-250000D01*
G01*
X129173200Y-90351600D01*
G75*
G02*
X128923200Y-90601600I-250000J0D01*
G01*
X128023200Y-90601600D01*
G75*
G02*
X127773200Y-90351600I0J250000D01*
G01*
X127773200Y-89651600D01*
G75*
G02*
X128023200Y-89401600I250000J0D01*
G01*
G37*
G04 #@! TD.AperFunction*
G04 #@! TA.AperFunction,SMDPad,CuDef*
G36*
G01*
X127151000Y-87850800D02*
X127151000Y-88150800D01*
G75*
G02*
X127001000Y-88300800I-150000J0D01*
G01*
X125826000Y-88300800D01*
G75*
G02*
X125676000Y-88150800I0J150000D01*
G01*
X125676000Y-87850800D01*
G75*
G02*
X125826000Y-87700800I150000J0D01*
G01*
X127001000Y-87700800D01*
G75*
G02*
X127151000Y-87850800I0J-150000D01*
G01*
G37*
G04 #@! TD.AperFunction*
G04 #@! TA.AperFunction,SMDPad,CuDef*
G36*
G01*
X127151000Y-89750800D02*
X127151000Y-90050800D01*
G75*
G02*
X127001000Y-90200800I-150000J0D01*
G01*
X125826000Y-90200800D01*
G75*
G02*
X125676000Y-90050800I0J150000D01*
G01*
X125676000Y-89750800D01*
G75*
G02*
X125826000Y-89600800I150000J0D01*
G01*
X127001000Y-89600800D01*
G75*
G02*
X127151000Y-89750800I0J-150000D01*
G01*
G37*
G04 #@! TD.AperFunction*
G04 #@! TA.AperFunction,SMDPad,CuDef*
G36*
G01*
X125276000Y-88800800D02*
X125276000Y-89100800D01*
G75*
G02*
X125126000Y-89250800I-150000J0D01*
G01*
X123951000Y-89250800D01*
G75*
G02*
X123801000Y-89100800I0J150000D01*
G01*
X123801000Y-88800800D01*
G75*
G02*
X123951000Y-88650800I150000J0D01*
G01*
X125126000Y-88650800D01*
G75*
G02*
X125276000Y-88800800I0J-150000D01*
G01*
G37*
G04 #@! TD.AperFunction*
G04 #@! TA.AperFunction,SMDPad,CuDef*
G36*
G01*
X130607000Y-132834800D02*
X130607000Y-131934800D01*
G75*
G02*
X130857000Y-131684800I250000J0D01*
G01*
X131557000Y-131684800D01*
G75*
G02*
X131807000Y-131934800I0J-250000D01*
G01*
X131807000Y-132834800D01*
G75*
G02*
X131557000Y-133084800I-250000J0D01*
G01*
X130857000Y-133084800D01*
G75*
G02*
X130607000Y-132834800I0J250000D01*
G01*
G37*
G04 #@! TD.AperFunction*
G04 #@! TA.AperFunction,SMDPad,CuDef*
G36*
G01*
X132607000Y-132834800D02*
X132607000Y-131934800D01*
G75*
G02*
X132857000Y-131684800I250000J0D01*
G01*
X133557000Y-131684800D01*
G75*
G02*
X133807000Y-131934800I0J-250000D01*
G01*
X133807000Y-132834800D01*
G75*
G02*
X133557000Y-133084800I-250000J0D01*
G01*
X132857000Y-133084800D01*
G75*
G02*
X132607000Y-132834800I0J250000D01*
G01*
G37*
G04 #@! TD.AperFunction*
D18*
X132732600Y-74015600D03*
X135272600Y-74015600D03*
X137812600Y-74015600D03*
G04 #@! TA.AperFunction,SMDPad,CuDef*
G36*
G01*
X163500000Y-105453600D02*
X163500000Y-104553600D01*
G75*
G02*
X163750000Y-104303600I250000J0D01*
G01*
X164450000Y-104303600D01*
G75*
G02*
X164700000Y-104553600I0J-250000D01*
G01*
X164700000Y-105453600D01*
G75*
G02*
X164450000Y-105703600I-250000J0D01*
G01*
X163750000Y-105703600D01*
G75*
G02*
X163500000Y-105453600I0J250000D01*
G01*
G37*
G04 #@! TD.AperFunction*
G04 #@! TA.AperFunction,SMDPad,CuDef*
G36*
G01*
X165500000Y-105453600D02*
X165500000Y-104553600D01*
G75*
G02*
X165750000Y-104303600I250000J0D01*
G01*
X166450000Y-104303600D01*
G75*
G02*
X166700000Y-104553600I0J-250000D01*
G01*
X166700000Y-105453600D01*
G75*
G02*
X166450000Y-105703600I-250000J0D01*
G01*
X165750000Y-105703600D01*
G75*
G02*
X165500000Y-105453600I0J250000D01*
G01*
G37*
G04 #@! TD.AperFunction*
G04 #@! TA.AperFunction,SMDPad,CuDef*
G36*
G01*
X146037400Y-81125200D02*
X146037400Y-80825200D01*
G75*
G02*
X146187400Y-80675200I150000J0D01*
G01*
X147937400Y-80675200D01*
G75*
G02*
X148087400Y-80825200I0J-150000D01*
G01*
X148087400Y-81125200D01*
G75*
G02*
X147937400Y-81275200I-150000J0D01*
G01*
X146187400Y-81275200D01*
G75*
G02*
X146037400Y-81125200I0J150000D01*
G01*
G37*
G04 #@! TD.AperFunction*
G04 #@! TA.AperFunction,SMDPad,CuDef*
G36*
G01*
X146037400Y-79855200D02*
X146037400Y-79555200D01*
G75*
G02*
X146187400Y-79405200I150000J0D01*
G01*
X147937400Y-79405200D01*
G75*
G02*
X148087400Y-79555200I0J-150000D01*
G01*
X148087400Y-79855200D01*
G75*
G02*
X147937400Y-80005200I-150000J0D01*
G01*
X146187400Y-80005200D01*
G75*
G02*
X146037400Y-79855200I0J150000D01*
G01*
G37*
G04 #@! TD.AperFunction*
G04 #@! TA.AperFunction,SMDPad,CuDef*
G36*
G01*
X146037400Y-78585200D02*
X146037400Y-78285200D01*
G75*
G02*
X146187400Y-78135200I150000J0D01*
G01*
X147937400Y-78135200D01*
G75*
G02*
X148087400Y-78285200I0J-150000D01*
G01*
X148087400Y-78585200D01*
G75*
G02*
X147937400Y-78735200I-150000J0D01*
G01*
X146187400Y-78735200D01*
G75*
G02*
X146037400Y-78585200I0J150000D01*
G01*
G37*
G04 #@! TD.AperFunction*
G04 #@! TA.AperFunction,SMDPad,CuDef*
G36*
G01*
X146037400Y-77315200D02*
X146037400Y-77015200D01*
G75*
G02*
X146187400Y-76865200I150000J0D01*
G01*
X147937400Y-76865200D01*
G75*
G02*
X148087400Y-77015200I0J-150000D01*
G01*
X148087400Y-77315200D01*
G75*
G02*
X147937400Y-77465200I-150000J0D01*
G01*
X146187400Y-77465200D01*
G75*
G02*
X146037400Y-77315200I0J150000D01*
G01*
G37*
G04 #@! TD.AperFunction*
G04 #@! TA.AperFunction,SMDPad,CuDef*
G36*
G01*
X146037400Y-76045200D02*
X146037400Y-75745200D01*
G75*
G02*
X146187400Y-75595200I150000J0D01*
G01*
X147937400Y-75595200D01*
G75*
G02*
X148087400Y-75745200I0J-150000D01*
G01*
X148087400Y-76045200D01*
G75*
G02*
X147937400Y-76195200I-150000J0D01*
G01*
X146187400Y-76195200D01*
G75*
G02*
X146037400Y-76045200I0J150000D01*
G01*
G37*
G04 #@! TD.AperFunction*
G04 #@! TA.AperFunction,SMDPad,CuDef*
G36*
G01*
X146037400Y-74775200D02*
X146037400Y-74475200D01*
G75*
G02*
X146187400Y-74325200I150000J0D01*
G01*
X147937400Y-74325200D01*
G75*
G02*
X148087400Y-74475200I0J-150000D01*
G01*
X148087400Y-74775200D01*
G75*
G02*
X147937400Y-74925200I-150000J0D01*
G01*
X146187400Y-74925200D01*
G75*
G02*
X146037400Y-74775200I0J150000D01*
G01*
G37*
G04 #@! TD.AperFunction*
G04 #@! TA.AperFunction,SMDPad,CuDef*
G36*
G01*
X146037400Y-73505200D02*
X146037400Y-73205200D01*
G75*
G02*
X146187400Y-73055200I150000J0D01*
G01*
X147937400Y-73055200D01*
G75*
G02*
X148087400Y-73205200I0J-150000D01*
G01*
X148087400Y-73505200D01*
G75*
G02*
X147937400Y-73655200I-150000J0D01*
G01*
X146187400Y-73655200D01*
G75*
G02*
X146037400Y-73505200I0J150000D01*
G01*
G37*
G04 #@! TD.AperFunction*
G04 #@! TA.AperFunction,SMDPad,CuDef*
G36*
G01*
X146037400Y-72235200D02*
X146037400Y-71935200D01*
G75*
G02*
X146187400Y-71785200I150000J0D01*
G01*
X147937400Y-71785200D01*
G75*
G02*
X148087400Y-71935200I0J-150000D01*
G01*
X148087400Y-72235200D01*
G75*
G02*
X147937400Y-72385200I-150000J0D01*
G01*
X146187400Y-72385200D01*
G75*
G02*
X146037400Y-72235200I0J150000D01*
G01*
G37*
G04 #@! TD.AperFunction*
G04 #@! TA.AperFunction,SMDPad,CuDef*
G36*
G01*
X155337400Y-72235200D02*
X155337400Y-71935200D01*
G75*
G02*
X155487400Y-71785200I150000J0D01*
G01*
X157237400Y-71785200D01*
G75*
G02*
X157387400Y-71935200I0J-150000D01*
G01*
X157387400Y-72235200D01*
G75*
G02*
X157237400Y-72385200I-150000J0D01*
G01*
X155487400Y-72385200D01*
G75*
G02*
X155337400Y-72235200I0J150000D01*
G01*
G37*
G04 #@! TD.AperFunction*
G04 #@! TA.AperFunction,SMDPad,CuDef*
G36*
G01*
X155337400Y-73505200D02*
X155337400Y-73205200D01*
G75*
G02*
X155487400Y-73055200I150000J0D01*
G01*
X157237400Y-73055200D01*
G75*
G02*
X157387400Y-73205200I0J-150000D01*
G01*
X157387400Y-73505200D01*
G75*
G02*
X157237400Y-73655200I-150000J0D01*
G01*
X155487400Y-73655200D01*
G75*
G02*
X155337400Y-73505200I0J150000D01*
G01*
G37*
G04 #@! TD.AperFunction*
G04 #@! TA.AperFunction,SMDPad,CuDef*
G36*
G01*
X155337400Y-74775200D02*
X155337400Y-74475200D01*
G75*
G02*
X155487400Y-74325200I150000J0D01*
G01*
X157237400Y-74325200D01*
G75*
G02*
X157387400Y-74475200I0J-150000D01*
G01*
X157387400Y-74775200D01*
G75*
G02*
X157237400Y-74925200I-150000J0D01*
G01*
X155487400Y-74925200D01*
G75*
G02*
X155337400Y-74775200I0J150000D01*
G01*
G37*
G04 #@! TD.AperFunction*
G04 #@! TA.AperFunction,SMDPad,CuDef*
G36*
G01*
X155337400Y-76045200D02*
X155337400Y-75745200D01*
G75*
G02*
X155487400Y-75595200I150000J0D01*
G01*
X157237400Y-75595200D01*
G75*
G02*
X157387400Y-75745200I0J-150000D01*
G01*
X157387400Y-76045200D01*
G75*
G02*
X157237400Y-76195200I-150000J0D01*
G01*
X155487400Y-76195200D01*
G75*
G02*
X155337400Y-76045200I0J150000D01*
G01*
G37*
G04 #@! TD.AperFunction*
G04 #@! TA.AperFunction,SMDPad,CuDef*
G36*
G01*
X155337400Y-77315200D02*
X155337400Y-77015200D01*
G75*
G02*
X155487400Y-76865200I150000J0D01*
G01*
X157237400Y-76865200D01*
G75*
G02*
X157387400Y-77015200I0J-150000D01*
G01*
X157387400Y-77315200D01*
G75*
G02*
X157237400Y-77465200I-150000J0D01*
G01*
X155487400Y-77465200D01*
G75*
G02*
X155337400Y-77315200I0J150000D01*
G01*
G37*
G04 #@! TD.AperFunction*
G04 #@! TA.AperFunction,SMDPad,CuDef*
G36*
G01*
X155337400Y-78585200D02*
X155337400Y-78285200D01*
G75*
G02*
X155487400Y-78135200I150000J0D01*
G01*
X157237400Y-78135200D01*
G75*
G02*
X157387400Y-78285200I0J-150000D01*
G01*
X157387400Y-78585200D01*
G75*
G02*
X157237400Y-78735200I-150000J0D01*
G01*
X155487400Y-78735200D01*
G75*
G02*
X155337400Y-78585200I0J150000D01*
G01*
G37*
G04 #@! TD.AperFunction*
G04 #@! TA.AperFunction,SMDPad,CuDef*
G36*
G01*
X155337400Y-79855200D02*
X155337400Y-79555200D01*
G75*
G02*
X155487400Y-79405200I150000J0D01*
G01*
X157237400Y-79405200D01*
G75*
G02*
X157387400Y-79555200I0J-150000D01*
G01*
X157387400Y-79855200D01*
G75*
G02*
X157237400Y-80005200I-150000J0D01*
G01*
X155487400Y-80005200D01*
G75*
G02*
X155337400Y-79855200I0J150000D01*
G01*
G37*
G04 #@! TD.AperFunction*
G04 #@! TA.AperFunction,SMDPad,CuDef*
G36*
G01*
X155337400Y-81125200D02*
X155337400Y-80825200D01*
G75*
G02*
X155487400Y-80675200I150000J0D01*
G01*
X157237400Y-80675200D01*
G75*
G02*
X157387400Y-80825200I0J-150000D01*
G01*
X157387400Y-81125200D01*
G75*
G02*
X157237400Y-81275200I-150000J0D01*
G01*
X155487400Y-81275200D01*
G75*
G02*
X155337400Y-81125200I0J150000D01*
G01*
G37*
G04 #@! TD.AperFunction*
G04 #@! TA.AperFunction,SMDPad,CuDef*
G36*
G01*
X138626000Y-85251600D02*
X137726000Y-85251600D01*
G75*
G02*
X137476000Y-85001600I0J250000D01*
G01*
X137476000Y-84301600D01*
G75*
G02*
X137726000Y-84051600I250000J0D01*
G01*
X138626000Y-84051600D01*
G75*
G02*
X138876000Y-84301600I0J-250000D01*
G01*
X138876000Y-85001600D01*
G75*
G02*
X138626000Y-85251600I-250000J0D01*
G01*
G37*
G04 #@! TD.AperFunction*
G04 #@! TA.AperFunction,SMDPad,CuDef*
G36*
G01*
X138626000Y-83251600D02*
X137726000Y-83251600D01*
G75*
G02*
X137476000Y-83001600I0J250000D01*
G01*
X137476000Y-82301600D01*
G75*
G02*
X137726000Y-82051600I250000J0D01*
G01*
X138626000Y-82051600D01*
G75*
G02*
X138876000Y-82301600I0J-250000D01*
G01*
X138876000Y-83001600D01*
G75*
G02*
X138626000Y-83251600I-250000J0D01*
G01*
G37*
G04 #@! TD.AperFunction*
G04 #@! TA.AperFunction,SMDPad,CuDef*
G36*
G01*
X145997600Y-83533400D02*
X145997600Y-82633400D01*
G75*
G02*
X146247600Y-82383400I250000J0D01*
G01*
X146947600Y-82383400D01*
G75*
G02*
X147197600Y-82633400I0J-250000D01*
G01*
X147197600Y-83533400D01*
G75*
G02*
X146947600Y-83783400I-250000J0D01*
G01*
X146247600Y-83783400D01*
G75*
G02*
X145997600Y-83533400I0J250000D01*
G01*
G37*
G04 #@! TD.AperFunction*
G04 #@! TA.AperFunction,SMDPad,CuDef*
G36*
G01*
X147997600Y-83533400D02*
X147997600Y-82633400D01*
G75*
G02*
X148247600Y-82383400I250000J0D01*
G01*
X148947600Y-82383400D01*
G75*
G02*
X149197600Y-82633400I0J-250000D01*
G01*
X149197600Y-83533400D01*
G75*
G02*
X148947600Y-83783400I-250000J0D01*
G01*
X148247600Y-83783400D01*
G75*
G02*
X147997600Y-83533400I0J250000D01*
G01*
G37*
G04 #@! TD.AperFunction*
G04 #@! TA.AperFunction,SMDPad,CuDef*
G36*
G01*
X136517800Y-93379600D02*
X135617800Y-93379600D01*
G75*
G02*
X135367800Y-93129600I0J250000D01*
G01*
X135367800Y-92429600D01*
G75*
G02*
X135617800Y-92179600I250000J0D01*
G01*
X136517800Y-92179600D01*
G75*
G02*
X136767800Y-92429600I0J-250000D01*
G01*
X136767800Y-93129600D01*
G75*
G02*
X136517800Y-93379600I-250000J0D01*
G01*
G37*
G04 #@! TD.AperFunction*
G04 #@! TA.AperFunction,SMDPad,CuDef*
G36*
G01*
X136517800Y-91379600D02*
X135617800Y-91379600D01*
G75*
G02*
X135367800Y-91129600I0J250000D01*
G01*
X135367800Y-90429600D01*
G75*
G02*
X135617800Y-90179600I250000J0D01*
G01*
X136517800Y-90179600D01*
G75*
G02*
X136767800Y-90429600I0J-250000D01*
G01*
X136767800Y-91129600D01*
G75*
G02*
X136517800Y-91379600I-250000J0D01*
G01*
G37*
G04 #@! TD.AperFunction*
G04 #@! TA.AperFunction,SMDPad,CuDef*
G36*
G01*
X128781500Y-124325800D02*
X129681500Y-124325800D01*
G75*
G02*
X129931500Y-124575800I0J-250000D01*
G01*
X129931500Y-125275800D01*
G75*
G02*
X129681500Y-125525800I-250000J0D01*
G01*
X128781500Y-125525800D01*
G75*
G02*
X128531500Y-125275800I0J250000D01*
G01*
X128531500Y-124575800D01*
G75*
G02*
X128781500Y-124325800I250000J0D01*
G01*
G37*
G04 #@! TD.AperFunction*
G04 #@! TA.AperFunction,SMDPad,CuDef*
G36*
G01*
X128781500Y-126325800D02*
X129681500Y-126325800D01*
G75*
G02*
X129931500Y-126575800I0J-250000D01*
G01*
X129931500Y-127275800D01*
G75*
G02*
X129681500Y-127525800I-250000J0D01*
G01*
X128781500Y-127525800D01*
G75*
G02*
X128531500Y-127275800I0J250000D01*
G01*
X128531500Y-126575800D01*
G75*
G02*
X128781500Y-126325800I250000J0D01*
G01*
G37*
G04 #@! TD.AperFunction*
D13*
X145224000Y-123473200D03*
D14*
X148724000Y-128473200D03*
G04 #@! TA.AperFunction,SMDPad,CuDef*
G36*
G01*
X122950000Y-91962500D02*
X121650000Y-91962500D01*
G75*
G02*
X121400000Y-91712500I0J250000D01*
G01*
X121400000Y-90887500D01*
G75*
G02*
X121650000Y-90637500I250000J0D01*
G01*
X122950000Y-90637500D01*
G75*
G02*
X123200000Y-90887500I0J-250000D01*
G01*
X123200000Y-91712500D01*
G75*
G02*
X122950000Y-91962500I-250000J0D01*
G01*
G37*
G04 #@! TD.AperFunction*
G04 #@! TA.AperFunction,SMDPad,CuDef*
G36*
G01*
X122950000Y-88837500D02*
X121650000Y-88837500D01*
G75*
G02*
X121400000Y-88587500I0J250000D01*
G01*
X121400000Y-87762500D01*
G75*
G02*
X121650000Y-87512500I250000J0D01*
G01*
X122950000Y-87512500D01*
G75*
G02*
X123200000Y-87762500I0J-250000D01*
G01*
X123200000Y-88587500D01*
G75*
G02*
X122950000Y-88837500I-250000J0D01*
G01*
G37*
G04 #@! TD.AperFunction*
G04 #@! TA.AperFunction,SMDPad,CuDef*
G36*
G01*
X130607000Y-130294800D02*
X130607000Y-129394800D01*
G75*
G02*
X130857000Y-129144800I250000J0D01*
G01*
X131557000Y-129144800D01*
G75*
G02*
X131807000Y-129394800I0J-250000D01*
G01*
X131807000Y-130294800D01*
G75*
G02*
X131557000Y-130544800I-250000J0D01*
G01*
X130857000Y-130544800D01*
G75*
G02*
X130607000Y-130294800I0J250000D01*
G01*
G37*
G04 #@! TD.AperFunction*
G04 #@! TA.AperFunction,SMDPad,CuDef*
G36*
G01*
X132607000Y-130294800D02*
X132607000Y-129394800D01*
G75*
G02*
X132857000Y-129144800I250000J0D01*
G01*
X133557000Y-129144800D01*
G75*
G02*
X133807000Y-129394800I0J-250000D01*
G01*
X133807000Y-130294800D01*
G75*
G02*
X133557000Y-130544800I-250000J0D01*
G01*
X132857000Y-130544800D01*
G75*
G02*
X132607000Y-130294800I0J250000D01*
G01*
G37*
G04 #@! TD.AperFunction*
G04 #@! TA.AperFunction,ComponentPad*
G36*
G01*
X172567000Y-112130000D02*
X175667000Y-112130000D01*
G75*
G02*
X175917000Y-112380000I0J-250000D01*
G01*
X175917000Y-113680000D01*
G75*
G02*
X175667000Y-113930000I-250000J0D01*
G01*
X172567000Y-113930000D01*
G75*
G02*
X172317000Y-113680000I0J250000D01*
G01*
X172317000Y-112380000D01*
G75*
G02*
X172567000Y-112130000I250000J0D01*
G01*
G37*
G04 #@! TD.AperFunction*
D19*
X174117000Y-116530000D03*
G04 #@! TA.AperFunction,SMDPad,CuDef*
G36*
G01*
X138626000Y-89315600D02*
X137726000Y-89315600D01*
G75*
G02*
X137476000Y-89065600I0J250000D01*
G01*
X137476000Y-88365600D01*
G75*
G02*
X137726000Y-88115600I250000J0D01*
G01*
X138626000Y-88115600D01*
G75*
G02*
X138876000Y-88365600I0J-250000D01*
G01*
X138876000Y-89065600D01*
G75*
G02*
X138626000Y-89315600I-250000J0D01*
G01*
G37*
G04 #@! TD.AperFunction*
G04 #@! TA.AperFunction,SMDPad,CuDef*
G36*
G01*
X138626000Y-87315600D02*
X137726000Y-87315600D01*
G75*
G02*
X137476000Y-87065600I0J250000D01*
G01*
X137476000Y-86365600D01*
G75*
G02*
X137726000Y-86115600I250000J0D01*
G01*
X138626000Y-86115600D01*
G75*
G02*
X138876000Y-86365600I0J-250000D01*
G01*
X138876000Y-87065600D01*
G75*
G02*
X138626000Y-87315600I-250000J0D01*
G01*
G37*
G04 #@! TD.AperFunction*
G04 #@! TA.AperFunction,SMDPad,CuDef*
G36*
G01*
X126850000Y-99425000D02*
X125550000Y-99425000D01*
G75*
G02*
X125300000Y-99175000I0J250000D01*
G01*
X125300000Y-98350000D01*
G75*
G02*
X125550000Y-98100000I250000J0D01*
G01*
X126850000Y-98100000D01*
G75*
G02*
X127100000Y-98350000I0J-250000D01*
G01*
X127100000Y-99175000D01*
G75*
G02*
X126850000Y-99425000I-250000J0D01*
G01*
G37*
G04 #@! TD.AperFunction*
G04 #@! TA.AperFunction,SMDPad,CuDef*
G36*
G01*
X126850000Y-96300000D02*
X125550000Y-96300000D01*
G75*
G02*
X125300000Y-96050000I0J250000D01*
G01*
X125300000Y-95225000D01*
G75*
G02*
X125550000Y-94975000I250000J0D01*
G01*
X126850000Y-94975000D01*
G75*
G02*
X127100000Y-95225000I0J-250000D01*
G01*
X127100000Y-96050000D01*
G75*
G02*
X126850000Y-96300000I-250000J0D01*
G01*
G37*
G04 #@! TD.AperFunction*
G04 #@! TA.AperFunction,SMDPad,CuDef*
G36*
G01*
X127740700Y-104732200D02*
X127740700Y-103982200D01*
G75*
G02*
X128115700Y-103607200I375000J0D01*
G01*
X129365700Y-103607200D01*
G75*
G02*
X129740700Y-103982200I0J-375000D01*
G01*
X129740700Y-104732200D01*
G75*
G02*
X129365700Y-105107200I-375000J0D01*
G01*
X128115700Y-105107200D01*
G75*
G02*
X127740700Y-104732200I0J375000D01*
G01*
G37*
G04 #@! TD.AperFunction*
G04 #@! TA.AperFunction,SMDPad,CuDef*
G36*
G01*
X127740700Y-102432200D02*
X127740700Y-101682200D01*
G75*
G02*
X128115700Y-101307200I375000J0D01*
G01*
X129365700Y-101307200D01*
G75*
G02*
X129740700Y-101682200I0J-375000D01*
G01*
X129740700Y-102432200D01*
G75*
G02*
X129365700Y-102807200I-375000J0D01*
G01*
X128115700Y-102807200D01*
G75*
G02*
X127740700Y-102432200I0J375000D01*
G01*
G37*
G04 #@! TD.AperFunction*
G04 #@! TA.AperFunction,SMDPad,CuDef*
G36*
G01*
X134040700Y-103457200D02*
X134040700Y-100657200D01*
G75*
G02*
X134540700Y-100157200I500000J0D01*
G01*
X135540700Y-100157200D01*
G75*
G02*
X136040700Y-100657200I0J-500000D01*
G01*
X136040700Y-103457200D01*
G75*
G02*
X135540700Y-103957200I-500000J0D01*
G01*
X134540700Y-103957200D01*
G75*
G02*
X134040700Y-103457200I0J500000D01*
G01*
G37*
G04 #@! TD.AperFunction*
G04 #@! TA.AperFunction,SMDPad,CuDef*
G36*
G01*
X127740700Y-100132200D02*
X127740700Y-99382200D01*
G75*
G02*
X128115700Y-99007200I375000J0D01*
G01*
X129365700Y-99007200D01*
G75*
G02*
X129740700Y-99382200I0J-375000D01*
G01*
X129740700Y-100132200D01*
G75*
G02*
X129365700Y-100507200I-375000J0D01*
G01*
X128115700Y-100507200D01*
G75*
G02*
X127740700Y-100132200I0J375000D01*
G01*
G37*
G04 #@! TD.AperFunction*
G04 #@! TA.AperFunction,SMDPad,CuDef*
G36*
G01*
X130106000Y-87401600D02*
X131006000Y-87401600D01*
G75*
G02*
X131256000Y-87651600I0J-250000D01*
G01*
X131256000Y-88351600D01*
G75*
G02*
X131006000Y-88601600I-250000J0D01*
G01*
X130106000Y-88601600D01*
G75*
G02*
X129856000Y-88351600I0J250000D01*
G01*
X129856000Y-87651600D01*
G75*
G02*
X130106000Y-87401600I250000J0D01*
G01*
G37*
G04 #@! TD.AperFunction*
G04 #@! TA.AperFunction,SMDPad,CuDef*
G36*
G01*
X130106000Y-89401600D02*
X131006000Y-89401600D01*
G75*
G02*
X131256000Y-89651600I0J-250000D01*
G01*
X131256000Y-90351600D01*
G75*
G02*
X131006000Y-90601600I-250000J0D01*
G01*
X130106000Y-90601600D01*
G75*
G02*
X129856000Y-90351600I0J250000D01*
G01*
X129856000Y-89651600D01*
G75*
G02*
X130106000Y-89401600I250000J0D01*
G01*
G37*
G04 #@! TD.AperFunction*
D20*
X176902748Y-104995348D03*
X154787600Y-81026000D03*
X149352000Y-84429600D03*
X160420141Y-80043599D03*
X151638000Y-106375200D03*
X172339000Y-105003600D03*
X162179000Y-105003600D03*
X158998378Y-81026000D03*
X155397200Y-107696000D03*
X158902400Y-112623600D03*
X119500000Y-93200000D03*
X149707600Y-85445600D03*
X151130000Y-77876400D03*
X136245600Y-105562400D03*
X132300000Y-77600000D03*
X158902400Y-111150400D03*
X144605000Y-72300000D03*
X157480000Y-108407200D03*
X145300000Y-72300000D03*
X134569200Y-123342400D03*
X146456400Y-105105200D03*
X171200000Y-76700000D03*
X146456400Y-93878400D03*
X158902400Y-109728000D03*
X128998138Y-106083978D03*
X152527000Y-87884000D03*
X129286000Y-86360000D03*
X157480000Y-111150400D03*
X146456400Y-102108000D03*
X146456400Y-96469200D03*
X143459200Y-95351600D03*
X152527000Y-101346000D03*
X143814800Y-84988400D03*
X143459200Y-107289600D03*
X143459200Y-100990400D03*
X161696400Y-77927200D03*
X135686800Y-97189800D03*
X135331200Y-126492000D03*
X141782800Y-78740000D03*
X146456400Y-99161600D03*
X157480000Y-112623600D03*
X149400000Y-121800000D03*
X140970000Y-111252000D03*
X146456400Y-108407200D03*
X129500000Y-91300000D03*
X163474400Y-108407200D03*
X162001200Y-108407200D03*
X142400000Y-120700000D03*
X119500000Y-92100000D03*
X119500000Y-95700000D03*
X152527000Y-94107000D03*
X139997000Y-78536800D03*
X126800000Y-94200000D03*
X165709600Y-77927200D03*
X133604000Y-126492000D03*
X127000000Y-105100000D03*
X157480000Y-109728000D03*
X136347200Y-123342400D03*
X165862000Y-81026000D03*
X142544800Y-113030000D03*
X162900000Y-71400000D03*
X147878800Y-111252000D03*
X143154400Y-80213200D03*
X141600000Y-122000000D03*
X135280400Y-105613200D03*
X125600000Y-94200000D03*
X143459200Y-103987600D03*
X143459200Y-90170000D03*
X149900000Y-117312200D03*
X140970000Y-87122000D03*
X164322400Y-71400000D03*
X163474400Y-81076800D03*
X131267200Y-77571600D03*
X141020800Y-127101600D03*
X163017200Y-77927200D03*
X140258800Y-123342400D03*
X146456400Y-91287600D03*
X125400000Y-105100000D03*
X119500000Y-90900000D03*
X127300000Y-91300000D03*
X149148800Y-79908400D03*
X143459200Y-92760800D03*
X144605000Y-71600000D03*
X144983200Y-83921600D03*
X162001200Y-109677200D03*
X160426400Y-109677200D03*
X157480000Y-114046000D03*
X122800000Y-92800000D03*
X121900000Y-93700000D03*
X152527000Y-84963000D03*
X149860000Y-113182400D03*
X164236400Y-77927200D03*
X121900000Y-92800000D03*
X123900000Y-91100000D03*
X147800000Y-121800000D03*
X119500000Y-94500000D03*
X131622800Y-86360000D03*
X142875000Y-116459000D03*
X139344400Y-106883200D03*
X125679200Y-74523600D03*
X160426400Y-108407200D03*
X143459200Y-98044000D03*
X140868400Y-90170000D03*
X125679200Y-73507600D03*
X137769600Y-97189800D03*
X160477200Y-77927200D03*
X145300000Y-71600000D03*
X164592000Y-81076800D03*
X162153600Y-81076800D03*
X148894800Y-78943200D03*
X168400000Y-71400000D03*
X165694000Y-71400000D03*
X146500000Y-117300000D03*
X138480800Y-123342400D03*
X148539200Y-86715600D03*
X144780000Y-77419200D03*
X152527000Y-90805000D03*
X139446000Y-109524800D03*
X142494000Y-86233000D03*
X167000000Y-71400000D03*
X158902400Y-108407200D03*
X137109200Y-126492000D03*
X128200000Y-106100000D03*
X145796000Y-127101600D03*
X126200000Y-105100000D03*
X150164800Y-78740000D03*
X152527000Y-97409000D03*
X139700000Y-87122000D03*
X160426400Y-111150400D03*
X139997000Y-77520800D03*
X132842000Y-123342400D03*
X149098000Y-115620800D03*
X148183600Y-114655600D03*
X164465000Y-78968600D03*
X146979658Y-84749658D03*
X167182800Y-78841600D03*
X146886340Y-87247140D03*
X145400000Y-73400000D03*
X139598400Y-81178400D03*
X154315844Y-106316356D03*
X153416000Y-107188000D03*
X134300000Y-129844800D03*
X132283200Y-90001600D03*
D21*
X170672000Y-105003600D02*
X172339000Y-105003600D01*
X154838400Y-80975200D02*
X156362400Y-80975200D01*
X148597600Y-83083400D02*
X148597600Y-83675200D01*
X139954000Y-125780800D02*
X139099000Y-124925800D01*
X154862000Y-108231200D02*
X154862000Y-110718600D01*
X169656000Y-80873600D02*
X171190000Y-82407600D01*
X155397200Y-107696000D02*
X154862000Y-108231200D01*
X170773600Y-78841600D02*
X170773600Y-79756000D01*
X154787600Y-81026000D02*
X154838400Y-80975200D01*
X151638000Y-122377200D02*
X148234400Y-125780800D01*
X148234400Y-125780800D02*
X139954000Y-125780800D01*
X148597600Y-83675200D02*
X149352000Y-84429600D01*
X151638000Y-106375200D02*
X151638000Y-122377200D01*
X176894496Y-105003600D02*
X172339000Y-105003600D01*
X176902748Y-104995348D02*
X176894496Y-105003600D01*
X160420141Y-80043599D02*
X159437740Y-81026000D01*
X159437740Y-81026000D02*
X158998378Y-81026000D01*
X164100000Y-105003600D02*
X162179000Y-105003600D01*
X139099000Y-124925800D02*
X131531500Y-124925800D01*
X171190000Y-82407600D02*
X171190000Y-85344000D01*
X170773600Y-79756000D02*
X169656000Y-80873600D01*
X127254000Y-130733800D02*
X120055800Y-130733800D01*
X126449100Y-89936400D02*
X128408000Y-89936400D01*
X120500000Y-96900000D02*
X120500000Y-82670700D01*
D22*
X141427200Y-108959861D02*
X141427200Y-106019600D01*
D21*
X131331900Y-104634100D02*
X131331900Y-102158800D01*
D22*
X135040700Y-102057200D02*
X137464800Y-102057200D01*
D21*
X129155100Y-74015600D02*
X132732600Y-74015600D01*
D22*
X176270000Y-85344000D02*
X176270000Y-76415000D01*
X176270000Y-76415000D02*
X168930000Y-69075000D01*
D21*
X132732600Y-72252400D02*
X135910000Y-69075000D01*
D22*
X137464800Y-102057200D02*
X141427200Y-106019600D01*
D21*
X131331900Y-102158800D02*
X131433500Y-102057200D01*
X127740700Y-102057200D02*
X127713800Y-102084100D01*
X127695130Y-102084100D02*
X127539230Y-101928200D01*
X129231500Y-124925800D02*
X129231500Y-106734500D01*
D23*
X131433500Y-102057200D02*
X135040700Y-102057200D01*
D21*
X127539230Y-101928200D02*
X125528200Y-101928200D01*
X128740700Y-102057200D02*
X127740700Y-102057200D01*
X120500000Y-82670700D02*
X129155100Y-74015600D01*
D23*
X128740700Y-102057200D02*
X131433500Y-102057200D01*
D22*
X148088139Y-115620800D02*
X141427200Y-108959861D01*
D21*
X127713800Y-102084100D02*
X127695130Y-102084100D01*
D22*
X149098000Y-115620800D02*
X148088139Y-115620800D01*
D21*
X132732600Y-74015600D02*
X132732600Y-72252400D01*
X129231500Y-106734500D02*
X131331900Y-104634100D01*
X125528200Y-101928200D02*
X120500000Y-96900000D01*
X120950000Y-87101400D02*
X120950000Y-91250000D01*
X120950000Y-91250000D02*
X121000000Y-91300000D01*
D22*
X142127200Y-104535200D02*
X137299200Y-99707200D01*
D21*
X124604000Y-83801600D02*
X124249800Y-83801600D01*
D22*
X142127200Y-108599200D02*
X142127200Y-104535200D01*
X148183600Y-114655600D02*
X142127200Y-108599200D01*
D21*
X124506600Y-99767000D02*
X125624200Y-99767000D01*
X122300000Y-91300000D02*
X121000000Y-91300000D01*
D24*
X128726700Y-99771200D02*
X128722500Y-99767000D01*
D21*
X121000000Y-91300000D02*
X121000000Y-96260400D01*
D24*
X128722500Y-99767000D02*
X125624200Y-99767000D01*
D22*
X137299200Y-99707200D02*
X128790700Y-99707200D01*
D24*
X125624200Y-99767000D02*
X125577600Y-99720400D01*
D21*
X124249800Y-83801600D02*
X120950000Y-87101400D01*
X121000000Y-96260400D02*
X124506600Y-99767000D01*
X129604000Y-82462900D02*
X123827300Y-88239600D01*
X124538500Y-88950800D02*
X123827300Y-88239600D01*
X123827300Y-88239600D02*
X122601900Y-88239600D01*
X129604000Y-80301600D02*
X129604000Y-82462900D01*
X164162000Y-118338600D02*
X165593399Y-118338600D01*
X165593399Y-118338600D02*
X166840000Y-119585201D01*
X166840000Y-119585201D02*
X166840000Y-123975000D01*
X154862000Y-119608600D02*
X156723400Y-121470000D01*
X161795000Y-121470000D02*
X164300000Y-123975000D01*
X156723400Y-121470000D02*
X161795000Y-121470000D01*
X153711397Y-118338600D02*
X153365200Y-118684797D01*
X154862000Y-118338600D02*
X153711397Y-118338600D01*
X153365200Y-120190008D02*
X155075192Y-121900000D01*
X155877792Y-121900000D02*
X155897792Y-121920000D01*
X155075192Y-121900000D02*
X155877792Y-121900000D01*
X153365200Y-118684797D02*
X153365200Y-120190008D01*
X155897792Y-121920000D02*
X159705000Y-121920000D01*
X159705000Y-121920000D02*
X161760000Y-123975000D01*
X154345001Y-117068600D02*
X152915200Y-118498401D01*
X155691396Y-122350000D02*
X155718596Y-122377200D01*
X154888796Y-122350000D02*
X155691396Y-122350000D01*
X152915200Y-118498401D02*
X152915200Y-120376404D01*
X152915200Y-120376404D02*
X154888796Y-122350000D01*
X157622200Y-122377200D02*
X159220000Y-123975000D01*
X155718596Y-122377200D02*
X157622200Y-122377200D01*
X154345001Y-115798600D02*
X152465200Y-117678401D01*
X152465200Y-117678401D02*
X152465200Y-120562800D01*
X155505000Y-122800000D02*
X156680000Y-123975000D01*
X154702400Y-122800000D02*
X155505000Y-122800000D01*
X152465200Y-120562800D02*
X154702400Y-122800000D01*
X172506600Y-122021600D02*
X174460000Y-123975000D01*
X171185587Y-122021600D02*
X172506600Y-122021600D01*
X164820600Y-114528600D02*
X167187198Y-116895198D01*
X167187198Y-118023211D02*
X171185587Y-122021600D01*
X167187198Y-116895198D02*
X167187198Y-118023211D01*
X164973000Y-115798600D02*
X166737198Y-117562798D01*
X166737198Y-118209607D02*
X171920000Y-123392409D01*
X166737198Y-117562798D02*
X166737198Y-118209607D01*
X169380000Y-121488805D02*
X169380000Y-123975000D01*
X164959795Y-117068600D02*
X169380000Y-121488805D01*
X147062400Y-74625200D02*
X145403797Y-74625200D01*
X143980000Y-71165000D02*
X146070000Y-69075000D01*
X143980000Y-73201403D02*
X143980000Y-71165000D01*
X145403797Y-74625200D02*
X143980000Y-73201403D01*
X157581600Y-72085200D02*
X158770000Y-70896800D01*
X156362400Y-72085200D02*
X157581600Y-72085200D01*
X158770000Y-70896800D02*
X158770000Y-69075000D01*
X140716000Y-67614800D02*
X170009800Y-67614800D01*
X139815000Y-71579195D02*
X139815000Y-68515800D01*
X139815000Y-68515800D02*
X140716000Y-67614800D01*
X170009800Y-67614800D02*
X171470000Y-69075000D01*
X143189200Y-74953395D02*
X139815000Y-71579195D01*
X143189200Y-78232000D02*
X143189200Y-74953395D01*
X157712400Y-73706108D02*
X157712400Y-73308996D01*
X160771396Y-70250000D02*
X162675000Y-70250000D01*
X156793308Y-74625200D02*
X157712400Y-73706108D01*
X157712400Y-73308996D02*
X160771396Y-70250000D01*
X162675000Y-70250000D02*
X163850000Y-69075000D01*
X135272600Y-72252400D02*
X138450000Y-69075000D01*
X135272600Y-74015600D02*
X135272600Y-72252400D01*
X157029800Y-73355200D02*
X161310000Y-69075000D01*
X146037401Y-75895200D02*
X143530000Y-73387799D01*
X147062400Y-75895200D02*
X146037401Y-75895200D01*
X143530000Y-73387799D02*
X143530000Y-69075000D01*
X164765000Y-70700000D02*
X166390000Y-69075000D01*
X160957792Y-70700000D02*
X164765000Y-70700000D01*
X158162400Y-73495392D02*
X160957792Y-70700000D01*
X158162400Y-74526108D02*
X158162400Y-73495392D01*
X156793308Y-75895200D02*
X158162400Y-74526108D01*
X143080000Y-71165000D02*
X140990000Y-69075000D01*
X146631492Y-77165200D02*
X143080000Y-73613708D01*
X143080000Y-73613708D02*
X143080000Y-71165000D01*
X164465000Y-78968600D02*
X165430200Y-78968600D01*
X165430200Y-78968600D02*
X167335200Y-80873600D01*
X166110000Y-82419600D02*
X166110000Y-85344000D01*
X167656000Y-80873600D02*
X166110000Y-82419600D01*
X146886340Y-87247140D02*
X146979658Y-87153822D01*
X168650000Y-78965200D02*
X168650000Y-85344000D01*
X167182800Y-78841600D02*
X168773600Y-78841600D01*
X146979658Y-87153822D02*
X146979658Y-84749658D01*
X144139200Y-80107000D02*
X144139200Y-82346000D01*
X129129000Y-129783800D02*
X131146000Y-129783800D01*
X131207000Y-129844800D02*
X131207000Y-132384800D01*
X128473200Y-88001600D02*
X130556000Y-88001600D01*
X128473200Y-88001600D02*
X126414300Y-88001600D01*
X138176000Y-79544600D02*
X136609400Y-77978000D01*
X135085400Y-79502000D02*
X136609400Y-77978000D01*
X142138400Y-82346800D02*
X138480800Y-82346800D01*
X138176000Y-82651600D02*
X138176000Y-79544600D01*
X145444800Y-73355200D02*
X145400000Y-73400000D01*
X147062400Y-73355200D02*
X145444800Y-73355200D01*
X138176000Y-82600800D02*
X139598400Y-81178400D01*
X133553200Y-79502000D02*
X135085400Y-79502000D01*
X138176000Y-86715600D02*
X138176000Y-84651600D01*
X146597600Y-81440000D02*
X147062400Y-80975200D01*
X146597600Y-83083400D02*
X146597600Y-81440000D01*
X153924000Y-111988600D02*
X154862000Y-111988600D01*
X152951600Y-111016200D02*
X153924000Y-111988600D01*
X152951600Y-109099678D02*
X152951600Y-111016200D01*
X154940000Y-106977600D02*
X154482800Y-106977600D01*
X152830404Y-81991200D02*
X157047308Y-81991200D01*
X168672000Y-105003600D02*
X168672000Y-100606000D01*
X159512000Y-106984800D02*
X159504800Y-106977600D01*
X154940000Y-106977600D02*
X159504800Y-106977600D01*
X168672000Y-105003600D02*
X166690800Y-106984800D01*
X150876000Y-83945604D02*
X152830404Y-81991200D01*
X154093204Y-106977600D02*
X150876000Y-103760396D01*
X154482800Y-106977600D02*
X154482800Y-107568478D01*
X157712400Y-80191600D02*
X157226000Y-79705200D01*
X166690800Y-106984800D02*
X159512000Y-106984800D01*
X154940000Y-106977600D02*
X154093204Y-106977600D01*
X157047308Y-81991200D02*
X157712400Y-81326108D01*
X150876000Y-103760396D02*
X150876000Y-83945604D01*
X154482800Y-107568478D02*
X152951600Y-109099678D01*
X157712400Y-81326108D02*
X157712400Y-80191600D01*
X153416000Y-107188000D02*
X152501600Y-108102400D01*
X165608000Y-106527600D02*
X166100000Y-106035600D01*
X166100000Y-105003600D02*
X166100000Y-100594000D01*
X158242000Y-81432904D02*
X158242000Y-79883892D01*
X151326000Y-84132000D02*
X153016800Y-82441200D01*
X151326000Y-103574000D02*
X151326000Y-84132000D01*
X158242000Y-79883892D02*
X156793308Y-78435200D01*
X158699200Y-106527600D02*
X154279600Y-106527600D01*
X166100000Y-106035600D02*
X166100000Y-105003600D01*
X154279600Y-106527600D02*
X151326000Y-103574000D01*
X153016800Y-82441200D02*
X157233704Y-82441200D01*
X154527088Y-106527600D02*
X158699200Y-106527600D01*
X158699200Y-106527600D02*
X165608000Y-106527600D01*
X154315844Y-106316356D02*
X154527088Y-106527600D01*
X157233704Y-82441200D02*
X158242000Y-81432904D01*
X152501600Y-111455200D02*
X154305000Y-113258600D01*
X152501600Y-108102400D02*
X152501600Y-111455200D01*
X134300000Y-129844800D02*
X133207000Y-129844800D01*
X132283200Y-90001600D02*
X130556000Y-90001600D01*
X136067800Y-88715600D02*
X136067800Y-90779600D01*
X138176000Y-92779600D02*
X136067800Y-92779600D01*
X136067800Y-84651600D02*
X136067800Y-86715600D01*
X138176000Y-90779600D02*
X138176000Y-88715600D01*
X129231500Y-126925800D02*
X122699400Y-126925800D01*
X129231500Y-126925800D02*
X131531500Y-126925800D01*
X122699400Y-126925800D02*
X119481600Y-123708000D01*
G04 #@! TA.AperFunction,Conductor*
G36*
X175709928Y-58736985D02*
G01*
X175724795Y-58748201D01*
X178533663Y-61219394D01*
X178543550Y-61229126D01*
X178564330Y-61252007D01*
X178564333Y-61252009D01*
X178580318Y-61262292D01*
X178595138Y-61273478D01*
X178609407Y-61286032D01*
X178637103Y-61299745D01*
X178649170Y-61306585D01*
X178675164Y-61323308D01*
X178675166Y-61323308D01*
X178675167Y-61323309D01*
X178693261Y-61329102D01*
X178710469Y-61336070D01*
X178727508Y-61344507D01*
X178734415Y-61345892D01*
X178747735Y-61348564D01*
X178766075Y-61353734D01*
X179164710Y-61500034D01*
X179174271Y-61504004D01*
X179581755Y-61693602D01*
X179590972Y-61698369D01*
X179981163Y-61921390D01*
X179989953Y-61926915D01*
X180360111Y-62181790D01*
X180368408Y-62188031D01*
X180715943Y-62472977D01*
X180723690Y-62479891D01*
X181046168Y-62792911D01*
X181053308Y-62800448D01*
X181348475Y-63139355D01*
X181354958Y-63147459D01*
X181487849Y-63328667D01*
X181620738Y-63509871D01*
X181626522Y-63518493D01*
X181861053Y-63901871D01*
X181866095Y-63910947D01*
X182067724Y-64312586D01*
X182071990Y-64322052D01*
X182239317Y-64739162D01*
X182242775Y-64748950D01*
X182329470Y-65031464D01*
X182374619Y-65178592D01*
X182377247Y-65188636D01*
X182472689Y-65627812D01*
X182474467Y-65638041D01*
X182532832Y-66083654D01*
X182533748Y-66093996D01*
X182554630Y-66542925D01*
X182554678Y-66553308D01*
X182537930Y-67002418D01*
X182537109Y-67012768D01*
X182482849Y-67458900D01*
X182481165Y-67469145D01*
X182389774Y-67909169D01*
X182387239Y-67919238D01*
X182259353Y-68350085D01*
X182255984Y-68359906D01*
X182092507Y-68778533D01*
X182088329Y-68788037D01*
X181890402Y-69191527D01*
X181885443Y-69200649D01*
X181654458Y-69586158D01*
X181648754Y-69594833D01*
X181386321Y-69959679D01*
X181379910Y-69967847D01*
X181087878Y-70309455D01*
X181080807Y-70317057D01*
X180761230Y-70633028D01*
X180753548Y-70640013D01*
X180408641Y-70928156D01*
X180400401Y-70934473D01*
X180032613Y-71192740D01*
X180023874Y-71198346D01*
X179635761Y-71424945D01*
X179626584Y-71429800D01*
X179220870Y-71623139D01*
X179211318Y-71627209D01*
X178799500Y-71782664D01*
X178787802Y-71786429D01*
X178749811Y-71796608D01*
X178749809Y-71796609D01*
X178748239Y-71797516D01*
X178725173Y-71807854D01*
X178723437Y-71808427D01*
X178683282Y-71834785D01*
X178677242Y-71838506D01*
X178635687Y-71862499D01*
X178635681Y-71862504D01*
X178634407Y-71863778D01*
X178614788Y-71879746D01*
X178613266Y-71880745D01*
X178581302Y-71916596D01*
X178576430Y-71921754D01*
X178542500Y-71955684D01*
X178542499Y-71955686D01*
X178541595Y-71957253D01*
X178526778Y-71977753D01*
X178525568Y-71979110D01*
X178525565Y-71979114D01*
X178503985Y-72021987D01*
X178500614Y-72028232D01*
X178476606Y-72069817D01*
X178476137Y-72071569D01*
X178467134Y-72095198D01*
X178466316Y-72096822D01*
X178466314Y-72096828D01*
X178456565Y-72143826D01*
X178454926Y-72150729D01*
X178442500Y-72197108D01*
X178442500Y-72198910D01*
X178439917Y-72224090D01*
X178439549Y-72225863D01*
X178442297Y-72273795D01*
X178442500Y-72280892D01*
X178442500Y-123313567D01*
X178422815Y-123380606D01*
X178370011Y-123426361D01*
X178300853Y-123436305D01*
X178237297Y-123407280D01*
X178206118Y-123365972D01*
X178174035Y-123297171D01*
X178174034Y-123297169D01*
X178038494Y-123103597D01*
X177871402Y-122936506D01*
X177871395Y-122936501D01*
X177677834Y-122800967D01*
X177677830Y-122800965D01*
X177624149Y-122775933D01*
X177463663Y-122701097D01*
X177463659Y-122701096D01*
X177463655Y-122701094D01*
X177235413Y-122639938D01*
X177235403Y-122639936D01*
X177000001Y-122619341D01*
X176999999Y-122619341D01*
X176764596Y-122639936D01*
X176764586Y-122639938D01*
X176536344Y-122701094D01*
X176536335Y-122701098D01*
X176322171Y-122800964D01*
X176322169Y-122800965D01*
X176128597Y-122936505D01*
X175961505Y-123103597D01*
X175831575Y-123289158D01*
X175776998Y-123332783D01*
X175707500Y-123339977D01*
X175645145Y-123308454D01*
X175628425Y-123289158D01*
X175498494Y-123103597D01*
X175331402Y-122936506D01*
X175331395Y-122936501D01*
X175137834Y-122800967D01*
X175137830Y-122800965D01*
X175084149Y-122775933D01*
X174923663Y-122701097D01*
X174923659Y-122701096D01*
X174923655Y-122701094D01*
X174695413Y-122639938D01*
X174695403Y-122639936D01*
X174460001Y-122619341D01*
X174459999Y-122619341D01*
X174224596Y-122639936D01*
X174224586Y-122639938D01*
X174124126Y-122666856D01*
X174054276Y-122665193D01*
X174004352Y-122634762D01*
X172996798Y-121627208D01*
X172996778Y-121627186D01*
X172905336Y-121535744D01*
X172905332Y-121535741D01*
X172853738Y-121501267D01*
X172853735Y-121501263D01*
X172802889Y-121467289D01*
X172778944Y-121457371D01*
X172706101Y-121427199D01*
X172706098Y-121427197D01*
X172706097Y-121427197D01*
X172689055Y-121420138D01*
X172689053Y-121420137D01*
X172689052Y-121420137D01*
X172628629Y-121408118D01*
X172568210Y-121396100D01*
X172568207Y-121396100D01*
X172568206Y-121396100D01*
X171496039Y-121396100D01*
X171429000Y-121376415D01*
X171408358Y-121359781D01*
X167849017Y-117800440D01*
X167815532Y-117739117D01*
X167812698Y-117712759D01*
X167812698Y-116833591D01*
X167812697Y-116833587D01*
X167788662Y-116712753D01*
X167788661Y-116712746D01*
X167766068Y-116658202D01*
X167741510Y-116598912D01*
X167702551Y-116540607D01*
X167673056Y-116496465D01*
X167673054Y-116496462D01*
X167596370Y-116419778D01*
X171816500Y-116419778D01*
X171816500Y-116640222D01*
X171825358Y-116696149D01*
X171850985Y-116857952D01*
X171919103Y-117067603D01*
X171919104Y-117067606D01*
X172019187Y-117264025D01*
X172148752Y-117442358D01*
X172148756Y-117442363D01*
X172304636Y-117598243D01*
X172304641Y-117598247D01*
X172413370Y-117677242D01*
X172482978Y-117727815D01*
X172598614Y-117786735D01*
X172679393Y-117827895D01*
X172679396Y-117827896D01*
X172784221Y-117861955D01*
X172889049Y-117896015D01*
X173106778Y-117930500D01*
X173106779Y-117930500D01*
X175127221Y-117930500D01*
X175127222Y-117930500D01*
X175344951Y-117896015D01*
X175554606Y-117827895D01*
X175751022Y-117727815D01*
X175929365Y-117598242D01*
X176085242Y-117442365D01*
X176214815Y-117264022D01*
X176314895Y-117067606D01*
X176383015Y-116857951D01*
X176417500Y-116640222D01*
X176417500Y-116419778D01*
X176383015Y-116202049D01*
X176314895Y-115992394D01*
X176314895Y-115992393D01*
X176253117Y-115871149D01*
X176214815Y-115795978D01*
X176087544Y-115620803D01*
X176085247Y-115617641D01*
X176085243Y-115617636D01*
X175929363Y-115461756D01*
X175929358Y-115461752D01*
X175751025Y-115332187D01*
X175751024Y-115332186D01*
X175751022Y-115332185D01*
X175631483Y-115271276D01*
X175554606Y-115232104D01*
X175554603Y-115232103D01*
X175344952Y-115163985D01*
X175236086Y-115146742D01*
X175127222Y-115129500D01*
X173106778Y-115129500D01*
X173057897Y-115137242D01*
X172889047Y-115163985D01*
X172679396Y-115232103D01*
X172679393Y-115232104D01*
X172482974Y-115332187D01*
X172304641Y-115461752D01*
X172304636Y-115461756D01*
X172148756Y-115617636D01*
X172148752Y-115617641D01*
X172019187Y-115795974D01*
X171919104Y-115992393D01*
X171919103Y-115992396D01*
X171850985Y-116202047D01*
X171818154Y-116409337D01*
X171816500Y-116419778D01*
X167596370Y-116419778D01*
X167582835Y-116406243D01*
X167582804Y-116406214D01*
X165723819Y-114547229D01*
X165690334Y-114485906D01*
X165687500Y-114459548D01*
X165687500Y-114312913D01*
X165687499Y-114312898D01*
X165686962Y-114306078D01*
X165684598Y-114276031D01*
X165638744Y-114118202D01*
X165555081Y-113976735D01*
X165555079Y-113976733D01*
X165555076Y-113976729D01*
X165438870Y-113860523D01*
X165438862Y-113860517D01*
X165297396Y-113776855D01*
X165297393Y-113776854D01*
X165139573Y-113731002D01*
X165139567Y-113731001D01*
X165102701Y-113728100D01*
X165102694Y-113728100D01*
X163221306Y-113728100D01*
X163221298Y-113728100D01*
X163184432Y-113731001D01*
X163184426Y-113731002D01*
X163026606Y-113776854D01*
X163026603Y-113776855D01*
X162885137Y-113860517D01*
X162885129Y-113860523D01*
X162768923Y-113976729D01*
X162768917Y-113976737D01*
X162685255Y-114118203D01*
X162685254Y-114118206D01*
X162639402Y-114276026D01*
X162639401Y-114276032D01*
X162636500Y-114312898D01*
X162636500Y-114744301D01*
X162639401Y-114781167D01*
X162639402Y-114781173D01*
X162685254Y-114938993D01*
X162685255Y-114938996D01*
X162768917Y-115080462D01*
X162773702Y-115086631D01*
X162771256Y-115088527D01*
X162797857Y-115137242D01*
X162792873Y-115206934D01*
X162772069Y-115239303D01*
X162773702Y-115240569D01*
X162768917Y-115246737D01*
X162685255Y-115388203D01*
X162685254Y-115388206D01*
X162639402Y-115546026D01*
X162639401Y-115546032D01*
X162636500Y-115582898D01*
X162636500Y-116014301D01*
X162639401Y-116051167D01*
X162639402Y-116051173D01*
X162685254Y-116208993D01*
X162685255Y-116208996D01*
X162768917Y-116350462D01*
X162773702Y-116356631D01*
X162771256Y-116358527D01*
X162797857Y-116407242D01*
X162792873Y-116476934D01*
X162772069Y-116509303D01*
X162773702Y-116510569D01*
X162768917Y-116516737D01*
X162685255Y-116658203D01*
X162685254Y-116658206D01*
X162639402Y-116816026D01*
X162639401Y-116816032D01*
X162636500Y-116852898D01*
X162636500Y-117284301D01*
X162639401Y-117321167D01*
X162639402Y-117321173D01*
X162685254Y-117478993D01*
X162685255Y-117478996D01*
X162768917Y-117620462D01*
X162773702Y-117626631D01*
X162771256Y-117628527D01*
X162797857Y-117677242D01*
X162792873Y-117746934D01*
X162772069Y-117779303D01*
X162773702Y-117780569D01*
X162768917Y-117786737D01*
X162685255Y-117928203D01*
X162685254Y-117928206D01*
X162639402Y-118086026D01*
X162639401Y-118086032D01*
X162636500Y-118122898D01*
X162636500Y-118554301D01*
X162639401Y-118591167D01*
X162639402Y-118591173D01*
X162685254Y-118748993D01*
X162685255Y-118748996D01*
X162768917Y-118890462D01*
X162768923Y-118890470D01*
X162885129Y-119006676D01*
X162885133Y-119006679D01*
X162885135Y-119006681D01*
X163026602Y-119090344D01*
X163052004Y-119097724D01*
X163184426Y-119136197D01*
X163184429Y-119136197D01*
X163184431Y-119136198D01*
X163221306Y-119139100D01*
X163221314Y-119139100D01*
X165102686Y-119139100D01*
X165102694Y-119139100D01*
X165139569Y-119136198D01*
X165139571Y-119136197D01*
X165139573Y-119136197D01*
X165181191Y-119124105D01*
X165297398Y-119090344D01*
X165317132Y-119078673D01*
X165384852Y-119061490D01*
X165451115Y-119083649D01*
X165467933Y-119097724D01*
X166178181Y-119807972D01*
X166211666Y-119869295D01*
X166214500Y-119895653D01*
X166214500Y-122699773D01*
X166194815Y-122766812D01*
X166161623Y-122801348D01*
X165968597Y-122936505D01*
X165801505Y-123103597D01*
X165671575Y-123289158D01*
X165616998Y-123332783D01*
X165547500Y-123339977D01*
X165485145Y-123308454D01*
X165468425Y-123289158D01*
X165338494Y-123103597D01*
X165171402Y-122936506D01*
X165171395Y-122936501D01*
X164977834Y-122800967D01*
X164977830Y-122800965D01*
X164924149Y-122775933D01*
X164763663Y-122701097D01*
X164763659Y-122701096D01*
X164763655Y-122701094D01*
X164535413Y-122639938D01*
X164535403Y-122639936D01*
X164300001Y-122619341D01*
X164299999Y-122619341D01*
X164064596Y-122639936D01*
X164064586Y-122639938D01*
X163964126Y-122666856D01*
X163894276Y-122665193D01*
X163844352Y-122634762D01*
X162285198Y-121075608D01*
X162285178Y-121075586D01*
X162193736Y-120984144D01*
X162193728Y-120984138D01*
X162119432Y-120934495D01*
X162119431Y-120934494D01*
X162091290Y-120915690D01*
X162091286Y-120915688D01*
X162010792Y-120882347D01*
X161977453Y-120868537D01*
X161967427Y-120866543D01*
X161917029Y-120856518D01*
X161856610Y-120844500D01*
X161856607Y-120844500D01*
X161856606Y-120844500D01*
X157033852Y-120844500D01*
X156966813Y-120824815D01*
X156946171Y-120808181D01*
X156339212Y-120201222D01*
X156305727Y-120139899D01*
X156310711Y-120070207D01*
X156320162Y-120050419D01*
X156338742Y-120019001D01*
X156338744Y-120018998D01*
X156384598Y-119861169D01*
X156387500Y-119824294D01*
X156387500Y-119392906D01*
X156384598Y-119356031D01*
X156338744Y-119198202D01*
X156255081Y-119056735D01*
X156255078Y-119056732D01*
X156250298Y-119050569D01*
X156252750Y-119048666D01*
X156226155Y-119000021D01*
X156231104Y-118930326D01*
X156251940Y-118897904D01*
X156250298Y-118896631D01*
X156255075Y-118890470D01*
X156255081Y-118890465D01*
X156338744Y-118748998D01*
X156384598Y-118591169D01*
X156387500Y-118554294D01*
X156387500Y-118122906D01*
X156384598Y-118086031D01*
X156338744Y-117928202D01*
X156255081Y-117786735D01*
X156255078Y-117786732D01*
X156250298Y-117780569D01*
X156252750Y-117778666D01*
X156226155Y-117730021D01*
X156231104Y-117660326D01*
X156251940Y-117627904D01*
X156250298Y-117626631D01*
X156255075Y-117620470D01*
X156255081Y-117620465D01*
X156338744Y-117478998D01*
X156384598Y-117321169D01*
X156387500Y-117284294D01*
X156387500Y-116852906D01*
X156384598Y-116816031D01*
X156338744Y-116658202D01*
X156255081Y-116516735D01*
X156255078Y-116516732D01*
X156250298Y-116510569D01*
X156252750Y-116508666D01*
X156226155Y-116460021D01*
X156231104Y-116390326D01*
X156251940Y-116357904D01*
X156250298Y-116356631D01*
X156255075Y-116350470D01*
X156255081Y-116350465D01*
X156338744Y-116208998D01*
X156384598Y-116051169D01*
X156387500Y-116014294D01*
X156387500Y-115582906D01*
X156384598Y-115546031D01*
X156360112Y-115461752D01*
X156338745Y-115388206D01*
X156338744Y-115388203D01*
X156338744Y-115388202D01*
X156255081Y-115246735D01*
X156255078Y-115246732D01*
X156250298Y-115240569D01*
X156252750Y-115238666D01*
X156226155Y-115190021D01*
X156231104Y-115120326D01*
X156251940Y-115087904D01*
X156250298Y-115086631D01*
X156255075Y-115080470D01*
X156255081Y-115080465D01*
X156338744Y-114938998D01*
X156384598Y-114781169D01*
X156387500Y-114744294D01*
X156387500Y-114312906D01*
X156384598Y-114276031D01*
X156338744Y-114118202D01*
X156255081Y-113976735D01*
X156255078Y-113976732D01*
X156250298Y-113970569D01*
X156252750Y-113968666D01*
X156226155Y-113920021D01*
X156231104Y-113850326D01*
X156251940Y-113817904D01*
X156250298Y-113816631D01*
X156255075Y-113810470D01*
X156255081Y-113810465D01*
X156338744Y-113668998D01*
X156384598Y-113511169D01*
X156387500Y-113474294D01*
X156387500Y-113042906D01*
X156384598Y-113006031D01*
X156338744Y-112848202D01*
X156255081Y-112706735D01*
X156255078Y-112706732D01*
X156250298Y-112700569D01*
X156252750Y-112698666D01*
X156226155Y-112650021D01*
X156231104Y-112580326D01*
X156251940Y-112547904D01*
X156250298Y-112546631D01*
X156255075Y-112540470D01*
X156255081Y-112540465D01*
X156338744Y-112398998D01*
X156384598Y-112241169D01*
X156387500Y-112204294D01*
X156387500Y-111772906D01*
X156384598Y-111736031D01*
X156338744Y-111578202D01*
X156255081Y-111436735D01*
X156255078Y-111436732D01*
X156250298Y-111430569D01*
X156252750Y-111428666D01*
X156226155Y-111380021D01*
X156231104Y-111310326D01*
X156251940Y-111277904D01*
X156250298Y-111276631D01*
X156255075Y-111270470D01*
X156255081Y-111270465D01*
X156338744Y-111128998D01*
X156384598Y-110971169D01*
X156387500Y-110934294D01*
X156387500Y-110502906D01*
X156384598Y-110466031D01*
X156338744Y-110308202D01*
X156255081Y-110166735D01*
X156255079Y-110166733D01*
X156255076Y-110166729D01*
X156138870Y-110050523D01*
X156138862Y-110050517D01*
X155997396Y-109966855D01*
X155997393Y-109966854D01*
X155839573Y-109921002D01*
X155839567Y-109921001D01*
X155802701Y-109918100D01*
X155802694Y-109918100D01*
X155611500Y-109918100D01*
X155544461Y-109898415D01*
X155498706Y-109845611D01*
X155487500Y-109794100D01*
X155487500Y-108600477D01*
X155507185Y-108533438D01*
X155559989Y-108487683D01*
X155570546Y-108483435D01*
X155576452Y-108481368D01*
X155576455Y-108481368D01*
X155746722Y-108421789D01*
X155899462Y-108325816D01*
X156027016Y-108198262D01*
X156122989Y-108045522D01*
X156182568Y-107875255D01*
X156182569Y-107875250D01*
X156200826Y-107713216D01*
X156227893Y-107648802D01*
X156285487Y-107609247D01*
X156324046Y-107603100D01*
X159401984Y-107603100D01*
X159426176Y-107605483D01*
X159450391Y-107610299D01*
X159450392Y-107610300D01*
X159450393Y-107610300D01*
X166752407Y-107610300D01*
X166812829Y-107598281D01*
X166873252Y-107586263D01*
X166873255Y-107586261D01*
X166873258Y-107586261D01*
X166906587Y-107572454D01*
X166906586Y-107572454D01*
X166906592Y-107572452D01*
X166987086Y-107539112D01*
X167044217Y-107500937D01*
X167089533Y-107470658D01*
X167176658Y-107383533D01*
X167176659Y-107383531D01*
X167183725Y-107376465D01*
X167183728Y-107376461D01*
X168319771Y-106240418D01*
X168381094Y-106206933D01*
X168407452Y-106204099D01*
X169072002Y-106204099D01*
X169072008Y-106204099D01*
X169174797Y-106193599D01*
X169341334Y-106138414D01*
X169490656Y-106046312D01*
X169584319Y-105952649D01*
X169645642Y-105919164D01*
X169715334Y-105924148D01*
X169759681Y-105952649D01*
X169853344Y-106046312D01*
X170002666Y-106138414D01*
X170169203Y-106193599D01*
X170271991Y-106204100D01*
X171072008Y-106204099D01*
X171072016Y-106204098D01*
X171072019Y-106204098D01*
X171151782Y-106195950D01*
X171174797Y-106193599D01*
X171341334Y-106138414D01*
X171490656Y-106046312D01*
X171614712Y-105922256D01*
X171706814Y-105772934D01*
X171717716Y-105740032D01*
X171757488Y-105682587D01*
X171822004Y-105655764D01*
X171890780Y-105668079D01*
X171901392Y-105674041D01*
X171989478Y-105729389D01*
X172136162Y-105780716D01*
X172159745Y-105788968D01*
X172159750Y-105788969D01*
X172338996Y-105809165D01*
X172339000Y-105809165D01*
X172339004Y-105809165D01*
X172518249Y-105788969D01*
X172518252Y-105788968D01*
X172518255Y-105788968D01*
X172688522Y-105729389D01*
X172817883Y-105648105D01*
X172883855Y-105629100D01*
X176371026Y-105629100D01*
X176436997Y-105648105D01*
X176465683Y-105666130D01*
X176542015Y-105714093D01*
X176553226Y-105721137D01*
X176607228Y-105740033D01*
X176723493Y-105780716D01*
X176723498Y-105780717D01*
X176902744Y-105800913D01*
X176902748Y-105800913D01*
X176902752Y-105800913D01*
X177081997Y-105780717D01*
X177082000Y-105780716D01*
X177082003Y-105780716D01*
X177252270Y-105721137D01*
X177405010Y-105625164D01*
X177532564Y-105497610D01*
X177628537Y-105344870D01*
X177688116Y-105174603D01*
X177688117Y-105174597D01*
X177708313Y-104995351D01*
X177708313Y-104995344D01*
X177688117Y-104816098D01*
X177688116Y-104816093D01*
X177628537Y-104645826D01*
X177532564Y-104493086D01*
X177405010Y-104365532D01*
X177353486Y-104333157D01*
X177252271Y-104269559D01*
X177082002Y-104209979D01*
X177081997Y-104209978D01*
X176902752Y-104189783D01*
X176902744Y-104189783D01*
X176782664Y-104203312D01*
X176713842Y-104191257D01*
X176681500Y-104161452D01*
X176670955Y-104199365D01*
X176618810Y-104245870D01*
X176606649Y-104250864D01*
X176553226Y-104269558D01*
X176410732Y-104359094D01*
X176344760Y-104378100D01*
X172883855Y-104378100D01*
X172817883Y-104359094D01*
X172688523Y-104277811D01*
X172518254Y-104218231D01*
X172518249Y-104218230D01*
X172339004Y-104198035D01*
X172338996Y-104198035D01*
X172159750Y-104218230D01*
X172159745Y-104218231D01*
X171989476Y-104277811D01*
X171901394Y-104333157D01*
X171834157Y-104352157D01*
X171767322Y-104331789D01*
X171722108Y-104278521D01*
X171717716Y-104267167D01*
X171712314Y-104250864D01*
X171706814Y-104234266D01*
X171640412Y-104126611D01*
X171621973Y-104059220D01*
X171642896Y-103992557D01*
X171696538Y-103947787D01*
X171707635Y-103943585D01*
X171747752Y-103930550D01*
X171747758Y-103930548D01*
X171798511Y-103904688D01*
X171951538Y-103826717D01*
X172136566Y-103692286D01*
X172298286Y-103530566D01*
X172359683Y-103446059D01*
X172415012Y-103403396D01*
X172484625Y-103397417D01*
X172546420Y-103430023D01*
X172560314Y-103446056D01*
X172621714Y-103530566D01*
X172783434Y-103692286D01*
X172968462Y-103826717D01*
X173121489Y-103904688D01*
X173172244Y-103930549D01*
X173389751Y-104001221D01*
X173389752Y-104001221D01*
X173389755Y-104001222D01*
X173615646Y-104037000D01*
X173615647Y-104037000D01*
X173844353Y-104037000D01*
X173844354Y-104037000D01*
X174070245Y-104001222D01*
X174070248Y-104001221D01*
X174070249Y-104001221D01*
X174287755Y-103930549D01*
X174287755Y-103930548D01*
X174287758Y-103930548D01*
X174491538Y-103826717D01*
X174676566Y-103692286D01*
X174838286Y-103530566D01*
X174899683Y-103446059D01*
X174955012Y-103403396D01*
X175024625Y-103397417D01*
X175086420Y-103430023D01*
X175100314Y-103446056D01*
X175161714Y-103530566D01*
X175323434Y-103692286D01*
X175508462Y-103826717D01*
X175661489Y-103904688D01*
X175712244Y-103930549D01*
X175929751Y-104001221D01*
X175929752Y-104001221D01*
X175929755Y-104001222D01*
X176155646Y-104037000D01*
X176155647Y-104037000D01*
X176384352Y-104037000D01*
X176384354Y-104037000D01*
X176546296Y-104011350D01*
X176615587Y-104020304D01*
X176652886Y-104051702D01*
X176666566Y-104009892D01*
X176720745Y-103965774D01*
X176730464Y-103962161D01*
X176827753Y-103930550D01*
X176827755Y-103930548D01*
X176827758Y-103930548D01*
X177031538Y-103826717D01*
X177216566Y-103692286D01*
X177378286Y-103530566D01*
X177512717Y-103345538D01*
X177616548Y-103141758D01*
X177687222Y-102924245D01*
X177723000Y-102698354D01*
X177723000Y-100469646D01*
X177687222Y-100243755D01*
X177687221Y-100243751D01*
X177687221Y-100243750D01*
X177616549Y-100026244D01*
X177578950Y-99952452D01*
X177512717Y-99822462D01*
X177378286Y-99637434D01*
X177216566Y-99475714D01*
X177031538Y-99341283D01*
X176827755Y-99237450D01*
X176610248Y-99166778D01*
X176440826Y-99139944D01*
X176384354Y-99131000D01*
X176155646Y-99131000D01*
X176080349Y-99142926D01*
X175929753Y-99166778D01*
X175929750Y-99166778D01*
X175712244Y-99237450D01*
X175508461Y-99341283D01*
X175402896Y-99417980D01*
X175323434Y-99475714D01*
X175323432Y-99475716D01*
X175323431Y-99475716D01*
X175161715Y-99637432D01*
X175100318Y-99721938D01*
X175044987Y-99764603D01*
X174975374Y-99770582D01*
X174913579Y-99737976D01*
X174899682Y-99721938D01*
X174888773Y-99706923D01*
X174838286Y-99637434D01*
X174676566Y-99475714D01*
X174491538Y-99341283D01*
X174287755Y-99237450D01*
X174070248Y-99166778D01*
X173900826Y-99139944D01*
X173844354Y-99131000D01*
X173615646Y-99131000D01*
X173540349Y-99142926D01*
X173389753Y-99166778D01*
X173389750Y-99166778D01*
X173172244Y-99237450D01*
X172968461Y-99341283D01*
X172862896Y-99417980D01*
X172783434Y-99475714D01*
X172783432Y-99475716D01*
X172783431Y-99475716D01*
X172621715Y-99637432D01*
X172560318Y-99721938D01*
X172504987Y-99764603D01*
X172435374Y-99770582D01*
X172373579Y-99737976D01*
X172359682Y-99721938D01*
X172348773Y-99706923D01*
X172298286Y-99637434D01*
X172136566Y-99475714D01*
X171951538Y-99341283D01*
X171747755Y-99237450D01*
X171530248Y-99166778D01*
X171360826Y-99139944D01*
X171304354Y-99131000D01*
X171075646Y-99131000D01*
X171000349Y-99142926D01*
X170849753Y-99166778D01*
X170849750Y-99166778D01*
X170632244Y-99237450D01*
X170428461Y-99341283D01*
X170322896Y-99417980D01*
X170243434Y-99475714D01*
X170243432Y-99475716D01*
X170243431Y-99475716D01*
X170081715Y-99637432D01*
X170020318Y-99721938D01*
X169964987Y-99764603D01*
X169895374Y-99770582D01*
X169833579Y-99737976D01*
X169819682Y-99721938D01*
X169808773Y-99706923D01*
X169758286Y-99637434D01*
X169596566Y-99475714D01*
X169411538Y-99341283D01*
X169207755Y-99237450D01*
X168990248Y-99166778D01*
X168820826Y-99139944D01*
X168764354Y-99131000D01*
X168535646Y-99131000D01*
X168460349Y-99142926D01*
X168309753Y-99166778D01*
X168309750Y-99166778D01*
X168092244Y-99237450D01*
X167888461Y-99341283D01*
X167782896Y-99417980D01*
X167703434Y-99475714D01*
X167703432Y-99475716D01*
X167703431Y-99475716D01*
X167541715Y-99637432D01*
X167480318Y-99721938D01*
X167424987Y-99764603D01*
X167355374Y-99770582D01*
X167293579Y-99737976D01*
X167279682Y-99721938D01*
X167268773Y-99706923D01*
X167218286Y-99637434D01*
X167056566Y-99475714D01*
X166871538Y-99341283D01*
X166667755Y-99237450D01*
X166450248Y-99166778D01*
X166280826Y-99139944D01*
X166224354Y-99131000D01*
X165995646Y-99131000D01*
X165920349Y-99142926D01*
X165769753Y-99166778D01*
X165769750Y-99166778D01*
X165552244Y-99237450D01*
X165348461Y-99341283D01*
X165242896Y-99417980D01*
X165163434Y-99475714D01*
X165163432Y-99475716D01*
X165163431Y-99475716D01*
X165001715Y-99637432D01*
X164940318Y-99721938D01*
X164884987Y-99764603D01*
X164815374Y-99770582D01*
X164753579Y-99737976D01*
X164739682Y-99721938D01*
X164728773Y-99706923D01*
X164678286Y-99637434D01*
X164516566Y-99475714D01*
X164331538Y-99341283D01*
X164127755Y-99237450D01*
X163910248Y-99166778D01*
X163740826Y-99139944D01*
X163684354Y-99131000D01*
X163455646Y-99131000D01*
X163380349Y-99142926D01*
X163229753Y-99166778D01*
X163229750Y-99166778D01*
X163012244Y-99237450D01*
X162808461Y-99341283D01*
X162702896Y-99417980D01*
X162623434Y-99475714D01*
X162623432Y-99475716D01*
X162623431Y-99475716D01*
X162461715Y-99637432D01*
X162400318Y-99721938D01*
X162344987Y-99764603D01*
X162275374Y-99770582D01*
X162213579Y-99737976D01*
X162199682Y-99721938D01*
X162188773Y-99706923D01*
X162138286Y-99637434D01*
X161976566Y-99475714D01*
X161791538Y-99341283D01*
X161587755Y-99237450D01*
X161370248Y-99166778D01*
X161200826Y-99139944D01*
X161144354Y-99131000D01*
X160915646Y-99131000D01*
X160840349Y-99142926D01*
X160689753Y-99166778D01*
X160689750Y-99166778D01*
X160472244Y-99237450D01*
X160268461Y-99341283D01*
X160162896Y-99417980D01*
X160083434Y-99475714D01*
X160083432Y-99475716D01*
X160083431Y-99475716D01*
X159921715Y-99637432D01*
X159860318Y-99721938D01*
X159804987Y-99764603D01*
X159735374Y-99770582D01*
X159673579Y-99737976D01*
X159659682Y-99721938D01*
X159648773Y-99706923D01*
X159598286Y-99637434D01*
X159436566Y-99475714D01*
X159251538Y-99341283D01*
X159047755Y-99237450D01*
X158830247Y-99166778D01*
X158600602Y-99130405D01*
X158537467Y-99100476D01*
X158500536Y-99041164D01*
X158496000Y-99007932D01*
X158496000Y-86920067D01*
X158515685Y-86853028D01*
X158568489Y-86807273D01*
X158600602Y-86797594D01*
X158604352Y-86797000D01*
X158604354Y-86797000D01*
X158830245Y-86761222D01*
X158830248Y-86761221D01*
X158830249Y-86761221D01*
X159047755Y-86690549D01*
X159047755Y-86690548D01*
X159047758Y-86690548D01*
X159251538Y-86586717D01*
X159436566Y-86452286D01*
X159598286Y-86290566D01*
X159659683Y-86206059D01*
X159715012Y-86163396D01*
X159784625Y-86157417D01*
X159846420Y-86190023D01*
X159860314Y-86206056D01*
X159921714Y-86290566D01*
X160083434Y-86452286D01*
X160268462Y-86586717D01*
X160387253Y-86647244D01*
X160472244Y-86690549D01*
X160689751Y-86761221D01*
X160689752Y-86761221D01*
X160689755Y-86761222D01*
X160915646Y-86797000D01*
X160915647Y-86797000D01*
X161144353Y-86797000D01*
X161144354Y-86797000D01*
X161370245Y-86761222D01*
X161370248Y-86761221D01*
X161370249Y-86761221D01*
X161587755Y-86690549D01*
X161587755Y-86690548D01*
X161587758Y-86690548D01*
X161791538Y-86586717D01*
X161976566Y-86452286D01*
X162138286Y-86290566D01*
X162199683Y-86206059D01*
X162255012Y-86163396D01*
X162324625Y-86157417D01*
X162386420Y-86190023D01*
X162400314Y-86206056D01*
X162461714Y-86290566D01*
X162623434Y-86452286D01*
X162808462Y-86586717D01*
X162927253Y-86647244D01*
X163012244Y-86690549D01*
X163229751Y-86761221D01*
X163229752Y-86761221D01*
X163229755Y-86761222D01*
X163455646Y-86797000D01*
X163455647Y-86797000D01*
X163684353Y-86797000D01*
X163684354Y-86797000D01*
X163910245Y-86761222D01*
X163910248Y-86761221D01*
X163910249Y-86761221D01*
X164127755Y-86690549D01*
X164127755Y-86690548D01*
X164127758Y-86690548D01*
X164331538Y-86586717D01*
X164516566Y-86452286D01*
X164678286Y-86290566D01*
X164739683Y-86206059D01*
X164795012Y-86163396D01*
X164864625Y-86157417D01*
X164926420Y-86190023D01*
X164940314Y-86206056D01*
X165001714Y-86290566D01*
X165163434Y-86452286D01*
X165348462Y-86586717D01*
X165467253Y-86647244D01*
X165552244Y-86690549D01*
X165769751Y-86761221D01*
X165769752Y-86761221D01*
X165769755Y-86761222D01*
X165995646Y-86797000D01*
X165995647Y-86797000D01*
X166224353Y-86797000D01*
X166224354Y-86797000D01*
X166450245Y-86761222D01*
X166450248Y-86761221D01*
X166450249Y-86761221D01*
X166667755Y-86690549D01*
X166667755Y-86690548D01*
X166667758Y-86690548D01*
X166871538Y-86586717D01*
X167056566Y-86452286D01*
X167218286Y-86290566D01*
X167279683Y-86206059D01*
X167335012Y-86163396D01*
X167404625Y-86157417D01*
X167466420Y-86190023D01*
X167480314Y-86206056D01*
X167541714Y-86290566D01*
X167703434Y-86452286D01*
X167888462Y-86586717D01*
X168007253Y-86647244D01*
X168092244Y-86690549D01*
X168309751Y-86761221D01*
X168309752Y-86761221D01*
X168309755Y-86761222D01*
X168535646Y-86797000D01*
X168535647Y-86797000D01*
X168764353Y-86797000D01*
X168764354Y-86797000D01*
X168990245Y-86761222D01*
X168990248Y-86761221D01*
X168990249Y-86761221D01*
X169207755Y-86690549D01*
X169207755Y-86690548D01*
X169207758Y-86690548D01*
X169411538Y-86586717D01*
X169596566Y-86452286D01*
X169758286Y-86290566D01*
X169819683Y-86206059D01*
X169875012Y-86163396D01*
X169944625Y-86157417D01*
X170006420Y-86190023D01*
X170020314Y-86206056D01*
X170081714Y-86290566D01*
X170243434Y-86452286D01*
X170428462Y-86586717D01*
X170547253Y-86647244D01*
X170632244Y-86690549D01*
X170849751Y-86761221D01*
X170849752Y-86761221D01*
X170849755Y-86761222D01*
X171075646Y-86797000D01*
X171075647Y-86797000D01*
X171304353Y-86797000D01*
X171304354Y-86797000D01*
X171530245Y-86761222D01*
X171530248Y-86761221D01*
X171530249Y-86761221D01*
X171747755Y-86690549D01*
X171747755Y-86690548D01*
X171747758Y-86690548D01*
X171951538Y-86586717D01*
X172136566Y-86452286D01*
X172298286Y-86290566D01*
X172432717Y-86105538D01*
X172536548Y-85901758D01*
X172538113Y-85896942D01*
X172607221Y-85684249D01*
X172607221Y-85684248D01*
X172607222Y-85684245D01*
X172643000Y-85458354D01*
X172643000Y-83229646D01*
X172607222Y-83003755D01*
X172607221Y-83003751D01*
X172607221Y-83003750D01*
X172536549Y-82786244D01*
X172489478Y-82693862D01*
X172432717Y-82582462D01*
X172298286Y-82397434D01*
X172136566Y-82235714D01*
X171951538Y-82101283D01*
X171940498Y-82095658D01*
X171747762Y-81997453D01*
X171689591Y-81978552D01*
X171652653Y-81966550D01*
X171603292Y-81936301D01*
X170792818Y-81125827D01*
X170759333Y-81064504D01*
X170756499Y-81038146D01*
X170756499Y-80709052D01*
X170776184Y-80642013D01*
X170792818Y-80621371D01*
X170961578Y-80452611D01*
X171172329Y-80241860D01*
X171172333Y-80241858D01*
X171259458Y-80154733D01*
X171293716Y-80103463D01*
X171327912Y-80052286D01*
X171327913Y-80052281D01*
X171329086Y-80050089D01*
X171330005Y-80049152D01*
X171331297Y-80047220D01*
X171331663Y-80047464D01*
X171378042Y-80000239D01*
X171399446Y-79990823D01*
X171442934Y-79976414D01*
X171592256Y-79884312D01*
X171716312Y-79760256D01*
X171808414Y-79610934D01*
X171863599Y-79444397D01*
X171874100Y-79341609D01*
X171874099Y-78341592D01*
X171863599Y-78238803D01*
X171808414Y-78072266D01*
X171716312Y-77922944D01*
X171592256Y-77798888D01*
X171442934Y-77706786D01*
X171276397Y-77651601D01*
X171276395Y-77651600D01*
X171173610Y-77641100D01*
X170373598Y-77641100D01*
X170373580Y-77641101D01*
X170270803Y-77651600D01*
X170270800Y-77651601D01*
X170104268Y-77706785D01*
X170104263Y-77706787D01*
X169954942Y-77798889D01*
X169861281Y-77892551D01*
X169799958Y-77926036D01*
X169730266Y-77921052D01*
X169685919Y-77892551D01*
X169592257Y-77798889D01*
X169592256Y-77798888D01*
X169442934Y-77706786D01*
X169276397Y-77651601D01*
X169276395Y-77651600D01*
X169173610Y-77641100D01*
X168373598Y-77641100D01*
X168373580Y-77641101D01*
X168270803Y-77651600D01*
X168270800Y-77651601D01*
X168104268Y-77706785D01*
X168104263Y-77706787D01*
X167954942Y-77798889D01*
X167830889Y-77922942D01*
X167738787Y-78072263D01*
X167735736Y-78078809D01*
X167732860Y-78077467D01*
X167700845Y-78123304D01*
X167636220Y-78149861D01*
X167567495Y-78137263D01*
X167557336Y-78131528D01*
X167532324Y-78115811D01*
X167362054Y-78056231D01*
X167362049Y-78056230D01*
X167182804Y-78036035D01*
X167182796Y-78036035D01*
X167003550Y-78056230D01*
X167003545Y-78056231D01*
X166833276Y-78115811D01*
X166680537Y-78211784D01*
X166552984Y-78339337D01*
X166457011Y-78492076D01*
X166397431Y-78662345D01*
X166397430Y-78662349D01*
X166386880Y-78755992D01*
X166359814Y-78820405D01*
X166302219Y-78859961D01*
X166232382Y-78862098D01*
X166175979Y-78829789D01*
X165920398Y-78574208D01*
X165920378Y-78574186D01*
X165828936Y-78482744D01*
X165828928Y-78482738D01*
X165769257Y-78442867D01*
X165769255Y-78442866D01*
X165726486Y-78414288D01*
X165726487Y-78414288D01*
X165726485Y-78414287D01*
X165681153Y-78395511D01*
X165635821Y-78376734D01*
X165635819Y-78376732D01*
X165612655Y-78367138D01*
X165612653Y-78367137D01*
X165612652Y-78367137D01*
X165552229Y-78355118D01*
X165491810Y-78343100D01*
X165491807Y-78343100D01*
X165491806Y-78343100D01*
X165009855Y-78343100D01*
X164943883Y-78324094D01*
X164814523Y-78242811D01*
X164644254Y-78183231D01*
X164644249Y-78183230D01*
X164465004Y-78163035D01*
X164464996Y-78163035D01*
X164285750Y-78183230D01*
X164285745Y-78183231D01*
X164115476Y-78242811D01*
X163962737Y-78338784D01*
X163835184Y-78466337D01*
X163739211Y-78619076D01*
X163679631Y-78789345D01*
X163679630Y-78789350D01*
X163659435Y-78968596D01*
X163659435Y-78968603D01*
X163679630Y-79147849D01*
X163679631Y-79147854D01*
X163739211Y-79318123D01*
X163823729Y-79452631D01*
X163835184Y-79470862D01*
X163962738Y-79598416D01*
X164115478Y-79694389D01*
X164285745Y-79753968D01*
X164285750Y-79753969D01*
X164464996Y-79774165D01*
X164465000Y-79774165D01*
X164465004Y-79774165D01*
X164644249Y-79753969D01*
X164644252Y-79753968D01*
X164644255Y-79753968D01*
X164814522Y-79694389D01*
X164943883Y-79613105D01*
X165009855Y-79594100D01*
X165119748Y-79594100D01*
X165186787Y-79613785D01*
X165207429Y-79630419D01*
X166519181Y-80942171D01*
X166552666Y-81003494D01*
X166555500Y-81029852D01*
X166555500Y-81038147D01*
X166535815Y-81105186D01*
X166519181Y-81125828D01*
X165714484Y-81930524D01*
X165665123Y-81960774D01*
X165647344Y-81966551D01*
X165555034Y-81996545D01*
X165552236Y-81997454D01*
X165348461Y-82101283D01*
X165256860Y-82167836D01*
X165163434Y-82235714D01*
X165163432Y-82235716D01*
X165163431Y-82235716D01*
X165001715Y-82397432D01*
X164940318Y-82481938D01*
X164884987Y-82524603D01*
X164815374Y-82530582D01*
X164753579Y-82497976D01*
X164739682Y-82481938D01*
X164696693Y-82422769D01*
X164678286Y-82397434D01*
X164516566Y-82235714D01*
X164331538Y-82101283D01*
X164316820Y-82093784D01*
X164127755Y-81997450D01*
X163910248Y-81926778D01*
X163739719Y-81899769D01*
X163684354Y-81891000D01*
X163455646Y-81891000D01*
X163380349Y-81902926D01*
X163229753Y-81926778D01*
X163229750Y-81926778D01*
X163012244Y-81997450D01*
X162808461Y-82101283D01*
X162716860Y-82167836D01*
X162623434Y-82235714D01*
X162623432Y-82235716D01*
X162623431Y-82235716D01*
X162461715Y-82397432D01*
X162400318Y-82481938D01*
X162344987Y-82524603D01*
X162275374Y-82530582D01*
X162213579Y-82497976D01*
X162199682Y-82481938D01*
X162156693Y-82422769D01*
X162138286Y-82397434D01*
X161976566Y-82235714D01*
X161791538Y-82101283D01*
X161776820Y-82093784D01*
X161587755Y-81997450D01*
X161370248Y-81926778D01*
X161199719Y-81899769D01*
X161144354Y-81891000D01*
X160915646Y-81891000D01*
X160840349Y-81902926D01*
X160689753Y-81926778D01*
X160689750Y-81926778D01*
X160472244Y-81997450D01*
X160268461Y-82101283D01*
X160176860Y-82167836D01*
X160083434Y-82235714D01*
X160083432Y-82235716D01*
X160083431Y-82235716D01*
X159921715Y-82397432D01*
X159860318Y-82481938D01*
X159804987Y-82524603D01*
X159735374Y-82530582D01*
X159673579Y-82497976D01*
X159659682Y-82481938D01*
X159616693Y-82422769D01*
X159598286Y-82397434D01*
X159436566Y-82235714D01*
X159251538Y-82101283D01*
X159140133Y-82044519D01*
X159089338Y-81996545D01*
X159072543Y-81928724D01*
X159095080Y-81862590D01*
X159149795Y-81819138D01*
X159171034Y-81813741D01*
X159170846Y-81812917D01*
X159177631Y-81811368D01*
X159177633Y-81811368D01*
X159347900Y-81751789D01*
X159358075Y-81745396D01*
X159440270Y-81693749D01*
X159491931Y-81661288D01*
X159533713Y-81644664D01*
X159563719Y-81638696D01*
X159582890Y-81634882D01*
X159620192Y-81627463D01*
X159653532Y-81613652D01*
X159734026Y-81580312D01*
X159810053Y-81529511D01*
X159836473Y-81511858D01*
X159923598Y-81424733D01*
X159923599Y-81424731D01*
X159930665Y-81417665D01*
X159930668Y-81417661D01*
X160478520Y-80869808D01*
X160539841Y-80836325D01*
X160552297Y-80834273D01*
X160599396Y-80828967D01*
X160769663Y-80769388D01*
X160922403Y-80673415D01*
X161049957Y-80545861D01*
X161145930Y-80393121D01*
X161205509Y-80222854D01*
X161205510Y-80222848D01*
X161225706Y-80043602D01*
X161225706Y-80043595D01*
X161205510Y-79864349D01*
X161205509Y-79864344D01*
X161202258Y-79855052D01*
X161145930Y-79694077D01*
X161139347Y-79683601D01*
X161085822Y-79598416D01*
X161049957Y-79541337D01*
X160922403Y-79413783D01*
X160892364Y-79394908D01*
X160769664Y-79317810D01*
X160599395Y-79258230D01*
X160599390Y-79258229D01*
X160420145Y-79238034D01*
X160420137Y-79238034D01*
X160240891Y-79258229D01*
X160240886Y-79258230D01*
X160070617Y-79317810D01*
X159917878Y-79413783D01*
X159790325Y-79541336D01*
X159694351Y-79694077D01*
X159634771Y-79864349D01*
X159629467Y-79911424D01*
X159602399Y-79975838D01*
X159593928Y-79985220D01*
X159351908Y-80227240D01*
X159290585Y-80260725D01*
X159223274Y-80256601D01*
X159177639Y-80240633D01*
X159177627Y-80240630D01*
X158998382Y-80220435D01*
X158991500Y-80220435D01*
X158924461Y-80200750D01*
X158878706Y-80147946D01*
X158867500Y-80096435D01*
X158867500Y-79822286D01*
X158866569Y-79817607D01*
X158866567Y-79817599D01*
X158863800Y-79803690D01*
X158850891Y-79738786D01*
X158843463Y-79701440D01*
X158840542Y-79694389D01*
X158816891Y-79637289D01*
X158816891Y-79637288D01*
X158796314Y-79587611D01*
X158796313Y-79587609D01*
X158782802Y-79567389D01*
X158753083Y-79522911D01*
X158727858Y-79485159D01*
X158727856Y-79485156D01*
X158637637Y-79394937D01*
X158637606Y-79394908D01*
X157924219Y-78681521D01*
X157890734Y-78620198D01*
X157887900Y-78593840D01*
X157887900Y-78219513D01*
X157887899Y-78219498D01*
X157887652Y-78216365D01*
X157884998Y-78182631D01*
X157881010Y-78168905D01*
X157848275Y-78056230D01*
X157839144Y-78024802D01*
X157755481Y-77883335D01*
X157755478Y-77883332D01*
X157750698Y-77877169D01*
X157753150Y-77875266D01*
X157726555Y-77826621D01*
X157731504Y-77756926D01*
X157752340Y-77724504D01*
X157750698Y-77723231D01*
X157755475Y-77717070D01*
X157755481Y-77717065D01*
X157839144Y-77575598D01*
X157884998Y-77417769D01*
X157887900Y-77380894D01*
X157887900Y-76949506D01*
X157884998Y-76912631D01*
X157864822Y-76843187D01*
X157839145Y-76754806D01*
X157839144Y-76754803D01*
X157839144Y-76754802D01*
X157755481Y-76613335D01*
X157755478Y-76613332D01*
X157750698Y-76607169D01*
X157753150Y-76605266D01*
X157726555Y-76556621D01*
X157731504Y-76486926D01*
X157752340Y-76454504D01*
X157750698Y-76453231D01*
X157755475Y-76447070D01*
X157755481Y-76447065D01*
X157839144Y-76305598D01*
X157884998Y-76147769D01*
X157887900Y-76110894D01*
X157887900Y-75736560D01*
X157907585Y-75669521D01*
X157924219Y-75648879D01*
X158237832Y-75335266D01*
X158648257Y-74924842D01*
X158650500Y-74921486D01*
X158716711Y-74822394D01*
X158763863Y-74708560D01*
X158787900Y-74587714D01*
X158787900Y-73805844D01*
X158807585Y-73738805D01*
X158824219Y-73718163D01*
X161180563Y-71361819D01*
X161241886Y-71328334D01*
X161268244Y-71325500D01*
X164826607Y-71325500D01*
X164887029Y-71313481D01*
X164947452Y-71301463D01*
X164992245Y-71282909D01*
X165061286Y-71254312D01*
X165112509Y-71220084D01*
X165163733Y-71185858D01*
X165250858Y-71098733D01*
X165250859Y-71098731D01*
X165257925Y-71091665D01*
X165257928Y-71091661D01*
X165934353Y-70415235D01*
X165995674Y-70381752D01*
X166054125Y-70383143D01*
X166060332Y-70384806D01*
X166154592Y-70410063D01*
X166334634Y-70425815D01*
X166389999Y-70430659D01*
X166390000Y-70430659D01*
X166390001Y-70430659D01*
X166445366Y-70425815D01*
X166625408Y-70410063D01*
X166853663Y-70348903D01*
X167067830Y-70249035D01*
X167261401Y-70113495D01*
X167428495Y-69946401D01*
X167558425Y-69760842D01*
X167613002Y-69717217D01*
X167682500Y-69710023D01*
X167744855Y-69741546D01*
X167761575Y-69760842D01*
X167891500Y-69946395D01*
X167891505Y-69946401D01*
X168058599Y-70113495D01*
X168155384Y-70181265D01*
X168252165Y-70249032D01*
X168252167Y-70249033D01*
X168252170Y-70249035D01*
X168466337Y-70348903D01*
X168466343Y-70348904D01*
X168466344Y-70348905D01*
X168521285Y-70363626D01*
X168694592Y-70410063D01*
X168874634Y-70425815D01*
X168929999Y-70430659D01*
X168930000Y-70430659D01*
X168930001Y-70430659D01*
X168965284Y-70427571D01*
X169143013Y-70412022D01*
X169211512Y-70425788D01*
X169241501Y-70447869D01*
X175483181Y-76689548D01*
X175516666Y-76750871D01*
X175519500Y-76777229D01*
X175519500Y-82030082D01*
X175499815Y-82097121D01*
X175468386Y-82130399D01*
X175323434Y-82235714D01*
X175323432Y-82235716D01*
X175323431Y-82235716D01*
X175161716Y-82397431D01*
X175161716Y-82397432D01*
X175161714Y-82397434D01*
X175143307Y-82422769D01*
X175027283Y-82582461D01*
X174923450Y-82786244D01*
X174852778Y-83003750D01*
X174852778Y-83003753D01*
X174817000Y-83229646D01*
X174817000Y-85458353D01*
X174852778Y-85684246D01*
X174852778Y-85684249D01*
X174923450Y-85901755D01*
X174923452Y-85901758D01*
X175027283Y-86105538D01*
X175161714Y-86290566D01*
X175323434Y-86452286D01*
X175508462Y-86586717D01*
X175627253Y-86647244D01*
X175712244Y-86690549D01*
X175929751Y-86761221D01*
X175929752Y-86761221D01*
X175929755Y-86761222D01*
X176155646Y-86797000D01*
X176155647Y-86797000D01*
X176384353Y-86797000D01*
X176384354Y-86797000D01*
X176610245Y-86761222D01*
X176610248Y-86761221D01*
X176610249Y-86761221D01*
X176827755Y-86690549D01*
X176827755Y-86690548D01*
X176827758Y-86690548D01*
X177031538Y-86586717D01*
X177216566Y-86452286D01*
X177378286Y-86290566D01*
X177512717Y-86105538D01*
X177616548Y-85901758D01*
X177618113Y-85896942D01*
X177687221Y-85684249D01*
X177687221Y-85684248D01*
X177687222Y-85684245D01*
X177723000Y-85458354D01*
X177723000Y-83229646D01*
X177687222Y-83003755D01*
X177687221Y-83003751D01*
X177687221Y-83003750D01*
X177616549Y-82786244D01*
X177569478Y-82693862D01*
X177512717Y-82582462D01*
X177378286Y-82397434D01*
X177216566Y-82235714D01*
X177071613Y-82130399D01*
X177028949Y-82075070D01*
X177020500Y-82030082D01*
X177020500Y-76341081D01*
X177020499Y-76341080D01*
X177013442Y-76305598D01*
X176991659Y-76196088D01*
X176956370Y-76110894D01*
X176956370Y-76110893D01*
X176935087Y-76059511D01*
X176935080Y-76059498D01*
X176852952Y-75936585D01*
X176852951Y-75936584D01*
X176748416Y-75832049D01*
X174221471Y-73305104D01*
X171553548Y-70637180D01*
X171520063Y-70575857D01*
X171525047Y-70506165D01*
X171566919Y-70450232D01*
X171632383Y-70425815D01*
X171641229Y-70425499D01*
X172367871Y-70425499D01*
X172367872Y-70425499D01*
X172427483Y-70419091D01*
X172562331Y-70368796D01*
X172677546Y-70282546D01*
X172763796Y-70167331D01*
X172814091Y-70032483D01*
X172820500Y-69972873D01*
X172820499Y-68177128D01*
X172814091Y-68117517D01*
X172763796Y-67982669D01*
X172763795Y-67982668D01*
X172763793Y-67982664D01*
X172677547Y-67867455D01*
X172677544Y-67867452D01*
X172562335Y-67781206D01*
X172562328Y-67781202D01*
X172427482Y-67730908D01*
X172427483Y-67730908D01*
X172367883Y-67724501D01*
X172367881Y-67724500D01*
X172367873Y-67724500D01*
X172367865Y-67724500D01*
X171055453Y-67724500D01*
X170988414Y-67704815D01*
X170967772Y-67688181D01*
X170502728Y-67223138D01*
X170502725Y-67223134D01*
X170502725Y-67223135D01*
X170495658Y-67216068D01*
X170495658Y-67216067D01*
X170408533Y-67128942D01*
X170408532Y-67128941D01*
X170408531Y-67128940D01*
X170357309Y-67094715D01*
X170306087Y-67060489D01*
X170306086Y-67060488D01*
X170306083Y-67060486D01*
X170306080Y-67060485D01*
X170225592Y-67027147D01*
X170192253Y-67013337D01*
X170182227Y-67011343D01*
X170131829Y-67001318D01*
X170071410Y-66989300D01*
X170071407Y-66989300D01*
X170071406Y-66989300D01*
X140777606Y-66989300D01*
X140654393Y-66989300D01*
X140654389Y-66989300D01*
X140562340Y-67007610D01*
X140533548Y-67013337D01*
X140533547Y-67013337D01*
X140419716Y-67060487D01*
X140341143Y-67112989D01*
X140341142Y-67112990D01*
X140317263Y-67128944D01*
X140317262Y-67128945D01*
X139446911Y-67999297D01*
X139385588Y-68032782D01*
X139315896Y-68027798D01*
X139288107Y-68013191D01*
X139127834Y-67900967D01*
X139127830Y-67900965D01*
X139127828Y-67900964D01*
X138913663Y-67801097D01*
X138913659Y-67801096D01*
X138913655Y-67801094D01*
X138685413Y-67739938D01*
X138685403Y-67739936D01*
X138450001Y-67719341D01*
X138449999Y-67719341D01*
X138214596Y-67739936D01*
X138214586Y-67739938D01*
X137986344Y-67801094D01*
X137986335Y-67801098D01*
X137772171Y-67900964D01*
X137772169Y-67900965D01*
X137578597Y-68036505D01*
X137411505Y-68203597D01*
X137281575Y-68389158D01*
X137226998Y-68432783D01*
X137157500Y-68439977D01*
X137095145Y-68408454D01*
X137078425Y-68389158D01*
X136948494Y-68203597D01*
X136781402Y-68036506D01*
X136781395Y-68036501D01*
X136587834Y-67900967D01*
X136587830Y-67900965D01*
X136587828Y-67900964D01*
X136373663Y-67801097D01*
X136373659Y-67801096D01*
X136373655Y-67801094D01*
X136145413Y-67739938D01*
X136145403Y-67739936D01*
X135910001Y-67719341D01*
X135909999Y-67719341D01*
X135674596Y-67739936D01*
X135674586Y-67739938D01*
X135446344Y-67801094D01*
X135446335Y-67801098D01*
X135232171Y-67900964D01*
X135232169Y-67900965D01*
X135038597Y-68036505D01*
X134871505Y-68203597D01*
X134735965Y-68397169D01*
X134735964Y-68397171D01*
X134636098Y-68611335D01*
X134636094Y-68611344D01*
X134574938Y-68839586D01*
X134574936Y-68839596D01*
X134554341Y-69074999D01*
X134554341Y-69075000D01*
X134574936Y-69310403D01*
X134574938Y-69310413D01*
X134601856Y-69410872D01*
X134600193Y-69480722D01*
X134569762Y-69530646D01*
X133447024Y-70653385D01*
X132333870Y-71766539D01*
X132333867Y-71766542D01*
X132309911Y-71790498D01*
X132246742Y-71853666D01*
X132233978Y-71872769D01*
X132213947Y-71902748D01*
X132197942Y-71926701D01*
X132178287Y-71956115D01*
X132178285Y-71956118D01*
X132165015Y-71988157D01*
X132144947Y-72036607D01*
X132139423Y-72049943D01*
X132131137Y-72069945D01*
X132131135Y-72069953D01*
X132107100Y-72190789D01*
X132107100Y-72899073D01*
X132087415Y-72966112D01*
X132054224Y-73000648D01*
X131945083Y-73077069D01*
X131794069Y-73228082D01*
X131717649Y-73337223D01*
X131663072Y-73380848D01*
X131616074Y-73390100D01*
X130322901Y-73390100D01*
X130255862Y-73370415D01*
X130210107Y-73317611D01*
X130205195Y-73305104D01*
X130177414Y-73221266D01*
X130085312Y-73071944D01*
X129961256Y-72947888D01*
X129858043Y-72884226D01*
X129811936Y-72855787D01*
X129811931Y-72855785D01*
X129756358Y-72837370D01*
X129645397Y-72800601D01*
X129645395Y-72800600D01*
X129542610Y-72790100D01*
X128767598Y-72790100D01*
X128767580Y-72790101D01*
X128664803Y-72800600D01*
X128664800Y-72800601D01*
X128498268Y-72855785D01*
X128498263Y-72855787D01*
X128348942Y-72947889D01*
X128224889Y-73071942D01*
X128132787Y-73221263D01*
X128132785Y-73221268D01*
X128130527Y-73228082D01*
X128077601Y-73387803D01*
X128077601Y-73387804D01*
X128077600Y-73387804D01*
X128067100Y-73490583D01*
X128067100Y-74167647D01*
X128047415Y-74234686D01*
X128030781Y-74255328D01*
X120014143Y-82271965D01*
X120014140Y-82271968D01*
X120003771Y-82287488D01*
X119945689Y-82374412D01*
X119945685Y-82374419D01*
X119927490Y-82418348D01*
X119898538Y-82488244D01*
X119898535Y-82488254D01*
X119890380Y-82529250D01*
X119890381Y-82529251D01*
X119890381Y-82529252D01*
X119879614Y-82583388D01*
X119878289Y-82590048D01*
X119878288Y-82590054D01*
X119874500Y-82609094D01*
X119874500Y-96961611D01*
X119898535Y-97082444D01*
X119898540Y-97082461D01*
X119945685Y-97196280D01*
X119945690Y-97196289D01*
X119979914Y-97247507D01*
X119979915Y-97247509D01*
X120014140Y-97298731D01*
X120014141Y-97298732D01*
X120014142Y-97298733D01*
X120101267Y-97385858D01*
X120101268Y-97385858D01*
X120108335Y-97392925D01*
X120108334Y-97392925D01*
X120108338Y-97392928D01*
X125129463Y-102414055D01*
X125129467Y-102414058D01*
X125231910Y-102482509D01*
X125231911Y-102482509D01*
X125231915Y-102482512D01*
X125294227Y-102508322D01*
X125345748Y-102529663D01*
X125365797Y-102533651D01*
X125399396Y-102540334D01*
X125466592Y-102553701D01*
X125466594Y-102553701D01*
X125595921Y-102553701D01*
X125595941Y-102553700D01*
X127146810Y-102553700D01*
X127213849Y-102573385D01*
X127259604Y-102626189D01*
X127267143Y-102647768D01*
X127278330Y-102692755D01*
X127289059Y-102735895D01*
X127289060Y-102735896D01*
X127373667Y-102906492D01*
X127373669Y-102906495D01*
X127492977Y-103054921D01*
X127492978Y-103054922D01*
X127641404Y-103174230D01*
X127641407Y-103174232D01*
X127812002Y-103258839D01*
X127812003Y-103258839D01*
X127812007Y-103258841D01*
X127996811Y-103304800D01*
X128039577Y-103307700D01*
X129441822Y-103307699D01*
X129484589Y-103304800D01*
X129669393Y-103258841D01*
X129839996Y-103174230D01*
X129950937Y-103085052D01*
X130015521Y-103058394D01*
X130028624Y-103057700D01*
X130582400Y-103057700D01*
X130649439Y-103077385D01*
X130695194Y-103130189D01*
X130706400Y-103181700D01*
X130706400Y-104323647D01*
X130686715Y-104390686D01*
X130670081Y-104411328D01*
X129736539Y-105344870D01*
X128832770Y-106248639D01*
X128832767Y-106248642D01*
X128789205Y-106292203D01*
X128745644Y-106335764D01*
X128714458Y-106382436D01*
X128714457Y-106382435D01*
X128677192Y-106438207D01*
X128677185Y-106438219D01*
X128655016Y-106491741D01*
X128655016Y-106491743D01*
X128630037Y-106552048D01*
X128630036Y-106552052D01*
X128630036Y-106552053D01*
X128630035Y-106552054D01*
X128623176Y-106586535D01*
X128623177Y-106586536D01*
X128607398Y-106665869D01*
X128607396Y-106665878D01*
X128606000Y-106672894D01*
X128606000Y-123753783D01*
X128586315Y-123820822D01*
X128533511Y-123866577D01*
X128521010Y-123871486D01*
X128462169Y-123890985D01*
X128462166Y-123890986D01*
X128462163Y-123890987D01*
X128312842Y-123983089D01*
X128188789Y-124107142D01*
X128096687Y-124256463D01*
X128096685Y-124256468D01*
X128074196Y-124324337D01*
X128041501Y-124423003D01*
X128041501Y-124423004D01*
X128041500Y-124423004D01*
X128031000Y-124525783D01*
X128031000Y-125325801D01*
X128031001Y-125325819D01*
X128041500Y-125428596D01*
X128041501Y-125428599D01*
X128096685Y-125595131D01*
X128096687Y-125595136D01*
X128188789Y-125744457D01*
X128282451Y-125838119D01*
X128315936Y-125899442D01*
X128310952Y-125969134D01*
X128282451Y-126013481D01*
X128188789Y-126107142D01*
X128105981Y-126241397D01*
X128054033Y-126288121D01*
X128000442Y-126300300D01*
X123009853Y-126300300D01*
X122942814Y-126280615D01*
X122922172Y-126263981D01*
X121018418Y-124360227D01*
X120984933Y-124298904D01*
X120982099Y-124272546D01*
X120982099Y-122660129D01*
X120982098Y-122660123D01*
X120982097Y-122660116D01*
X120975691Y-122600517D01*
X120975411Y-122599767D01*
X120925397Y-122465671D01*
X120925393Y-122465664D01*
X120839147Y-122350455D01*
X120839144Y-122350452D01*
X120723935Y-122264206D01*
X120723928Y-122264202D01*
X120589082Y-122213908D01*
X120589083Y-122213908D01*
X120529483Y-122207501D01*
X120529481Y-122207500D01*
X120529473Y-122207500D01*
X120529464Y-122207500D01*
X118433729Y-122207500D01*
X118433723Y-122207501D01*
X118374116Y-122213908D01*
X118239271Y-122264202D01*
X118239264Y-122264206D01*
X118124055Y-122350452D01*
X118124052Y-122350455D01*
X118037806Y-122465664D01*
X118037802Y-122465671D01*
X117987508Y-122600517D01*
X117981101Y-122660116D01*
X117981101Y-122660123D01*
X117981100Y-122660135D01*
X117981100Y-124755870D01*
X117981101Y-124755876D01*
X117987508Y-124815483D01*
X118037802Y-124950328D01*
X118037806Y-124950335D01*
X118124052Y-125065544D01*
X118124055Y-125065547D01*
X118239264Y-125151793D01*
X118239271Y-125151797D01*
X118374117Y-125202091D01*
X118374116Y-125202091D01*
X118381044Y-125202835D01*
X118433727Y-125208500D01*
X120046146Y-125208499D01*
X120113185Y-125228184D01*
X120133827Y-125244818D01*
X122300662Y-127411654D01*
X122300665Y-127411657D01*
X122326015Y-127428595D01*
X122403114Y-127480111D01*
X122516948Y-127527263D01*
X122623289Y-127548415D01*
X122637788Y-127551299D01*
X122637792Y-127551300D01*
X122637793Y-127551300D01*
X122637794Y-127551300D01*
X128000442Y-127551300D01*
X128067481Y-127570985D01*
X128105979Y-127610201D01*
X128188788Y-127744456D01*
X128312844Y-127868512D01*
X128462166Y-127960614D01*
X128628703Y-128015799D01*
X128731491Y-128026300D01*
X129731508Y-128026299D01*
X129731516Y-128026298D01*
X129731519Y-128026298D01*
X129787802Y-128020548D01*
X129834297Y-128015799D01*
X130000834Y-127960614D01*
X130150156Y-127868512D01*
X130274212Y-127744456D01*
X130275961Y-127741619D01*
X130277669Y-127740083D01*
X130278693Y-127738789D01*
X130278914Y-127738963D01*
X130327906Y-127694896D01*
X130396868Y-127683672D01*
X130460951Y-127711513D01*
X130487037Y-127741617D01*
X130488788Y-127744456D01*
X130612844Y-127868512D01*
X130762166Y-127960614D01*
X130928703Y-128015799D01*
X131031491Y-128026300D01*
X132031508Y-128026299D01*
X132031516Y-128026298D01*
X132031519Y-128026298D01*
X132087802Y-128020548D01*
X132134297Y-128015799D01*
X132300834Y-127960614D01*
X132450156Y-127868512D01*
X132574212Y-127744456D01*
X132666314Y-127595134D01*
X132721499Y-127428597D01*
X132732000Y-127325809D01*
X132731999Y-126525792D01*
X132721499Y-126423003D01*
X132666314Y-126256466D01*
X132574212Y-126107144D01*
X132480549Y-126013481D01*
X132447064Y-125952158D01*
X132452048Y-125882466D01*
X132480549Y-125838119D01*
X132574212Y-125744456D01*
X132657019Y-125610202D01*
X132708967Y-125563479D01*
X132762558Y-125551300D01*
X138788548Y-125551300D01*
X138855587Y-125570985D01*
X138876229Y-125587619D01*
X139555263Y-126266655D01*
X139555267Y-126266658D01*
X139657710Y-126335109D01*
X139657711Y-126335109D01*
X139657715Y-126335112D01*
X139724396Y-126362731D01*
X139724398Y-126362733D01*
X139771543Y-126382261D01*
X139771548Y-126382263D01*
X139791597Y-126386251D01*
X139825196Y-126392934D01*
X139892392Y-126406301D01*
X139892394Y-126406301D01*
X140021721Y-126406301D01*
X140021741Y-126406300D01*
X148296007Y-126406300D01*
X148356429Y-126394281D01*
X148416852Y-126382263D01*
X148416855Y-126382261D01*
X148416858Y-126382261D01*
X148450187Y-126368454D01*
X148450186Y-126368454D01*
X148450192Y-126368452D01*
X148530686Y-126335112D01*
X148582784Y-126300300D01*
X148633133Y-126266658D01*
X148720258Y-126179533D01*
X148720259Y-126179531D01*
X148727325Y-126172465D01*
X148727328Y-126172461D01*
X152036729Y-122863060D01*
X152036733Y-122863058D01*
X152123858Y-122775933D01*
X152192311Y-122673486D01*
X152239463Y-122559652D01*
X152263500Y-122438806D01*
X152263500Y-121545052D01*
X152283185Y-121478013D01*
X152335989Y-121432258D01*
X152405147Y-121422314D01*
X152468703Y-121451339D01*
X152475181Y-121457371D01*
X153430629Y-122412819D01*
X153464114Y-122474142D01*
X153459130Y-122543834D01*
X153417258Y-122599767D01*
X153351794Y-122624184D01*
X153342949Y-122624500D01*
X153242130Y-122624500D01*
X153242123Y-122624501D01*
X153182516Y-122630908D01*
X153047671Y-122681202D01*
X153047664Y-122681206D01*
X152932455Y-122767452D01*
X152932452Y-122767455D01*
X152846206Y-122882664D01*
X152846202Y-122882671D01*
X152795908Y-123017517D01*
X152789501Y-123077116D01*
X152789500Y-123077135D01*
X152789500Y-124872870D01*
X152789501Y-124872876D01*
X152795908Y-124932483D01*
X152846202Y-125067328D01*
X152846206Y-125067335D01*
X152932452Y-125182544D01*
X152932455Y-125182547D01*
X153047664Y-125268793D01*
X153047671Y-125268797D01*
X153182517Y-125319091D01*
X153182516Y-125319091D01*
X153189444Y-125319835D01*
X153242127Y-125325500D01*
X155037872Y-125325499D01*
X155097483Y-125319091D01*
X155232331Y-125268796D01*
X155347546Y-125182546D01*
X155433796Y-125067331D01*
X155482810Y-124935916D01*
X155524681Y-124879984D01*
X155590145Y-124855566D01*
X155658418Y-124870417D01*
X155686673Y-124891569D01*
X155808599Y-125013495D01*
X155905384Y-125081265D01*
X156002165Y-125149032D01*
X156002167Y-125149033D01*
X156002170Y-125149035D01*
X156216337Y-125248903D01*
X156444592Y-125310063D01*
X156621034Y-125325500D01*
X156679999Y-125330659D01*
X156680000Y-125330659D01*
X156680001Y-125330659D01*
X156738966Y-125325500D01*
X156915408Y-125310063D01*
X157143663Y-125248903D01*
X157357830Y-125149035D01*
X157551401Y-125013495D01*
X157718495Y-124846401D01*
X157848425Y-124660842D01*
X157903002Y-124617217D01*
X157972500Y-124610023D01*
X158034855Y-124641546D01*
X158051575Y-124660842D01*
X158181500Y-124846395D01*
X158181505Y-124846401D01*
X158348599Y-125013495D01*
X158445384Y-125081265D01*
X158542165Y-125149032D01*
X158542167Y-125149033D01*
X158542170Y-125149035D01*
X158756337Y-125248903D01*
X158984592Y-125310063D01*
X159161034Y-125325500D01*
X159219999Y-125330659D01*
X159220000Y-125330659D01*
X159220001Y-125330659D01*
X159278966Y-125325500D01*
X159455408Y-125310063D01*
X159683663Y-125248903D01*
X159897830Y-125149035D01*
X160091401Y-125013495D01*
X160258495Y-124846401D01*
X160388425Y-124660842D01*
X160443002Y-124617217D01*
X160512500Y-124610023D01*
X160574855Y-124641546D01*
X160591575Y-124660842D01*
X160721500Y-124846395D01*
X160721505Y-124846401D01*
X160888599Y-125013495D01*
X160985384Y-125081265D01*
X161082165Y-125149032D01*
X161082167Y-125149033D01*
X161082170Y-125149035D01*
X161296337Y-125248903D01*
X161524592Y-125310063D01*
X161701034Y-125325500D01*
X161759999Y-125330659D01*
X161760000Y-125330659D01*
X161760001Y-125330659D01*
X161818966Y-125325500D01*
X161995408Y-125310063D01*
X162223663Y-125248903D01*
X162437830Y-125149035D01*
X162631401Y-125013495D01*
X162798495Y-124846401D01*
X162928425Y-124660842D01*
X162983002Y-124617217D01*
X163052500Y-124610023D01*
X163114855Y-124641546D01*
X163131575Y-124660842D01*
X163261500Y-124846395D01*
X163261505Y-124846401D01*
X163428599Y-125013495D01*
X163525384Y-125081265D01*
X163622165Y-125149032D01*
X163622167Y-125149033D01*
X163622170Y-125149035D01*
X163836337Y-125248903D01*
X164064592Y-125310063D01*
X164241034Y-125325500D01*
X164299999Y-125330659D01*
X164300000Y-125330659D01*
X164300001Y-125330659D01*
X164358966Y-125325500D01*
X164535408Y-125310063D01*
X164763663Y-125248903D01*
X164977830Y-125149035D01*
X165171401Y-125013495D01*
X165338495Y-124846401D01*
X165468425Y-124660842D01*
X165523002Y-124617217D01*
X165592500Y-124610023D01*
X165654855Y-124641546D01*
X165671575Y-124660842D01*
X165801500Y-124846395D01*
X165801505Y-124846401D01*
X165968599Y-125013495D01*
X166065384Y-125081265D01*
X166162165Y-125149032D01*
X166162167Y-125149033D01*
X166162170Y-125149035D01*
X166376337Y-125248903D01*
X166604592Y-125310063D01*
X166781034Y-125325500D01*
X166839999Y-125330659D01*
X166840000Y-125330659D01*
X166840001Y-125330659D01*
X166898966Y-125325500D01*
X167075408Y-125310063D01*
X167303663Y-125248903D01*
X167517830Y-125149035D01*
X167711401Y-125013495D01*
X167878495Y-124846401D01*
X168008425Y-124660842D01*
X168063002Y-124617217D01*
X168132500Y-124610023D01*
X168194855Y-124641546D01*
X168211575Y-124660842D01*
X168341500Y-124846395D01*
X168341505Y-124846401D01*
X168508599Y-125013495D01*
X168605384Y-125081265D01*
X168702165Y-125149032D01*
X168702167Y-125149033D01*
X168702170Y-125149035D01*
X168916337Y-125248903D01*
X169144592Y-125310063D01*
X169321034Y-125325500D01*
X169379999Y-125330659D01*
X169380000Y-125330659D01*
X169380001Y-125330659D01*
X169438966Y-125325500D01*
X169615408Y-125310063D01*
X169843663Y-125248903D01*
X170057830Y-125149035D01*
X170251401Y-125013495D01*
X170418495Y-124846401D01*
X170548425Y-124660842D01*
X170603002Y-124617217D01*
X170672500Y-124610023D01*
X170734855Y-124641546D01*
X170751575Y-124660842D01*
X170881500Y-124846395D01*
X170881505Y-124846401D01*
X171048599Y-125013495D01*
X171145384Y-125081265D01*
X171242165Y-125149032D01*
X171242167Y-125149033D01*
X171242170Y-125149035D01*
X171456337Y-125248903D01*
X171684592Y-125310063D01*
X171861034Y-125325500D01*
X171919999Y-125330659D01*
X171920000Y-125330659D01*
X171920001Y-125330659D01*
X171978966Y-125325500D01*
X172155408Y-125310063D01*
X172383663Y-125248903D01*
X172597830Y-125149035D01*
X172791401Y-125013495D01*
X172958495Y-124846401D01*
X173088425Y-124660842D01*
X173143002Y-124617217D01*
X173212500Y-124610023D01*
X173274855Y-124641546D01*
X173291575Y-124660842D01*
X173421500Y-124846395D01*
X173421505Y-124846401D01*
X173588599Y-125013495D01*
X173685384Y-125081265D01*
X173782165Y-125149032D01*
X173782167Y-125149033D01*
X173782170Y-125149035D01*
X173996337Y-125248903D01*
X174224592Y-125310063D01*
X174401034Y-125325500D01*
X174459999Y-125330659D01*
X174460000Y-125330659D01*
X174460001Y-125330659D01*
X174518966Y-125325500D01*
X174695408Y-125310063D01*
X174923663Y-125248903D01*
X175137830Y-125149035D01*
X175331401Y-125013495D01*
X175498495Y-124846401D01*
X175628425Y-124660842D01*
X175683002Y-124617217D01*
X175752500Y-124610023D01*
X175814855Y-124641546D01*
X175831575Y-124660842D01*
X175961500Y-124846395D01*
X175961505Y-124846401D01*
X176128599Y-125013495D01*
X176225384Y-125081265D01*
X176322165Y-125149032D01*
X176322167Y-125149033D01*
X176322170Y-125149035D01*
X176536337Y-125248903D01*
X176764592Y-125310063D01*
X176941034Y-125325500D01*
X176999999Y-125330659D01*
X177000000Y-125330659D01*
X177000001Y-125330659D01*
X177058966Y-125325500D01*
X177235408Y-125310063D01*
X177463663Y-125248903D01*
X177677830Y-125149035D01*
X177871401Y-125013495D01*
X178038495Y-124846401D01*
X178174035Y-124652830D01*
X178206118Y-124584025D01*
X178252290Y-124531588D01*
X178319484Y-124512436D01*
X178386365Y-124532652D01*
X178431699Y-124585817D01*
X178442500Y-124636432D01*
X178442500Y-134248994D01*
X178422815Y-134316033D01*
X178370011Y-134361788D01*
X178318400Y-134372994D01*
X116249802Y-134322878D01*
X116182778Y-134303139D01*
X116171501Y-134294947D01*
X112511432Y-131307994D01*
X117975957Y-131307994D01*
X117975957Y-131308005D01*
X117996490Y-131555812D01*
X117996492Y-131555824D01*
X118057536Y-131796881D01*
X118157426Y-132024606D01*
X118293433Y-132232782D01*
X118293436Y-132232785D01*
X118461856Y-132415738D01*
X118658091Y-132568474D01*
X118876790Y-132686828D01*
X119111986Y-132767571D01*
X119357265Y-132808500D01*
X119605935Y-132808500D01*
X119851214Y-132767571D01*
X120086410Y-132686828D01*
X120305109Y-132568474D01*
X120501344Y-132415738D01*
X120669764Y-132232785D01*
X120805773Y-132024607D01*
X120905663Y-131796881D01*
X120966708Y-131555821D01*
X120973565Y-131473058D01*
X120998719Y-131407876D01*
X121055121Y-131366637D01*
X121097142Y-131359300D01*
X126170691Y-131359300D01*
X126237730Y-131378985D01*
X126258372Y-131395619D01*
X126264629Y-131401876D01*
X126264633Y-131401879D01*
X126264635Y-131401881D01*
X126406102Y-131485544D01*
X126447724Y-131497636D01*
X126563926Y-131531397D01*
X126563929Y-131531397D01*
X126563931Y-131531398D01*
X126600806Y-131534300D01*
X126600814Y-131534300D01*
X127907186Y-131534300D01*
X127907194Y-131534300D01*
X127944069Y-131531398D01*
X127944071Y-131531397D01*
X127944073Y-131531397D01*
X127985691Y-131519305D01*
X128101898Y-131485544D01*
X128243365Y-131401881D01*
X128359581Y-131285665D01*
X128443244Y-131144198D01*
X128478669Y-131022265D01*
X128489097Y-130986373D01*
X128489098Y-130986367D01*
X128492000Y-130949494D01*
X128492000Y-130708300D01*
X128511685Y-130641261D01*
X128564489Y-130595506D01*
X128616000Y-130584300D01*
X129782186Y-130584300D01*
X129782194Y-130584300D01*
X129819069Y-130581398D01*
X129819071Y-130581397D01*
X129819073Y-130581397D01*
X129976892Y-130535546D01*
X129976892Y-130535545D01*
X129976898Y-130535544D01*
X129985976Y-130530174D01*
X130053695Y-130512989D01*
X130119959Y-130535145D01*
X130163726Y-130589608D01*
X130166805Y-130597897D01*
X130172185Y-130614132D01*
X130172186Y-130614134D01*
X130264288Y-130763456D01*
X130388344Y-130887512D01*
X130522597Y-130970319D01*
X130569321Y-131022265D01*
X130581500Y-131075857D01*
X130581500Y-131153742D01*
X130561815Y-131220781D01*
X130522598Y-131259279D01*
X130479826Y-131285662D01*
X130388342Y-131342089D01*
X130264289Y-131466142D01*
X130172187Y-131615463D01*
X130172185Y-131615468D01*
X130144349Y-131699470D01*
X130117001Y-131782003D01*
X130117001Y-131782004D01*
X130117000Y-131782004D01*
X130106500Y-131884783D01*
X130106500Y-132884801D01*
X130106501Y-132884819D01*
X130117000Y-132987596D01*
X130117001Y-132987599D01*
X130172185Y-133154131D01*
X130172186Y-133154134D01*
X130264288Y-133303456D01*
X130388344Y-133427512D01*
X130537666Y-133519614D01*
X130704203Y-133574799D01*
X130806991Y-133585300D01*
X131607008Y-133585299D01*
X131607016Y-133585298D01*
X131607019Y-133585298D01*
X131663302Y-133579548D01*
X131709797Y-133574799D01*
X131876334Y-133519614D01*
X132025656Y-133427512D01*
X132149712Y-133303456D01*
X132241814Y-133154134D01*
X132296999Y-132987597D01*
X132307500Y-132884809D01*
X132307499Y-131884792D01*
X132296999Y-131782003D01*
X132241814Y-131615466D01*
X132149712Y-131466144D01*
X132025656Y-131342088D01*
X131891402Y-131259280D01*
X131844679Y-131207333D01*
X131832500Y-131153742D01*
X131832500Y-131075857D01*
X131852185Y-131008818D01*
X131891401Y-130970320D01*
X132025656Y-130887512D01*
X132119319Y-130793849D01*
X132180642Y-130760364D01*
X132250334Y-130765348D01*
X132294681Y-130793849D01*
X132388344Y-130887512D01*
X132537666Y-130979614D01*
X132704203Y-131034799D01*
X132806991Y-131045300D01*
X133607008Y-131045299D01*
X133607016Y-131045298D01*
X133607019Y-131045298D01*
X133663302Y-131039548D01*
X133709797Y-131034799D01*
X133876334Y-130979614D01*
X134025656Y-130887512D01*
X134149712Y-130763456D01*
X134183417Y-130708809D01*
X134235362Y-130662085D01*
X134293036Y-130652343D01*
X134293036Y-130650365D01*
X134300003Y-130650365D01*
X134479249Y-130630169D01*
X134479252Y-130630168D01*
X134479255Y-130630168D01*
X134649522Y-130570589D01*
X134802262Y-130474616D01*
X134929816Y-130347062D01*
X135025789Y-130194322D01*
X135085368Y-130024055D01*
X135090100Y-129982056D01*
X135105565Y-129844803D01*
X135105565Y-129844796D01*
X135085369Y-129665550D01*
X135085368Y-129665545D01*
X135055763Y-129580938D01*
X135025789Y-129495278D01*
X134929816Y-129342538D01*
X134802262Y-129214984D01*
X134762193Y-129189807D01*
X134649523Y-129119011D01*
X134479254Y-129059431D01*
X134479249Y-129059430D01*
X134300004Y-129039235D01*
X134293037Y-129039235D01*
X134293037Y-129037201D01*
X134234000Y-129026850D01*
X134183418Y-128980790D01*
X134149713Y-128926145D01*
X134025657Y-128802089D01*
X134025656Y-128802088D01*
X133876334Y-128709986D01*
X133709797Y-128654801D01*
X133709795Y-128654800D01*
X133607010Y-128644300D01*
X132806998Y-128644300D01*
X132806980Y-128644301D01*
X132704203Y-128654800D01*
X132704200Y-128654801D01*
X132537668Y-128709985D01*
X132537663Y-128709987D01*
X132388342Y-128802089D01*
X132294681Y-128895751D01*
X132233358Y-128929236D01*
X132163666Y-128924252D01*
X132119319Y-128895751D01*
X132025657Y-128802089D01*
X132025656Y-128802088D01*
X131876334Y-128709986D01*
X131709797Y-128654801D01*
X131709795Y-128654800D01*
X131607010Y-128644300D01*
X130806998Y-128644300D01*
X130806980Y-128644301D01*
X130704203Y-128654800D01*
X130704200Y-128654801D01*
X130537668Y-128709985D01*
X130537663Y-128709987D01*
X130388342Y-128802089D01*
X130264288Y-128926143D01*
X130264285Y-128926147D01*
X130203503Y-129024690D01*
X130151555Y-129071415D01*
X130082593Y-129082636D01*
X130034844Y-129066325D01*
X129976896Y-129032055D01*
X129976893Y-129032054D01*
X129819073Y-128986202D01*
X129819067Y-128986201D01*
X129782201Y-128983300D01*
X129782194Y-128983300D01*
X128475806Y-128983300D01*
X128475798Y-128983300D01*
X128438932Y-128986201D01*
X128438926Y-128986202D01*
X128281106Y-129032054D01*
X128281103Y-129032055D01*
X128139637Y-129115717D01*
X128139629Y-129115723D01*
X128023423Y-129231929D01*
X128023417Y-129231937D01*
X127939755Y-129373403D01*
X127939754Y-129373406D01*
X127893902Y-129531226D01*
X127893901Y-129531232D01*
X127891000Y-129568098D01*
X127891000Y-129809300D01*
X127871315Y-129876339D01*
X127818511Y-129922094D01*
X127767000Y-129933300D01*
X126600798Y-129933300D01*
X126563932Y-129936201D01*
X126563926Y-129936202D01*
X126406106Y-129982054D01*
X126406103Y-129982055D01*
X126264637Y-130065717D01*
X126264629Y-130065723D01*
X126258372Y-130071981D01*
X126197049Y-130105466D01*
X126170691Y-130108300D01*
X120425760Y-130108300D01*
X120358721Y-130088615D01*
X120349606Y-130082160D01*
X120305109Y-130047526D01*
X120305107Y-130047525D01*
X120305106Y-130047524D01*
X120086411Y-129929172D01*
X120086402Y-129929169D01*
X119851216Y-129848429D01*
X119605935Y-129807500D01*
X119357265Y-129807500D01*
X119111983Y-129848429D01*
X118876797Y-129929169D01*
X118876788Y-129929172D01*
X118658093Y-130047524D01*
X118461857Y-130200261D01*
X118293433Y-130383217D01*
X118157426Y-130591393D01*
X118057536Y-130819118D01*
X117996492Y-131060175D01*
X117996490Y-131060187D01*
X117975957Y-131307994D01*
X112511432Y-131307994D01*
X112153699Y-131016051D01*
X112114206Y-130958414D01*
X112108100Y-130919982D01*
X112108100Y-128473194D01*
X147218357Y-128473194D01*
X147218357Y-128473205D01*
X147238890Y-128721012D01*
X147238892Y-128721024D01*
X147299936Y-128962081D01*
X147399826Y-129189806D01*
X147535833Y-129397982D01*
X147535836Y-129397985D01*
X147704256Y-129580938D01*
X147900491Y-129733674D01*
X147900493Y-129733675D01*
X148112539Y-129848429D01*
X148119190Y-129852028D01*
X148354386Y-129932771D01*
X148599665Y-129973700D01*
X148848335Y-129973700D01*
X149093614Y-129932771D01*
X149328810Y-129852028D01*
X149547509Y-129733674D01*
X149743744Y-129580938D01*
X149912164Y-129397985D01*
X150048173Y-129189807D01*
X150148063Y-128962081D01*
X150209108Y-128721021D01*
X150209109Y-128721012D01*
X150229643Y-128473205D01*
X150229643Y-128473194D01*
X150209109Y-128225387D01*
X150209107Y-128225375D01*
X150148063Y-127984318D01*
X150048173Y-127756593D01*
X149912166Y-127548417D01*
X149890557Y-127524944D01*
X149743744Y-127365462D01*
X149547509Y-127212726D01*
X149547507Y-127212725D01*
X149547506Y-127212724D01*
X149328811Y-127094372D01*
X149328802Y-127094369D01*
X149093616Y-127013629D01*
X148848335Y-126972700D01*
X148599665Y-126972700D01*
X148354383Y-127013629D01*
X148119197Y-127094369D01*
X148119188Y-127094372D01*
X147900493Y-127212724D01*
X147704257Y-127365461D01*
X147535833Y-127548417D01*
X147399826Y-127756593D01*
X147299936Y-127984318D01*
X147238892Y-128225375D01*
X147238890Y-128225387D01*
X147218357Y-128473194D01*
X112108100Y-128473194D01*
X112108100Y-115823994D01*
X116705957Y-115823994D01*
X116705957Y-115824005D01*
X116726490Y-116071812D01*
X116726492Y-116071824D01*
X116787536Y-116312881D01*
X116887426Y-116540606D01*
X117023433Y-116748782D01*
X117023436Y-116748785D01*
X117191856Y-116931738D01*
X117388091Y-117084474D01*
X117606790Y-117202828D01*
X117841986Y-117283571D01*
X118087265Y-117324500D01*
X118335935Y-117324500D01*
X118581214Y-117283571D01*
X118816410Y-117202828D01*
X119035109Y-117084474D01*
X119231344Y-116931738D01*
X119399764Y-116748785D01*
X119535773Y-116540607D01*
X119635663Y-116312881D01*
X119696708Y-116071821D01*
X119698419Y-116051173D01*
X119717243Y-115824005D01*
X119717243Y-115823994D01*
X119696709Y-115576187D01*
X119696707Y-115576175D01*
X119635663Y-115335118D01*
X119535773Y-115107393D01*
X119399766Y-114899217D01*
X119378157Y-114875744D01*
X119231344Y-114716262D01*
X119035109Y-114563526D01*
X119035107Y-114563525D01*
X119035106Y-114563524D01*
X118816411Y-114445172D01*
X118816402Y-114445169D01*
X118581216Y-114364429D01*
X118335935Y-114323500D01*
X118087265Y-114323500D01*
X117841983Y-114364429D01*
X117606797Y-114445169D01*
X117606788Y-114445172D01*
X117388093Y-114563524D01*
X117191857Y-114716261D01*
X117023433Y-114899217D01*
X116887426Y-115107393D01*
X116787536Y-115335118D01*
X116726492Y-115576175D01*
X116726490Y-115576187D01*
X116705957Y-115823994D01*
X112108100Y-115823994D01*
X112108100Y-98221494D01*
X112108101Y-98221481D01*
X112108101Y-98148306D01*
X112108219Y-98142897D01*
X112110978Y-98079704D01*
X112111179Y-98075111D01*
X113922700Y-98075111D01*
X113922700Y-98317688D01*
X113954361Y-98558185D01*
X114017147Y-98792504D01*
X114097106Y-98985542D01*
X114109976Y-99016612D01*
X114231264Y-99226689D01*
X114231266Y-99226692D01*
X114231267Y-99226693D01*
X114378933Y-99419136D01*
X114378939Y-99419143D01*
X114550456Y-99590660D01*
X114550462Y-99590665D01*
X114742911Y-99738336D01*
X114952988Y-99859624D01*
X115177100Y-99952454D01*
X115411411Y-100015238D01*
X115591786Y-100038984D01*
X115651911Y-100046900D01*
X115651912Y-100046900D01*
X115894489Y-100046900D01*
X115942588Y-100040567D01*
X116134989Y-100015238D01*
X116369300Y-99952454D01*
X116593412Y-99859624D01*
X116803489Y-99738336D01*
X116995938Y-99590665D01*
X117167465Y-99419138D01*
X117315136Y-99226689D01*
X117436424Y-99016612D01*
X117529254Y-98792500D01*
X117592038Y-98558189D01*
X117623700Y-98317688D01*
X117623700Y-98075112D01*
X117592038Y-97834611D01*
X117529254Y-97600300D01*
X117436424Y-97376188D01*
X117315136Y-97166111D01*
X117167465Y-96973662D01*
X117167460Y-96973656D01*
X116995943Y-96802139D01*
X116995936Y-96802133D01*
X116803493Y-96654467D01*
X116803492Y-96654466D01*
X116803489Y-96654464D01*
X116593412Y-96533176D01*
X116593405Y-96533173D01*
X116369304Y-96440347D01*
X116134985Y-96377561D01*
X115894489Y-96345900D01*
X115894488Y-96345900D01*
X115651912Y-96345900D01*
X115651911Y-96345900D01*
X115411414Y-96377561D01*
X115177095Y-96440347D01*
X114952994Y-96533173D01*
X114952985Y-96533177D01*
X114742906Y-96654467D01*
X114550463Y-96802133D01*
X114550456Y-96802139D01*
X114378939Y-96973656D01*
X114378933Y-96973663D01*
X114231267Y-97166106D01*
X114109977Y-97376185D01*
X114109973Y-97376194D01*
X114017147Y-97600295D01*
X113954361Y-97834614D01*
X113922700Y-98075111D01*
X112111179Y-98075111D01*
X112121812Y-97831549D01*
X112122752Y-97820817D01*
X112163075Y-97514524D01*
X112164952Y-97503883D01*
X112189551Y-97392925D01*
X112231817Y-97202274D01*
X112234609Y-97191854D01*
X112327513Y-96897200D01*
X112331197Y-96887079D01*
X112449427Y-96601645D01*
X112453985Y-96591871D01*
X112596645Y-96317825D01*
X112602021Y-96308514D01*
X112768028Y-96047935D01*
X112774212Y-96039103D01*
X112962284Y-95794003D01*
X112969222Y-95785734D01*
X113179777Y-95555954D01*
X113183452Y-95552114D01*
X113228177Y-95507391D01*
X113228178Y-95507388D01*
X113231618Y-95503949D01*
X113235258Y-95499777D01*
X118413810Y-90269204D01*
X118414071Y-90268942D01*
X118459688Y-90223336D01*
X118460047Y-90222864D01*
X118460407Y-90222393D01*
X118461203Y-90221354D01*
X118461226Y-90221312D01*
X118461230Y-90221309D01*
X118493138Y-90165400D01*
X118493359Y-90165013D01*
X118525572Y-90109233D01*
X118525573Y-90109228D01*
X118525600Y-90109182D01*
X118526016Y-90108165D01*
X118526262Y-90107566D01*
X118526541Y-90106890D01*
X118526549Y-90106857D01*
X118526552Y-90106853D01*
X118542991Y-90044249D01*
X118559693Y-89981943D01*
X118559693Y-89981939D01*
X118559705Y-89981895D01*
X118559821Y-89980984D01*
X118559901Y-89980366D01*
X118560023Y-89979436D01*
X118559930Y-89960944D01*
X118559700Y-89915057D01*
X118559699Y-89914433D01*
X118559720Y-89704266D01*
X118562060Y-66629911D01*
X123981100Y-66629911D01*
X123981100Y-66872488D01*
X124012761Y-67112985D01*
X124075547Y-67347304D01*
X124150979Y-67529412D01*
X124168376Y-67571412D01*
X124289664Y-67781489D01*
X124289666Y-67781492D01*
X124289667Y-67781493D01*
X124437333Y-67973936D01*
X124437339Y-67973943D01*
X124608856Y-68145460D01*
X124608863Y-68145466D01*
X124650126Y-68177128D01*
X124801311Y-68293136D01*
X125011388Y-68414424D01*
X125235500Y-68507254D01*
X125469811Y-68570038D01*
X125650186Y-68593784D01*
X125710311Y-68601700D01*
X125710312Y-68601700D01*
X125952889Y-68601700D01*
X126000988Y-68595367D01*
X126193389Y-68570038D01*
X126427700Y-68507254D01*
X126651812Y-68414424D01*
X126861889Y-68293136D01*
X127054338Y-68145465D01*
X127225865Y-67973938D01*
X127373536Y-67781489D01*
X127494824Y-67571412D01*
X127587654Y-67347300D01*
X127650438Y-67112989D01*
X127682100Y-66872488D01*
X127682100Y-66629912D01*
X127658692Y-66452111D01*
X175212900Y-66452111D01*
X175212900Y-66694688D01*
X175244561Y-66935185D01*
X175307347Y-67169504D01*
X175400173Y-67393605D01*
X175400176Y-67393612D01*
X175521464Y-67603689D01*
X175521466Y-67603692D01*
X175521467Y-67603693D01*
X175669133Y-67796136D01*
X175669139Y-67796143D01*
X175840656Y-67967660D01*
X175840663Y-67967666D01*
X175953721Y-68054418D01*
X176033111Y-68115336D01*
X176243188Y-68236624D01*
X176467300Y-68329454D01*
X176701611Y-68392238D01*
X176870149Y-68414426D01*
X176942111Y-68423900D01*
X176942112Y-68423900D01*
X177184689Y-68423900D01*
X177256651Y-68414426D01*
X177425189Y-68392238D01*
X177659500Y-68329454D01*
X177883612Y-68236624D01*
X178093689Y-68115336D01*
X178286138Y-67967665D01*
X178457665Y-67796138D01*
X178605336Y-67603689D01*
X178726624Y-67393612D01*
X178819454Y-67169500D01*
X178882238Y-66935189D01*
X178913900Y-66694688D01*
X178913900Y-66452112D01*
X178882238Y-66211611D01*
X178819454Y-65977300D01*
X178726624Y-65753188D01*
X178605336Y-65543111D01*
X178462482Y-65356939D01*
X178457666Y-65350663D01*
X178457660Y-65350656D01*
X178286143Y-65179139D01*
X178286136Y-65179133D01*
X178093693Y-65031467D01*
X178093692Y-65031466D01*
X178093689Y-65031464D01*
X177883612Y-64910176D01*
X177860735Y-64900700D01*
X177659504Y-64817347D01*
X177425185Y-64754561D01*
X177184689Y-64722900D01*
X177184688Y-64722900D01*
X176942112Y-64722900D01*
X176942111Y-64722900D01*
X176701614Y-64754561D01*
X176467295Y-64817347D01*
X176243194Y-64910173D01*
X176243185Y-64910177D01*
X176033106Y-65031467D01*
X175840663Y-65179133D01*
X175840656Y-65179139D01*
X175669139Y-65350656D01*
X175669133Y-65350663D01*
X175521467Y-65543106D01*
X175400177Y-65753185D01*
X175400173Y-65753194D01*
X175307347Y-65977295D01*
X175244561Y-66211614D01*
X175212900Y-66452111D01*
X127658692Y-66452111D01*
X127650438Y-66389411D01*
X127587654Y-66155100D01*
X127494824Y-65930988D01*
X127373536Y-65720911D01*
X127225865Y-65528462D01*
X127225860Y-65528456D01*
X127054343Y-65356939D01*
X127054336Y-65356933D01*
X126861893Y-65209267D01*
X126861892Y-65209266D01*
X126861889Y-65209264D01*
X126651812Y-65087976D01*
X126651805Y-65087973D01*
X126427704Y-64995147D01*
X126193385Y-64932361D01*
X125952889Y-64900700D01*
X125952888Y-64900700D01*
X125710312Y-64900700D01*
X125710311Y-64900700D01*
X125469814Y-64932361D01*
X125235495Y-64995147D01*
X125011394Y-65087973D01*
X125011385Y-65087977D01*
X124801306Y-65209267D01*
X124608863Y-65356933D01*
X124608856Y-65356939D01*
X124437339Y-65528456D01*
X124437333Y-65528463D01*
X124289667Y-65720906D01*
X124168377Y-65930985D01*
X124168373Y-65930994D01*
X124075547Y-66155095D01*
X124012761Y-66389414D01*
X123981100Y-66629911D01*
X118562060Y-66629911D01*
X118562073Y-66497158D01*
X118581764Y-66430124D01*
X118597828Y-66410060D01*
X126156773Y-58754179D01*
X126217881Y-58720304D01*
X126245011Y-58717300D01*
X175642889Y-58717300D01*
X175709928Y-58736985D01*
G37*
G04 #@! TD.AperFunction*
G04 #@! TA.AperFunction,Conductor*
G36*
X157541513Y-68259985D02*
G01*
X157587268Y-68312789D01*
X157597212Y-68381947D01*
X157586856Y-68416705D01*
X157496098Y-68611335D01*
X157496094Y-68611344D01*
X157434938Y-68839586D01*
X157434936Y-68839596D01*
X157414341Y-69074999D01*
X157414341Y-69075000D01*
X157434936Y-69310403D01*
X157434938Y-69310413D01*
X157496094Y-69538655D01*
X157496096Y-69538659D01*
X157496097Y-69538663D01*
X157520325Y-69590620D01*
X157595965Y-69752830D01*
X157595967Y-69752834D01*
X157663223Y-69848885D01*
X157731505Y-69946401D01*
X157898599Y-70113495D01*
X158091624Y-70248653D01*
X158135248Y-70303228D01*
X158144500Y-70350226D01*
X158144500Y-70586346D01*
X158124815Y-70653385D01*
X158108181Y-70674027D01*
X157511648Y-71270559D01*
X157450325Y-71304044D01*
X157389374Y-71301955D01*
X157367888Y-71295713D01*
X157339969Y-71287602D01*
X157339966Y-71287601D01*
X157339963Y-71287601D01*
X157303101Y-71284700D01*
X157303094Y-71284700D01*
X155421706Y-71284700D01*
X155421698Y-71284700D01*
X155384832Y-71287601D01*
X155384826Y-71287602D01*
X155227006Y-71333454D01*
X155227003Y-71333455D01*
X155085537Y-71417117D01*
X155085529Y-71417123D01*
X154969323Y-71533329D01*
X154969317Y-71533337D01*
X154885655Y-71674803D01*
X154885654Y-71674806D01*
X154839802Y-71832626D01*
X154839801Y-71832632D01*
X154836900Y-71869498D01*
X154836900Y-72300901D01*
X154839801Y-72337767D01*
X154839802Y-72337773D01*
X154885654Y-72495593D01*
X154885655Y-72495596D01*
X154885656Y-72495598D01*
X154920609Y-72554700D01*
X154969317Y-72637062D01*
X154974102Y-72643231D01*
X154971656Y-72645127D01*
X154998257Y-72693842D01*
X154993273Y-72763534D01*
X154972469Y-72795903D01*
X154974102Y-72797169D01*
X154969317Y-72803337D01*
X154885655Y-72944803D01*
X154885654Y-72944806D01*
X154839802Y-73102626D01*
X154839801Y-73102632D01*
X154836900Y-73139498D01*
X154836900Y-73570901D01*
X154839801Y-73607767D01*
X154839802Y-73607773D01*
X154885654Y-73765593D01*
X154885655Y-73765596D01*
X154885656Y-73765598D01*
X154907691Y-73802858D01*
X154969317Y-73907062D01*
X154974102Y-73913231D01*
X154971656Y-73915127D01*
X154998257Y-73963842D01*
X154993273Y-74033534D01*
X154972469Y-74065903D01*
X154974102Y-74067169D01*
X154969317Y-74073337D01*
X154885655Y-74214803D01*
X154885654Y-74214806D01*
X154839802Y-74372626D01*
X154839801Y-74372632D01*
X154836900Y-74409498D01*
X154836900Y-74840901D01*
X154839801Y-74877767D01*
X154839802Y-74877773D01*
X154885654Y-75035593D01*
X154885655Y-75035596D01*
X154969317Y-75177062D01*
X154974102Y-75183231D01*
X154971656Y-75185127D01*
X154998257Y-75233842D01*
X154993273Y-75303534D01*
X154972469Y-75335903D01*
X154974102Y-75337169D01*
X154969317Y-75343337D01*
X154885655Y-75484803D01*
X154885654Y-75484806D01*
X154839802Y-75642626D01*
X154839801Y-75642632D01*
X154836900Y-75679498D01*
X154836900Y-76110893D01*
X154839801Y-76147767D01*
X154839802Y-76147773D01*
X154885654Y-76305593D01*
X154885655Y-76305596D01*
X154885656Y-76305598D01*
X154906641Y-76341082D01*
X154969317Y-76447062D01*
X154974102Y-76453231D01*
X154971656Y-76455127D01*
X154998257Y-76503842D01*
X154993273Y-76573534D01*
X154972469Y-76605903D01*
X154974102Y-76607169D01*
X154969317Y-76613337D01*
X154885655Y-76754803D01*
X154885654Y-76754806D01*
X154839802Y-76912626D01*
X154839801Y-76912632D01*
X154836900Y-76949498D01*
X154836900Y-77380901D01*
X154839801Y-77417767D01*
X154839802Y-77417773D01*
X154885654Y-77575593D01*
X154885655Y-77575596D01*
X154885656Y-77575598D01*
X154923081Y-77638881D01*
X154969317Y-77717062D01*
X154974102Y-77723231D01*
X154971656Y-77725127D01*
X154998257Y-77773842D01*
X154993273Y-77843534D01*
X154972469Y-77875903D01*
X154974102Y-77877169D01*
X154969317Y-77883337D01*
X154885655Y-78024803D01*
X154885654Y-78024806D01*
X154839802Y-78182626D01*
X154839801Y-78182632D01*
X154836900Y-78219498D01*
X154836900Y-78650901D01*
X154839801Y-78687767D01*
X154839802Y-78687773D01*
X154885654Y-78845593D01*
X154885655Y-78845596D01*
X154885656Y-78845598D01*
X154901212Y-78871902D01*
X154969317Y-78987062D01*
X154974102Y-78993231D01*
X154971656Y-78995127D01*
X154998257Y-79043842D01*
X154993273Y-79113534D01*
X154972469Y-79145903D01*
X154974102Y-79147169D01*
X154969317Y-79153337D01*
X154885655Y-79294803D01*
X154885654Y-79294806D01*
X154839802Y-79452626D01*
X154839801Y-79452632D01*
X154836900Y-79489498D01*
X154836900Y-79920901D01*
X154839801Y-79957767D01*
X154870978Y-80065078D01*
X154870778Y-80134947D01*
X154832835Y-80193617D01*
X154769197Y-80222460D01*
X154765785Y-80222892D01*
X154608349Y-80240630D01*
X154608345Y-80240631D01*
X154438076Y-80300211D01*
X154285337Y-80396184D01*
X154157784Y-80523737D01*
X154061811Y-80676476D01*
X154002231Y-80846745D01*
X154002230Y-80846750D01*
X153982035Y-81025996D01*
X153982035Y-81026003D01*
X154002230Y-81205249D01*
X154003782Y-81212047D01*
X154001258Y-81212622D01*
X154004217Y-81270518D01*
X153969491Y-81331147D01*
X153907500Y-81363377D01*
X153883612Y-81365700D01*
X152898145Y-81365700D01*
X152898125Y-81365699D01*
X152892011Y-81365699D01*
X152768798Y-81365699D01*
X152768796Y-81365699D01*
X152668763Y-81385596D01*
X152668764Y-81385597D01*
X152647956Y-81389736D01*
X152647953Y-81389736D01*
X152647952Y-81389737D01*
X152647950Y-81389737D01*
X152647949Y-81389738D01*
X152601247Y-81409083D01*
X152601246Y-81409083D01*
X152534125Y-81436884D01*
X152534112Y-81436891D01*
X152431671Y-81505341D01*
X152431667Y-81505344D01*
X150964713Y-82972300D01*
X150477269Y-83459744D01*
X150477267Y-83459746D01*
X150455401Y-83481612D01*
X150390142Y-83546870D01*
X150369550Y-83577689D01*
X150369549Y-83577688D01*
X150321689Y-83649316D01*
X150321688Y-83649318D01*
X150306414Y-83686195D01*
X150306413Y-83686197D01*
X150274537Y-83763151D01*
X150274535Y-83763157D01*
X150263844Y-83816906D01*
X150255742Y-83857645D01*
X150255741Y-83857653D01*
X150250500Y-83883998D01*
X150250500Y-83924532D01*
X150230815Y-83991571D01*
X150178011Y-84037326D01*
X150108853Y-84047270D01*
X150045297Y-84018245D01*
X150021507Y-83990504D01*
X149981820Y-83927343D01*
X149981815Y-83927337D01*
X149854262Y-83799784D01*
X149830975Y-83785152D01*
X149751960Y-83735503D01*
X149705670Y-83683169D01*
X149694575Y-83617908D01*
X149698100Y-83583409D01*
X149698099Y-82583392D01*
X149693781Y-82541126D01*
X149687599Y-82480603D01*
X149687598Y-82480600D01*
X149632414Y-82314066D01*
X149540312Y-82164744D01*
X149416256Y-82040688D01*
X149266934Y-81948586D01*
X149100397Y-81893401D01*
X149100395Y-81893400D01*
X148997616Y-81882900D01*
X148387357Y-81882900D01*
X148320318Y-81863215D01*
X148274563Y-81810411D01*
X148264619Y-81741253D01*
X148293644Y-81677697D01*
X148324236Y-81652168D01*
X148339265Y-81643281D01*
X148455481Y-81527065D01*
X148539144Y-81385598D01*
X148584998Y-81227769D01*
X148587900Y-81190894D01*
X148587900Y-80759506D01*
X148584998Y-80722631D01*
X148571490Y-80676138D01*
X148539145Y-80564806D01*
X148539144Y-80564803D01*
X148539144Y-80564802D01*
X148455481Y-80423335D01*
X148455479Y-80423333D01*
X148455476Y-80423329D01*
X148339270Y-80307123D01*
X148339262Y-80307117D01*
X148240874Y-80248931D01*
X148197798Y-80223456D01*
X148197797Y-80223455D01*
X148197796Y-80223455D01*
X148197793Y-80223454D01*
X148039973Y-80177602D01*
X148039967Y-80177601D01*
X148003101Y-80174700D01*
X148003094Y-80174700D01*
X146121706Y-80174700D01*
X146121698Y-80174700D01*
X146084832Y-80177601D01*
X146084826Y-80177602D01*
X145927006Y-80223454D01*
X145927003Y-80223455D01*
X145785537Y-80307117D01*
X145785529Y-80307123D01*
X145669323Y-80423329D01*
X145669317Y-80423337D01*
X145585655Y-80564803D01*
X145585654Y-80564806D01*
X145539802Y-80722626D01*
X145539801Y-80722632D01*
X145536900Y-80759498D01*
X145536900Y-81190901D01*
X145539801Y-81227767D01*
X145539802Y-81227773D01*
X145585654Y-81385593D01*
X145585655Y-81385596D01*
X145585656Y-81385598D01*
X145623081Y-81448881D01*
X145669317Y-81527062D01*
X145669323Y-81527070D01*
X145785529Y-81643276D01*
X145785533Y-81643279D01*
X145785535Y-81643281D01*
X145812363Y-81659147D01*
X145911221Y-81717611D01*
X145958904Y-81768680D01*
X145972100Y-81824343D01*
X145972100Y-81852342D01*
X145952415Y-81919381D01*
X145913198Y-81957879D01*
X145849041Y-81997452D01*
X145778942Y-82040689D01*
X145654889Y-82164742D01*
X145562787Y-82314063D01*
X145562786Y-82314066D01*
X145507601Y-82480603D01*
X145507601Y-82480604D01*
X145507600Y-82480604D01*
X145497100Y-82583383D01*
X145497100Y-83583401D01*
X145497101Y-83583419D01*
X145507601Y-83686195D01*
X145507601Y-83686197D01*
X145540391Y-83785152D01*
X145562786Y-83852734D01*
X145654888Y-84002056D01*
X145778944Y-84126112D01*
X145928266Y-84218214D01*
X146094803Y-84273399D01*
X146134849Y-84277490D01*
X146199541Y-84303886D01*
X146239692Y-84361066D01*
X146242556Y-84430877D01*
X146239289Y-84441803D01*
X146194289Y-84570403D01*
X146194288Y-84570408D01*
X146174093Y-84749654D01*
X146174093Y-84749661D01*
X146194288Y-84928907D01*
X146194289Y-84928912D01*
X146253869Y-85099182D01*
X146304922Y-85180430D01*
X146326623Y-85214968D01*
X146335151Y-85228539D01*
X146354158Y-85294512D01*
X146354158Y-86595882D01*
X146334473Y-86662921D01*
X146317839Y-86683563D01*
X146256524Y-86744877D01*
X146160551Y-86897616D01*
X146100971Y-87067885D01*
X146100970Y-87067890D01*
X146080775Y-87247136D01*
X146080775Y-87247143D01*
X146100970Y-87426389D01*
X146100971Y-87426394D01*
X146160551Y-87596663D01*
X146163652Y-87601598D01*
X146256524Y-87749402D01*
X146384078Y-87876956D01*
X146536818Y-87972929D01*
X146707085Y-88032508D01*
X146707090Y-88032509D01*
X146886336Y-88052705D01*
X146886340Y-88052705D01*
X146886344Y-88052705D01*
X147065589Y-88032509D01*
X147065592Y-88032508D01*
X147065595Y-88032508D01*
X147235862Y-87972929D01*
X147388602Y-87876956D01*
X147516156Y-87749402D01*
X147612129Y-87596662D01*
X147671708Y-87426395D01*
X147671831Y-87425302D01*
X147691905Y-87247143D01*
X147691905Y-87247136D01*
X147671709Y-87067890D01*
X147671708Y-87067885D01*
X147617022Y-86911601D01*
X147612129Y-86897618D01*
X147612128Y-86897616D01*
X147612116Y-86897581D01*
X147605158Y-86856626D01*
X147605158Y-85294512D01*
X147624165Y-85228539D01*
X147632693Y-85214968D01*
X147705447Y-85099180D01*
X147765026Y-84928913D01*
X147767232Y-84909338D01*
X147785223Y-84749661D01*
X147785223Y-84749654D01*
X147765027Y-84570408D01*
X147765026Y-84570403D01*
X147705446Y-84400133D01*
X147661398Y-84330033D01*
X147642397Y-84262796D01*
X147662764Y-84195961D01*
X147716032Y-84150747D01*
X147785288Y-84141508D01*
X147831487Y-84158521D01*
X147928259Y-84218210D01*
X147928260Y-84218210D01*
X147928266Y-84218214D01*
X148094803Y-84273399D01*
X148197591Y-84283900D01*
X148270346Y-84283899D01*
X148337385Y-84303583D01*
X148358023Y-84320213D01*
X148525789Y-84487979D01*
X148559272Y-84549301D01*
X148561326Y-84561774D01*
X148566630Y-84608849D01*
X148626210Y-84779121D01*
X148701234Y-84898520D01*
X148722184Y-84931862D01*
X148849738Y-85059416D01*
X148853970Y-85062075D01*
X149000897Y-85154396D01*
X149002478Y-85155389D01*
X149172745Y-85214968D01*
X149172750Y-85214969D01*
X149351996Y-85235165D01*
X149352000Y-85235165D01*
X149352004Y-85235165D01*
X149531249Y-85214969D01*
X149531252Y-85214968D01*
X149531255Y-85214968D01*
X149701522Y-85155389D01*
X149854262Y-85059416D01*
X149981816Y-84931862D01*
X150021507Y-84868694D01*
X150073841Y-84822404D01*
X150142894Y-84811756D01*
X150206742Y-84840131D01*
X150245115Y-84898520D01*
X150250500Y-84934667D01*
X150250500Y-103822002D01*
X150261562Y-103877614D01*
X150274537Y-103942849D01*
X150282010Y-103960889D01*
X150286916Y-103972733D01*
X150302911Y-104011350D01*
X150321688Y-104056683D01*
X150340573Y-104084944D01*
X150340574Y-104084946D01*
X150390140Y-104159127D01*
X150390141Y-104159128D01*
X150390142Y-104159129D01*
X150477267Y-104246254D01*
X150477268Y-104246254D01*
X150484335Y-104253321D01*
X150484334Y-104253321D01*
X150484338Y-104253324D01*
X151602106Y-105371092D01*
X151635591Y-105432415D01*
X151630607Y-105502107D01*
X151588735Y-105558040D01*
X151528309Y-105581993D01*
X151458749Y-105589830D01*
X151458745Y-105589831D01*
X151288476Y-105649411D01*
X151135737Y-105745384D01*
X151008184Y-105872937D01*
X150912211Y-106025676D01*
X150852631Y-106195945D01*
X150852630Y-106195950D01*
X150832435Y-106375196D01*
X150832435Y-106375203D01*
X150852630Y-106554449D01*
X150852631Y-106554454D01*
X150912211Y-106724724D01*
X150993493Y-106854081D01*
X151012500Y-106920054D01*
X151012500Y-122066748D01*
X150992815Y-122133787D01*
X150976181Y-122154429D01*
X148011629Y-125118981D01*
X147950306Y-125152466D01*
X147923948Y-125155300D01*
X140264453Y-125155300D01*
X140197414Y-125135615D01*
X140176772Y-125118981D01*
X139591928Y-124534138D01*
X139591925Y-124534134D01*
X139591925Y-124534135D01*
X139584858Y-124527068D01*
X139584858Y-124527067D01*
X139497733Y-124439942D01*
X139497732Y-124439941D01*
X139497731Y-124439940D01*
X139446509Y-124405715D01*
X139395287Y-124371489D01*
X139395286Y-124371488D01*
X139395283Y-124371486D01*
X139395280Y-124371485D01*
X139314792Y-124338147D01*
X139281453Y-124324337D01*
X139271427Y-124322343D01*
X139221029Y-124312318D01*
X139160610Y-124300300D01*
X139160607Y-124300300D01*
X139160606Y-124300300D01*
X132762558Y-124300300D01*
X132695519Y-124280615D01*
X132657019Y-124241397D01*
X132575962Y-124109982D01*
X132574212Y-124107144D01*
X132450156Y-123983088D01*
X132300834Y-123890986D01*
X132134297Y-123835801D01*
X132134295Y-123835800D01*
X132031510Y-123825300D01*
X131031498Y-123825300D01*
X131031480Y-123825301D01*
X130928703Y-123835800D01*
X130928700Y-123835801D01*
X130762168Y-123890985D01*
X130762163Y-123890987D01*
X130612842Y-123983089D01*
X130488785Y-124107146D01*
X130487037Y-124109982D01*
X130485329Y-124111517D01*
X130484307Y-124112811D01*
X130484085Y-124112636D01*
X130435089Y-124156705D01*
X130366126Y-124167926D01*
X130302044Y-124140082D01*
X130275963Y-124109982D01*
X130274214Y-124107146D01*
X130150157Y-123983089D01*
X130150156Y-123983088D01*
X130000834Y-123890986D01*
X129941993Y-123871488D01*
X129884551Y-123831716D01*
X129857728Y-123767200D01*
X129857000Y-123753783D01*
X129857000Y-107044951D01*
X129876685Y-106977912D01*
X129893314Y-106957275D01*
X131730629Y-105119960D01*
X131730633Y-105119958D01*
X131817758Y-105032833D01*
X131886211Y-104930386D01*
X131933363Y-104816552D01*
X131942590Y-104770160D01*
X131955092Y-104707313D01*
X131955093Y-104707313D01*
X131955093Y-104707302D01*
X131957400Y-104695708D01*
X131957400Y-103181700D01*
X131977085Y-103114661D01*
X132029889Y-103068906D01*
X132081400Y-103057700D01*
X133416201Y-103057700D01*
X133483240Y-103077385D01*
X133528995Y-103130189D01*
X133540201Y-103181700D01*
X133540201Y-103515234D01*
X133550813Y-103634615D01*
X133606789Y-103830245D01*
X133606790Y-103830248D01*
X133606791Y-103830249D01*
X133701002Y-104010607D01*
X133701004Y-104010609D01*
X133829590Y-104168309D01*
X133910472Y-104234259D01*
X133987293Y-104296898D01*
X134167651Y-104391109D01*
X134363282Y-104447086D01*
X134482663Y-104457700D01*
X135598736Y-104457699D01*
X135718118Y-104447086D01*
X135913749Y-104391109D01*
X136094107Y-104296898D01*
X136251809Y-104168309D01*
X136380398Y-104010607D01*
X136474609Y-103830249D01*
X136530586Y-103634618D01*
X136541200Y-103515237D01*
X136541199Y-103211346D01*
X136560883Y-103144309D01*
X136613687Y-103098554D01*
X136682846Y-103088610D01*
X136730297Y-103105811D01*
X136735166Y-103108814D01*
X136901703Y-103163999D01*
X137004491Y-103174500D01*
X137469369Y-103174499D01*
X137536408Y-103194183D01*
X137557050Y-103210818D01*
X140640381Y-106294149D01*
X140673866Y-106355472D01*
X140676700Y-106381830D01*
X140676700Y-109033779D01*
X140676700Y-109033781D01*
X140676699Y-109033781D01*
X140705540Y-109178768D01*
X140705543Y-109178778D01*
X140762112Y-109315349D01*
X140762116Y-109315356D01*
X140785062Y-109349697D01*
X140785063Y-109349700D01*
X140785064Y-109349700D01*
X140844251Y-109438281D01*
X140844252Y-109438282D01*
X147505188Y-116099216D01*
X147608019Y-116202047D01*
X147609724Y-116203752D01*
X147732637Y-116285880D01*
X147732650Y-116285887D01*
X147869221Y-116342456D01*
X147869226Y-116342458D01*
X147869230Y-116342458D01*
X147869231Y-116342459D01*
X148014218Y-116371300D01*
X148014221Y-116371300D01*
X148798028Y-116371300D01*
X148838983Y-116378258D01*
X148918745Y-116406168D01*
X148918750Y-116406169D01*
X149097996Y-116426365D01*
X149098000Y-116426365D01*
X149098004Y-116426365D01*
X149277249Y-116406169D01*
X149277252Y-116406168D01*
X149277255Y-116406168D01*
X149447522Y-116346589D01*
X149600262Y-116250616D01*
X149727816Y-116123062D01*
X149823789Y-115970322D01*
X149883368Y-115800055D01*
X149883369Y-115800049D01*
X149903565Y-115620803D01*
X149903565Y-115620796D01*
X149883369Y-115441550D01*
X149883368Y-115441545D01*
X149846128Y-115335119D01*
X149823789Y-115271278D01*
X149727816Y-115118538D01*
X149600262Y-114990984D01*
X149517519Y-114938993D01*
X149447523Y-114895011D01*
X149277254Y-114835431D01*
X149277250Y-114835430D01*
X149095988Y-114815007D01*
X149031574Y-114787940D01*
X148992019Y-114730345D01*
X148986652Y-114677902D01*
X148989165Y-114655600D01*
X148989165Y-114655597D01*
X148968969Y-114476350D01*
X148968968Y-114476345D01*
X148915485Y-114323500D01*
X148909389Y-114306078D01*
X148813416Y-114153338D01*
X148685862Y-114025784D01*
X148607801Y-113976735D01*
X148533116Y-113929807D01*
X148526847Y-113926788D01*
X148527729Y-113924956D01*
X148491660Y-113902292D01*
X142914019Y-108324651D01*
X142880534Y-108263328D01*
X142877700Y-108236970D01*
X142877700Y-104461279D01*
X142848859Y-104316292D01*
X142848858Y-104316291D01*
X142848858Y-104316287D01*
X142819850Y-104246255D01*
X142792285Y-104179707D01*
X142778535Y-104159129D01*
X142728967Y-104084944D01*
X142710152Y-104056784D01*
X140877735Y-102224367D01*
X137777621Y-99124252D01*
X137777614Y-99124246D01*
X137689035Y-99065060D01*
X137688936Y-99064995D01*
X137654695Y-99042116D01*
X137654694Y-99042115D01*
X137654692Y-99042114D01*
X137518117Y-98985543D01*
X137518107Y-98985540D01*
X137373120Y-98956700D01*
X137373118Y-98956700D01*
X130206373Y-98956700D01*
X130139334Y-98937015D01*
X130109726Y-98910387D01*
X129988422Y-98759478D01*
X129988421Y-98759477D01*
X129839995Y-98640169D01*
X129839992Y-98640167D01*
X129669397Y-98555560D01*
X129484592Y-98509600D01*
X129463206Y-98508150D01*
X129441823Y-98506700D01*
X129441820Y-98506700D01*
X128039577Y-98506700D01*
X128039574Y-98506701D01*
X127996813Y-98509599D01*
X127996812Y-98509599D01*
X127983803Y-98512835D01*
X127953877Y-98516500D01*
X127724499Y-98516500D01*
X127657460Y-98496815D01*
X127611705Y-98444011D01*
X127600499Y-98392500D01*
X127600499Y-98299998D01*
X127600498Y-98299981D01*
X127589999Y-98197203D01*
X127589998Y-98197200D01*
X127572004Y-98142897D01*
X127534814Y-98030666D01*
X127442712Y-97881344D01*
X127318656Y-97757288D01*
X127169334Y-97665186D01*
X127002797Y-97610001D01*
X127002795Y-97610000D01*
X126900010Y-97599500D01*
X125499998Y-97599500D01*
X125499981Y-97599501D01*
X125397203Y-97610000D01*
X125397200Y-97610001D01*
X125230668Y-97665185D01*
X125230663Y-97665187D01*
X125081342Y-97757289D01*
X124957289Y-97881342D01*
X124865187Y-98030663D01*
X124865186Y-98030666D01*
X124810001Y-98197203D01*
X124810001Y-98197204D01*
X124810000Y-98197204D01*
X124799500Y-98299983D01*
X124799500Y-98678663D01*
X124779815Y-98745702D01*
X124763181Y-98766345D01*
X124664538Y-98864987D01*
X124603214Y-98898471D01*
X124533523Y-98893487D01*
X124489176Y-98864986D01*
X121661819Y-96037629D01*
X121628334Y-95976306D01*
X121625500Y-95949948D01*
X121625500Y-92586999D01*
X121645185Y-92519960D01*
X121697989Y-92474205D01*
X121749500Y-92462999D01*
X123000002Y-92462999D01*
X123000008Y-92462999D01*
X123102797Y-92452499D01*
X123269334Y-92397314D01*
X123418656Y-92305212D01*
X123542712Y-92181156D01*
X123634814Y-92031834D01*
X123689999Y-91865297D01*
X123700500Y-91762509D01*
X123700499Y-90837492D01*
X123698738Y-90820257D01*
X123689999Y-90734703D01*
X123689998Y-90734700D01*
X123681171Y-90708063D01*
X123634814Y-90568166D01*
X123542712Y-90418844D01*
X123418656Y-90294788D01*
X123269334Y-90202686D01*
X123102797Y-90147501D01*
X123102795Y-90147500D01*
X123000016Y-90137000D01*
X121699500Y-90137000D01*
X121632461Y-90117315D01*
X121586706Y-90064511D01*
X121575500Y-90013000D01*
X121575500Y-89461999D01*
X121595185Y-89394960D01*
X121647989Y-89349205D01*
X121699495Y-89337999D01*
X123000008Y-89337999D01*
X123102797Y-89327499D01*
X123197863Y-89295996D01*
X123267688Y-89293595D01*
X123327730Y-89329326D01*
X123344469Y-89354965D01*
X123345285Y-89354483D01*
X123349255Y-89361196D01*
X123349256Y-89361198D01*
X123363295Y-89384936D01*
X123432917Y-89502662D01*
X123432923Y-89502670D01*
X123549129Y-89618876D01*
X123549133Y-89618879D01*
X123549135Y-89618881D01*
X123690602Y-89702544D01*
X123716706Y-89710128D01*
X123848426Y-89748397D01*
X123848429Y-89748397D01*
X123848431Y-89748398D01*
X123885306Y-89751300D01*
X123885314Y-89751300D01*
X125191686Y-89751300D01*
X125191694Y-89751300D01*
X125228569Y-89748398D01*
X125228571Y-89748397D01*
X125228573Y-89748397D01*
X125270191Y-89736305D01*
X125386398Y-89702544D01*
X125527865Y-89618881D01*
X125644081Y-89502665D01*
X125727744Y-89361198D01*
X125769861Y-89216231D01*
X125773597Y-89203373D01*
X125773598Y-89203367D01*
X125775205Y-89182944D01*
X125776500Y-89166494D01*
X125776500Y-88925300D01*
X125796185Y-88858261D01*
X125848989Y-88812506D01*
X125900500Y-88801300D01*
X127066686Y-88801300D01*
X127066694Y-88801300D01*
X127103569Y-88798398D01*
X127103571Y-88798397D01*
X127103573Y-88798397D01*
X127145191Y-88786305D01*
X127261398Y-88752544D01*
X127261405Y-88752539D01*
X127263429Y-88751665D01*
X127265162Y-88751450D01*
X127268890Y-88750368D01*
X127269064Y-88750969D01*
X127332772Y-88743102D01*
X127395736Y-88773389D01*
X127418218Y-88800365D01*
X127430485Y-88820252D01*
X127430488Y-88820256D01*
X127554544Y-88944312D01*
X127703866Y-89036414D01*
X127870403Y-89091599D01*
X127973191Y-89102100D01*
X128973208Y-89102099D01*
X128973216Y-89102098D01*
X128973219Y-89102098D01*
X129029502Y-89096348D01*
X129075997Y-89091599D01*
X129242534Y-89036414D01*
X129391856Y-88944312D01*
X129426919Y-88909249D01*
X129488242Y-88875764D01*
X129557934Y-88880748D01*
X129602281Y-88909249D01*
X129606951Y-88913919D01*
X129640436Y-88975242D01*
X129635452Y-89044934D01*
X129606951Y-89089281D01*
X129513289Y-89182942D01*
X129421187Y-89332263D01*
X129421185Y-89332268D01*
X129403733Y-89384936D01*
X129366001Y-89498803D01*
X129366001Y-89498804D01*
X129366000Y-89498804D01*
X129355500Y-89601583D01*
X129355500Y-90401601D01*
X129355501Y-90401619D01*
X129366000Y-90504396D01*
X129366001Y-90504399D01*
X129406661Y-90627100D01*
X129421186Y-90670934D01*
X129513288Y-90820256D01*
X129637344Y-90944312D01*
X129786666Y-91036414D01*
X129953203Y-91091599D01*
X130055991Y-91102100D01*
X131056008Y-91102099D01*
X131056016Y-91102098D01*
X131056019Y-91102098D01*
X131112302Y-91096348D01*
X131158797Y-91091599D01*
X131325334Y-91036414D01*
X131474656Y-90944312D01*
X131598712Y-90820256D01*
X131667913Y-90708061D01*
X131719859Y-90661338D01*
X131788822Y-90650115D01*
X131839423Y-90668165D01*
X131933676Y-90727388D01*
X131933678Y-90727389D01*
X132103945Y-90786968D01*
X132103950Y-90786969D01*
X132283196Y-90807165D01*
X132283200Y-90807165D01*
X132283204Y-90807165D01*
X132462449Y-90786969D01*
X132462452Y-90786968D01*
X132462455Y-90786968D01*
X132632722Y-90727389D01*
X132785462Y-90631416D01*
X132913016Y-90503862D01*
X133008989Y-90351122D01*
X133068568Y-90180855D01*
X133068569Y-90180849D01*
X133088765Y-90001603D01*
X133088765Y-90001596D01*
X133068569Y-89822350D01*
X133068568Y-89822345D01*
X133042692Y-89748397D01*
X133008989Y-89652078D01*
X132913016Y-89499338D01*
X132785462Y-89371784D01*
X132632723Y-89275811D01*
X132462454Y-89216231D01*
X132462449Y-89216230D01*
X132283204Y-89196035D01*
X132283196Y-89196035D01*
X132103950Y-89216230D01*
X132103945Y-89216231D01*
X131933674Y-89275812D01*
X131839422Y-89335034D01*
X131772185Y-89354034D01*
X131705350Y-89333666D01*
X131667912Y-89295136D01*
X131653835Y-89272314D01*
X131598712Y-89182944D01*
X131505049Y-89089281D01*
X131471564Y-89027958D01*
X131476548Y-88958266D01*
X131505049Y-88913919D01*
X131543204Y-88875764D01*
X131598712Y-88820256D01*
X131690814Y-88670934D01*
X131745999Y-88504397D01*
X131756500Y-88401609D01*
X131756499Y-87601592D01*
X131755995Y-87596663D01*
X131745999Y-87498803D01*
X131745998Y-87498800D01*
X131690814Y-87332266D01*
X131598712Y-87182944D01*
X131474656Y-87058888D01*
X131325334Y-86966786D01*
X131158797Y-86911601D01*
X131158795Y-86911600D01*
X131056010Y-86901100D01*
X130055998Y-86901100D01*
X130055980Y-86901101D01*
X129953203Y-86911600D01*
X129953200Y-86911601D01*
X129786668Y-86966785D01*
X129786663Y-86966787D01*
X129637342Y-87058889D01*
X129602281Y-87093951D01*
X129540958Y-87127436D01*
X129471266Y-87122452D01*
X129426919Y-87093951D01*
X129391857Y-87058889D01*
X129391856Y-87058888D01*
X129242534Y-86966786D01*
X129075997Y-86911601D01*
X129075995Y-86911600D01*
X128973210Y-86901100D01*
X127973198Y-86901100D01*
X127973180Y-86901101D01*
X127870403Y-86911600D01*
X127870400Y-86911601D01*
X127703868Y-86966785D01*
X127703863Y-86966787D01*
X127554542Y-87058889D01*
X127430488Y-87182943D01*
X127418997Y-87201573D01*
X127367048Y-87248296D01*
X127298085Y-87259516D01*
X127264210Y-87250273D01*
X127261393Y-87249054D01*
X127103573Y-87203202D01*
X127103567Y-87203201D01*
X127066701Y-87200300D01*
X127066694Y-87200300D01*
X126050551Y-87200300D01*
X125983512Y-87180615D01*
X125937757Y-87127811D01*
X125927813Y-87058653D01*
X125956838Y-86995097D01*
X125962870Y-86988619D01*
X126794072Y-86157417D01*
X130089857Y-82861634D01*
X130099764Y-82846808D01*
X130158311Y-82759186D01*
X130205463Y-82645352D01*
X130216462Y-82590054D01*
X130217787Y-82583395D01*
X130217787Y-82583391D01*
X130229500Y-82524507D01*
X130229500Y-82401294D01*
X130229500Y-81926099D01*
X130249185Y-81859060D01*
X130301989Y-81813305D01*
X130353500Y-81802099D01*
X130651871Y-81802099D01*
X130651872Y-81802099D01*
X130711483Y-81795691D01*
X130846331Y-81745396D01*
X130961546Y-81659146D01*
X131047796Y-81543931D01*
X131098091Y-81409083D01*
X131104500Y-81349473D01*
X131104499Y-79253728D01*
X131098091Y-79194117D01*
X131082880Y-79153335D01*
X131047797Y-79059271D01*
X131047793Y-79059264D01*
X130961547Y-78944055D01*
X130961544Y-78944052D01*
X130846335Y-78857806D01*
X130846328Y-78857802D01*
X130711482Y-78807508D01*
X130711483Y-78807508D01*
X130651883Y-78801101D01*
X130651881Y-78801100D01*
X130651873Y-78801100D01*
X130651864Y-78801100D01*
X128556129Y-78801100D01*
X128556123Y-78801101D01*
X128496516Y-78807508D01*
X128361671Y-78857802D01*
X128361664Y-78857806D01*
X128246455Y-78944052D01*
X128246452Y-78944055D01*
X128160206Y-79059264D01*
X128160202Y-79059271D01*
X128109908Y-79194117D01*
X128105187Y-79238034D01*
X128103501Y-79253723D01*
X128103500Y-79253735D01*
X128103500Y-81349470D01*
X128103501Y-81349476D01*
X128109908Y-81409083D01*
X128160202Y-81543928D01*
X128160206Y-81543935D01*
X128246452Y-81659144D01*
X128246455Y-81659147D01*
X128361664Y-81745393D01*
X128361671Y-81745397D01*
X128406618Y-81762161D01*
X128496517Y-81795691D01*
X128556127Y-81802100D01*
X128854500Y-81802099D01*
X128921539Y-81821783D01*
X128967294Y-81874587D01*
X128978500Y-81926099D01*
X128978500Y-82152446D01*
X128958815Y-82219485D01*
X128942181Y-82240127D01*
X123785506Y-87396801D01*
X123724183Y-87430286D01*
X123654491Y-87425302D01*
X123598558Y-87383430D01*
X123592286Y-87374217D01*
X123542712Y-87293844D01*
X123418656Y-87169788D01*
X123269334Y-87077686D01*
X123102797Y-87022501D01*
X123102795Y-87022500D01*
X123000016Y-87012000D01*
X123000009Y-87012000D01*
X122223351Y-87012000D01*
X122156312Y-86992315D01*
X122110557Y-86939511D01*
X122100613Y-86870353D01*
X122129638Y-86806797D01*
X122135670Y-86800319D01*
X122894679Y-86041310D01*
X123775730Y-85160258D01*
X123837051Y-85126775D01*
X123906743Y-85131759D01*
X123922426Y-85138886D01*
X123982873Y-85171597D01*
X123999190Y-85180428D01*
X124234386Y-85261171D01*
X124479665Y-85302100D01*
X124728335Y-85302100D01*
X124973614Y-85261171D01*
X125208810Y-85180428D01*
X125427509Y-85062074D01*
X125623744Y-84909338D01*
X125792164Y-84726385D01*
X125928173Y-84518207D01*
X126028063Y-84290481D01*
X126089108Y-84049421D01*
X126090110Y-84037326D01*
X126109643Y-83801605D01*
X126109643Y-83801594D01*
X126089109Y-83553787D01*
X126089107Y-83553775D01*
X126028063Y-83312718D01*
X125928173Y-83084993D01*
X125792166Y-82876817D01*
X125764536Y-82846803D01*
X125623744Y-82693862D01*
X125427509Y-82541126D01*
X125427507Y-82541125D01*
X125427506Y-82541124D01*
X125208811Y-82422772D01*
X125208802Y-82422769D01*
X124973616Y-82342029D01*
X124728335Y-82301100D01*
X124479665Y-82301100D01*
X124234383Y-82342029D01*
X123999197Y-82422769D01*
X123999188Y-82422772D01*
X123780493Y-82541124D01*
X123584257Y-82693861D01*
X123415833Y-82876817D01*
X123279826Y-83084993D01*
X123179936Y-83312718D01*
X123118892Y-83553775D01*
X123118890Y-83553787D01*
X123099307Y-83790134D01*
X123098357Y-83801600D01*
X123108776Y-83927343D01*
X123114030Y-83990754D01*
X123099948Y-84059190D01*
X123078134Y-84088674D01*
X121337181Y-85829628D01*
X121275858Y-85863113D01*
X121206166Y-85858129D01*
X121150233Y-85816257D01*
X121125816Y-85750793D01*
X121125500Y-85741947D01*
X121125500Y-82981151D01*
X121145185Y-82914112D01*
X121161814Y-82893475D01*
X128777871Y-75277417D01*
X128839194Y-75243933D01*
X128865552Y-75241099D01*
X129542602Y-75241099D01*
X129542608Y-75241099D01*
X129645397Y-75230599D01*
X129811934Y-75175414D01*
X129961256Y-75083312D01*
X130085312Y-74959256D01*
X130177414Y-74809934D01*
X130205195Y-74726095D01*
X130244968Y-74668651D01*
X130309484Y-74641828D01*
X130322901Y-74641100D01*
X131616074Y-74641100D01*
X131683113Y-74660785D01*
X131717649Y-74693977D01*
X131794071Y-74803120D01*
X131945078Y-74954127D01*
X131980207Y-74978724D01*
X132120019Y-75076621D01*
X132120021Y-75076622D01*
X132120020Y-75076622D01*
X132184536Y-75106706D01*
X132313570Y-75166876D01*
X132519853Y-75222149D01*
X132671815Y-75235444D01*
X132732598Y-75240762D01*
X132732600Y-75240762D01*
X132732602Y-75240762D01*
X132785786Y-75236108D01*
X132945347Y-75222149D01*
X133151630Y-75166876D01*
X133345181Y-75076621D01*
X133520119Y-74954129D01*
X133671129Y-74803119D01*
X133793621Y-74628181D01*
X133883876Y-74434630D01*
X133883880Y-74434613D01*
X133885730Y-74429536D01*
X133887853Y-74430309D01*
X133919176Y-74378905D01*
X133982019Y-74348366D01*
X134051396Y-74356650D01*
X134105280Y-74401128D01*
X134118427Y-74429915D01*
X134119470Y-74429536D01*
X134121322Y-74434622D01*
X134121324Y-74434630D01*
X134163771Y-74525658D01*
X134211577Y-74628178D01*
X134334072Y-74803121D01*
X134485078Y-74954127D01*
X134520207Y-74978724D01*
X134660019Y-75076621D01*
X134660021Y-75076622D01*
X134660020Y-75076622D01*
X134724536Y-75106706D01*
X134853570Y-75166876D01*
X135059853Y-75222149D01*
X135211815Y-75235444D01*
X135272598Y-75240762D01*
X135272600Y-75240762D01*
X135272602Y-75240762D01*
X135325786Y-75236108D01*
X135485347Y-75222149D01*
X135691630Y-75166876D01*
X135885181Y-75076621D01*
X136060119Y-74954129D01*
X136211129Y-74803119D01*
X136333621Y-74628181D01*
X136423876Y-74434630D01*
X136479149Y-74228347D01*
X136497762Y-74015600D01*
X136479149Y-73802853D01*
X136423876Y-73596570D01*
X136333621Y-73403019D01*
X136211129Y-73228081D01*
X136060119Y-73077071D01*
X135950976Y-73000648D01*
X135907351Y-72946071D01*
X135898100Y-72899073D01*
X135898100Y-72562851D01*
X135917785Y-72495812D01*
X135934414Y-72475175D01*
X137994353Y-70415235D01*
X138055674Y-70381752D01*
X138114125Y-70383143D01*
X138120332Y-70384806D01*
X138214592Y-70410063D01*
X138394634Y-70425815D01*
X138449999Y-70430659D01*
X138450000Y-70430659D01*
X138450001Y-70430659D01*
X138505366Y-70425815D01*
X138685408Y-70410063D01*
X138913663Y-70348903D01*
X139013098Y-70302535D01*
X139082172Y-70292044D01*
X139145956Y-70320563D01*
X139184196Y-70379040D01*
X139189500Y-70414918D01*
X139189500Y-71640805D01*
X139213535Y-71761641D01*
X139213540Y-71761658D01*
X139225487Y-71790498D01*
X139225488Y-71790500D01*
X139260685Y-71875476D01*
X139260687Y-71875479D01*
X139260688Y-71875481D01*
X139294915Y-71926704D01*
X139329140Y-71977926D01*
X139329141Y-71977927D01*
X139329142Y-71977928D01*
X139416267Y-72065053D01*
X139416268Y-72065053D01*
X139423335Y-72072120D01*
X139423334Y-72072120D01*
X139423338Y-72072123D01*
X142527381Y-75176166D01*
X142560866Y-75237489D01*
X142563700Y-75263847D01*
X142563700Y-77148691D01*
X142544015Y-77215730D01*
X142527381Y-77236372D01*
X142521123Y-77242629D01*
X142521117Y-77242637D01*
X142437455Y-77384103D01*
X142437454Y-77384106D01*
X142391602Y-77541926D01*
X142391601Y-77541932D01*
X142388700Y-77578798D01*
X142388700Y-78885201D01*
X142391601Y-78922067D01*
X142391602Y-78922073D01*
X142437454Y-79079893D01*
X142437455Y-79079896D01*
X142521117Y-79221362D01*
X142521123Y-79221370D01*
X142637329Y-79337576D01*
X142637333Y-79337579D01*
X142637335Y-79337581D01*
X142778802Y-79421244D01*
X142820424Y-79433336D01*
X142936626Y-79467097D01*
X142936629Y-79467097D01*
X142936631Y-79467098D01*
X142973506Y-79470000D01*
X143214700Y-79470000D01*
X143281739Y-79489685D01*
X143327494Y-79542489D01*
X143338700Y-79594000D01*
X143338700Y-80760201D01*
X143341601Y-80797067D01*
X143341602Y-80797073D01*
X143387454Y-80954893D01*
X143387455Y-80954896D01*
X143387456Y-80954898D01*
X143436689Y-81038146D01*
X143458715Y-81075391D01*
X143475898Y-81143115D01*
X143453738Y-81209378D01*
X143417080Y-81244051D01*
X143319742Y-81304089D01*
X143226081Y-81397751D01*
X143164758Y-81431236D01*
X143095066Y-81426252D01*
X143050719Y-81397751D01*
X142957057Y-81304089D01*
X142957056Y-81304088D01*
X142833329Y-81227773D01*
X142807736Y-81211987D01*
X142807731Y-81211985D01*
X142764697Y-81197725D01*
X142641197Y-81156801D01*
X142641195Y-81156800D01*
X142538410Y-81146300D01*
X141738398Y-81146300D01*
X141738380Y-81146301D01*
X141635603Y-81156800D01*
X141635600Y-81156801D01*
X141469068Y-81211985D01*
X141469063Y-81211987D01*
X141319742Y-81304089D01*
X141195689Y-81428142D01*
X141103587Y-81577463D01*
X141103586Y-81577466D01*
X141090557Y-81616787D01*
X141084089Y-81636305D01*
X141044316Y-81693749D01*
X140979800Y-81720572D01*
X140966383Y-81721300D01*
X140427043Y-81721300D01*
X140360004Y-81701615D01*
X140314249Y-81648811D01*
X140304305Y-81579653D01*
X140322050Y-81531327D01*
X140324188Y-81527924D01*
X140332090Y-81505341D01*
X140383768Y-81357655D01*
X140384690Y-81349472D01*
X140403965Y-81178403D01*
X140403965Y-81178396D01*
X140383769Y-80999150D01*
X140383768Y-80999145D01*
X140324189Y-80828878D01*
X140228216Y-80676138D01*
X140100662Y-80548584D01*
X140061120Y-80523738D01*
X139947923Y-80452611D01*
X139777654Y-80393031D01*
X139777649Y-80393030D01*
X139598404Y-80372835D01*
X139598396Y-80372835D01*
X139419150Y-80393030D01*
X139419145Y-80393031D01*
X139248876Y-80452611D01*
X139096137Y-80548584D01*
X139013181Y-80631541D01*
X138951858Y-80665026D01*
X138882166Y-80660042D01*
X138826233Y-80618170D01*
X138801816Y-80552706D01*
X138801500Y-80543860D01*
X138801500Y-79482989D01*
X138798916Y-79470002D01*
X138798914Y-79469994D01*
X138788360Y-79416929D01*
X138788360Y-79416928D01*
X138777464Y-79362153D01*
X138777463Y-79362152D01*
X138777463Y-79362148D01*
X138741833Y-79276130D01*
X138730312Y-79248315D01*
X138710953Y-79219343D01*
X138661858Y-79145867D01*
X138661856Y-79145864D01*
X138571637Y-79055645D01*
X138571606Y-79055616D01*
X137746218Y-78230228D01*
X137712733Y-78168905D01*
X137709899Y-78142547D01*
X137709899Y-77477998D01*
X137709898Y-77477981D01*
X137699399Y-77375203D01*
X137699398Y-77375200D01*
X137644214Y-77208666D01*
X137552112Y-77059344D01*
X137428056Y-76935288D01*
X137278734Y-76843186D01*
X137112197Y-76788001D01*
X137112195Y-76788000D01*
X137009410Y-76777500D01*
X136209398Y-76777500D01*
X136209380Y-76777501D01*
X136106603Y-76788000D01*
X136106600Y-76788001D01*
X135940068Y-76843185D01*
X135940063Y-76843187D01*
X135790742Y-76935289D01*
X135666689Y-77059342D01*
X135574587Y-77208663D01*
X135574586Y-77208666D01*
X135519401Y-77375203D01*
X135519401Y-77375204D01*
X135519400Y-77375204D01*
X135508900Y-77477983D01*
X135508900Y-78142546D01*
X135489215Y-78209585D01*
X135472581Y-78230227D01*
X135288522Y-78414287D01*
X135015037Y-78687773D01*
X134862629Y-78840181D01*
X134801306Y-78873666D01*
X134774948Y-78876500D01*
X134767388Y-78876500D01*
X134700349Y-78856815D01*
X134665813Y-78823623D01*
X134553245Y-78662858D01*
X134392341Y-78501954D01*
X134205934Y-78371432D01*
X134205932Y-78371431D01*
X133999697Y-78275261D01*
X133999688Y-78275258D01*
X133779897Y-78216366D01*
X133779893Y-78216365D01*
X133779892Y-78216365D01*
X133779891Y-78216364D01*
X133779886Y-78216364D01*
X133553202Y-78196532D01*
X133553198Y-78196532D01*
X133326513Y-78216364D01*
X133326502Y-78216366D01*
X133106711Y-78275258D01*
X133106702Y-78275261D01*
X132900467Y-78371431D01*
X132900465Y-78371432D01*
X132714058Y-78501954D01*
X132553154Y-78662858D01*
X132422632Y-78849265D01*
X132422631Y-78849267D01*
X132326461Y-79055502D01*
X132326458Y-79055511D01*
X132267566Y-79275302D01*
X132267564Y-79275313D01*
X132247732Y-79501998D01*
X132247732Y-79502001D01*
X132267564Y-79728686D01*
X132267566Y-79728697D01*
X132326458Y-79948488D01*
X132326461Y-79948497D01*
X132422631Y-80154732D01*
X132422632Y-80154734D01*
X132553154Y-80341141D01*
X132714058Y-80502045D01*
X132714061Y-80502047D01*
X132900466Y-80632568D01*
X133106704Y-80728739D01*
X133326508Y-80787635D01*
X133488430Y-80801801D01*
X133553198Y-80807468D01*
X133553200Y-80807468D01*
X133553202Y-80807468D01*
X133609873Y-80802509D01*
X133779892Y-80787635D01*
X133999696Y-80728739D01*
X134205934Y-80632568D01*
X134392339Y-80502047D01*
X134553247Y-80341139D01*
X134635649Y-80223456D01*
X134665813Y-80180377D01*
X134720389Y-80136752D01*
X134767388Y-80127500D01*
X135147007Y-80127500D01*
X135207429Y-80115481D01*
X135267852Y-80103463D01*
X135267855Y-80103461D01*
X135267858Y-80103461D01*
X135301187Y-80089654D01*
X135301186Y-80089654D01*
X135301192Y-80089652D01*
X135381686Y-80056312D01*
X135458008Y-80005314D01*
X135484133Y-79987858D01*
X135571258Y-79900733D01*
X135571258Y-79900731D01*
X135581466Y-79890524D01*
X135581468Y-79890521D01*
X136257171Y-79214818D01*
X136318494Y-79181333D01*
X136344852Y-79178499D01*
X136873947Y-79178499D01*
X136940986Y-79198184D01*
X136961628Y-79214818D01*
X137514181Y-79767371D01*
X137547666Y-79828694D01*
X137550500Y-79855052D01*
X137550500Y-81479583D01*
X137530815Y-81546622D01*
X137478011Y-81592377D01*
X137465510Y-81597286D01*
X137416133Y-81613649D01*
X137406666Y-81616786D01*
X137406663Y-81616787D01*
X137257342Y-81708889D01*
X137133289Y-81832942D01*
X137041187Y-81982263D01*
X137041185Y-81982268D01*
X137036153Y-81997454D01*
X136986001Y-82148803D01*
X136986001Y-82148804D01*
X136986000Y-82148804D01*
X136975500Y-82251583D01*
X136975500Y-83051601D01*
X136975501Y-83051619D01*
X136986000Y-83154396D01*
X136986001Y-83154399D01*
X137023429Y-83267348D01*
X137041186Y-83320934D01*
X137126805Y-83459746D01*
X137133289Y-83470257D01*
X137226950Y-83563918D01*
X137260435Y-83625241D01*
X137255451Y-83694933D01*
X137226953Y-83739278D01*
X137209584Y-83756648D01*
X137148262Y-83790134D01*
X137078570Y-83785152D01*
X137034220Y-83756651D01*
X136986457Y-83708889D01*
X136986456Y-83708888D01*
X136850842Y-83625241D01*
X136837136Y-83616787D01*
X136837131Y-83616785D01*
X136807457Y-83606952D01*
X136670597Y-83561601D01*
X136670595Y-83561600D01*
X136567810Y-83551100D01*
X135567798Y-83551100D01*
X135567780Y-83551101D01*
X135465003Y-83561600D01*
X135465000Y-83561601D01*
X135298468Y-83616785D01*
X135298463Y-83616787D01*
X135149142Y-83708889D01*
X135025089Y-83832942D01*
X134932987Y-83982263D01*
X134932985Y-83982268D01*
X134926428Y-84002056D01*
X134877801Y-84148803D01*
X134877801Y-84148804D01*
X134877800Y-84148804D01*
X134867300Y-84251583D01*
X134867300Y-85051601D01*
X134867301Y-85051619D01*
X134877800Y-85154396D01*
X134877801Y-85154399D01*
X134926745Y-85302100D01*
X134932986Y-85320934D01*
X135017746Y-85458353D01*
X135025089Y-85470257D01*
X135150751Y-85595919D01*
X135184236Y-85657242D01*
X135179252Y-85726934D01*
X135150751Y-85771281D01*
X135025089Y-85896942D01*
X134932987Y-86046263D01*
X134932985Y-86046268D01*
X134913345Y-86105538D01*
X134877801Y-86212803D01*
X134877801Y-86212804D01*
X134877800Y-86212804D01*
X134867300Y-86315583D01*
X134867300Y-87115601D01*
X134867301Y-87115619D01*
X134877800Y-87218396D01*
X134877801Y-87218399D01*
X134932985Y-87384931D01*
X134932987Y-87384936D01*
X134957885Y-87425302D01*
X135017237Y-87521528D01*
X135025089Y-87534257D01*
X135118751Y-87627919D01*
X135152236Y-87689242D01*
X135147252Y-87758934D01*
X135118751Y-87803281D01*
X135025089Y-87896942D01*
X134932987Y-88046263D01*
X134932986Y-88046266D01*
X134877801Y-88212803D01*
X134877801Y-88212804D01*
X134877800Y-88212804D01*
X134867300Y-88315583D01*
X134867300Y-89115601D01*
X134867301Y-89115619D01*
X134877800Y-89218396D01*
X134877801Y-89218399D01*
X134932985Y-89384931D01*
X134932987Y-89384936D01*
X135025089Y-89534257D01*
X135150751Y-89659919D01*
X135184236Y-89721242D01*
X135179252Y-89790934D01*
X135150751Y-89835281D01*
X135025089Y-89960942D01*
X134932987Y-90110263D01*
X134932985Y-90110268D01*
X134914898Y-90164852D01*
X134877801Y-90276803D01*
X134877801Y-90276804D01*
X134877800Y-90276804D01*
X134867300Y-90379583D01*
X134867300Y-91179601D01*
X134867301Y-91179619D01*
X134877800Y-91282396D01*
X134877801Y-91282399D01*
X134932985Y-91448931D01*
X134932987Y-91448936D01*
X135025089Y-91598257D01*
X135118751Y-91691919D01*
X135152236Y-91753242D01*
X135147252Y-91822934D01*
X135118751Y-91867281D01*
X135025089Y-91960942D01*
X134932987Y-92110263D01*
X134932986Y-92110266D01*
X134877801Y-92276803D01*
X134877801Y-92276804D01*
X134877800Y-92276804D01*
X134867300Y-92379583D01*
X134867300Y-93179601D01*
X134867301Y-93179619D01*
X134877800Y-93282396D01*
X134877801Y-93282399D01*
X134932985Y-93448931D01*
X134932986Y-93448934D01*
X135025088Y-93598256D01*
X135149144Y-93722312D01*
X135298466Y-93814414D01*
X135465003Y-93869599D01*
X135567791Y-93880100D01*
X136567808Y-93880099D01*
X136567816Y-93880098D01*
X136567819Y-93880098D01*
X136624102Y-93874348D01*
X136670597Y-93869599D01*
X136837134Y-93814414D01*
X136986456Y-93722312D01*
X137034219Y-93674549D01*
X137095542Y-93641064D01*
X137165234Y-93646048D01*
X137209581Y-93674549D01*
X137257344Y-93722312D01*
X137406666Y-93814414D01*
X137573203Y-93869599D01*
X137675991Y-93880100D01*
X138676008Y-93880099D01*
X138676016Y-93880098D01*
X138676019Y-93880098D01*
X138732302Y-93874348D01*
X138778797Y-93869599D01*
X138945334Y-93814414D01*
X139094656Y-93722312D01*
X139218712Y-93598256D01*
X139310814Y-93448934D01*
X139365999Y-93282397D01*
X139376500Y-93179609D01*
X139376499Y-92379592D01*
X139365999Y-92276803D01*
X139310814Y-92110266D01*
X139218712Y-91960944D01*
X139125049Y-91867281D01*
X139091564Y-91805958D01*
X139096548Y-91736266D01*
X139125049Y-91691919D01*
X139218712Y-91598256D01*
X139310814Y-91448934D01*
X139365999Y-91282397D01*
X139376500Y-91179609D01*
X139376499Y-90379592D01*
X139365999Y-90276803D01*
X139310814Y-90110266D01*
X139218712Y-89960944D01*
X139094656Y-89836888D01*
X139093049Y-89835281D01*
X139059564Y-89773958D01*
X139064548Y-89704266D01*
X139093049Y-89659919D01*
X139151385Y-89601583D01*
X139218712Y-89534256D01*
X139310814Y-89384934D01*
X139365999Y-89218397D01*
X139376500Y-89115609D01*
X139376499Y-88315592D01*
X139365999Y-88212803D01*
X139310814Y-88046266D01*
X139218712Y-87896944D01*
X139125049Y-87803281D01*
X139091564Y-87741958D01*
X139096548Y-87672266D01*
X139125049Y-87627919D01*
X139156306Y-87596662D01*
X139218712Y-87534256D01*
X139310814Y-87384934D01*
X139365999Y-87218397D01*
X139376500Y-87115609D01*
X139376499Y-86315592D01*
X139365999Y-86212803D01*
X139310814Y-86046266D01*
X139218712Y-85896944D01*
X139094656Y-85772888D01*
X139093049Y-85771281D01*
X139059564Y-85709958D01*
X139064548Y-85640266D01*
X139093049Y-85595919D01*
X139094656Y-85594312D01*
X139218712Y-85470256D01*
X139310814Y-85320934D01*
X139365999Y-85154397D01*
X139376500Y-85051609D01*
X139376499Y-84251592D01*
X139376070Y-84247396D01*
X139365999Y-84148803D01*
X139365998Y-84148800D01*
X139356402Y-84119842D01*
X139310814Y-83982266D01*
X139218712Y-83832944D01*
X139125049Y-83739281D01*
X139091564Y-83677958D01*
X139096548Y-83608266D01*
X139125049Y-83563919D01*
X139169697Y-83519271D01*
X139218712Y-83470256D01*
X139310814Y-83320934D01*
X139365999Y-83154397D01*
X139370688Y-83108498D01*
X139373222Y-83083697D01*
X139399618Y-83019006D01*
X139456799Y-82978854D01*
X139496580Y-82972300D01*
X140966383Y-82972300D01*
X141033422Y-82991985D01*
X141079177Y-83044789D01*
X141084086Y-83057289D01*
X141103586Y-83116134D01*
X141195688Y-83265456D01*
X141319744Y-83389512D01*
X141469066Y-83481614D01*
X141635603Y-83536799D01*
X141738391Y-83547300D01*
X142538408Y-83547299D01*
X142538416Y-83547298D01*
X142538419Y-83547298D01*
X142594702Y-83541548D01*
X142641197Y-83536799D01*
X142807734Y-83481614D01*
X142957056Y-83389512D01*
X143050719Y-83295849D01*
X143112042Y-83262364D01*
X143181734Y-83267348D01*
X143226081Y-83295849D01*
X143319744Y-83389512D01*
X143469066Y-83481614D01*
X143635603Y-83536799D01*
X143738391Y-83547300D01*
X144538408Y-83547299D01*
X144538416Y-83547298D01*
X144538419Y-83547298D01*
X144594702Y-83541548D01*
X144641197Y-83536799D01*
X144807734Y-83481614D01*
X144957056Y-83389512D01*
X145081112Y-83265456D01*
X145173214Y-83116134D01*
X145228399Y-82949597D01*
X145238900Y-82846809D01*
X145238899Y-81846792D01*
X145237484Y-81832944D01*
X145228399Y-81744003D01*
X145228398Y-81744000D01*
X145220635Y-81720572D01*
X145173214Y-81577466D01*
X145081112Y-81428144D01*
X144957056Y-81304088D01*
X144860891Y-81244773D01*
X144814168Y-81192826D01*
X144802945Y-81123863D01*
X144819257Y-81076114D01*
X144826123Y-81064504D01*
X144890944Y-80954898D01*
X144936798Y-80797069D01*
X144939700Y-80760194D01*
X144939700Y-79453806D01*
X144937138Y-79421245D01*
X144936798Y-79416929D01*
X144936797Y-79416926D01*
X144895652Y-79275308D01*
X144890944Y-79259102D01*
X144807281Y-79117635D01*
X144807279Y-79117633D01*
X144807276Y-79117629D01*
X144691070Y-79001423D01*
X144691062Y-79001417D01*
X144594062Y-78944052D01*
X144549598Y-78917756D01*
X144549597Y-78917755D01*
X144549596Y-78917755D01*
X144549593Y-78917754D01*
X144391773Y-78871902D01*
X144391767Y-78871901D01*
X144354901Y-78869000D01*
X144354894Y-78869000D01*
X144113700Y-78869000D01*
X144046661Y-78849315D01*
X144000906Y-78796511D01*
X143989700Y-78745000D01*
X143989700Y-77578813D01*
X143989699Y-77578798D01*
X143989447Y-77575598D01*
X143986798Y-77541931D01*
X143940944Y-77384102D01*
X143857281Y-77242635D01*
X143857279Y-77242633D01*
X143857276Y-77242629D01*
X143851019Y-77236372D01*
X143817534Y-77175049D01*
X143814700Y-77148691D01*
X143814700Y-75532360D01*
X143834385Y-75465321D01*
X143887189Y-75419566D01*
X143956347Y-75409622D01*
X144019903Y-75438647D01*
X144026381Y-75444679D01*
X145500581Y-76918879D01*
X145534066Y-76980202D01*
X145536900Y-77006560D01*
X145536900Y-77380901D01*
X145539801Y-77417767D01*
X145539802Y-77417773D01*
X145585654Y-77575593D01*
X145585655Y-77575596D01*
X145585656Y-77575598D01*
X145623081Y-77638881D01*
X145669317Y-77717062D01*
X145669323Y-77717070D01*
X145785529Y-77833276D01*
X145785533Y-77833279D01*
X145785535Y-77833281D01*
X145927002Y-77916944D01*
X145941142Y-77921052D01*
X146084826Y-77962797D01*
X146084829Y-77962797D01*
X146084831Y-77962798D01*
X146121706Y-77965700D01*
X146121714Y-77965700D01*
X148003086Y-77965700D01*
X148003094Y-77965700D01*
X148039969Y-77962798D01*
X148039971Y-77962797D01*
X148039973Y-77962797D01*
X148081591Y-77950705D01*
X148197798Y-77916944D01*
X148339265Y-77833281D01*
X148455481Y-77717065D01*
X148539144Y-77575598D01*
X148584998Y-77417769D01*
X148587900Y-77380894D01*
X148587900Y-76949506D01*
X148584998Y-76912631D01*
X148564822Y-76843187D01*
X148539145Y-76754806D01*
X148539144Y-76754803D01*
X148539144Y-76754802D01*
X148455481Y-76613335D01*
X148455478Y-76613332D01*
X148450698Y-76607169D01*
X148453150Y-76605266D01*
X148426555Y-76556621D01*
X148431504Y-76486926D01*
X148452340Y-76454504D01*
X148450698Y-76453231D01*
X148455475Y-76447070D01*
X148455481Y-76447065D01*
X148539144Y-76305598D01*
X148584998Y-76147769D01*
X148587900Y-76110894D01*
X148587900Y-75679506D01*
X148584998Y-75642631D01*
X148539144Y-75484802D01*
X148455481Y-75343335D01*
X148455478Y-75343332D01*
X148450698Y-75337169D01*
X148453150Y-75335266D01*
X148426555Y-75286621D01*
X148431504Y-75216926D01*
X148452340Y-75184504D01*
X148450698Y-75183231D01*
X148455475Y-75177070D01*
X148455481Y-75177065D01*
X148539144Y-75035598D01*
X148584998Y-74877769D01*
X148587900Y-74840894D01*
X148587900Y-74409506D01*
X148584998Y-74372631D01*
X148577948Y-74348366D01*
X148539145Y-74214806D01*
X148539144Y-74214803D01*
X148539144Y-74214802D01*
X148455481Y-74073335D01*
X148455478Y-74073332D01*
X148450698Y-74067169D01*
X148453150Y-74065266D01*
X148426555Y-74016621D01*
X148431504Y-73946926D01*
X148452340Y-73914504D01*
X148450698Y-73913231D01*
X148455475Y-73907070D01*
X148455481Y-73907065D01*
X148539144Y-73765598D01*
X148584998Y-73607769D01*
X148587900Y-73570894D01*
X148587900Y-73139506D01*
X148584998Y-73102631D01*
X148577571Y-73077069D01*
X148540041Y-72947889D01*
X148539144Y-72944802D01*
X148455481Y-72803335D01*
X148455479Y-72803333D01*
X148455476Y-72803329D01*
X148339270Y-72687123D01*
X148339262Y-72687117D01*
X148216697Y-72614633D01*
X148197798Y-72603456D01*
X148197797Y-72603455D01*
X148197796Y-72603455D01*
X148197793Y-72603454D01*
X148039973Y-72557602D01*
X148039967Y-72557601D01*
X148003101Y-72554700D01*
X148003094Y-72554700D01*
X146121706Y-72554700D01*
X146121698Y-72554700D01*
X146084832Y-72557601D01*
X146084826Y-72557602D01*
X145927006Y-72603454D01*
X145927003Y-72603455D01*
X145835501Y-72657569D01*
X145767776Y-72674752D01*
X145731425Y-72667878D01*
X145579262Y-72614633D01*
X145579249Y-72614630D01*
X145400004Y-72594435D01*
X145399996Y-72594435D01*
X145220750Y-72614630D01*
X145220745Y-72614631D01*
X145050476Y-72674211D01*
X144897737Y-72770184D01*
X144817181Y-72850741D01*
X144755858Y-72884226D01*
X144686166Y-72879242D01*
X144630233Y-72837370D01*
X144605816Y-72771906D01*
X144605500Y-72763060D01*
X144605500Y-71475451D01*
X144625185Y-71408412D01*
X144641814Y-71387774D01*
X145614353Y-70415235D01*
X145675674Y-70381752D01*
X145734125Y-70383143D01*
X145740332Y-70384806D01*
X145834592Y-70410063D01*
X146014634Y-70425815D01*
X146069999Y-70430659D01*
X146070000Y-70430659D01*
X146070001Y-70430659D01*
X146125366Y-70425815D01*
X146305408Y-70410063D01*
X146533663Y-70348903D01*
X146747830Y-70249035D01*
X146941401Y-70113495D01*
X147108495Y-69946401D01*
X147244035Y-69752830D01*
X147343903Y-69538663D01*
X147405063Y-69310408D01*
X147425659Y-69075000D01*
X147405063Y-68839592D01*
X147343903Y-68611337D01*
X147253144Y-68416705D01*
X147242652Y-68347627D01*
X147271172Y-68283843D01*
X147329648Y-68245604D01*
X147365526Y-68240300D01*
X157474474Y-68240300D01*
X157541513Y-68259985D01*
G37*
G04 #@! TD.AperFunction*
G04 #@! TA.AperFunction,Conductor*
G36*
X152954334Y-83490770D02*
G01*
X153010267Y-83532642D01*
X153034684Y-83598106D01*
X153035000Y-83606952D01*
X153035000Y-103251000D01*
X157123127Y-103251000D01*
X157190166Y-103270685D01*
X157233610Y-103318704D01*
X157247283Y-103345538D01*
X157381714Y-103530566D01*
X157543434Y-103692286D01*
X157728462Y-103826717D01*
X157881489Y-103904688D01*
X157932244Y-103930549D01*
X158149751Y-104001221D01*
X158149752Y-104001221D01*
X158149755Y-104001222D01*
X158375646Y-104037000D01*
X158375647Y-104037000D01*
X158604353Y-104037000D01*
X158604354Y-104037000D01*
X158830245Y-104001222D01*
X158830248Y-104001221D01*
X158830249Y-104001221D01*
X159047755Y-103930549D01*
X159047755Y-103930548D01*
X159047758Y-103930548D01*
X159251538Y-103826717D01*
X159436566Y-103692286D01*
X159598286Y-103530566D01*
X159659683Y-103446059D01*
X159715012Y-103403396D01*
X159784625Y-103397417D01*
X159846420Y-103430023D01*
X159860314Y-103446056D01*
X159921714Y-103530566D01*
X160083434Y-103692286D01*
X160268462Y-103826717D01*
X160421489Y-103904688D01*
X160472244Y-103930549D01*
X160689751Y-104001221D01*
X160689752Y-104001221D01*
X160689755Y-104001222D01*
X160915646Y-104037000D01*
X160915647Y-104037000D01*
X161144353Y-104037000D01*
X161144354Y-104037000D01*
X161370245Y-104001222D01*
X161370248Y-104001221D01*
X161370249Y-104001221D01*
X161587755Y-103930549D01*
X161587755Y-103930548D01*
X161587758Y-103930548D01*
X161791538Y-103826717D01*
X161976566Y-103692286D01*
X162138286Y-103530566D01*
X162199683Y-103446059D01*
X162255012Y-103403396D01*
X162324625Y-103397417D01*
X162386420Y-103430023D01*
X162400314Y-103446056D01*
X162461714Y-103530566D01*
X162623434Y-103692286D01*
X162808462Y-103826717D01*
X162961489Y-103904688D01*
X163012246Y-103930550D01*
X163062361Y-103946833D01*
X163120037Y-103986269D01*
X163147236Y-104050628D01*
X163135322Y-104119474D01*
X163129583Y-104129860D01*
X163065189Y-104234259D01*
X163065186Y-104234266D01*
X163050522Y-104278521D01*
X163045689Y-104293105D01*
X163005916Y-104350549D01*
X162941400Y-104377372D01*
X162927983Y-104378100D01*
X162723855Y-104378100D01*
X162657883Y-104359094D01*
X162528523Y-104277811D01*
X162358254Y-104218231D01*
X162358249Y-104218230D01*
X162179004Y-104198035D01*
X162178996Y-104198035D01*
X161999750Y-104218230D01*
X161999745Y-104218231D01*
X161829476Y-104277811D01*
X161676737Y-104373784D01*
X161549184Y-104501337D01*
X161453211Y-104654076D01*
X161393631Y-104824345D01*
X161393630Y-104824350D01*
X161373435Y-105003596D01*
X161373435Y-105003603D01*
X161393630Y-105182849D01*
X161393631Y-105182854D01*
X161453211Y-105353123D01*
X161549184Y-105505862D01*
X161676737Y-105633415D01*
X161676743Y-105633420D01*
X161739904Y-105673107D01*
X161786195Y-105725441D01*
X161796843Y-105794495D01*
X161768468Y-105858343D01*
X161710078Y-105896715D01*
X161673932Y-105902100D01*
X155069490Y-105902100D01*
X155002451Y-105882415D01*
X154964496Y-105844072D01*
X154945659Y-105814093D01*
X154818106Y-105686540D01*
X154665367Y-105590567D01*
X154495098Y-105530987D01*
X154495093Y-105530986D01*
X154315848Y-105510791D01*
X154315840Y-105510791D01*
X154223777Y-105521163D01*
X154154956Y-105509108D01*
X154122214Y-105485624D01*
X151987819Y-103351229D01*
X151954334Y-103289906D01*
X151951500Y-103263548D01*
X151951500Y-84442452D01*
X151971185Y-84375413D01*
X151987819Y-84354771D01*
X152823319Y-83519271D01*
X152884642Y-83485786D01*
X152954334Y-83490770D01*
G37*
G04 #@! TD.AperFunction*
M02*
