G04 #@! TF.GenerationSoftware,KiCad,Pcbnew,8.0.8+1*
G04 #@! TF.ProjectId,airsoft_bomb_v2,61697273-6f66-4745-9f62-6f6d625f7632,rev?*
G04 #@! TF.SameCoordinates,Original*
G04 #@! TF.FileFunction,Soldermask,Top*
G04 #@! TF.FilePolarity,Negative*
%FSLAX46Y46*%
G04 Gerber Fmt 4.6, Leading zero omitted, Abs format (unit mm)*
%MOMM*%
%LPD*%
G01*
G04 APERTURE LIST*
G04 #@! TA.AperFunction,Profile*
%ADD10C,0.200000*%
G04 #@! TD*
%ADD11R,1.700000X1.700000*%
%ADD12O,1.700000X1.700000*%
%ADD13R,2.000000X2.000000*%
%ADD14C,2.000000*%
%ADD15C,3.200000*%
%ADD16C,1.600000*%
%ADD17O,1.600000X1.600000*%
%ADD18O,2.108200X4.108200*%
%ADD19O,3.600000X1.800000*%
G04 APERTURE END LIST*
D10*
X178890534Y-60866736D02*
X175878500Y-58216800D01*
X116027200Y-134823200D02*
X111607600Y-131216400D01*
X131300000Y-58216800D02*
X131300000Y-63100000D01*
X178890534Y-60866736D02*
G75*
G02*
X178943000Y-72262999I-1827134J-5706664D01*
G01*
X111607601Y-98145600D02*
G75*
G02*
X112827677Y-95200077I4165599J0D01*
G01*
X175878500Y-58216800D02*
X131300000Y-58216800D01*
X118059200Y-89916000D02*
X118100000Y-70700000D01*
X116027200Y-134823200D02*
X178943000Y-134874000D01*
X178943000Y-134874000D02*
X178943000Y-72263000D01*
X123354416Y-64154416D02*
G75*
G02*
X125900000Y-63100001I2545584J-2545584D01*
G01*
X112827676Y-95200076D02*
X118059200Y-89916000D01*
X123354416Y-64154416D02*
X118100000Y-70700000D01*
X131300000Y-63100000D02*
X125900000Y-63100000D01*
X111607600Y-131216400D02*
X111607600Y-98145600D01*
D11*
X154140000Y-123975000D03*
D12*
X156680000Y-123975000D03*
X159220000Y-123975000D03*
X161760000Y-123975000D03*
X164300000Y-123975000D03*
X166840000Y-123975000D03*
X169380000Y-123975000D03*
X171920000Y-123975000D03*
X174460000Y-123975000D03*
X177000000Y-123975000D03*
D13*
X119481600Y-123708000D03*
D14*
X119481600Y-131308000D03*
D11*
X171470000Y-69075000D03*
D12*
X168930000Y-69075000D03*
X166390000Y-69075000D03*
X163850000Y-69075000D03*
X161310000Y-69075000D03*
X158770000Y-69075000D03*
X156230000Y-69075000D03*
X153690000Y-69075000D03*
X151150000Y-69075000D03*
X148610000Y-69075000D03*
X146070000Y-69075000D03*
X143530000Y-69075000D03*
X140990000Y-69075000D03*
X138450000Y-69075000D03*
X135910000Y-69075000D03*
X133370000Y-69075000D03*
D15*
X115773200Y-98196400D03*
D13*
X129604000Y-80301600D03*
D14*
X124604000Y-83801600D03*
D13*
X123211600Y-112324000D03*
D14*
X118211600Y-115824000D03*
D15*
X177063400Y-66573400D03*
D16*
X133553200Y-87122000D03*
D17*
X133553200Y-79502000D03*
D18*
X158490000Y-84344000D03*
X161030000Y-84344000D03*
X163570000Y-84344000D03*
X166110000Y-84344000D03*
X171190000Y-84344000D03*
X168650000Y-84344000D03*
X176270000Y-101584000D03*
X176270000Y-84344000D03*
X173730000Y-101584000D03*
X171190000Y-101584000D03*
X168650000Y-101584000D03*
X166110000Y-101584000D03*
X163570000Y-101584000D03*
X161030000Y-101584000D03*
X158490000Y-101584000D03*
X173730000Y-84344000D03*
D15*
X125831600Y-66751200D03*
D13*
X145224000Y-123473200D03*
D14*
X148724000Y-128473200D03*
G36*
G01*
X172567000Y-112130000D02*
X175667000Y-112130000D01*
G75*
G02*
X175917000Y-112380000I0J-250000D01*
G01*
X175917000Y-113680000D01*
G75*
G02*
X175667000Y-113930000I-250000J0D01*
G01*
X172567000Y-113930000D01*
G75*
G02*
X172317000Y-113680000I0J250000D01*
G01*
X172317000Y-112380000D01*
G75*
G02*
X172567000Y-112130000I250000J0D01*
G01*
G37*
D19*
X174117000Y-116530000D03*
M02*
