%TF.GenerationSoftware,KiCad,Pcbnew,8.0.8+1*%
%TF.ProjectId,airsoft_bomb_v2,61697273-6f66-4745-9f62-6f6d625f7632,rev?*%
%TF.SameCoordinates,Original*%
%TF.FileFunction,Drillmap*%
%TF.FilePolarity,Positive*%
%FSLAX45Y45*%
G04 Gerber Fmt 4.5, Leading zero omitted, Abs format (unit mm)*
%MOMM*%
%LPD*%
G01*
G04 APERTURE LIST*
%ADD10C,0.200000*%
%ADD11C,0.100000*%
%ADD12C,0.120000*%
%ADD13C,0.127000*%
%ADD14C,0.130000*%
G04 APERTURE END LIST*
D10*
X17889053Y-6086674D02*
X17587850Y-5821680D01*
X11602720Y-13482320D02*
X11160760Y-13121640D01*
X13130000Y-5821680D02*
X13130000Y-6310000D01*
X17889053Y-6086674D02*
G75*
G02*
X17894300Y-7226300I-182713J-570666D01*
G01*
X11160760Y-9814560D02*
G75*
G02*
X11282768Y-9520008I416560J0D01*
G01*
X17587850Y-5821680D02*
X13130000Y-5821680D01*
X11805920Y-8991600D02*
X11810000Y-7070000D01*
X11602720Y-13482320D02*
X17894300Y-13487400D01*
X17894300Y-13487400D02*
X17894300Y-7226300D01*
X12335442Y-6415442D02*
G75*
G02*
X12590000Y-6310000I254558J-254558D01*
G01*
X11282768Y-9520008D02*
X11805920Y-8991600D01*
X12335442Y-6415442D02*
X11810000Y-7070000D01*
X13130000Y-6310000D02*
X12590000Y-6310000D01*
X11160760Y-13121640D02*
X11160760Y-9814560D01*
D11*
X11935000Y-9075000D02*
X11965000Y-9105000D01*
X11965000Y-9075000D02*
X11935000Y-9105000D01*
X11935000Y-9195000D02*
X11965000Y-9225000D01*
X11965000Y-9195000D02*
X11935000Y-9225000D01*
X11935000Y-9305000D02*
X11965000Y-9335000D01*
X11965000Y-9305000D02*
X11935000Y-9335000D01*
X11935000Y-9435000D02*
X11965000Y-9465000D01*
X11965000Y-9435000D02*
X11935000Y-9465000D01*
X11935000Y-9555000D02*
X11965000Y-9585000D01*
X11965000Y-9555000D02*
X11935000Y-9585000D01*
X12175000Y-9265000D02*
X12205000Y-9295000D01*
X12205000Y-9265000D02*
X12175000Y-9295000D01*
X12175000Y-9355000D02*
X12205000Y-9385000D01*
X12205000Y-9355000D02*
X12175000Y-9385000D01*
X12265000Y-9265000D02*
X12295000Y-9295000D01*
X12295000Y-9265000D02*
X12265000Y-9295000D01*
X12375000Y-9095000D02*
X12405000Y-9125000D01*
X12405000Y-9095000D02*
X12375000Y-9125000D01*
X12525000Y-10495000D02*
X12555000Y-10525000D01*
X12555000Y-10495000D02*
X12525000Y-10525000D01*
X12545000Y-9405000D02*
X12575000Y-9435000D01*
X12575000Y-9405000D02*
X12545000Y-9435000D01*
X12552920Y-7335760D02*
X12582920Y-7365760D01*
X12582920Y-7335760D02*
X12552920Y-7365760D01*
X12552920Y-7437360D02*
X12582920Y-7467360D01*
X12582920Y-7437360D02*
X12552920Y-7467360D01*
X12605000Y-10495000D02*
X12635000Y-10525000D01*
X12635000Y-10495000D02*
X12605000Y-10525000D01*
X12665000Y-9405000D02*
X12695000Y-9435000D01*
X12695000Y-9405000D02*
X12665000Y-9435000D01*
X12685000Y-10495000D02*
X12715000Y-10525000D01*
X12715000Y-10495000D02*
X12685000Y-10525000D01*
X12715000Y-9115000D02*
X12745000Y-9145000D01*
X12745000Y-9115000D02*
X12715000Y-9145000D01*
X12805000Y-10595000D02*
X12835000Y-10625000D01*
X12835000Y-10595000D02*
X12805000Y-10625000D01*
X12884814Y-10593398D02*
X12914814Y-10623398D01*
X12914814Y-10593398D02*
X12884814Y-10623398D01*
X12913600Y-8621000D02*
X12943600Y-8651000D01*
X12943600Y-8621000D02*
X12913600Y-8651000D01*
X12935000Y-9115000D02*
X12965000Y-9145000D01*
X12965000Y-9115000D02*
X12935000Y-9145000D01*
X13111720Y-7742160D02*
X13141720Y-7772160D01*
X13141720Y-7742160D02*
X13111720Y-7772160D01*
X13147280Y-8621000D02*
X13177280Y-8651000D01*
X13177280Y-8621000D02*
X13147280Y-8651000D01*
X13215000Y-7745000D02*
X13245000Y-7775000D01*
X13245000Y-7745000D02*
X13215000Y-7775000D01*
X13269200Y-12319240D02*
X13299200Y-12349240D01*
X13299200Y-12319240D02*
X13269200Y-12349240D01*
X13345400Y-12634200D02*
X13375400Y-12664200D01*
X13375400Y-12634200D02*
X13345400Y-12664200D01*
X13415000Y-12969480D02*
X13445000Y-12999480D01*
X13445000Y-12969480D02*
X13415000Y-12999480D01*
X13441920Y-12319240D02*
X13471920Y-12349240D01*
X13471920Y-12319240D02*
X13441920Y-12349240D01*
X13513040Y-10546320D02*
X13543040Y-10576320D01*
X13543040Y-10546320D02*
X13513040Y-10576320D01*
X13518120Y-12634200D02*
X13548120Y-12664200D01*
X13548120Y-12634200D02*
X13518120Y-12664200D01*
X13553680Y-9703980D02*
X13583680Y-9733980D01*
X13583680Y-9703980D02*
X13553680Y-9733980D01*
X13609560Y-10541240D02*
X13639560Y-10571240D01*
X13639560Y-10541240D02*
X13609560Y-10571240D01*
X13619720Y-12319240D02*
X13649720Y-12349240D01*
X13649720Y-12319240D02*
X13619720Y-12349240D01*
X13695920Y-12634200D02*
X13725920Y-12664200D01*
X13725920Y-12634200D02*
X13695920Y-12664200D01*
X13761960Y-9703980D02*
X13791960Y-9733980D01*
X13791960Y-9703980D02*
X13761960Y-9733980D01*
X13833080Y-12319240D02*
X13863080Y-12349240D01*
X13863080Y-12319240D02*
X13833080Y-12349240D01*
X13919440Y-10673320D02*
X13949440Y-10703320D01*
X13949440Y-10673320D02*
X13919440Y-10703320D01*
X13929600Y-10937480D02*
X13959600Y-10967480D01*
X13959600Y-10937480D02*
X13929600Y-10967480D01*
X13944840Y-8102840D02*
X13974840Y-8132840D01*
X13974840Y-8102840D02*
X13944840Y-8132840D01*
X13955000Y-8697200D02*
X13985000Y-8727200D01*
X13985000Y-8697200D02*
X13955000Y-8727200D01*
X13984700Y-7737080D02*
X14014700Y-7767080D01*
X14014700Y-7737080D02*
X13984700Y-7767080D01*
X13984700Y-7838680D02*
X14014700Y-7868680D01*
X14014700Y-7838680D02*
X13984700Y-7868680D01*
X14010880Y-12319240D02*
X14040880Y-12349240D01*
X14040880Y-12319240D02*
X14010880Y-12349240D01*
X14071840Y-9002000D02*
X14101840Y-9032000D01*
X14101840Y-9002000D02*
X14071840Y-9032000D01*
X14082000Y-8697200D02*
X14112000Y-8727200D01*
X14112000Y-8697200D02*
X14082000Y-8727200D01*
X14082000Y-11110200D02*
X14112000Y-11140200D01*
X14112000Y-11110200D02*
X14082000Y-11140200D01*
X14087080Y-12695160D02*
X14117080Y-12725160D01*
X14117080Y-12695160D02*
X14087080Y-12725160D01*
X14145000Y-12185000D02*
X14175000Y-12215000D01*
X14175000Y-12185000D02*
X14145000Y-12215000D01*
X14163280Y-7859000D02*
X14193280Y-7889000D01*
X14193280Y-7859000D02*
X14163280Y-7889000D01*
X14225000Y-12055000D02*
X14255000Y-12085000D01*
X14255000Y-12055000D02*
X14225000Y-12085000D01*
X14234400Y-8608300D02*
X14264400Y-8638300D01*
X14264400Y-8608300D02*
X14234400Y-8638300D01*
X14239480Y-11288000D02*
X14269480Y-11318000D01*
X14269480Y-11288000D02*
X14239480Y-11318000D01*
X14272500Y-11630900D02*
X14302500Y-11660900D01*
X14302500Y-11630900D02*
X14272500Y-11660900D01*
X14300440Y-8006320D02*
X14330440Y-8036320D01*
X14330440Y-8006320D02*
X14300440Y-8036320D01*
X14330920Y-9002000D02*
X14360920Y-9032000D01*
X14360920Y-9002000D02*
X14330920Y-9032000D01*
X14330920Y-9261080D02*
X14360920Y-9291080D01*
X14360920Y-9261080D02*
X14330920Y-9291080D01*
X14330920Y-9520160D02*
X14360920Y-9550160D01*
X14360920Y-9520160D02*
X14330920Y-9550160D01*
X14330920Y-9789400D02*
X14360920Y-9819400D01*
X14360920Y-9789400D02*
X14330920Y-9819400D01*
X14330920Y-10084040D02*
X14360920Y-10114040D01*
X14360920Y-10084040D02*
X14330920Y-10114040D01*
X14330920Y-10383760D02*
X14360920Y-10413760D01*
X14360920Y-10383760D02*
X14330920Y-10413760D01*
X14330920Y-10713960D02*
X14360920Y-10743960D01*
X14360920Y-10713960D02*
X14330920Y-10743960D01*
X14366480Y-8483840D02*
X14396480Y-8513840D01*
X14396480Y-8483840D02*
X14366480Y-8513840D01*
X14445500Y-7145000D02*
X14475500Y-7175000D01*
X14475500Y-7145000D02*
X14445500Y-7175000D01*
X14445500Y-7215000D02*
X14475500Y-7245000D01*
X14475500Y-7215000D02*
X14445500Y-7245000D01*
X14463000Y-7726920D02*
X14493000Y-7756920D01*
X14493000Y-7726920D02*
X14463000Y-7756920D01*
X14483320Y-8377160D02*
X14513320Y-8407160D01*
X14513320Y-8377160D02*
X14483320Y-8407160D01*
X14515000Y-7145000D02*
X14545000Y-7175000D01*
X14545000Y-7145000D02*
X14515000Y-7175000D01*
X14515000Y-7215000D02*
X14545000Y-7245000D01*
X14545000Y-7215000D02*
X14515000Y-7245000D01*
X14525000Y-7325000D02*
X14555000Y-7355000D01*
X14555000Y-7325000D02*
X14525000Y-7355000D01*
X14564600Y-12695160D02*
X14594600Y-12725160D01*
X14594600Y-12695160D02*
X14564600Y-12725160D01*
X14630640Y-9113760D02*
X14660640Y-9143760D01*
X14660640Y-9113760D02*
X14630640Y-9143760D01*
X14630640Y-9372840D02*
X14660640Y-9402840D01*
X14660640Y-9372840D02*
X14630640Y-9402840D01*
X14630640Y-9631920D02*
X14660640Y-9661920D01*
X14660640Y-9631920D02*
X14630640Y-9661920D01*
X14630640Y-9901160D02*
X14660640Y-9931160D01*
X14660640Y-9901160D02*
X14630640Y-9931160D01*
X14630640Y-10195800D02*
X14660640Y-10225800D01*
X14660640Y-10195800D02*
X14630640Y-10225800D01*
X14630640Y-10495520D02*
X14660640Y-10525520D01*
X14660640Y-10495520D02*
X14630640Y-10525520D01*
X14630640Y-10825720D02*
X14660640Y-10855720D01*
X14660640Y-10825720D02*
X14630640Y-10855720D01*
X14635000Y-11715000D02*
X14665000Y-11745000D01*
X14665000Y-11715000D02*
X14635000Y-11745000D01*
X14673634Y-8709714D02*
X14703634Y-8739714D01*
X14703634Y-8709714D02*
X14673634Y-8739714D01*
X14682966Y-8459966D02*
X14712966Y-8489966D01*
X14712966Y-8459966D02*
X14682966Y-8489966D01*
X14765000Y-12165000D02*
X14795000Y-12195000D01*
X14795000Y-12165000D02*
X14765000Y-12195000D01*
X14772880Y-11110200D02*
X14802880Y-11140200D01*
X14802880Y-11110200D02*
X14772880Y-11140200D01*
X14803360Y-11450560D02*
X14833360Y-11480560D01*
X14833360Y-11450560D02*
X14803360Y-11480560D01*
X14838920Y-8656560D02*
X14868920Y-8686560D01*
X14868920Y-8656560D02*
X14838920Y-8686560D01*
X14874480Y-7879320D02*
X14904480Y-7909320D01*
X14904480Y-7879320D02*
X14874480Y-7909320D01*
X14894800Y-11547080D02*
X14924800Y-11577080D01*
X14924800Y-11547080D02*
X14894800Y-11577080D01*
X14899880Y-7975840D02*
X14929880Y-8005840D01*
X14929880Y-7975840D02*
X14899880Y-8005840D01*
X14920200Y-8427960D02*
X14950200Y-8457960D01*
X14950200Y-8427960D02*
X14920200Y-8457960D01*
X14925000Y-12165000D02*
X14955000Y-12195000D01*
X14955000Y-12165000D02*
X14925000Y-12195000D01*
X14955760Y-8529560D02*
X14985760Y-8559560D01*
X14985760Y-8529560D02*
X14955760Y-8559560D01*
X14971000Y-11303240D02*
X15001000Y-11333240D01*
X15001000Y-11303240D02*
X14971000Y-11333240D01*
X14975000Y-11716220D02*
X15005000Y-11746220D01*
X15005000Y-11716220D02*
X14975000Y-11746220D01*
X14996400Y-10399000D02*
X15026400Y-10429000D01*
X15026400Y-10399000D02*
X14996400Y-10429000D01*
X15001480Y-7859000D02*
X15031480Y-7889000D01*
X15031480Y-7859000D02*
X15001480Y-7889000D01*
X15098000Y-7772640D02*
X15128000Y-7802640D01*
X15128000Y-7772640D02*
X15098000Y-7802640D01*
X15148800Y-10622520D02*
X15178800Y-10652520D01*
X15178800Y-10622520D02*
X15148800Y-10652520D01*
X15237700Y-8481300D02*
X15267700Y-8511300D01*
X15267700Y-8481300D02*
X15237700Y-8511300D01*
X15237700Y-8773400D02*
X15267700Y-8803400D01*
X15267700Y-8773400D02*
X15237700Y-8803400D01*
X15237700Y-9065500D02*
X15267700Y-9095500D01*
X15267700Y-9065500D02*
X15237700Y-9095500D01*
X15237700Y-9395700D02*
X15267700Y-9425700D01*
X15267700Y-9395700D02*
X15237700Y-9425700D01*
X15237700Y-9725900D02*
X15267700Y-9755900D01*
X15267700Y-9725900D02*
X15237700Y-9755900D01*
X15237700Y-10119600D02*
X15267700Y-10149600D01*
X15267700Y-10119600D02*
X15237700Y-10149600D01*
X15326600Y-10703800D02*
X15356600Y-10733800D01*
X15356600Y-10703800D02*
X15326600Y-10733800D01*
X15416584Y-10616636D02*
X15446584Y-10646636D01*
X15446584Y-10616636D02*
X15416584Y-10646636D01*
X15463760Y-8087600D02*
X15493760Y-8117600D01*
X15493760Y-8087600D02*
X15463760Y-8117600D01*
X15524720Y-10754600D02*
X15554720Y-10784600D01*
X15554720Y-10754600D02*
X15524720Y-10784600D01*
X15733000Y-10825720D02*
X15763000Y-10855720D01*
X15763000Y-10825720D02*
X15733000Y-10855720D01*
X15733000Y-10957800D02*
X15763000Y-10987800D01*
X15763000Y-10957800D02*
X15733000Y-10987800D01*
X15733000Y-11100040D02*
X15763000Y-11130040D01*
X15763000Y-11100040D02*
X15733000Y-11130040D01*
X15733000Y-11247360D02*
X15763000Y-11277360D01*
X15763000Y-11247360D02*
X15733000Y-11277360D01*
X15733000Y-11389600D02*
X15763000Y-11419600D01*
X15763000Y-11389600D02*
X15733000Y-11419600D01*
X15875240Y-10825720D02*
X15905240Y-10855720D01*
X15905240Y-10825720D02*
X15875240Y-10855720D01*
X15875240Y-10957800D02*
X15905240Y-10987800D01*
X15905240Y-10957800D02*
X15875240Y-10987800D01*
X15875240Y-11100040D02*
X15905240Y-11130040D01*
X15905240Y-11100040D02*
X15875240Y-11130040D01*
X15875240Y-11247360D02*
X15905240Y-11277360D01*
X15905240Y-11247360D02*
X15875240Y-11277360D01*
X15884838Y-8087600D02*
X15914838Y-8117600D01*
X15914838Y-8087600D02*
X15884838Y-8117600D01*
X16027014Y-7989360D02*
X16057014Y-8019360D01*
X16057014Y-7989360D02*
X16027014Y-8019360D01*
X16027640Y-10825720D02*
X16057640Y-10855720D01*
X16057640Y-10825720D02*
X16027640Y-10855720D01*
X16027640Y-10952720D02*
X16057640Y-10982720D01*
X16057640Y-10952720D02*
X16027640Y-10982720D01*
X16027640Y-11100040D02*
X16057640Y-11130040D01*
X16057640Y-11100040D02*
X16027640Y-11130040D01*
X16032720Y-7777720D02*
X16062720Y-7807720D01*
X16062720Y-7777720D02*
X16032720Y-7807720D01*
X16154640Y-7777720D02*
X16184640Y-7807720D01*
X16184640Y-7777720D02*
X16154640Y-7807720D01*
X16185120Y-10825720D02*
X16215120Y-10855720D01*
X16215120Y-10825720D02*
X16185120Y-10855720D01*
X16185120Y-10952720D02*
X16215120Y-10982720D01*
X16215120Y-10952720D02*
X16185120Y-10982720D01*
X16200360Y-8092680D02*
X16230360Y-8122680D01*
X16230360Y-8092680D02*
X16200360Y-8122680D01*
X16202900Y-10485360D02*
X16232900Y-10515360D01*
X16232900Y-10485360D02*
X16202900Y-10515360D01*
X16275000Y-7125000D02*
X16305000Y-7155000D01*
X16305000Y-7125000D02*
X16275000Y-7155000D01*
X16286720Y-7777720D02*
X16316720Y-7807720D01*
X16316720Y-7777720D02*
X16286720Y-7807720D01*
X16332440Y-8092680D02*
X16362440Y-8122680D01*
X16362440Y-8092680D02*
X16332440Y-8122680D01*
X16332440Y-10825720D02*
X16362440Y-10855720D01*
X16362440Y-10825720D02*
X16332440Y-10855720D01*
X16408640Y-7777720D02*
X16438640Y-7807720D01*
X16438640Y-7777720D02*
X16408640Y-7807720D01*
X16417240Y-7125000D02*
X16447240Y-7155000D01*
X16447240Y-7125000D02*
X16417240Y-7155000D01*
X16431500Y-7881860D02*
X16461500Y-7911860D01*
X16461500Y-7881860D02*
X16431500Y-7911860D01*
X16444200Y-8092680D02*
X16474200Y-8122680D01*
X16474200Y-8092680D02*
X16444200Y-8122680D01*
X16554400Y-7125000D02*
X16584400Y-7155000D01*
X16584400Y-7125000D02*
X16554400Y-7155000D01*
X16555960Y-7777720D02*
X16585960Y-7807720D01*
X16585960Y-7777720D02*
X16555960Y-7807720D01*
X16571200Y-8087600D02*
X16601200Y-8117600D01*
X16601200Y-8087600D02*
X16571200Y-8117600D01*
X16685000Y-7125000D02*
X16715000Y-7155000D01*
X16715000Y-7125000D02*
X16685000Y-7155000D01*
X16703280Y-7869160D02*
X16733280Y-7899160D01*
X16733280Y-7869160D02*
X16703280Y-7899160D01*
X16825000Y-7125000D02*
X16855000Y-7155000D01*
X16855000Y-7125000D02*
X16825000Y-7155000D01*
X17105000Y-7655000D02*
X17135000Y-7685000D01*
X17135000Y-7655000D02*
X17105000Y-7685000D01*
X17218900Y-10485360D02*
X17248900Y-10515360D01*
X17248900Y-10485360D02*
X17218900Y-10515360D01*
X17675275Y-10484535D02*
X17705275Y-10514535D01*
X17705275Y-10484535D02*
X17675275Y-10514535D01*
X13395320Y-7950200D02*
G75*
G02*
X13315320Y-7950200I-40000J0D01*
G01*
X13315320Y-7950200D02*
G75*
G02*
X13395320Y-7950200I40000J0D01*
G01*
X13395320Y-8712200D02*
G75*
G02*
X13315320Y-8712200I-40000J0D01*
G01*
X13315320Y-8712200D02*
G75*
G02*
X13395320Y-8712200I40000J0D01*
G01*
X11948160Y-12320800D02*
X11948160Y-12420800D01*
X11898160Y-12370800D02*
X11998160Y-12370800D01*
X11948160Y-13080800D02*
X11948160Y-13180800D01*
X11898160Y-13130800D02*
X11998160Y-13130800D01*
X13337000Y-6857500D02*
X13337000Y-6957500D01*
X13287000Y-6907500D02*
X13387000Y-6907500D01*
X13591000Y-6857500D02*
X13591000Y-6957500D01*
X13541000Y-6907500D02*
X13641000Y-6907500D01*
X13845000Y-6857500D02*
X13845000Y-6957500D01*
X13795000Y-6907500D02*
X13895000Y-6907500D01*
X14099000Y-6857500D02*
X14099000Y-6957500D01*
X14049000Y-6907500D02*
X14149000Y-6907500D01*
X14353000Y-6857500D02*
X14353000Y-6957500D01*
X14303000Y-6907500D02*
X14403000Y-6907500D01*
X14607000Y-6857500D02*
X14607000Y-6957500D01*
X14557000Y-6907500D02*
X14657000Y-6907500D01*
X14861000Y-6857500D02*
X14861000Y-6957500D01*
X14811000Y-6907500D02*
X14911000Y-6907500D01*
X15115000Y-6857500D02*
X15115000Y-6957500D01*
X15065000Y-6907500D02*
X15165000Y-6907500D01*
X15369000Y-6857500D02*
X15369000Y-6957500D01*
X15319000Y-6907500D02*
X15419000Y-6907500D01*
X15414000Y-12347500D02*
X15414000Y-12447500D01*
X15364000Y-12397500D02*
X15464000Y-12397500D01*
X15623000Y-6857500D02*
X15623000Y-6957500D01*
X15573000Y-6907500D02*
X15673000Y-6907500D01*
X15668000Y-12347500D02*
X15668000Y-12447500D01*
X15618000Y-12397500D02*
X15718000Y-12397500D01*
X15877000Y-6857500D02*
X15877000Y-6957500D01*
X15827000Y-6907500D02*
X15927000Y-6907500D01*
X15922000Y-12347500D02*
X15922000Y-12447500D01*
X15872000Y-12397500D02*
X15972000Y-12397500D01*
X16131000Y-6857500D02*
X16131000Y-6957500D01*
X16081000Y-6907500D02*
X16181000Y-6907500D01*
X16176000Y-12347500D02*
X16176000Y-12447500D01*
X16126000Y-12397500D02*
X16226000Y-12397500D01*
X16385000Y-6857500D02*
X16385000Y-6957500D01*
X16335000Y-6907500D02*
X16435000Y-6907500D01*
X16430000Y-12347500D02*
X16430000Y-12447500D01*
X16380000Y-12397500D02*
X16480000Y-12397500D01*
X16639000Y-6857500D02*
X16639000Y-6957500D01*
X16589000Y-6907500D02*
X16689000Y-6907500D01*
X16684000Y-12347500D02*
X16684000Y-12447500D01*
X16634000Y-12397500D02*
X16734000Y-12397500D01*
X16893000Y-6857500D02*
X16893000Y-6957500D01*
X16843000Y-6907500D02*
X16943000Y-6907500D01*
X16938000Y-12347500D02*
X16938000Y-12447500D01*
X16888000Y-12397500D02*
X16988000Y-12397500D01*
X17147000Y-6857500D02*
X17147000Y-6957500D01*
X17097000Y-6907500D02*
X17197000Y-6907500D01*
X17192000Y-12347500D02*
X17192000Y-12447500D01*
X17142000Y-12397500D02*
X17242000Y-12397500D01*
X17446000Y-12347500D02*
X17446000Y-12447500D01*
X17396000Y-12397500D02*
X17496000Y-12397500D01*
X17700000Y-12347500D02*
X17700000Y-12447500D01*
X17650000Y-12397500D02*
X17750000Y-12397500D01*
D12*
X17454127Y-11345427D02*
X17454127Y-11260573D01*
X17369273Y-11260573D01*
X17369273Y-11345427D01*
X17454127Y-11345427D01*
X17454127Y-11695427D02*
X17454127Y-11610573D01*
X17369273Y-11610573D01*
X17369273Y-11695427D01*
X17454127Y-11695427D01*
D13*
X15849000Y-8597900D02*
X15912500Y-8534400D01*
X15849000Y-8470900D01*
X15785500Y-8534400D01*
X15849000Y-8597900D01*
X15849000Y-10121900D02*
X15912500Y-10058400D01*
X15849000Y-9994900D01*
X15785500Y-10058400D01*
X15849000Y-10121900D01*
X16103000Y-8597900D02*
X16166500Y-8534400D01*
X16103000Y-8470900D01*
X16039500Y-8534400D01*
X16103000Y-8597900D01*
X16103000Y-10121900D02*
X16166500Y-10058400D01*
X16103000Y-9994900D01*
X16039500Y-10058400D01*
X16103000Y-10121900D01*
X16357000Y-8597900D02*
X16420500Y-8534400D01*
X16357000Y-8470900D01*
X16293500Y-8534400D01*
X16357000Y-8597900D01*
X16357000Y-10121900D02*
X16420500Y-10058400D01*
X16357000Y-9994900D01*
X16293500Y-10058400D01*
X16357000Y-10121900D01*
X16611000Y-8597900D02*
X16674500Y-8534400D01*
X16611000Y-8470900D01*
X16547500Y-8534400D01*
X16611000Y-8597900D01*
X16611000Y-10121900D02*
X16674500Y-10058400D01*
X16611000Y-9994900D01*
X16547500Y-10058400D01*
X16611000Y-10121900D01*
X16865000Y-8597900D02*
X16928500Y-8534400D01*
X16865000Y-8470900D01*
X16801500Y-8534400D01*
X16865000Y-8597900D01*
X16865000Y-10121900D02*
X16928500Y-10058400D01*
X16865000Y-9994900D01*
X16801500Y-10058400D01*
X16865000Y-10121900D01*
X17119000Y-8597900D02*
X17182500Y-8534400D01*
X17119000Y-8470900D01*
X17055500Y-8534400D01*
X17119000Y-8597900D01*
X17119000Y-10121900D02*
X17182500Y-10058400D01*
X17119000Y-9994900D01*
X17055500Y-10058400D01*
X17119000Y-10121900D01*
X17373000Y-8597900D02*
X17436500Y-8534400D01*
X17373000Y-8470900D01*
X17309500Y-8534400D01*
X17373000Y-8597900D01*
X17373000Y-10121900D02*
X17436500Y-10058400D01*
X17373000Y-9994900D01*
X17309500Y-10058400D01*
X17373000Y-10121900D01*
X17627000Y-8597900D02*
X17690500Y-8534400D01*
X17627000Y-8470900D01*
X17563500Y-8534400D01*
X17627000Y-8597900D01*
X17627000Y-10121900D02*
X17690500Y-10058400D01*
X17627000Y-9994900D01*
X17563500Y-10058400D01*
X17627000Y-10121900D01*
D14*
X11756160Y-11517400D02*
X11886160Y-11647400D01*
X11886160Y-11517400D02*
X11756160Y-11647400D01*
X11886160Y-11582400D02*
G75*
G02*
X11756160Y-11582400I-65000J0D01*
G01*
X11756160Y-11582400D02*
G75*
G02*
X11886160Y-11582400I65000J0D01*
G01*
X12256160Y-11167400D02*
X12386160Y-11297400D01*
X12386160Y-11167400D02*
X12256160Y-11297400D01*
X12386160Y-11232400D02*
G75*
G02*
X12256160Y-11232400I-65000J0D01*
G01*
X12256160Y-11232400D02*
G75*
G02*
X12386160Y-11232400I65000J0D01*
G01*
X12395400Y-8315160D02*
X12525400Y-8445160D01*
X12525400Y-8315160D02*
X12395400Y-8445160D01*
X12525400Y-8380160D02*
G75*
G02*
X12395400Y-8380160I-65000J0D01*
G01*
X12395400Y-8380160D02*
G75*
G02*
X12525400Y-8380160I65000J0D01*
G01*
X12895400Y-7965160D02*
X13025400Y-8095160D01*
X13025400Y-7965160D02*
X12895400Y-8095160D01*
X13025400Y-8030160D02*
G75*
G02*
X12895400Y-8030160I-65000J0D01*
G01*
X12895400Y-8030160D02*
G75*
G02*
X13025400Y-8030160I65000J0D01*
G01*
X14457400Y-12282320D02*
X14587400Y-12412320D01*
X14587400Y-12282320D02*
X14457400Y-12412320D01*
X14587400Y-12347320D02*
G75*
G02*
X14457400Y-12347320I-65000J0D01*
G01*
X14457400Y-12347320D02*
G75*
G02*
X14587400Y-12347320I65000J0D01*
G01*
X14807400Y-12782320D02*
X14937400Y-12912320D01*
X14937400Y-12782320D02*
X14807400Y-12912320D01*
X14937400Y-12847320D02*
G75*
G02*
X14807400Y-12847320I-65000J0D01*
G01*
X14807400Y-12847320D02*
G75*
G02*
X14937400Y-12847320I65000J0D01*
G01*
D10*
X11411537Y-13808884D02*
X11411537Y-13608884D01*
X11411537Y-13608884D02*
X11459156Y-13608884D01*
X11459156Y-13608884D02*
X11487727Y-13618408D01*
X11487727Y-13618408D02*
X11506775Y-13637455D01*
X11506775Y-13637455D02*
X11516299Y-13656503D01*
X11516299Y-13656503D02*
X11525822Y-13694598D01*
X11525822Y-13694598D02*
X11525822Y-13723169D01*
X11525822Y-13723169D02*
X11516299Y-13761265D01*
X11516299Y-13761265D02*
X11506775Y-13780312D01*
X11506775Y-13780312D02*
X11487727Y-13799360D01*
X11487727Y-13799360D02*
X11459156Y-13808884D01*
X11459156Y-13808884D02*
X11411537Y-13808884D01*
X11611537Y-13808884D02*
X11611537Y-13675550D01*
X11611537Y-13713646D02*
X11621061Y-13694598D01*
X11621061Y-13694598D02*
X11630584Y-13685074D01*
X11630584Y-13685074D02*
X11649632Y-13675550D01*
X11649632Y-13675550D02*
X11668680Y-13675550D01*
X11735346Y-13808884D02*
X11735346Y-13675550D01*
X11735346Y-13608884D02*
X11725822Y-13618408D01*
X11725822Y-13618408D02*
X11735346Y-13627931D01*
X11735346Y-13627931D02*
X11744870Y-13618408D01*
X11744870Y-13618408D02*
X11735346Y-13608884D01*
X11735346Y-13608884D02*
X11735346Y-13627931D01*
X11859156Y-13808884D02*
X11840108Y-13799360D01*
X11840108Y-13799360D02*
X11830584Y-13780312D01*
X11830584Y-13780312D02*
X11830584Y-13608884D01*
X11963918Y-13808884D02*
X11944870Y-13799360D01*
X11944870Y-13799360D02*
X11935346Y-13780312D01*
X11935346Y-13780312D02*
X11935346Y-13608884D01*
X12192489Y-13808884D02*
X12192489Y-13608884D01*
X12192489Y-13608884D02*
X12259156Y-13751741D01*
X12259156Y-13751741D02*
X12325822Y-13608884D01*
X12325822Y-13608884D02*
X12325822Y-13808884D01*
X12506775Y-13808884D02*
X12506775Y-13704122D01*
X12506775Y-13704122D02*
X12497251Y-13685074D01*
X12497251Y-13685074D02*
X12478203Y-13675550D01*
X12478203Y-13675550D02*
X12440108Y-13675550D01*
X12440108Y-13675550D02*
X12421061Y-13685074D01*
X12506775Y-13799360D02*
X12487727Y-13808884D01*
X12487727Y-13808884D02*
X12440108Y-13808884D01*
X12440108Y-13808884D02*
X12421061Y-13799360D01*
X12421061Y-13799360D02*
X12411537Y-13780312D01*
X12411537Y-13780312D02*
X12411537Y-13761265D01*
X12411537Y-13761265D02*
X12421061Y-13742217D01*
X12421061Y-13742217D02*
X12440108Y-13732693D01*
X12440108Y-13732693D02*
X12487727Y-13732693D01*
X12487727Y-13732693D02*
X12506775Y-13723169D01*
X12602013Y-13675550D02*
X12602013Y-13875550D01*
X12602013Y-13685074D02*
X12621061Y-13675550D01*
X12621061Y-13675550D02*
X12659156Y-13675550D01*
X12659156Y-13675550D02*
X12678203Y-13685074D01*
X12678203Y-13685074D02*
X12687727Y-13694598D01*
X12687727Y-13694598D02*
X12697251Y-13713646D01*
X12697251Y-13713646D02*
X12697251Y-13770788D01*
X12697251Y-13770788D02*
X12687727Y-13789836D01*
X12687727Y-13789836D02*
X12678203Y-13799360D01*
X12678203Y-13799360D02*
X12659156Y-13808884D01*
X12659156Y-13808884D02*
X12621061Y-13808884D01*
X12621061Y-13808884D02*
X12602013Y-13799360D01*
X12782965Y-13789836D02*
X12792489Y-13799360D01*
X12792489Y-13799360D02*
X12782965Y-13808884D01*
X12782965Y-13808884D02*
X12773442Y-13799360D01*
X12773442Y-13799360D02*
X12782965Y-13789836D01*
X12782965Y-13789836D02*
X12782965Y-13808884D01*
X12782965Y-13685074D02*
X12792489Y-13694598D01*
X12792489Y-13694598D02*
X12782965Y-13704122D01*
X12782965Y-13704122D02*
X12773442Y-13694598D01*
X12773442Y-13694598D02*
X12782965Y-13685074D01*
X12782965Y-13685074D02*
X12782965Y-13704122D01*
D11*
X11120760Y-14122400D02*
X11150760Y-14152400D01*
X11150760Y-14122400D02*
X11120760Y-14152400D01*
D10*
X11449632Y-14028884D02*
X11468680Y-14028884D01*
X11468680Y-14028884D02*
X11487727Y-14038408D01*
X11487727Y-14038408D02*
X11497251Y-14047931D01*
X11497251Y-14047931D02*
X11506775Y-14066979D01*
X11506775Y-14066979D02*
X11516299Y-14105074D01*
X11516299Y-14105074D02*
X11516299Y-14152693D01*
X11516299Y-14152693D02*
X11506775Y-14190788D01*
X11506775Y-14190788D02*
X11497251Y-14209836D01*
X11497251Y-14209836D02*
X11487727Y-14219360D01*
X11487727Y-14219360D02*
X11468680Y-14228884D01*
X11468680Y-14228884D02*
X11449632Y-14228884D01*
X11449632Y-14228884D02*
X11430584Y-14219360D01*
X11430584Y-14219360D02*
X11421061Y-14209836D01*
X11421061Y-14209836D02*
X11411537Y-14190788D01*
X11411537Y-14190788D02*
X11402013Y-14152693D01*
X11402013Y-14152693D02*
X11402013Y-14105074D01*
X11402013Y-14105074D02*
X11411537Y-14066979D01*
X11411537Y-14066979D02*
X11421061Y-14047931D01*
X11421061Y-14047931D02*
X11430584Y-14038408D01*
X11430584Y-14038408D02*
X11449632Y-14028884D01*
X11602013Y-14209836D02*
X11611537Y-14219360D01*
X11611537Y-14219360D02*
X11602013Y-14228884D01*
X11602013Y-14228884D02*
X11592489Y-14219360D01*
X11592489Y-14219360D02*
X11602013Y-14209836D01*
X11602013Y-14209836D02*
X11602013Y-14228884D01*
X11678203Y-14028884D02*
X11802013Y-14028884D01*
X11802013Y-14028884D02*
X11735346Y-14105074D01*
X11735346Y-14105074D02*
X11763918Y-14105074D01*
X11763918Y-14105074D02*
X11782965Y-14114598D01*
X11782965Y-14114598D02*
X11792489Y-14124122D01*
X11792489Y-14124122D02*
X11802013Y-14143169D01*
X11802013Y-14143169D02*
X11802013Y-14190788D01*
X11802013Y-14190788D02*
X11792489Y-14209836D01*
X11792489Y-14209836D02*
X11782965Y-14219360D01*
X11782965Y-14219360D02*
X11763918Y-14228884D01*
X11763918Y-14228884D02*
X11706775Y-14228884D01*
X11706775Y-14228884D02*
X11687727Y-14219360D01*
X11687727Y-14219360D02*
X11678203Y-14209836D01*
X11925822Y-14028884D02*
X11944870Y-14028884D01*
X11944870Y-14028884D02*
X11963918Y-14038408D01*
X11963918Y-14038408D02*
X11973442Y-14047931D01*
X11973442Y-14047931D02*
X11982965Y-14066979D01*
X11982965Y-14066979D02*
X11992489Y-14105074D01*
X11992489Y-14105074D02*
X11992489Y-14152693D01*
X11992489Y-14152693D02*
X11982965Y-14190788D01*
X11982965Y-14190788D02*
X11973442Y-14209836D01*
X11973442Y-14209836D02*
X11963918Y-14219360D01*
X11963918Y-14219360D02*
X11944870Y-14228884D01*
X11944870Y-14228884D02*
X11925822Y-14228884D01*
X11925822Y-14228884D02*
X11906775Y-14219360D01*
X11906775Y-14219360D02*
X11897251Y-14209836D01*
X11897251Y-14209836D02*
X11887727Y-14190788D01*
X11887727Y-14190788D02*
X11878203Y-14152693D01*
X11878203Y-14152693D02*
X11878203Y-14105074D01*
X11878203Y-14105074D02*
X11887727Y-14066979D01*
X11887727Y-14066979D02*
X11897251Y-14047931D01*
X11897251Y-14047931D02*
X11906775Y-14038408D01*
X11906775Y-14038408D02*
X11925822Y-14028884D01*
X12116299Y-14028884D02*
X12135346Y-14028884D01*
X12135346Y-14028884D02*
X12154394Y-14038408D01*
X12154394Y-14038408D02*
X12163918Y-14047931D01*
X12163918Y-14047931D02*
X12173442Y-14066979D01*
X12173442Y-14066979D02*
X12182965Y-14105074D01*
X12182965Y-14105074D02*
X12182965Y-14152693D01*
X12182965Y-14152693D02*
X12173442Y-14190788D01*
X12173442Y-14190788D02*
X12163918Y-14209836D01*
X12163918Y-14209836D02*
X12154394Y-14219360D01*
X12154394Y-14219360D02*
X12135346Y-14228884D01*
X12135346Y-14228884D02*
X12116299Y-14228884D01*
X12116299Y-14228884D02*
X12097251Y-14219360D01*
X12097251Y-14219360D02*
X12087727Y-14209836D01*
X12087727Y-14209836D02*
X12078203Y-14190788D01*
X12078203Y-14190788D02*
X12068680Y-14152693D01*
X12068680Y-14152693D02*
X12068680Y-14105074D01*
X12068680Y-14105074D02*
X12078203Y-14066979D01*
X12078203Y-14066979D02*
X12087727Y-14047931D01*
X12087727Y-14047931D02*
X12097251Y-14038408D01*
X12097251Y-14038408D02*
X12116299Y-14028884D01*
X12268680Y-14228884D02*
X12268680Y-14095550D01*
X12268680Y-14114598D02*
X12278203Y-14105074D01*
X12278203Y-14105074D02*
X12297251Y-14095550D01*
X12297251Y-14095550D02*
X12325823Y-14095550D01*
X12325823Y-14095550D02*
X12344870Y-14105074D01*
X12344870Y-14105074D02*
X12354394Y-14124122D01*
X12354394Y-14124122D02*
X12354394Y-14228884D01*
X12354394Y-14124122D02*
X12363918Y-14105074D01*
X12363918Y-14105074D02*
X12382965Y-14095550D01*
X12382965Y-14095550D02*
X12411537Y-14095550D01*
X12411537Y-14095550D02*
X12430584Y-14105074D01*
X12430584Y-14105074D02*
X12440108Y-14124122D01*
X12440108Y-14124122D02*
X12440108Y-14228884D01*
X12535346Y-14228884D02*
X12535346Y-14095550D01*
X12535346Y-14114598D02*
X12544870Y-14105074D01*
X12544870Y-14105074D02*
X12563918Y-14095550D01*
X12563918Y-14095550D02*
X12592489Y-14095550D01*
X12592489Y-14095550D02*
X12611537Y-14105074D01*
X12611537Y-14105074D02*
X12621061Y-14124122D01*
X12621061Y-14124122D02*
X12621061Y-14228884D01*
X12621061Y-14124122D02*
X12630584Y-14105074D01*
X12630584Y-14105074D02*
X12649632Y-14095550D01*
X12649632Y-14095550D02*
X12678203Y-14095550D01*
X12678203Y-14095550D02*
X12697251Y-14105074D01*
X12697251Y-14105074D02*
X12706775Y-14124122D01*
X12706775Y-14124122D02*
X12706775Y-14228884D01*
X13097251Y-14019360D02*
X12925823Y-14276503D01*
X13354394Y-14028884D02*
X13373442Y-14028884D01*
X13373442Y-14028884D02*
X13392489Y-14038408D01*
X13392489Y-14038408D02*
X13402013Y-14047931D01*
X13402013Y-14047931D02*
X13411537Y-14066979D01*
X13411537Y-14066979D02*
X13421061Y-14105074D01*
X13421061Y-14105074D02*
X13421061Y-14152693D01*
X13421061Y-14152693D02*
X13411537Y-14190788D01*
X13411537Y-14190788D02*
X13402013Y-14209836D01*
X13402013Y-14209836D02*
X13392489Y-14219360D01*
X13392489Y-14219360D02*
X13373442Y-14228884D01*
X13373442Y-14228884D02*
X13354394Y-14228884D01*
X13354394Y-14228884D02*
X13335346Y-14219360D01*
X13335346Y-14219360D02*
X13325823Y-14209836D01*
X13325823Y-14209836D02*
X13316299Y-14190788D01*
X13316299Y-14190788D02*
X13306775Y-14152693D01*
X13306775Y-14152693D02*
X13306775Y-14105074D01*
X13306775Y-14105074D02*
X13316299Y-14066979D01*
X13316299Y-14066979D02*
X13325823Y-14047931D01*
X13325823Y-14047931D02*
X13335346Y-14038408D01*
X13335346Y-14038408D02*
X13354394Y-14028884D01*
X13506775Y-14209836D02*
X13516299Y-14219360D01*
X13516299Y-14219360D02*
X13506775Y-14228884D01*
X13506775Y-14228884D02*
X13497251Y-14219360D01*
X13497251Y-14219360D02*
X13506775Y-14209836D01*
X13506775Y-14209836D02*
X13506775Y-14228884D01*
X13640108Y-14028884D02*
X13659156Y-14028884D01*
X13659156Y-14028884D02*
X13678204Y-14038408D01*
X13678204Y-14038408D02*
X13687727Y-14047931D01*
X13687727Y-14047931D02*
X13697251Y-14066979D01*
X13697251Y-14066979D02*
X13706775Y-14105074D01*
X13706775Y-14105074D02*
X13706775Y-14152693D01*
X13706775Y-14152693D02*
X13697251Y-14190788D01*
X13697251Y-14190788D02*
X13687727Y-14209836D01*
X13687727Y-14209836D02*
X13678204Y-14219360D01*
X13678204Y-14219360D02*
X13659156Y-14228884D01*
X13659156Y-14228884D02*
X13640108Y-14228884D01*
X13640108Y-14228884D02*
X13621061Y-14219360D01*
X13621061Y-14219360D02*
X13611537Y-14209836D01*
X13611537Y-14209836D02*
X13602013Y-14190788D01*
X13602013Y-14190788D02*
X13592489Y-14152693D01*
X13592489Y-14152693D02*
X13592489Y-14105074D01*
X13592489Y-14105074D02*
X13602013Y-14066979D01*
X13602013Y-14066979D02*
X13611537Y-14047931D01*
X13611537Y-14047931D02*
X13621061Y-14038408D01*
X13621061Y-14038408D02*
X13640108Y-14028884D01*
X13897251Y-14228884D02*
X13782966Y-14228884D01*
X13840108Y-14228884D02*
X13840108Y-14028884D01*
X13840108Y-14028884D02*
X13821061Y-14057455D01*
X13821061Y-14057455D02*
X13802013Y-14076503D01*
X13802013Y-14076503D02*
X13782966Y-14086027D01*
X14087727Y-14228884D02*
X13973442Y-14228884D01*
X14030585Y-14228884D02*
X14030585Y-14028884D01*
X14030585Y-14028884D02*
X14011537Y-14057455D01*
X14011537Y-14057455D02*
X13992489Y-14076503D01*
X13992489Y-14076503D02*
X13973442Y-14086027D01*
X14202013Y-14114598D02*
X14182966Y-14105074D01*
X14182966Y-14105074D02*
X14173442Y-14095550D01*
X14173442Y-14095550D02*
X14163918Y-14076503D01*
X14163918Y-14076503D02*
X14163918Y-14066979D01*
X14163918Y-14066979D02*
X14173442Y-14047931D01*
X14173442Y-14047931D02*
X14182966Y-14038408D01*
X14182966Y-14038408D02*
X14202013Y-14028884D01*
X14202013Y-14028884D02*
X14240108Y-14028884D01*
X14240108Y-14028884D02*
X14259156Y-14038408D01*
X14259156Y-14038408D02*
X14268680Y-14047931D01*
X14268680Y-14047931D02*
X14278204Y-14066979D01*
X14278204Y-14066979D02*
X14278204Y-14076503D01*
X14278204Y-14076503D02*
X14268680Y-14095550D01*
X14268680Y-14095550D02*
X14259156Y-14105074D01*
X14259156Y-14105074D02*
X14240108Y-14114598D01*
X14240108Y-14114598D02*
X14202013Y-14114598D01*
X14202013Y-14114598D02*
X14182966Y-14124122D01*
X14182966Y-14124122D02*
X14173442Y-14133646D01*
X14173442Y-14133646D02*
X14163918Y-14152693D01*
X14163918Y-14152693D02*
X14163918Y-14190788D01*
X14163918Y-14190788D02*
X14173442Y-14209836D01*
X14173442Y-14209836D02*
X14182966Y-14219360D01*
X14182966Y-14219360D02*
X14202013Y-14228884D01*
X14202013Y-14228884D02*
X14240108Y-14228884D01*
X14240108Y-14228884D02*
X14259156Y-14219360D01*
X14259156Y-14219360D02*
X14268680Y-14209836D01*
X14268680Y-14209836D02*
X14278204Y-14190788D01*
X14278204Y-14190788D02*
X14278204Y-14152693D01*
X14278204Y-14152693D02*
X14268680Y-14133646D01*
X14268680Y-14133646D02*
X14259156Y-14124122D01*
X14259156Y-14124122D02*
X14240108Y-14114598D01*
X14354394Y-14028884D02*
X14354394Y-14066979D01*
X14430585Y-14028884D02*
X14430585Y-14066979D01*
X14725823Y-14305074D02*
X14716299Y-14295550D01*
X14716299Y-14295550D02*
X14697251Y-14266979D01*
X14697251Y-14266979D02*
X14687728Y-14247931D01*
X14687728Y-14247931D02*
X14678204Y-14219360D01*
X14678204Y-14219360D02*
X14668680Y-14171741D01*
X14668680Y-14171741D02*
X14668680Y-14133646D01*
X14668680Y-14133646D02*
X14678204Y-14086027D01*
X14678204Y-14086027D02*
X14687728Y-14057455D01*
X14687728Y-14057455D02*
X14697251Y-14038408D01*
X14697251Y-14038408D02*
X14716299Y-14009836D01*
X14716299Y-14009836D02*
X14725823Y-14000312D01*
X14906775Y-14228884D02*
X14792489Y-14228884D01*
X14849632Y-14228884D02*
X14849632Y-14028884D01*
X14849632Y-14028884D02*
X14830585Y-14057455D01*
X14830585Y-14057455D02*
X14811537Y-14076503D01*
X14811537Y-14076503D02*
X14792489Y-14086027D01*
X15078204Y-14095550D02*
X15078204Y-14228884D01*
X15030585Y-14019360D02*
X14982966Y-14162217D01*
X14982966Y-14162217D02*
X15106775Y-14162217D01*
X15163918Y-14028884D02*
X15287728Y-14028884D01*
X15287728Y-14028884D02*
X15221061Y-14105074D01*
X15221061Y-14105074D02*
X15249632Y-14105074D01*
X15249632Y-14105074D02*
X15268680Y-14114598D01*
X15268680Y-14114598D02*
X15278204Y-14124122D01*
X15278204Y-14124122D02*
X15287728Y-14143169D01*
X15287728Y-14143169D02*
X15287728Y-14190788D01*
X15287728Y-14190788D02*
X15278204Y-14209836D01*
X15278204Y-14209836D02*
X15268680Y-14219360D01*
X15268680Y-14219360D02*
X15249632Y-14228884D01*
X15249632Y-14228884D02*
X15192489Y-14228884D01*
X15192489Y-14228884D02*
X15173442Y-14219360D01*
X15173442Y-14219360D02*
X15163918Y-14209836D01*
X15525823Y-14228884D02*
X15525823Y-14028884D01*
X15611537Y-14228884D02*
X15611537Y-14124122D01*
X15611537Y-14124122D02*
X15602013Y-14105074D01*
X15602013Y-14105074D02*
X15582966Y-14095550D01*
X15582966Y-14095550D02*
X15554394Y-14095550D01*
X15554394Y-14095550D02*
X15535347Y-14105074D01*
X15535347Y-14105074D02*
X15525823Y-14114598D01*
X15735347Y-14228884D02*
X15716299Y-14219360D01*
X15716299Y-14219360D02*
X15706775Y-14209836D01*
X15706775Y-14209836D02*
X15697251Y-14190788D01*
X15697251Y-14190788D02*
X15697251Y-14133646D01*
X15697251Y-14133646D02*
X15706775Y-14114598D01*
X15706775Y-14114598D02*
X15716299Y-14105074D01*
X15716299Y-14105074D02*
X15735347Y-14095550D01*
X15735347Y-14095550D02*
X15763918Y-14095550D01*
X15763918Y-14095550D02*
X15782966Y-14105074D01*
X15782966Y-14105074D02*
X15792490Y-14114598D01*
X15792490Y-14114598D02*
X15802013Y-14133646D01*
X15802013Y-14133646D02*
X15802013Y-14190788D01*
X15802013Y-14190788D02*
X15792490Y-14209836D01*
X15792490Y-14209836D02*
X15782966Y-14219360D01*
X15782966Y-14219360D02*
X15763918Y-14228884D01*
X15763918Y-14228884D02*
X15735347Y-14228884D01*
X15916299Y-14228884D02*
X15897251Y-14219360D01*
X15897251Y-14219360D02*
X15887728Y-14200312D01*
X15887728Y-14200312D02*
X15887728Y-14028884D01*
X16068680Y-14219360D02*
X16049632Y-14228884D01*
X16049632Y-14228884D02*
X16011537Y-14228884D01*
X16011537Y-14228884D02*
X15992490Y-14219360D01*
X15992490Y-14219360D02*
X15982966Y-14200312D01*
X15982966Y-14200312D02*
X15982966Y-14124122D01*
X15982966Y-14124122D02*
X15992490Y-14105074D01*
X15992490Y-14105074D02*
X16011537Y-14095550D01*
X16011537Y-14095550D02*
X16049632Y-14095550D01*
X16049632Y-14095550D02*
X16068680Y-14105074D01*
X16068680Y-14105074D02*
X16078204Y-14124122D01*
X16078204Y-14124122D02*
X16078204Y-14143169D01*
X16078204Y-14143169D02*
X15982966Y-14162217D01*
X16154394Y-14219360D02*
X16173442Y-14228884D01*
X16173442Y-14228884D02*
X16211537Y-14228884D01*
X16211537Y-14228884D02*
X16230585Y-14219360D01*
X16230585Y-14219360D02*
X16240109Y-14200312D01*
X16240109Y-14200312D02*
X16240109Y-14190788D01*
X16240109Y-14190788D02*
X16230585Y-14171741D01*
X16230585Y-14171741D02*
X16211537Y-14162217D01*
X16211537Y-14162217D02*
X16182966Y-14162217D01*
X16182966Y-14162217D02*
X16163918Y-14152693D01*
X16163918Y-14152693D02*
X16154394Y-14133646D01*
X16154394Y-14133646D02*
X16154394Y-14124122D01*
X16154394Y-14124122D02*
X16163918Y-14105074D01*
X16163918Y-14105074D02*
X16182966Y-14095550D01*
X16182966Y-14095550D02*
X16211537Y-14095550D01*
X16211537Y-14095550D02*
X16230585Y-14105074D01*
X16306775Y-14305074D02*
X16316299Y-14295550D01*
X16316299Y-14295550D02*
X16335347Y-14266979D01*
X16335347Y-14266979D02*
X16344871Y-14247931D01*
X16344871Y-14247931D02*
X16354394Y-14219360D01*
X16354394Y-14219360D02*
X16363918Y-14171741D01*
X16363918Y-14171741D02*
X16363918Y-14133646D01*
X16363918Y-14133646D02*
X16354394Y-14086027D01*
X16354394Y-14086027D02*
X16344871Y-14057455D01*
X16344871Y-14057455D02*
X16335347Y-14038408D01*
X16335347Y-14038408D02*
X16316299Y-14009836D01*
X16316299Y-14009836D02*
X16306775Y-14000312D01*
D11*
X11150760Y-14401400D02*
G75*
G02*
X11070760Y-14401400I-40000J0D01*
G01*
X11070760Y-14401400D02*
G75*
G02*
X11150760Y-14401400I40000J0D01*
G01*
D10*
X11449632Y-14292884D02*
X11468680Y-14292884D01*
X11468680Y-14292884D02*
X11487727Y-14302408D01*
X11487727Y-14302408D02*
X11497251Y-14311931D01*
X11497251Y-14311931D02*
X11506775Y-14330979D01*
X11506775Y-14330979D02*
X11516299Y-14369074D01*
X11516299Y-14369074D02*
X11516299Y-14416693D01*
X11516299Y-14416693D02*
X11506775Y-14454788D01*
X11506775Y-14454788D02*
X11497251Y-14473836D01*
X11497251Y-14473836D02*
X11487727Y-14483360D01*
X11487727Y-14483360D02*
X11468680Y-14492884D01*
X11468680Y-14492884D02*
X11449632Y-14492884D01*
X11449632Y-14492884D02*
X11430584Y-14483360D01*
X11430584Y-14483360D02*
X11421061Y-14473836D01*
X11421061Y-14473836D02*
X11411537Y-14454788D01*
X11411537Y-14454788D02*
X11402013Y-14416693D01*
X11402013Y-14416693D02*
X11402013Y-14369074D01*
X11402013Y-14369074D02*
X11411537Y-14330979D01*
X11411537Y-14330979D02*
X11421061Y-14311931D01*
X11421061Y-14311931D02*
X11430584Y-14302408D01*
X11430584Y-14302408D02*
X11449632Y-14292884D01*
X11602013Y-14473836D02*
X11611537Y-14483360D01*
X11611537Y-14483360D02*
X11602013Y-14492884D01*
X11602013Y-14492884D02*
X11592489Y-14483360D01*
X11592489Y-14483360D02*
X11602013Y-14473836D01*
X11602013Y-14473836D02*
X11602013Y-14492884D01*
X11725822Y-14378598D02*
X11706775Y-14369074D01*
X11706775Y-14369074D02*
X11697251Y-14359550D01*
X11697251Y-14359550D02*
X11687727Y-14340503D01*
X11687727Y-14340503D02*
X11687727Y-14330979D01*
X11687727Y-14330979D02*
X11697251Y-14311931D01*
X11697251Y-14311931D02*
X11706775Y-14302408D01*
X11706775Y-14302408D02*
X11725822Y-14292884D01*
X11725822Y-14292884D02*
X11763918Y-14292884D01*
X11763918Y-14292884D02*
X11782965Y-14302408D01*
X11782965Y-14302408D02*
X11792489Y-14311931D01*
X11792489Y-14311931D02*
X11802013Y-14330979D01*
X11802013Y-14330979D02*
X11802013Y-14340503D01*
X11802013Y-14340503D02*
X11792489Y-14359550D01*
X11792489Y-14359550D02*
X11782965Y-14369074D01*
X11782965Y-14369074D02*
X11763918Y-14378598D01*
X11763918Y-14378598D02*
X11725822Y-14378598D01*
X11725822Y-14378598D02*
X11706775Y-14388122D01*
X11706775Y-14388122D02*
X11697251Y-14397646D01*
X11697251Y-14397646D02*
X11687727Y-14416693D01*
X11687727Y-14416693D02*
X11687727Y-14454788D01*
X11687727Y-14454788D02*
X11697251Y-14473836D01*
X11697251Y-14473836D02*
X11706775Y-14483360D01*
X11706775Y-14483360D02*
X11725822Y-14492884D01*
X11725822Y-14492884D02*
X11763918Y-14492884D01*
X11763918Y-14492884D02*
X11782965Y-14483360D01*
X11782965Y-14483360D02*
X11792489Y-14473836D01*
X11792489Y-14473836D02*
X11802013Y-14454788D01*
X11802013Y-14454788D02*
X11802013Y-14416693D01*
X11802013Y-14416693D02*
X11792489Y-14397646D01*
X11792489Y-14397646D02*
X11782965Y-14388122D01*
X11782965Y-14388122D02*
X11763918Y-14378598D01*
X11925822Y-14292884D02*
X11944870Y-14292884D01*
X11944870Y-14292884D02*
X11963918Y-14302408D01*
X11963918Y-14302408D02*
X11973442Y-14311931D01*
X11973442Y-14311931D02*
X11982965Y-14330979D01*
X11982965Y-14330979D02*
X11992489Y-14369074D01*
X11992489Y-14369074D02*
X11992489Y-14416693D01*
X11992489Y-14416693D02*
X11982965Y-14454788D01*
X11982965Y-14454788D02*
X11973442Y-14473836D01*
X11973442Y-14473836D02*
X11963918Y-14483360D01*
X11963918Y-14483360D02*
X11944870Y-14492884D01*
X11944870Y-14492884D02*
X11925822Y-14492884D01*
X11925822Y-14492884D02*
X11906775Y-14483360D01*
X11906775Y-14483360D02*
X11897251Y-14473836D01*
X11897251Y-14473836D02*
X11887727Y-14454788D01*
X11887727Y-14454788D02*
X11878203Y-14416693D01*
X11878203Y-14416693D02*
X11878203Y-14369074D01*
X11878203Y-14369074D02*
X11887727Y-14330979D01*
X11887727Y-14330979D02*
X11897251Y-14311931D01*
X11897251Y-14311931D02*
X11906775Y-14302408D01*
X11906775Y-14302408D02*
X11925822Y-14292884D01*
X12116299Y-14292884D02*
X12135346Y-14292884D01*
X12135346Y-14292884D02*
X12154394Y-14302408D01*
X12154394Y-14302408D02*
X12163918Y-14311931D01*
X12163918Y-14311931D02*
X12173442Y-14330979D01*
X12173442Y-14330979D02*
X12182965Y-14369074D01*
X12182965Y-14369074D02*
X12182965Y-14416693D01*
X12182965Y-14416693D02*
X12173442Y-14454788D01*
X12173442Y-14454788D02*
X12163918Y-14473836D01*
X12163918Y-14473836D02*
X12154394Y-14483360D01*
X12154394Y-14483360D02*
X12135346Y-14492884D01*
X12135346Y-14492884D02*
X12116299Y-14492884D01*
X12116299Y-14492884D02*
X12097251Y-14483360D01*
X12097251Y-14483360D02*
X12087727Y-14473836D01*
X12087727Y-14473836D02*
X12078203Y-14454788D01*
X12078203Y-14454788D02*
X12068680Y-14416693D01*
X12068680Y-14416693D02*
X12068680Y-14369074D01*
X12068680Y-14369074D02*
X12078203Y-14330979D01*
X12078203Y-14330979D02*
X12087727Y-14311931D01*
X12087727Y-14311931D02*
X12097251Y-14302408D01*
X12097251Y-14302408D02*
X12116299Y-14292884D01*
X12268680Y-14492884D02*
X12268680Y-14359550D01*
X12268680Y-14378598D02*
X12278203Y-14369074D01*
X12278203Y-14369074D02*
X12297251Y-14359550D01*
X12297251Y-14359550D02*
X12325823Y-14359550D01*
X12325823Y-14359550D02*
X12344870Y-14369074D01*
X12344870Y-14369074D02*
X12354394Y-14388122D01*
X12354394Y-14388122D02*
X12354394Y-14492884D01*
X12354394Y-14388122D02*
X12363918Y-14369074D01*
X12363918Y-14369074D02*
X12382965Y-14359550D01*
X12382965Y-14359550D02*
X12411537Y-14359550D01*
X12411537Y-14359550D02*
X12430584Y-14369074D01*
X12430584Y-14369074D02*
X12440108Y-14388122D01*
X12440108Y-14388122D02*
X12440108Y-14492884D01*
X12535346Y-14492884D02*
X12535346Y-14359550D01*
X12535346Y-14378598D02*
X12544870Y-14369074D01*
X12544870Y-14369074D02*
X12563918Y-14359550D01*
X12563918Y-14359550D02*
X12592489Y-14359550D01*
X12592489Y-14359550D02*
X12611537Y-14369074D01*
X12611537Y-14369074D02*
X12621061Y-14388122D01*
X12621061Y-14388122D02*
X12621061Y-14492884D01*
X12621061Y-14388122D02*
X12630584Y-14369074D01*
X12630584Y-14369074D02*
X12649632Y-14359550D01*
X12649632Y-14359550D02*
X12678203Y-14359550D01*
X12678203Y-14359550D02*
X12697251Y-14369074D01*
X12697251Y-14369074D02*
X12706775Y-14388122D01*
X12706775Y-14388122D02*
X12706775Y-14492884D01*
X13097251Y-14283360D02*
X12925823Y-14540503D01*
X13354394Y-14292884D02*
X13373442Y-14292884D01*
X13373442Y-14292884D02*
X13392489Y-14302408D01*
X13392489Y-14302408D02*
X13402013Y-14311931D01*
X13402013Y-14311931D02*
X13411537Y-14330979D01*
X13411537Y-14330979D02*
X13421061Y-14369074D01*
X13421061Y-14369074D02*
X13421061Y-14416693D01*
X13421061Y-14416693D02*
X13411537Y-14454788D01*
X13411537Y-14454788D02*
X13402013Y-14473836D01*
X13402013Y-14473836D02*
X13392489Y-14483360D01*
X13392489Y-14483360D02*
X13373442Y-14492884D01*
X13373442Y-14492884D02*
X13354394Y-14492884D01*
X13354394Y-14492884D02*
X13335346Y-14483360D01*
X13335346Y-14483360D02*
X13325823Y-14473836D01*
X13325823Y-14473836D02*
X13316299Y-14454788D01*
X13316299Y-14454788D02*
X13306775Y-14416693D01*
X13306775Y-14416693D02*
X13306775Y-14369074D01*
X13306775Y-14369074D02*
X13316299Y-14330979D01*
X13316299Y-14330979D02*
X13325823Y-14311931D01*
X13325823Y-14311931D02*
X13335346Y-14302408D01*
X13335346Y-14302408D02*
X13354394Y-14292884D01*
X13506775Y-14473836D02*
X13516299Y-14483360D01*
X13516299Y-14483360D02*
X13506775Y-14492884D01*
X13506775Y-14492884D02*
X13497251Y-14483360D01*
X13497251Y-14483360D02*
X13506775Y-14473836D01*
X13506775Y-14473836D02*
X13506775Y-14492884D01*
X13640108Y-14292884D02*
X13659156Y-14292884D01*
X13659156Y-14292884D02*
X13678204Y-14302408D01*
X13678204Y-14302408D02*
X13687727Y-14311931D01*
X13687727Y-14311931D02*
X13697251Y-14330979D01*
X13697251Y-14330979D02*
X13706775Y-14369074D01*
X13706775Y-14369074D02*
X13706775Y-14416693D01*
X13706775Y-14416693D02*
X13697251Y-14454788D01*
X13697251Y-14454788D02*
X13687727Y-14473836D01*
X13687727Y-14473836D02*
X13678204Y-14483360D01*
X13678204Y-14483360D02*
X13659156Y-14492884D01*
X13659156Y-14492884D02*
X13640108Y-14492884D01*
X13640108Y-14492884D02*
X13621061Y-14483360D01*
X13621061Y-14483360D02*
X13611537Y-14473836D01*
X13611537Y-14473836D02*
X13602013Y-14454788D01*
X13602013Y-14454788D02*
X13592489Y-14416693D01*
X13592489Y-14416693D02*
X13592489Y-14369074D01*
X13592489Y-14369074D02*
X13602013Y-14330979D01*
X13602013Y-14330979D02*
X13611537Y-14311931D01*
X13611537Y-14311931D02*
X13621061Y-14302408D01*
X13621061Y-14302408D02*
X13640108Y-14292884D01*
X13773442Y-14292884D02*
X13897251Y-14292884D01*
X13897251Y-14292884D02*
X13830585Y-14369074D01*
X13830585Y-14369074D02*
X13859156Y-14369074D01*
X13859156Y-14369074D02*
X13878204Y-14378598D01*
X13878204Y-14378598D02*
X13887727Y-14388122D01*
X13887727Y-14388122D02*
X13897251Y-14407169D01*
X13897251Y-14407169D02*
X13897251Y-14454788D01*
X13897251Y-14454788D02*
X13887727Y-14473836D01*
X13887727Y-14473836D02*
X13878204Y-14483360D01*
X13878204Y-14483360D02*
X13859156Y-14492884D01*
X13859156Y-14492884D02*
X13802013Y-14492884D01*
X13802013Y-14492884D02*
X13782966Y-14483360D01*
X13782966Y-14483360D02*
X13773442Y-14473836D01*
X14087727Y-14492884D02*
X13973442Y-14492884D01*
X14030585Y-14492884D02*
X14030585Y-14292884D01*
X14030585Y-14292884D02*
X14011537Y-14321455D01*
X14011537Y-14321455D02*
X13992489Y-14340503D01*
X13992489Y-14340503D02*
X13973442Y-14350027D01*
X14268680Y-14292884D02*
X14173442Y-14292884D01*
X14173442Y-14292884D02*
X14163918Y-14388122D01*
X14163918Y-14388122D02*
X14173442Y-14378598D01*
X14173442Y-14378598D02*
X14192489Y-14369074D01*
X14192489Y-14369074D02*
X14240108Y-14369074D01*
X14240108Y-14369074D02*
X14259156Y-14378598D01*
X14259156Y-14378598D02*
X14268680Y-14388122D01*
X14268680Y-14388122D02*
X14278204Y-14407169D01*
X14278204Y-14407169D02*
X14278204Y-14454788D01*
X14278204Y-14454788D02*
X14268680Y-14473836D01*
X14268680Y-14473836D02*
X14259156Y-14483360D01*
X14259156Y-14483360D02*
X14240108Y-14492884D01*
X14240108Y-14492884D02*
X14192489Y-14492884D01*
X14192489Y-14492884D02*
X14173442Y-14483360D01*
X14173442Y-14483360D02*
X14163918Y-14473836D01*
X14354394Y-14292884D02*
X14354394Y-14330979D01*
X14430585Y-14292884D02*
X14430585Y-14330979D01*
X14725823Y-14569074D02*
X14716299Y-14559550D01*
X14716299Y-14559550D02*
X14697251Y-14530979D01*
X14697251Y-14530979D02*
X14687728Y-14511931D01*
X14687728Y-14511931D02*
X14678204Y-14483360D01*
X14678204Y-14483360D02*
X14668680Y-14435741D01*
X14668680Y-14435741D02*
X14668680Y-14397646D01*
X14668680Y-14397646D02*
X14678204Y-14350027D01*
X14678204Y-14350027D02*
X14687728Y-14321455D01*
X14687728Y-14321455D02*
X14697251Y-14302408D01*
X14697251Y-14302408D02*
X14716299Y-14273836D01*
X14716299Y-14273836D02*
X14725823Y-14264312D01*
X14792489Y-14311931D02*
X14802013Y-14302408D01*
X14802013Y-14302408D02*
X14821061Y-14292884D01*
X14821061Y-14292884D02*
X14868680Y-14292884D01*
X14868680Y-14292884D02*
X14887728Y-14302408D01*
X14887728Y-14302408D02*
X14897251Y-14311931D01*
X14897251Y-14311931D02*
X14906775Y-14330979D01*
X14906775Y-14330979D02*
X14906775Y-14350027D01*
X14906775Y-14350027D02*
X14897251Y-14378598D01*
X14897251Y-14378598D02*
X14782966Y-14492884D01*
X14782966Y-14492884D02*
X14906775Y-14492884D01*
X15144870Y-14492884D02*
X15144870Y-14292884D01*
X15230585Y-14492884D02*
X15230585Y-14388122D01*
X15230585Y-14388122D02*
X15221061Y-14369074D01*
X15221061Y-14369074D02*
X15202013Y-14359550D01*
X15202013Y-14359550D02*
X15173442Y-14359550D01*
X15173442Y-14359550D02*
X15154394Y-14369074D01*
X15154394Y-14369074D02*
X15144870Y-14378598D01*
X15354394Y-14492884D02*
X15335347Y-14483360D01*
X15335347Y-14483360D02*
X15325823Y-14473836D01*
X15325823Y-14473836D02*
X15316299Y-14454788D01*
X15316299Y-14454788D02*
X15316299Y-14397646D01*
X15316299Y-14397646D02*
X15325823Y-14378598D01*
X15325823Y-14378598D02*
X15335347Y-14369074D01*
X15335347Y-14369074D02*
X15354394Y-14359550D01*
X15354394Y-14359550D02*
X15382966Y-14359550D01*
X15382966Y-14359550D02*
X15402013Y-14369074D01*
X15402013Y-14369074D02*
X15411537Y-14378598D01*
X15411537Y-14378598D02*
X15421061Y-14397646D01*
X15421061Y-14397646D02*
X15421061Y-14454788D01*
X15421061Y-14454788D02*
X15411537Y-14473836D01*
X15411537Y-14473836D02*
X15402013Y-14483360D01*
X15402013Y-14483360D02*
X15382966Y-14492884D01*
X15382966Y-14492884D02*
X15354394Y-14492884D01*
X15535347Y-14492884D02*
X15516299Y-14483360D01*
X15516299Y-14483360D02*
X15506775Y-14464312D01*
X15506775Y-14464312D02*
X15506775Y-14292884D01*
X15687728Y-14483360D02*
X15668680Y-14492884D01*
X15668680Y-14492884D02*
X15630585Y-14492884D01*
X15630585Y-14492884D02*
X15611537Y-14483360D01*
X15611537Y-14483360D02*
X15602013Y-14464312D01*
X15602013Y-14464312D02*
X15602013Y-14388122D01*
X15602013Y-14388122D02*
X15611537Y-14369074D01*
X15611537Y-14369074D02*
X15630585Y-14359550D01*
X15630585Y-14359550D02*
X15668680Y-14359550D01*
X15668680Y-14359550D02*
X15687728Y-14369074D01*
X15687728Y-14369074D02*
X15697251Y-14388122D01*
X15697251Y-14388122D02*
X15697251Y-14407169D01*
X15697251Y-14407169D02*
X15602013Y-14426217D01*
X15773442Y-14483360D02*
X15792490Y-14492884D01*
X15792490Y-14492884D02*
X15830585Y-14492884D01*
X15830585Y-14492884D02*
X15849632Y-14483360D01*
X15849632Y-14483360D02*
X15859156Y-14464312D01*
X15859156Y-14464312D02*
X15859156Y-14454788D01*
X15859156Y-14454788D02*
X15849632Y-14435741D01*
X15849632Y-14435741D02*
X15830585Y-14426217D01*
X15830585Y-14426217D02*
X15802013Y-14426217D01*
X15802013Y-14426217D02*
X15782966Y-14416693D01*
X15782966Y-14416693D02*
X15773442Y-14397646D01*
X15773442Y-14397646D02*
X15773442Y-14388122D01*
X15773442Y-14388122D02*
X15782966Y-14369074D01*
X15782966Y-14369074D02*
X15802013Y-14359550D01*
X15802013Y-14359550D02*
X15830585Y-14359550D01*
X15830585Y-14359550D02*
X15849632Y-14369074D01*
X15925823Y-14569074D02*
X15935347Y-14559550D01*
X15935347Y-14559550D02*
X15954394Y-14530979D01*
X15954394Y-14530979D02*
X15963918Y-14511931D01*
X15963918Y-14511931D02*
X15973442Y-14483360D01*
X15973442Y-14483360D02*
X15982966Y-14435741D01*
X15982966Y-14435741D02*
X15982966Y-14397646D01*
X15982966Y-14397646D02*
X15973442Y-14350027D01*
X15973442Y-14350027D02*
X15963918Y-14321455D01*
X15963918Y-14321455D02*
X15954394Y-14302408D01*
X15954394Y-14302408D02*
X15935347Y-14273836D01*
X15935347Y-14273836D02*
X15925823Y-14264312D01*
D11*
X11100760Y-14615400D02*
X11100760Y-14715400D01*
X11050760Y-14665400D02*
X11150760Y-14665400D01*
D10*
X11516299Y-14756884D02*
X11402013Y-14756884D01*
X11459156Y-14756884D02*
X11459156Y-14556884D01*
X11459156Y-14556884D02*
X11440108Y-14585455D01*
X11440108Y-14585455D02*
X11421061Y-14604503D01*
X11421061Y-14604503D02*
X11402013Y-14614027D01*
X11602013Y-14737836D02*
X11611537Y-14747360D01*
X11611537Y-14747360D02*
X11602013Y-14756884D01*
X11602013Y-14756884D02*
X11592489Y-14747360D01*
X11592489Y-14747360D02*
X11602013Y-14737836D01*
X11602013Y-14737836D02*
X11602013Y-14756884D01*
X11735346Y-14556884D02*
X11754394Y-14556884D01*
X11754394Y-14556884D02*
X11773442Y-14566408D01*
X11773442Y-14566408D02*
X11782965Y-14575931D01*
X11782965Y-14575931D02*
X11792489Y-14594979D01*
X11792489Y-14594979D02*
X11802013Y-14633074D01*
X11802013Y-14633074D02*
X11802013Y-14680693D01*
X11802013Y-14680693D02*
X11792489Y-14718788D01*
X11792489Y-14718788D02*
X11782965Y-14737836D01*
X11782965Y-14737836D02*
X11773442Y-14747360D01*
X11773442Y-14747360D02*
X11754394Y-14756884D01*
X11754394Y-14756884D02*
X11735346Y-14756884D01*
X11735346Y-14756884D02*
X11716299Y-14747360D01*
X11716299Y-14747360D02*
X11706775Y-14737836D01*
X11706775Y-14737836D02*
X11697251Y-14718788D01*
X11697251Y-14718788D02*
X11687727Y-14680693D01*
X11687727Y-14680693D02*
X11687727Y-14633074D01*
X11687727Y-14633074D02*
X11697251Y-14594979D01*
X11697251Y-14594979D02*
X11706775Y-14575931D01*
X11706775Y-14575931D02*
X11716299Y-14566408D01*
X11716299Y-14566408D02*
X11735346Y-14556884D01*
X11925822Y-14556884D02*
X11944870Y-14556884D01*
X11944870Y-14556884D02*
X11963918Y-14566408D01*
X11963918Y-14566408D02*
X11973442Y-14575931D01*
X11973442Y-14575931D02*
X11982965Y-14594979D01*
X11982965Y-14594979D02*
X11992489Y-14633074D01*
X11992489Y-14633074D02*
X11992489Y-14680693D01*
X11992489Y-14680693D02*
X11982965Y-14718788D01*
X11982965Y-14718788D02*
X11973442Y-14737836D01*
X11973442Y-14737836D02*
X11963918Y-14747360D01*
X11963918Y-14747360D02*
X11944870Y-14756884D01*
X11944870Y-14756884D02*
X11925822Y-14756884D01*
X11925822Y-14756884D02*
X11906775Y-14747360D01*
X11906775Y-14747360D02*
X11897251Y-14737836D01*
X11897251Y-14737836D02*
X11887727Y-14718788D01*
X11887727Y-14718788D02*
X11878203Y-14680693D01*
X11878203Y-14680693D02*
X11878203Y-14633074D01*
X11878203Y-14633074D02*
X11887727Y-14594979D01*
X11887727Y-14594979D02*
X11897251Y-14575931D01*
X11897251Y-14575931D02*
X11906775Y-14566408D01*
X11906775Y-14566408D02*
X11925822Y-14556884D01*
X12116299Y-14556884D02*
X12135346Y-14556884D01*
X12135346Y-14556884D02*
X12154394Y-14566408D01*
X12154394Y-14566408D02*
X12163918Y-14575931D01*
X12163918Y-14575931D02*
X12173442Y-14594979D01*
X12173442Y-14594979D02*
X12182965Y-14633074D01*
X12182965Y-14633074D02*
X12182965Y-14680693D01*
X12182965Y-14680693D02*
X12173442Y-14718788D01*
X12173442Y-14718788D02*
X12163918Y-14737836D01*
X12163918Y-14737836D02*
X12154394Y-14747360D01*
X12154394Y-14747360D02*
X12135346Y-14756884D01*
X12135346Y-14756884D02*
X12116299Y-14756884D01*
X12116299Y-14756884D02*
X12097251Y-14747360D01*
X12097251Y-14747360D02*
X12087727Y-14737836D01*
X12087727Y-14737836D02*
X12078203Y-14718788D01*
X12078203Y-14718788D02*
X12068680Y-14680693D01*
X12068680Y-14680693D02*
X12068680Y-14633074D01*
X12068680Y-14633074D02*
X12078203Y-14594979D01*
X12078203Y-14594979D02*
X12087727Y-14575931D01*
X12087727Y-14575931D02*
X12097251Y-14566408D01*
X12097251Y-14566408D02*
X12116299Y-14556884D01*
X12268680Y-14756884D02*
X12268680Y-14623550D01*
X12268680Y-14642598D02*
X12278203Y-14633074D01*
X12278203Y-14633074D02*
X12297251Y-14623550D01*
X12297251Y-14623550D02*
X12325823Y-14623550D01*
X12325823Y-14623550D02*
X12344870Y-14633074D01*
X12344870Y-14633074D02*
X12354394Y-14652122D01*
X12354394Y-14652122D02*
X12354394Y-14756884D01*
X12354394Y-14652122D02*
X12363918Y-14633074D01*
X12363918Y-14633074D02*
X12382965Y-14623550D01*
X12382965Y-14623550D02*
X12411537Y-14623550D01*
X12411537Y-14623550D02*
X12430584Y-14633074D01*
X12430584Y-14633074D02*
X12440108Y-14652122D01*
X12440108Y-14652122D02*
X12440108Y-14756884D01*
X12535346Y-14756884D02*
X12535346Y-14623550D01*
X12535346Y-14642598D02*
X12544870Y-14633074D01*
X12544870Y-14633074D02*
X12563918Y-14623550D01*
X12563918Y-14623550D02*
X12592489Y-14623550D01*
X12592489Y-14623550D02*
X12611537Y-14633074D01*
X12611537Y-14633074D02*
X12621061Y-14652122D01*
X12621061Y-14652122D02*
X12621061Y-14756884D01*
X12621061Y-14652122D02*
X12630584Y-14633074D01*
X12630584Y-14633074D02*
X12649632Y-14623550D01*
X12649632Y-14623550D02*
X12678203Y-14623550D01*
X12678203Y-14623550D02*
X12697251Y-14633074D01*
X12697251Y-14633074D02*
X12706775Y-14652122D01*
X12706775Y-14652122D02*
X12706775Y-14756884D01*
X13097251Y-14547360D02*
X12925823Y-14804503D01*
X13354394Y-14556884D02*
X13373442Y-14556884D01*
X13373442Y-14556884D02*
X13392489Y-14566408D01*
X13392489Y-14566408D02*
X13402013Y-14575931D01*
X13402013Y-14575931D02*
X13411537Y-14594979D01*
X13411537Y-14594979D02*
X13421061Y-14633074D01*
X13421061Y-14633074D02*
X13421061Y-14680693D01*
X13421061Y-14680693D02*
X13411537Y-14718788D01*
X13411537Y-14718788D02*
X13402013Y-14737836D01*
X13402013Y-14737836D02*
X13392489Y-14747360D01*
X13392489Y-14747360D02*
X13373442Y-14756884D01*
X13373442Y-14756884D02*
X13354394Y-14756884D01*
X13354394Y-14756884D02*
X13335346Y-14747360D01*
X13335346Y-14747360D02*
X13325823Y-14737836D01*
X13325823Y-14737836D02*
X13316299Y-14718788D01*
X13316299Y-14718788D02*
X13306775Y-14680693D01*
X13306775Y-14680693D02*
X13306775Y-14633074D01*
X13306775Y-14633074D02*
X13316299Y-14594979D01*
X13316299Y-14594979D02*
X13325823Y-14575931D01*
X13325823Y-14575931D02*
X13335346Y-14566408D01*
X13335346Y-14566408D02*
X13354394Y-14556884D01*
X13506775Y-14737836D02*
X13516299Y-14747360D01*
X13516299Y-14747360D02*
X13506775Y-14756884D01*
X13506775Y-14756884D02*
X13497251Y-14747360D01*
X13497251Y-14747360D02*
X13506775Y-14737836D01*
X13506775Y-14737836D02*
X13506775Y-14756884D01*
X13640108Y-14556884D02*
X13659156Y-14556884D01*
X13659156Y-14556884D02*
X13678204Y-14566408D01*
X13678204Y-14566408D02*
X13687727Y-14575931D01*
X13687727Y-14575931D02*
X13697251Y-14594979D01*
X13697251Y-14594979D02*
X13706775Y-14633074D01*
X13706775Y-14633074D02*
X13706775Y-14680693D01*
X13706775Y-14680693D02*
X13697251Y-14718788D01*
X13697251Y-14718788D02*
X13687727Y-14737836D01*
X13687727Y-14737836D02*
X13678204Y-14747360D01*
X13678204Y-14747360D02*
X13659156Y-14756884D01*
X13659156Y-14756884D02*
X13640108Y-14756884D01*
X13640108Y-14756884D02*
X13621061Y-14747360D01*
X13621061Y-14747360D02*
X13611537Y-14737836D01*
X13611537Y-14737836D02*
X13602013Y-14718788D01*
X13602013Y-14718788D02*
X13592489Y-14680693D01*
X13592489Y-14680693D02*
X13592489Y-14633074D01*
X13592489Y-14633074D02*
X13602013Y-14594979D01*
X13602013Y-14594979D02*
X13611537Y-14575931D01*
X13611537Y-14575931D02*
X13621061Y-14566408D01*
X13621061Y-14566408D02*
X13640108Y-14556884D01*
X13773442Y-14556884D02*
X13897251Y-14556884D01*
X13897251Y-14556884D02*
X13830585Y-14633074D01*
X13830585Y-14633074D02*
X13859156Y-14633074D01*
X13859156Y-14633074D02*
X13878204Y-14642598D01*
X13878204Y-14642598D02*
X13887727Y-14652122D01*
X13887727Y-14652122D02*
X13897251Y-14671169D01*
X13897251Y-14671169D02*
X13897251Y-14718788D01*
X13897251Y-14718788D02*
X13887727Y-14737836D01*
X13887727Y-14737836D02*
X13878204Y-14747360D01*
X13878204Y-14747360D02*
X13859156Y-14756884D01*
X13859156Y-14756884D02*
X13802013Y-14756884D01*
X13802013Y-14756884D02*
X13782966Y-14747360D01*
X13782966Y-14747360D02*
X13773442Y-14737836D01*
X13992489Y-14756884D02*
X14030585Y-14756884D01*
X14030585Y-14756884D02*
X14049632Y-14747360D01*
X14049632Y-14747360D02*
X14059156Y-14737836D01*
X14059156Y-14737836D02*
X14078204Y-14709265D01*
X14078204Y-14709265D02*
X14087727Y-14671169D01*
X14087727Y-14671169D02*
X14087727Y-14594979D01*
X14087727Y-14594979D02*
X14078204Y-14575931D01*
X14078204Y-14575931D02*
X14068680Y-14566408D01*
X14068680Y-14566408D02*
X14049632Y-14556884D01*
X14049632Y-14556884D02*
X14011537Y-14556884D01*
X14011537Y-14556884D02*
X13992489Y-14566408D01*
X13992489Y-14566408D02*
X13982966Y-14575931D01*
X13982966Y-14575931D02*
X13973442Y-14594979D01*
X13973442Y-14594979D02*
X13973442Y-14642598D01*
X13973442Y-14642598D02*
X13982966Y-14661646D01*
X13982966Y-14661646D02*
X13992489Y-14671169D01*
X13992489Y-14671169D02*
X14011537Y-14680693D01*
X14011537Y-14680693D02*
X14049632Y-14680693D01*
X14049632Y-14680693D02*
X14068680Y-14671169D01*
X14068680Y-14671169D02*
X14078204Y-14661646D01*
X14078204Y-14661646D02*
X14087727Y-14642598D01*
X14259156Y-14623550D02*
X14259156Y-14756884D01*
X14211537Y-14547360D02*
X14163918Y-14690217D01*
X14163918Y-14690217D02*
X14287727Y-14690217D01*
X14354394Y-14556884D02*
X14354394Y-14594979D01*
X14430585Y-14556884D02*
X14430585Y-14594979D01*
X14725823Y-14833074D02*
X14716299Y-14823550D01*
X14716299Y-14823550D02*
X14697251Y-14794979D01*
X14697251Y-14794979D02*
X14687728Y-14775931D01*
X14687728Y-14775931D02*
X14678204Y-14747360D01*
X14678204Y-14747360D02*
X14668680Y-14699741D01*
X14668680Y-14699741D02*
X14668680Y-14661646D01*
X14668680Y-14661646D02*
X14678204Y-14614027D01*
X14678204Y-14614027D02*
X14687728Y-14585455D01*
X14687728Y-14585455D02*
X14697251Y-14566408D01*
X14697251Y-14566408D02*
X14716299Y-14537836D01*
X14716299Y-14537836D02*
X14725823Y-14528312D01*
X14792489Y-14575931D02*
X14802013Y-14566408D01*
X14802013Y-14566408D02*
X14821061Y-14556884D01*
X14821061Y-14556884D02*
X14868680Y-14556884D01*
X14868680Y-14556884D02*
X14887728Y-14566408D01*
X14887728Y-14566408D02*
X14897251Y-14575931D01*
X14897251Y-14575931D02*
X14906775Y-14594979D01*
X14906775Y-14594979D02*
X14906775Y-14614027D01*
X14906775Y-14614027D02*
X14897251Y-14642598D01*
X14897251Y-14642598D02*
X14782966Y-14756884D01*
X14782966Y-14756884D02*
X14906775Y-14756884D01*
X15021061Y-14642598D02*
X15002013Y-14633074D01*
X15002013Y-14633074D02*
X14992489Y-14623550D01*
X14992489Y-14623550D02*
X14982966Y-14604503D01*
X14982966Y-14604503D02*
X14982966Y-14594979D01*
X14982966Y-14594979D02*
X14992489Y-14575931D01*
X14992489Y-14575931D02*
X15002013Y-14566408D01*
X15002013Y-14566408D02*
X15021061Y-14556884D01*
X15021061Y-14556884D02*
X15059156Y-14556884D01*
X15059156Y-14556884D02*
X15078204Y-14566408D01*
X15078204Y-14566408D02*
X15087728Y-14575931D01*
X15087728Y-14575931D02*
X15097251Y-14594979D01*
X15097251Y-14594979D02*
X15097251Y-14604503D01*
X15097251Y-14604503D02*
X15087728Y-14623550D01*
X15087728Y-14623550D02*
X15078204Y-14633074D01*
X15078204Y-14633074D02*
X15059156Y-14642598D01*
X15059156Y-14642598D02*
X15021061Y-14642598D01*
X15021061Y-14642598D02*
X15002013Y-14652122D01*
X15002013Y-14652122D02*
X14992489Y-14661646D01*
X14992489Y-14661646D02*
X14982966Y-14680693D01*
X14982966Y-14680693D02*
X14982966Y-14718788D01*
X14982966Y-14718788D02*
X14992489Y-14737836D01*
X14992489Y-14737836D02*
X15002013Y-14747360D01*
X15002013Y-14747360D02*
X15021061Y-14756884D01*
X15021061Y-14756884D02*
X15059156Y-14756884D01*
X15059156Y-14756884D02*
X15078204Y-14747360D01*
X15078204Y-14747360D02*
X15087728Y-14737836D01*
X15087728Y-14737836D02*
X15097251Y-14718788D01*
X15097251Y-14718788D02*
X15097251Y-14680693D01*
X15097251Y-14680693D02*
X15087728Y-14661646D01*
X15087728Y-14661646D02*
X15078204Y-14652122D01*
X15078204Y-14652122D02*
X15059156Y-14642598D01*
X15335347Y-14756884D02*
X15335347Y-14556884D01*
X15421061Y-14756884D02*
X15421061Y-14652122D01*
X15421061Y-14652122D02*
X15411537Y-14633074D01*
X15411537Y-14633074D02*
X15392490Y-14623550D01*
X15392490Y-14623550D02*
X15363918Y-14623550D01*
X15363918Y-14623550D02*
X15344870Y-14633074D01*
X15344870Y-14633074D02*
X15335347Y-14642598D01*
X15544870Y-14756884D02*
X15525823Y-14747360D01*
X15525823Y-14747360D02*
X15516299Y-14737836D01*
X15516299Y-14737836D02*
X15506775Y-14718788D01*
X15506775Y-14718788D02*
X15506775Y-14661646D01*
X15506775Y-14661646D02*
X15516299Y-14642598D01*
X15516299Y-14642598D02*
X15525823Y-14633074D01*
X15525823Y-14633074D02*
X15544870Y-14623550D01*
X15544870Y-14623550D02*
X15573442Y-14623550D01*
X15573442Y-14623550D02*
X15592490Y-14633074D01*
X15592490Y-14633074D02*
X15602013Y-14642598D01*
X15602013Y-14642598D02*
X15611537Y-14661646D01*
X15611537Y-14661646D02*
X15611537Y-14718788D01*
X15611537Y-14718788D02*
X15602013Y-14737836D01*
X15602013Y-14737836D02*
X15592490Y-14747360D01*
X15592490Y-14747360D02*
X15573442Y-14756884D01*
X15573442Y-14756884D02*
X15544870Y-14756884D01*
X15725823Y-14756884D02*
X15706775Y-14747360D01*
X15706775Y-14747360D02*
X15697251Y-14728312D01*
X15697251Y-14728312D02*
X15697251Y-14556884D01*
X15878204Y-14747360D02*
X15859156Y-14756884D01*
X15859156Y-14756884D02*
X15821061Y-14756884D01*
X15821061Y-14756884D02*
X15802013Y-14747360D01*
X15802013Y-14747360D02*
X15792490Y-14728312D01*
X15792490Y-14728312D02*
X15792490Y-14652122D01*
X15792490Y-14652122D02*
X15802013Y-14633074D01*
X15802013Y-14633074D02*
X15821061Y-14623550D01*
X15821061Y-14623550D02*
X15859156Y-14623550D01*
X15859156Y-14623550D02*
X15878204Y-14633074D01*
X15878204Y-14633074D02*
X15887728Y-14652122D01*
X15887728Y-14652122D02*
X15887728Y-14671169D01*
X15887728Y-14671169D02*
X15792490Y-14690217D01*
X15963918Y-14747360D02*
X15982966Y-14756884D01*
X15982966Y-14756884D02*
X16021061Y-14756884D01*
X16021061Y-14756884D02*
X16040109Y-14747360D01*
X16040109Y-14747360D02*
X16049632Y-14728312D01*
X16049632Y-14728312D02*
X16049632Y-14718788D01*
X16049632Y-14718788D02*
X16040109Y-14699741D01*
X16040109Y-14699741D02*
X16021061Y-14690217D01*
X16021061Y-14690217D02*
X15992490Y-14690217D01*
X15992490Y-14690217D02*
X15973442Y-14680693D01*
X15973442Y-14680693D02*
X15963918Y-14661646D01*
X15963918Y-14661646D02*
X15963918Y-14652122D01*
X15963918Y-14652122D02*
X15973442Y-14633074D01*
X15973442Y-14633074D02*
X15992490Y-14623550D01*
X15992490Y-14623550D02*
X16021061Y-14623550D01*
X16021061Y-14623550D02*
X16040109Y-14633074D01*
X16116299Y-14833074D02*
X16125823Y-14823550D01*
X16125823Y-14823550D02*
X16144871Y-14794979D01*
X16144871Y-14794979D02*
X16154394Y-14775931D01*
X16154394Y-14775931D02*
X16163918Y-14747360D01*
X16163918Y-14747360D02*
X16173442Y-14699741D01*
X16173442Y-14699741D02*
X16173442Y-14661646D01*
X16173442Y-14661646D02*
X16163918Y-14614027D01*
X16163918Y-14614027D02*
X16154394Y-14585455D01*
X16154394Y-14585455D02*
X16144871Y-14566408D01*
X16144871Y-14566408D02*
X16125823Y-14537836D01*
X16125823Y-14537836D02*
X16116299Y-14528312D01*
D12*
X11133187Y-14971827D02*
X11133187Y-14886973D01*
X11048333Y-14886973D01*
X11048333Y-14971827D01*
X11133187Y-14971827D01*
D10*
X11516299Y-15020884D02*
X11402013Y-15020884D01*
X11459156Y-15020884D02*
X11459156Y-14820884D01*
X11459156Y-14820884D02*
X11440108Y-14849455D01*
X11440108Y-14849455D02*
X11421061Y-14868503D01*
X11421061Y-14868503D02*
X11402013Y-14878027D01*
X11602013Y-15001836D02*
X11611537Y-15011360D01*
X11611537Y-15011360D02*
X11602013Y-15020884D01*
X11602013Y-15020884D02*
X11592489Y-15011360D01*
X11592489Y-15011360D02*
X11602013Y-15001836D01*
X11602013Y-15001836D02*
X11602013Y-15020884D01*
X11687727Y-14839931D02*
X11697251Y-14830408D01*
X11697251Y-14830408D02*
X11716299Y-14820884D01*
X11716299Y-14820884D02*
X11763918Y-14820884D01*
X11763918Y-14820884D02*
X11782965Y-14830408D01*
X11782965Y-14830408D02*
X11792489Y-14839931D01*
X11792489Y-14839931D02*
X11802013Y-14858979D01*
X11802013Y-14858979D02*
X11802013Y-14878027D01*
X11802013Y-14878027D02*
X11792489Y-14906598D01*
X11792489Y-14906598D02*
X11678203Y-15020884D01*
X11678203Y-15020884D02*
X11802013Y-15020884D01*
X11925822Y-14820884D02*
X11944870Y-14820884D01*
X11944870Y-14820884D02*
X11963918Y-14830408D01*
X11963918Y-14830408D02*
X11973442Y-14839931D01*
X11973442Y-14839931D02*
X11982965Y-14858979D01*
X11982965Y-14858979D02*
X11992489Y-14897074D01*
X11992489Y-14897074D02*
X11992489Y-14944693D01*
X11992489Y-14944693D02*
X11982965Y-14982788D01*
X11982965Y-14982788D02*
X11973442Y-15001836D01*
X11973442Y-15001836D02*
X11963918Y-15011360D01*
X11963918Y-15011360D02*
X11944870Y-15020884D01*
X11944870Y-15020884D02*
X11925822Y-15020884D01*
X11925822Y-15020884D02*
X11906775Y-15011360D01*
X11906775Y-15011360D02*
X11897251Y-15001836D01*
X11897251Y-15001836D02*
X11887727Y-14982788D01*
X11887727Y-14982788D02*
X11878203Y-14944693D01*
X11878203Y-14944693D02*
X11878203Y-14897074D01*
X11878203Y-14897074D02*
X11887727Y-14858979D01*
X11887727Y-14858979D02*
X11897251Y-14839931D01*
X11897251Y-14839931D02*
X11906775Y-14830408D01*
X11906775Y-14830408D02*
X11925822Y-14820884D01*
X12116299Y-14820884D02*
X12135346Y-14820884D01*
X12135346Y-14820884D02*
X12154394Y-14830408D01*
X12154394Y-14830408D02*
X12163918Y-14839931D01*
X12163918Y-14839931D02*
X12173442Y-14858979D01*
X12173442Y-14858979D02*
X12182965Y-14897074D01*
X12182965Y-14897074D02*
X12182965Y-14944693D01*
X12182965Y-14944693D02*
X12173442Y-14982788D01*
X12173442Y-14982788D02*
X12163918Y-15001836D01*
X12163918Y-15001836D02*
X12154394Y-15011360D01*
X12154394Y-15011360D02*
X12135346Y-15020884D01*
X12135346Y-15020884D02*
X12116299Y-15020884D01*
X12116299Y-15020884D02*
X12097251Y-15011360D01*
X12097251Y-15011360D02*
X12087727Y-15001836D01*
X12087727Y-15001836D02*
X12078203Y-14982788D01*
X12078203Y-14982788D02*
X12068680Y-14944693D01*
X12068680Y-14944693D02*
X12068680Y-14897074D01*
X12068680Y-14897074D02*
X12078203Y-14858979D01*
X12078203Y-14858979D02*
X12087727Y-14839931D01*
X12087727Y-14839931D02*
X12097251Y-14830408D01*
X12097251Y-14830408D02*
X12116299Y-14820884D01*
X12268680Y-15020884D02*
X12268680Y-14887550D01*
X12268680Y-14906598D02*
X12278203Y-14897074D01*
X12278203Y-14897074D02*
X12297251Y-14887550D01*
X12297251Y-14887550D02*
X12325823Y-14887550D01*
X12325823Y-14887550D02*
X12344870Y-14897074D01*
X12344870Y-14897074D02*
X12354394Y-14916122D01*
X12354394Y-14916122D02*
X12354394Y-15020884D01*
X12354394Y-14916122D02*
X12363918Y-14897074D01*
X12363918Y-14897074D02*
X12382965Y-14887550D01*
X12382965Y-14887550D02*
X12411537Y-14887550D01*
X12411537Y-14887550D02*
X12430584Y-14897074D01*
X12430584Y-14897074D02*
X12440108Y-14916122D01*
X12440108Y-14916122D02*
X12440108Y-15020884D01*
X12535346Y-15020884D02*
X12535346Y-14887550D01*
X12535346Y-14906598D02*
X12544870Y-14897074D01*
X12544870Y-14897074D02*
X12563918Y-14887550D01*
X12563918Y-14887550D02*
X12592489Y-14887550D01*
X12592489Y-14887550D02*
X12611537Y-14897074D01*
X12611537Y-14897074D02*
X12621061Y-14916122D01*
X12621061Y-14916122D02*
X12621061Y-15020884D01*
X12621061Y-14916122D02*
X12630584Y-14897074D01*
X12630584Y-14897074D02*
X12649632Y-14887550D01*
X12649632Y-14887550D02*
X12678203Y-14887550D01*
X12678203Y-14887550D02*
X12697251Y-14897074D01*
X12697251Y-14897074D02*
X12706775Y-14916122D01*
X12706775Y-14916122D02*
X12706775Y-15020884D01*
X13097251Y-14811360D02*
X12925823Y-15068503D01*
X13354394Y-14820884D02*
X13373442Y-14820884D01*
X13373442Y-14820884D02*
X13392489Y-14830408D01*
X13392489Y-14830408D02*
X13402013Y-14839931D01*
X13402013Y-14839931D02*
X13411537Y-14858979D01*
X13411537Y-14858979D02*
X13421061Y-14897074D01*
X13421061Y-14897074D02*
X13421061Y-14944693D01*
X13421061Y-14944693D02*
X13411537Y-14982788D01*
X13411537Y-14982788D02*
X13402013Y-15001836D01*
X13402013Y-15001836D02*
X13392489Y-15011360D01*
X13392489Y-15011360D02*
X13373442Y-15020884D01*
X13373442Y-15020884D02*
X13354394Y-15020884D01*
X13354394Y-15020884D02*
X13335346Y-15011360D01*
X13335346Y-15011360D02*
X13325823Y-15001836D01*
X13325823Y-15001836D02*
X13316299Y-14982788D01*
X13316299Y-14982788D02*
X13306775Y-14944693D01*
X13306775Y-14944693D02*
X13306775Y-14897074D01*
X13306775Y-14897074D02*
X13316299Y-14858979D01*
X13316299Y-14858979D02*
X13325823Y-14839931D01*
X13325823Y-14839931D02*
X13335346Y-14830408D01*
X13335346Y-14830408D02*
X13354394Y-14820884D01*
X13506775Y-15001836D02*
X13516299Y-15011360D01*
X13516299Y-15011360D02*
X13506775Y-15020884D01*
X13506775Y-15020884D02*
X13497251Y-15011360D01*
X13497251Y-15011360D02*
X13506775Y-15001836D01*
X13506775Y-15001836D02*
X13506775Y-15020884D01*
X13640108Y-14820884D02*
X13659156Y-14820884D01*
X13659156Y-14820884D02*
X13678204Y-14830408D01*
X13678204Y-14830408D02*
X13687727Y-14839931D01*
X13687727Y-14839931D02*
X13697251Y-14858979D01*
X13697251Y-14858979D02*
X13706775Y-14897074D01*
X13706775Y-14897074D02*
X13706775Y-14944693D01*
X13706775Y-14944693D02*
X13697251Y-14982788D01*
X13697251Y-14982788D02*
X13687727Y-15001836D01*
X13687727Y-15001836D02*
X13678204Y-15011360D01*
X13678204Y-15011360D02*
X13659156Y-15020884D01*
X13659156Y-15020884D02*
X13640108Y-15020884D01*
X13640108Y-15020884D02*
X13621061Y-15011360D01*
X13621061Y-15011360D02*
X13611537Y-15001836D01*
X13611537Y-15001836D02*
X13602013Y-14982788D01*
X13602013Y-14982788D02*
X13592489Y-14944693D01*
X13592489Y-14944693D02*
X13592489Y-14897074D01*
X13592489Y-14897074D02*
X13602013Y-14858979D01*
X13602013Y-14858979D02*
X13611537Y-14839931D01*
X13611537Y-14839931D02*
X13621061Y-14830408D01*
X13621061Y-14830408D02*
X13640108Y-14820884D01*
X13878204Y-14887550D02*
X13878204Y-15020884D01*
X13830585Y-14811360D02*
X13782966Y-14954217D01*
X13782966Y-14954217D02*
X13906775Y-14954217D01*
X13963918Y-14820884D02*
X14097251Y-14820884D01*
X14097251Y-14820884D02*
X14011537Y-15020884D01*
X14163918Y-14839931D02*
X14173442Y-14830408D01*
X14173442Y-14830408D02*
X14192489Y-14820884D01*
X14192489Y-14820884D02*
X14240108Y-14820884D01*
X14240108Y-14820884D02*
X14259156Y-14830408D01*
X14259156Y-14830408D02*
X14268680Y-14839931D01*
X14268680Y-14839931D02*
X14278204Y-14858979D01*
X14278204Y-14858979D02*
X14278204Y-14878027D01*
X14278204Y-14878027D02*
X14268680Y-14906598D01*
X14268680Y-14906598D02*
X14154394Y-15020884D01*
X14154394Y-15020884D02*
X14278204Y-15020884D01*
X14354394Y-14820884D02*
X14354394Y-14858979D01*
X14430585Y-14820884D02*
X14430585Y-14858979D01*
X14725823Y-15097074D02*
X14716299Y-15087550D01*
X14716299Y-15087550D02*
X14697251Y-15058979D01*
X14697251Y-15058979D02*
X14687728Y-15039931D01*
X14687728Y-15039931D02*
X14678204Y-15011360D01*
X14678204Y-15011360D02*
X14668680Y-14963741D01*
X14668680Y-14963741D02*
X14668680Y-14925646D01*
X14668680Y-14925646D02*
X14678204Y-14878027D01*
X14678204Y-14878027D02*
X14687728Y-14849455D01*
X14687728Y-14849455D02*
X14697251Y-14830408D01*
X14697251Y-14830408D02*
X14716299Y-14801836D01*
X14716299Y-14801836D02*
X14725823Y-14792312D01*
X14792489Y-14839931D02*
X14802013Y-14830408D01*
X14802013Y-14830408D02*
X14821061Y-14820884D01*
X14821061Y-14820884D02*
X14868680Y-14820884D01*
X14868680Y-14820884D02*
X14887728Y-14830408D01*
X14887728Y-14830408D02*
X14897251Y-14839931D01*
X14897251Y-14839931D02*
X14906775Y-14858979D01*
X14906775Y-14858979D02*
X14906775Y-14878027D01*
X14906775Y-14878027D02*
X14897251Y-14906598D01*
X14897251Y-14906598D02*
X14782966Y-15020884D01*
X14782966Y-15020884D02*
X14906775Y-15020884D01*
X15144870Y-15020884D02*
X15144870Y-14820884D01*
X15230585Y-15020884D02*
X15230585Y-14916122D01*
X15230585Y-14916122D02*
X15221061Y-14897074D01*
X15221061Y-14897074D02*
X15202013Y-14887550D01*
X15202013Y-14887550D02*
X15173442Y-14887550D01*
X15173442Y-14887550D02*
X15154394Y-14897074D01*
X15154394Y-14897074D02*
X15144870Y-14906598D01*
X15354394Y-15020884D02*
X15335347Y-15011360D01*
X15335347Y-15011360D02*
X15325823Y-15001836D01*
X15325823Y-15001836D02*
X15316299Y-14982788D01*
X15316299Y-14982788D02*
X15316299Y-14925646D01*
X15316299Y-14925646D02*
X15325823Y-14906598D01*
X15325823Y-14906598D02*
X15335347Y-14897074D01*
X15335347Y-14897074D02*
X15354394Y-14887550D01*
X15354394Y-14887550D02*
X15382966Y-14887550D01*
X15382966Y-14887550D02*
X15402013Y-14897074D01*
X15402013Y-14897074D02*
X15411537Y-14906598D01*
X15411537Y-14906598D02*
X15421061Y-14925646D01*
X15421061Y-14925646D02*
X15421061Y-14982788D01*
X15421061Y-14982788D02*
X15411537Y-15001836D01*
X15411537Y-15001836D02*
X15402013Y-15011360D01*
X15402013Y-15011360D02*
X15382966Y-15020884D01*
X15382966Y-15020884D02*
X15354394Y-15020884D01*
X15535347Y-15020884D02*
X15516299Y-15011360D01*
X15516299Y-15011360D02*
X15506775Y-14992312D01*
X15506775Y-14992312D02*
X15506775Y-14820884D01*
X15687728Y-15011360D02*
X15668680Y-15020884D01*
X15668680Y-15020884D02*
X15630585Y-15020884D01*
X15630585Y-15020884D02*
X15611537Y-15011360D01*
X15611537Y-15011360D02*
X15602013Y-14992312D01*
X15602013Y-14992312D02*
X15602013Y-14916122D01*
X15602013Y-14916122D02*
X15611537Y-14897074D01*
X15611537Y-14897074D02*
X15630585Y-14887550D01*
X15630585Y-14887550D02*
X15668680Y-14887550D01*
X15668680Y-14887550D02*
X15687728Y-14897074D01*
X15687728Y-14897074D02*
X15697251Y-14916122D01*
X15697251Y-14916122D02*
X15697251Y-14935169D01*
X15697251Y-14935169D02*
X15602013Y-14954217D01*
X15773442Y-15011360D02*
X15792490Y-15020884D01*
X15792490Y-15020884D02*
X15830585Y-15020884D01*
X15830585Y-15020884D02*
X15849632Y-15011360D01*
X15849632Y-15011360D02*
X15859156Y-14992312D01*
X15859156Y-14992312D02*
X15859156Y-14982788D01*
X15859156Y-14982788D02*
X15849632Y-14963741D01*
X15849632Y-14963741D02*
X15830585Y-14954217D01*
X15830585Y-14954217D02*
X15802013Y-14954217D01*
X15802013Y-14954217D02*
X15782966Y-14944693D01*
X15782966Y-14944693D02*
X15773442Y-14925646D01*
X15773442Y-14925646D02*
X15773442Y-14916122D01*
X15773442Y-14916122D02*
X15782966Y-14897074D01*
X15782966Y-14897074D02*
X15802013Y-14887550D01*
X15802013Y-14887550D02*
X15830585Y-14887550D01*
X15830585Y-14887550D02*
X15849632Y-14897074D01*
X15925823Y-15097074D02*
X15935347Y-15087550D01*
X15935347Y-15087550D02*
X15954394Y-15058979D01*
X15954394Y-15058979D02*
X15963918Y-15039931D01*
X15963918Y-15039931D02*
X15973442Y-15011360D01*
X15973442Y-15011360D02*
X15982966Y-14963741D01*
X15982966Y-14963741D02*
X15982966Y-14925646D01*
X15982966Y-14925646D02*
X15973442Y-14878027D01*
X15973442Y-14878027D02*
X15963918Y-14849455D01*
X15963918Y-14849455D02*
X15954394Y-14830408D01*
X15954394Y-14830408D02*
X15935347Y-14801836D01*
X15935347Y-14801836D02*
X15925823Y-14792312D01*
D13*
X11087260Y-15256900D02*
X11150760Y-15193400D01*
X11087260Y-15129900D01*
X11023760Y-15193400D01*
X11087260Y-15256900D01*
D10*
X11516299Y-15284884D02*
X11402013Y-15284884D01*
X11459156Y-15284884D02*
X11459156Y-15084884D01*
X11459156Y-15084884D02*
X11440108Y-15113455D01*
X11440108Y-15113455D02*
X11421061Y-15132503D01*
X11421061Y-15132503D02*
X11402013Y-15142027D01*
X11602013Y-15265836D02*
X11611537Y-15275360D01*
X11611537Y-15275360D02*
X11602013Y-15284884D01*
X11602013Y-15284884D02*
X11592489Y-15275360D01*
X11592489Y-15275360D02*
X11602013Y-15265836D01*
X11602013Y-15265836D02*
X11602013Y-15284884D01*
X11687727Y-15103931D02*
X11697251Y-15094408D01*
X11697251Y-15094408D02*
X11716299Y-15084884D01*
X11716299Y-15084884D02*
X11763918Y-15084884D01*
X11763918Y-15084884D02*
X11782965Y-15094408D01*
X11782965Y-15094408D02*
X11792489Y-15103931D01*
X11792489Y-15103931D02*
X11802013Y-15122979D01*
X11802013Y-15122979D02*
X11802013Y-15142027D01*
X11802013Y-15142027D02*
X11792489Y-15170598D01*
X11792489Y-15170598D02*
X11678203Y-15284884D01*
X11678203Y-15284884D02*
X11802013Y-15284884D01*
X11868680Y-15084884D02*
X12002013Y-15084884D01*
X12002013Y-15084884D02*
X11916299Y-15284884D01*
X12116299Y-15084884D02*
X12135346Y-15084884D01*
X12135346Y-15084884D02*
X12154394Y-15094408D01*
X12154394Y-15094408D02*
X12163918Y-15103931D01*
X12163918Y-15103931D02*
X12173442Y-15122979D01*
X12173442Y-15122979D02*
X12182965Y-15161074D01*
X12182965Y-15161074D02*
X12182965Y-15208693D01*
X12182965Y-15208693D02*
X12173442Y-15246788D01*
X12173442Y-15246788D02*
X12163918Y-15265836D01*
X12163918Y-15265836D02*
X12154394Y-15275360D01*
X12154394Y-15275360D02*
X12135346Y-15284884D01*
X12135346Y-15284884D02*
X12116299Y-15284884D01*
X12116299Y-15284884D02*
X12097251Y-15275360D01*
X12097251Y-15275360D02*
X12087727Y-15265836D01*
X12087727Y-15265836D02*
X12078203Y-15246788D01*
X12078203Y-15246788D02*
X12068680Y-15208693D01*
X12068680Y-15208693D02*
X12068680Y-15161074D01*
X12068680Y-15161074D02*
X12078203Y-15122979D01*
X12078203Y-15122979D02*
X12087727Y-15103931D01*
X12087727Y-15103931D02*
X12097251Y-15094408D01*
X12097251Y-15094408D02*
X12116299Y-15084884D01*
X12268680Y-15284884D02*
X12268680Y-15151550D01*
X12268680Y-15170598D02*
X12278203Y-15161074D01*
X12278203Y-15161074D02*
X12297251Y-15151550D01*
X12297251Y-15151550D02*
X12325823Y-15151550D01*
X12325823Y-15151550D02*
X12344870Y-15161074D01*
X12344870Y-15161074D02*
X12354394Y-15180122D01*
X12354394Y-15180122D02*
X12354394Y-15284884D01*
X12354394Y-15180122D02*
X12363918Y-15161074D01*
X12363918Y-15161074D02*
X12382965Y-15151550D01*
X12382965Y-15151550D02*
X12411537Y-15151550D01*
X12411537Y-15151550D02*
X12430584Y-15161074D01*
X12430584Y-15161074D02*
X12440108Y-15180122D01*
X12440108Y-15180122D02*
X12440108Y-15284884D01*
X12535346Y-15284884D02*
X12535346Y-15151550D01*
X12535346Y-15170598D02*
X12544870Y-15161074D01*
X12544870Y-15161074D02*
X12563918Y-15151550D01*
X12563918Y-15151550D02*
X12592489Y-15151550D01*
X12592489Y-15151550D02*
X12611537Y-15161074D01*
X12611537Y-15161074D02*
X12621061Y-15180122D01*
X12621061Y-15180122D02*
X12621061Y-15284884D01*
X12621061Y-15180122D02*
X12630584Y-15161074D01*
X12630584Y-15161074D02*
X12649632Y-15151550D01*
X12649632Y-15151550D02*
X12678203Y-15151550D01*
X12678203Y-15151550D02*
X12697251Y-15161074D01*
X12697251Y-15161074D02*
X12706775Y-15180122D01*
X12706775Y-15180122D02*
X12706775Y-15284884D01*
X13097251Y-15075360D02*
X12925823Y-15332503D01*
X13354394Y-15084884D02*
X13373442Y-15084884D01*
X13373442Y-15084884D02*
X13392489Y-15094408D01*
X13392489Y-15094408D02*
X13402013Y-15103931D01*
X13402013Y-15103931D02*
X13411537Y-15122979D01*
X13411537Y-15122979D02*
X13421061Y-15161074D01*
X13421061Y-15161074D02*
X13421061Y-15208693D01*
X13421061Y-15208693D02*
X13411537Y-15246788D01*
X13411537Y-15246788D02*
X13402013Y-15265836D01*
X13402013Y-15265836D02*
X13392489Y-15275360D01*
X13392489Y-15275360D02*
X13373442Y-15284884D01*
X13373442Y-15284884D02*
X13354394Y-15284884D01*
X13354394Y-15284884D02*
X13335346Y-15275360D01*
X13335346Y-15275360D02*
X13325823Y-15265836D01*
X13325823Y-15265836D02*
X13316299Y-15246788D01*
X13316299Y-15246788D02*
X13306775Y-15208693D01*
X13306775Y-15208693D02*
X13306775Y-15161074D01*
X13306775Y-15161074D02*
X13316299Y-15122979D01*
X13316299Y-15122979D02*
X13325823Y-15103931D01*
X13325823Y-15103931D02*
X13335346Y-15094408D01*
X13335346Y-15094408D02*
X13354394Y-15084884D01*
X13506775Y-15265836D02*
X13516299Y-15275360D01*
X13516299Y-15275360D02*
X13506775Y-15284884D01*
X13506775Y-15284884D02*
X13497251Y-15275360D01*
X13497251Y-15275360D02*
X13506775Y-15265836D01*
X13506775Y-15265836D02*
X13506775Y-15284884D01*
X13640108Y-15084884D02*
X13659156Y-15084884D01*
X13659156Y-15084884D02*
X13678204Y-15094408D01*
X13678204Y-15094408D02*
X13687727Y-15103931D01*
X13687727Y-15103931D02*
X13697251Y-15122979D01*
X13697251Y-15122979D02*
X13706775Y-15161074D01*
X13706775Y-15161074D02*
X13706775Y-15208693D01*
X13706775Y-15208693D02*
X13697251Y-15246788D01*
X13697251Y-15246788D02*
X13687727Y-15265836D01*
X13687727Y-15265836D02*
X13678204Y-15275360D01*
X13678204Y-15275360D02*
X13659156Y-15284884D01*
X13659156Y-15284884D02*
X13640108Y-15284884D01*
X13640108Y-15284884D02*
X13621061Y-15275360D01*
X13621061Y-15275360D02*
X13611537Y-15265836D01*
X13611537Y-15265836D02*
X13602013Y-15246788D01*
X13602013Y-15246788D02*
X13592489Y-15208693D01*
X13592489Y-15208693D02*
X13592489Y-15161074D01*
X13592489Y-15161074D02*
X13602013Y-15122979D01*
X13602013Y-15122979D02*
X13611537Y-15103931D01*
X13611537Y-15103931D02*
X13621061Y-15094408D01*
X13621061Y-15094408D02*
X13640108Y-15084884D01*
X13887727Y-15084884D02*
X13792489Y-15084884D01*
X13792489Y-15084884D02*
X13782966Y-15180122D01*
X13782966Y-15180122D02*
X13792489Y-15170598D01*
X13792489Y-15170598D02*
X13811537Y-15161074D01*
X13811537Y-15161074D02*
X13859156Y-15161074D01*
X13859156Y-15161074D02*
X13878204Y-15170598D01*
X13878204Y-15170598D02*
X13887727Y-15180122D01*
X13887727Y-15180122D02*
X13897251Y-15199169D01*
X13897251Y-15199169D02*
X13897251Y-15246788D01*
X13897251Y-15246788D02*
X13887727Y-15265836D01*
X13887727Y-15265836D02*
X13878204Y-15275360D01*
X13878204Y-15275360D02*
X13859156Y-15284884D01*
X13859156Y-15284884D02*
X13811537Y-15284884D01*
X13811537Y-15284884D02*
X13792489Y-15275360D01*
X13792489Y-15275360D02*
X13782966Y-15265836D01*
X14021061Y-15084884D02*
X14040108Y-15084884D01*
X14040108Y-15084884D02*
X14059156Y-15094408D01*
X14059156Y-15094408D02*
X14068680Y-15103931D01*
X14068680Y-15103931D02*
X14078204Y-15122979D01*
X14078204Y-15122979D02*
X14087727Y-15161074D01*
X14087727Y-15161074D02*
X14087727Y-15208693D01*
X14087727Y-15208693D02*
X14078204Y-15246788D01*
X14078204Y-15246788D02*
X14068680Y-15265836D01*
X14068680Y-15265836D02*
X14059156Y-15275360D01*
X14059156Y-15275360D02*
X14040108Y-15284884D01*
X14040108Y-15284884D02*
X14021061Y-15284884D01*
X14021061Y-15284884D02*
X14002013Y-15275360D01*
X14002013Y-15275360D02*
X13992489Y-15265836D01*
X13992489Y-15265836D02*
X13982966Y-15246788D01*
X13982966Y-15246788D02*
X13973442Y-15208693D01*
X13973442Y-15208693D02*
X13973442Y-15161074D01*
X13973442Y-15161074D02*
X13982966Y-15122979D01*
X13982966Y-15122979D02*
X13992489Y-15103931D01*
X13992489Y-15103931D02*
X14002013Y-15094408D01*
X14002013Y-15094408D02*
X14021061Y-15084884D01*
X14211537Y-15084884D02*
X14230585Y-15084884D01*
X14230585Y-15084884D02*
X14249632Y-15094408D01*
X14249632Y-15094408D02*
X14259156Y-15103931D01*
X14259156Y-15103931D02*
X14268680Y-15122979D01*
X14268680Y-15122979D02*
X14278204Y-15161074D01*
X14278204Y-15161074D02*
X14278204Y-15208693D01*
X14278204Y-15208693D02*
X14268680Y-15246788D01*
X14268680Y-15246788D02*
X14259156Y-15265836D01*
X14259156Y-15265836D02*
X14249632Y-15275360D01*
X14249632Y-15275360D02*
X14230585Y-15284884D01*
X14230585Y-15284884D02*
X14211537Y-15284884D01*
X14211537Y-15284884D02*
X14192489Y-15275360D01*
X14192489Y-15275360D02*
X14182966Y-15265836D01*
X14182966Y-15265836D02*
X14173442Y-15246788D01*
X14173442Y-15246788D02*
X14163918Y-15208693D01*
X14163918Y-15208693D02*
X14163918Y-15161074D01*
X14163918Y-15161074D02*
X14173442Y-15122979D01*
X14173442Y-15122979D02*
X14182966Y-15103931D01*
X14182966Y-15103931D02*
X14192489Y-15094408D01*
X14192489Y-15094408D02*
X14211537Y-15084884D01*
X14354394Y-15084884D02*
X14354394Y-15122979D01*
X14430585Y-15084884D02*
X14430585Y-15122979D01*
X14725823Y-15361074D02*
X14716299Y-15351550D01*
X14716299Y-15351550D02*
X14697251Y-15322979D01*
X14697251Y-15322979D02*
X14687728Y-15303931D01*
X14687728Y-15303931D02*
X14678204Y-15275360D01*
X14678204Y-15275360D02*
X14668680Y-15227741D01*
X14668680Y-15227741D02*
X14668680Y-15189646D01*
X14668680Y-15189646D02*
X14678204Y-15142027D01*
X14678204Y-15142027D02*
X14687728Y-15113455D01*
X14687728Y-15113455D02*
X14697251Y-15094408D01*
X14697251Y-15094408D02*
X14716299Y-15065836D01*
X14716299Y-15065836D02*
X14725823Y-15056312D01*
X14906775Y-15284884D02*
X14792489Y-15284884D01*
X14849632Y-15284884D02*
X14849632Y-15084884D01*
X14849632Y-15084884D02*
X14830585Y-15113455D01*
X14830585Y-15113455D02*
X14811537Y-15132503D01*
X14811537Y-15132503D02*
X14792489Y-15142027D01*
X15078204Y-15084884D02*
X15040108Y-15084884D01*
X15040108Y-15084884D02*
X15021061Y-15094408D01*
X15021061Y-15094408D02*
X15011537Y-15103931D01*
X15011537Y-15103931D02*
X14992489Y-15132503D01*
X14992489Y-15132503D02*
X14982966Y-15170598D01*
X14982966Y-15170598D02*
X14982966Y-15246788D01*
X14982966Y-15246788D02*
X14992489Y-15265836D01*
X14992489Y-15265836D02*
X15002013Y-15275360D01*
X15002013Y-15275360D02*
X15021061Y-15284884D01*
X15021061Y-15284884D02*
X15059156Y-15284884D01*
X15059156Y-15284884D02*
X15078204Y-15275360D01*
X15078204Y-15275360D02*
X15087728Y-15265836D01*
X15087728Y-15265836D02*
X15097251Y-15246788D01*
X15097251Y-15246788D02*
X15097251Y-15199169D01*
X15097251Y-15199169D02*
X15087728Y-15180122D01*
X15087728Y-15180122D02*
X15078204Y-15170598D01*
X15078204Y-15170598D02*
X15059156Y-15161074D01*
X15059156Y-15161074D02*
X15021061Y-15161074D01*
X15021061Y-15161074D02*
X15002013Y-15170598D01*
X15002013Y-15170598D02*
X14992489Y-15180122D01*
X14992489Y-15180122D02*
X14982966Y-15199169D01*
X15335347Y-15284884D02*
X15335347Y-15084884D01*
X15421061Y-15284884D02*
X15421061Y-15180122D01*
X15421061Y-15180122D02*
X15411537Y-15161074D01*
X15411537Y-15161074D02*
X15392490Y-15151550D01*
X15392490Y-15151550D02*
X15363918Y-15151550D01*
X15363918Y-15151550D02*
X15344870Y-15161074D01*
X15344870Y-15161074D02*
X15335347Y-15170598D01*
X15544870Y-15284884D02*
X15525823Y-15275360D01*
X15525823Y-15275360D02*
X15516299Y-15265836D01*
X15516299Y-15265836D02*
X15506775Y-15246788D01*
X15506775Y-15246788D02*
X15506775Y-15189646D01*
X15506775Y-15189646D02*
X15516299Y-15170598D01*
X15516299Y-15170598D02*
X15525823Y-15161074D01*
X15525823Y-15161074D02*
X15544870Y-15151550D01*
X15544870Y-15151550D02*
X15573442Y-15151550D01*
X15573442Y-15151550D02*
X15592490Y-15161074D01*
X15592490Y-15161074D02*
X15602013Y-15170598D01*
X15602013Y-15170598D02*
X15611537Y-15189646D01*
X15611537Y-15189646D02*
X15611537Y-15246788D01*
X15611537Y-15246788D02*
X15602013Y-15265836D01*
X15602013Y-15265836D02*
X15592490Y-15275360D01*
X15592490Y-15275360D02*
X15573442Y-15284884D01*
X15573442Y-15284884D02*
X15544870Y-15284884D01*
X15725823Y-15284884D02*
X15706775Y-15275360D01*
X15706775Y-15275360D02*
X15697251Y-15256312D01*
X15697251Y-15256312D02*
X15697251Y-15084884D01*
X15878204Y-15275360D02*
X15859156Y-15284884D01*
X15859156Y-15284884D02*
X15821061Y-15284884D01*
X15821061Y-15284884D02*
X15802013Y-15275360D01*
X15802013Y-15275360D02*
X15792490Y-15256312D01*
X15792490Y-15256312D02*
X15792490Y-15180122D01*
X15792490Y-15180122D02*
X15802013Y-15161074D01*
X15802013Y-15161074D02*
X15821061Y-15151550D01*
X15821061Y-15151550D02*
X15859156Y-15151550D01*
X15859156Y-15151550D02*
X15878204Y-15161074D01*
X15878204Y-15161074D02*
X15887728Y-15180122D01*
X15887728Y-15180122D02*
X15887728Y-15199169D01*
X15887728Y-15199169D02*
X15792490Y-15218217D01*
X15963918Y-15275360D02*
X15982966Y-15284884D01*
X15982966Y-15284884D02*
X16021061Y-15284884D01*
X16021061Y-15284884D02*
X16040109Y-15275360D01*
X16040109Y-15275360D02*
X16049632Y-15256312D01*
X16049632Y-15256312D02*
X16049632Y-15246788D01*
X16049632Y-15246788D02*
X16040109Y-15227741D01*
X16040109Y-15227741D02*
X16021061Y-15218217D01*
X16021061Y-15218217D02*
X15992490Y-15218217D01*
X15992490Y-15218217D02*
X15973442Y-15208693D01*
X15973442Y-15208693D02*
X15963918Y-15189646D01*
X15963918Y-15189646D02*
X15963918Y-15180122D01*
X15963918Y-15180122D02*
X15973442Y-15161074D01*
X15973442Y-15161074D02*
X15992490Y-15151550D01*
X15992490Y-15151550D02*
X16021061Y-15151550D01*
X16021061Y-15151550D02*
X16040109Y-15161074D01*
X16116299Y-15361074D02*
X16125823Y-15351550D01*
X16125823Y-15351550D02*
X16144871Y-15322979D01*
X16144871Y-15322979D02*
X16154394Y-15303931D01*
X16154394Y-15303931D02*
X16163918Y-15275360D01*
X16163918Y-15275360D02*
X16173442Y-15227741D01*
X16173442Y-15227741D02*
X16173442Y-15189646D01*
X16173442Y-15189646D02*
X16163918Y-15142027D01*
X16163918Y-15142027D02*
X16154394Y-15113455D01*
X16154394Y-15113455D02*
X16144871Y-15094408D01*
X16144871Y-15094408D02*
X16125823Y-15065836D01*
X16125823Y-15065836D02*
X16116299Y-15056312D01*
D14*
X11020760Y-15392400D02*
X11150760Y-15522400D01*
X11150760Y-15392400D02*
X11020760Y-15522400D01*
X11150760Y-15457400D02*
G75*
G02*
X11020760Y-15457400I-65000J0D01*
G01*
X11020760Y-15457400D02*
G75*
G02*
X11150760Y-15457400I65000J0D01*
G01*
D10*
X11516299Y-15548884D02*
X11402013Y-15548884D01*
X11459156Y-15548884D02*
X11459156Y-15348884D01*
X11459156Y-15348884D02*
X11440108Y-15377455D01*
X11440108Y-15377455D02*
X11421061Y-15396503D01*
X11421061Y-15396503D02*
X11402013Y-15406027D01*
X11602013Y-15529836D02*
X11611537Y-15539360D01*
X11611537Y-15539360D02*
X11602013Y-15548884D01*
X11602013Y-15548884D02*
X11592489Y-15539360D01*
X11592489Y-15539360D02*
X11602013Y-15529836D01*
X11602013Y-15529836D02*
X11602013Y-15548884D01*
X11678203Y-15348884D02*
X11802013Y-15348884D01*
X11802013Y-15348884D02*
X11735346Y-15425074D01*
X11735346Y-15425074D02*
X11763918Y-15425074D01*
X11763918Y-15425074D02*
X11782965Y-15434598D01*
X11782965Y-15434598D02*
X11792489Y-15444122D01*
X11792489Y-15444122D02*
X11802013Y-15463169D01*
X11802013Y-15463169D02*
X11802013Y-15510788D01*
X11802013Y-15510788D02*
X11792489Y-15529836D01*
X11792489Y-15529836D02*
X11782965Y-15539360D01*
X11782965Y-15539360D02*
X11763918Y-15548884D01*
X11763918Y-15548884D02*
X11706775Y-15548884D01*
X11706775Y-15548884D02*
X11687727Y-15539360D01*
X11687727Y-15539360D02*
X11678203Y-15529836D01*
X11925822Y-15348884D02*
X11944870Y-15348884D01*
X11944870Y-15348884D02*
X11963918Y-15358408D01*
X11963918Y-15358408D02*
X11973442Y-15367931D01*
X11973442Y-15367931D02*
X11982965Y-15386979D01*
X11982965Y-15386979D02*
X11992489Y-15425074D01*
X11992489Y-15425074D02*
X11992489Y-15472693D01*
X11992489Y-15472693D02*
X11982965Y-15510788D01*
X11982965Y-15510788D02*
X11973442Y-15529836D01*
X11973442Y-15529836D02*
X11963918Y-15539360D01*
X11963918Y-15539360D02*
X11944870Y-15548884D01*
X11944870Y-15548884D02*
X11925822Y-15548884D01*
X11925822Y-15548884D02*
X11906775Y-15539360D01*
X11906775Y-15539360D02*
X11897251Y-15529836D01*
X11897251Y-15529836D02*
X11887727Y-15510788D01*
X11887727Y-15510788D02*
X11878203Y-15472693D01*
X11878203Y-15472693D02*
X11878203Y-15425074D01*
X11878203Y-15425074D02*
X11887727Y-15386979D01*
X11887727Y-15386979D02*
X11897251Y-15367931D01*
X11897251Y-15367931D02*
X11906775Y-15358408D01*
X11906775Y-15358408D02*
X11925822Y-15348884D01*
X12116299Y-15348884D02*
X12135346Y-15348884D01*
X12135346Y-15348884D02*
X12154394Y-15358408D01*
X12154394Y-15358408D02*
X12163918Y-15367931D01*
X12163918Y-15367931D02*
X12173442Y-15386979D01*
X12173442Y-15386979D02*
X12182965Y-15425074D01*
X12182965Y-15425074D02*
X12182965Y-15472693D01*
X12182965Y-15472693D02*
X12173442Y-15510788D01*
X12173442Y-15510788D02*
X12163918Y-15529836D01*
X12163918Y-15529836D02*
X12154394Y-15539360D01*
X12154394Y-15539360D02*
X12135346Y-15548884D01*
X12135346Y-15548884D02*
X12116299Y-15548884D01*
X12116299Y-15548884D02*
X12097251Y-15539360D01*
X12097251Y-15539360D02*
X12087727Y-15529836D01*
X12087727Y-15529836D02*
X12078203Y-15510788D01*
X12078203Y-15510788D02*
X12068680Y-15472693D01*
X12068680Y-15472693D02*
X12068680Y-15425074D01*
X12068680Y-15425074D02*
X12078203Y-15386979D01*
X12078203Y-15386979D02*
X12087727Y-15367931D01*
X12087727Y-15367931D02*
X12097251Y-15358408D01*
X12097251Y-15358408D02*
X12116299Y-15348884D01*
X12268680Y-15548884D02*
X12268680Y-15415550D01*
X12268680Y-15434598D02*
X12278203Y-15425074D01*
X12278203Y-15425074D02*
X12297251Y-15415550D01*
X12297251Y-15415550D02*
X12325823Y-15415550D01*
X12325823Y-15415550D02*
X12344870Y-15425074D01*
X12344870Y-15425074D02*
X12354394Y-15444122D01*
X12354394Y-15444122D02*
X12354394Y-15548884D01*
X12354394Y-15444122D02*
X12363918Y-15425074D01*
X12363918Y-15425074D02*
X12382965Y-15415550D01*
X12382965Y-15415550D02*
X12411537Y-15415550D01*
X12411537Y-15415550D02*
X12430584Y-15425074D01*
X12430584Y-15425074D02*
X12440108Y-15444122D01*
X12440108Y-15444122D02*
X12440108Y-15548884D01*
X12535346Y-15548884D02*
X12535346Y-15415550D01*
X12535346Y-15434598D02*
X12544870Y-15425074D01*
X12544870Y-15425074D02*
X12563918Y-15415550D01*
X12563918Y-15415550D02*
X12592489Y-15415550D01*
X12592489Y-15415550D02*
X12611537Y-15425074D01*
X12611537Y-15425074D02*
X12621061Y-15444122D01*
X12621061Y-15444122D02*
X12621061Y-15548884D01*
X12621061Y-15444122D02*
X12630584Y-15425074D01*
X12630584Y-15425074D02*
X12649632Y-15415550D01*
X12649632Y-15415550D02*
X12678203Y-15415550D01*
X12678203Y-15415550D02*
X12697251Y-15425074D01*
X12697251Y-15425074D02*
X12706775Y-15444122D01*
X12706775Y-15444122D02*
X12706775Y-15548884D01*
X13097251Y-15339360D02*
X12925823Y-15596503D01*
X13354394Y-15348884D02*
X13373442Y-15348884D01*
X13373442Y-15348884D02*
X13392489Y-15358408D01*
X13392489Y-15358408D02*
X13402013Y-15367931D01*
X13402013Y-15367931D02*
X13411537Y-15386979D01*
X13411537Y-15386979D02*
X13421061Y-15425074D01*
X13421061Y-15425074D02*
X13421061Y-15472693D01*
X13421061Y-15472693D02*
X13411537Y-15510788D01*
X13411537Y-15510788D02*
X13402013Y-15529836D01*
X13402013Y-15529836D02*
X13392489Y-15539360D01*
X13392489Y-15539360D02*
X13373442Y-15548884D01*
X13373442Y-15548884D02*
X13354394Y-15548884D01*
X13354394Y-15548884D02*
X13335346Y-15539360D01*
X13335346Y-15539360D02*
X13325823Y-15529836D01*
X13325823Y-15529836D02*
X13316299Y-15510788D01*
X13316299Y-15510788D02*
X13306775Y-15472693D01*
X13306775Y-15472693D02*
X13306775Y-15425074D01*
X13306775Y-15425074D02*
X13316299Y-15386979D01*
X13316299Y-15386979D02*
X13325823Y-15367931D01*
X13325823Y-15367931D02*
X13335346Y-15358408D01*
X13335346Y-15358408D02*
X13354394Y-15348884D01*
X13506775Y-15529836D02*
X13516299Y-15539360D01*
X13516299Y-15539360D02*
X13506775Y-15548884D01*
X13506775Y-15548884D02*
X13497251Y-15539360D01*
X13497251Y-15539360D02*
X13506775Y-15529836D01*
X13506775Y-15529836D02*
X13506775Y-15548884D01*
X13640108Y-15348884D02*
X13659156Y-15348884D01*
X13659156Y-15348884D02*
X13678204Y-15358408D01*
X13678204Y-15358408D02*
X13687727Y-15367931D01*
X13687727Y-15367931D02*
X13697251Y-15386979D01*
X13697251Y-15386979D02*
X13706775Y-15425074D01*
X13706775Y-15425074D02*
X13706775Y-15472693D01*
X13706775Y-15472693D02*
X13697251Y-15510788D01*
X13697251Y-15510788D02*
X13687727Y-15529836D01*
X13687727Y-15529836D02*
X13678204Y-15539360D01*
X13678204Y-15539360D02*
X13659156Y-15548884D01*
X13659156Y-15548884D02*
X13640108Y-15548884D01*
X13640108Y-15548884D02*
X13621061Y-15539360D01*
X13621061Y-15539360D02*
X13611537Y-15529836D01*
X13611537Y-15529836D02*
X13602013Y-15510788D01*
X13602013Y-15510788D02*
X13592489Y-15472693D01*
X13592489Y-15472693D02*
X13592489Y-15425074D01*
X13592489Y-15425074D02*
X13602013Y-15386979D01*
X13602013Y-15386979D02*
X13611537Y-15367931D01*
X13611537Y-15367931D02*
X13621061Y-15358408D01*
X13621061Y-15358408D02*
X13640108Y-15348884D01*
X13887727Y-15348884D02*
X13792489Y-15348884D01*
X13792489Y-15348884D02*
X13782966Y-15444122D01*
X13782966Y-15444122D02*
X13792489Y-15434598D01*
X13792489Y-15434598D02*
X13811537Y-15425074D01*
X13811537Y-15425074D02*
X13859156Y-15425074D01*
X13859156Y-15425074D02*
X13878204Y-15434598D01*
X13878204Y-15434598D02*
X13887727Y-15444122D01*
X13887727Y-15444122D02*
X13897251Y-15463169D01*
X13897251Y-15463169D02*
X13897251Y-15510788D01*
X13897251Y-15510788D02*
X13887727Y-15529836D01*
X13887727Y-15529836D02*
X13878204Y-15539360D01*
X13878204Y-15539360D02*
X13859156Y-15548884D01*
X13859156Y-15548884D02*
X13811537Y-15548884D01*
X13811537Y-15548884D02*
X13792489Y-15539360D01*
X13792489Y-15539360D02*
X13782966Y-15529836D01*
X14087727Y-15548884D02*
X13973442Y-15548884D01*
X14030585Y-15548884D02*
X14030585Y-15348884D01*
X14030585Y-15348884D02*
X14011537Y-15377455D01*
X14011537Y-15377455D02*
X13992489Y-15396503D01*
X13992489Y-15396503D02*
X13973442Y-15406027D01*
X14163918Y-15367931D02*
X14173442Y-15358408D01*
X14173442Y-15358408D02*
X14192489Y-15348884D01*
X14192489Y-15348884D02*
X14240108Y-15348884D01*
X14240108Y-15348884D02*
X14259156Y-15358408D01*
X14259156Y-15358408D02*
X14268680Y-15367931D01*
X14268680Y-15367931D02*
X14278204Y-15386979D01*
X14278204Y-15386979D02*
X14278204Y-15406027D01*
X14278204Y-15406027D02*
X14268680Y-15434598D01*
X14268680Y-15434598D02*
X14154394Y-15548884D01*
X14154394Y-15548884D02*
X14278204Y-15548884D01*
X14354394Y-15348884D02*
X14354394Y-15386979D01*
X14430585Y-15348884D02*
X14430585Y-15386979D01*
X14725823Y-15625074D02*
X14716299Y-15615550D01*
X14716299Y-15615550D02*
X14697251Y-15586979D01*
X14697251Y-15586979D02*
X14687728Y-15567931D01*
X14687728Y-15567931D02*
X14678204Y-15539360D01*
X14678204Y-15539360D02*
X14668680Y-15491741D01*
X14668680Y-15491741D02*
X14668680Y-15453646D01*
X14668680Y-15453646D02*
X14678204Y-15406027D01*
X14678204Y-15406027D02*
X14687728Y-15377455D01*
X14687728Y-15377455D02*
X14697251Y-15358408D01*
X14697251Y-15358408D02*
X14716299Y-15329836D01*
X14716299Y-15329836D02*
X14725823Y-15320312D01*
X14887728Y-15348884D02*
X14849632Y-15348884D01*
X14849632Y-15348884D02*
X14830585Y-15358408D01*
X14830585Y-15358408D02*
X14821061Y-15367931D01*
X14821061Y-15367931D02*
X14802013Y-15396503D01*
X14802013Y-15396503D02*
X14792489Y-15434598D01*
X14792489Y-15434598D02*
X14792489Y-15510788D01*
X14792489Y-15510788D02*
X14802013Y-15529836D01*
X14802013Y-15529836D02*
X14811537Y-15539360D01*
X14811537Y-15539360D02*
X14830585Y-15548884D01*
X14830585Y-15548884D02*
X14868680Y-15548884D01*
X14868680Y-15548884D02*
X14887728Y-15539360D01*
X14887728Y-15539360D02*
X14897251Y-15529836D01*
X14897251Y-15529836D02*
X14906775Y-15510788D01*
X14906775Y-15510788D02*
X14906775Y-15463169D01*
X14906775Y-15463169D02*
X14897251Y-15444122D01*
X14897251Y-15444122D02*
X14887728Y-15434598D01*
X14887728Y-15434598D02*
X14868680Y-15425074D01*
X14868680Y-15425074D02*
X14830585Y-15425074D01*
X14830585Y-15425074D02*
X14811537Y-15434598D01*
X14811537Y-15434598D02*
X14802013Y-15444122D01*
X14802013Y-15444122D02*
X14792489Y-15463169D01*
X15144870Y-15548884D02*
X15144870Y-15348884D01*
X15230585Y-15548884D02*
X15230585Y-15444122D01*
X15230585Y-15444122D02*
X15221061Y-15425074D01*
X15221061Y-15425074D02*
X15202013Y-15415550D01*
X15202013Y-15415550D02*
X15173442Y-15415550D01*
X15173442Y-15415550D02*
X15154394Y-15425074D01*
X15154394Y-15425074D02*
X15144870Y-15434598D01*
X15354394Y-15548884D02*
X15335347Y-15539360D01*
X15335347Y-15539360D02*
X15325823Y-15529836D01*
X15325823Y-15529836D02*
X15316299Y-15510788D01*
X15316299Y-15510788D02*
X15316299Y-15453646D01*
X15316299Y-15453646D02*
X15325823Y-15434598D01*
X15325823Y-15434598D02*
X15335347Y-15425074D01*
X15335347Y-15425074D02*
X15354394Y-15415550D01*
X15354394Y-15415550D02*
X15382966Y-15415550D01*
X15382966Y-15415550D02*
X15402013Y-15425074D01*
X15402013Y-15425074D02*
X15411537Y-15434598D01*
X15411537Y-15434598D02*
X15421061Y-15453646D01*
X15421061Y-15453646D02*
X15421061Y-15510788D01*
X15421061Y-15510788D02*
X15411537Y-15529836D01*
X15411537Y-15529836D02*
X15402013Y-15539360D01*
X15402013Y-15539360D02*
X15382966Y-15548884D01*
X15382966Y-15548884D02*
X15354394Y-15548884D01*
X15535347Y-15548884D02*
X15516299Y-15539360D01*
X15516299Y-15539360D02*
X15506775Y-15520312D01*
X15506775Y-15520312D02*
X15506775Y-15348884D01*
X15687728Y-15539360D02*
X15668680Y-15548884D01*
X15668680Y-15548884D02*
X15630585Y-15548884D01*
X15630585Y-15548884D02*
X15611537Y-15539360D01*
X15611537Y-15539360D02*
X15602013Y-15520312D01*
X15602013Y-15520312D02*
X15602013Y-15444122D01*
X15602013Y-15444122D02*
X15611537Y-15425074D01*
X15611537Y-15425074D02*
X15630585Y-15415550D01*
X15630585Y-15415550D02*
X15668680Y-15415550D01*
X15668680Y-15415550D02*
X15687728Y-15425074D01*
X15687728Y-15425074D02*
X15697251Y-15444122D01*
X15697251Y-15444122D02*
X15697251Y-15463169D01*
X15697251Y-15463169D02*
X15602013Y-15482217D01*
X15773442Y-15539360D02*
X15792490Y-15548884D01*
X15792490Y-15548884D02*
X15830585Y-15548884D01*
X15830585Y-15548884D02*
X15849632Y-15539360D01*
X15849632Y-15539360D02*
X15859156Y-15520312D01*
X15859156Y-15520312D02*
X15859156Y-15510788D01*
X15859156Y-15510788D02*
X15849632Y-15491741D01*
X15849632Y-15491741D02*
X15830585Y-15482217D01*
X15830585Y-15482217D02*
X15802013Y-15482217D01*
X15802013Y-15482217D02*
X15782966Y-15472693D01*
X15782966Y-15472693D02*
X15773442Y-15453646D01*
X15773442Y-15453646D02*
X15773442Y-15444122D01*
X15773442Y-15444122D02*
X15782966Y-15425074D01*
X15782966Y-15425074D02*
X15802013Y-15415550D01*
X15802013Y-15415550D02*
X15830585Y-15415550D01*
X15830585Y-15415550D02*
X15849632Y-15425074D01*
X15925823Y-15625074D02*
X15935347Y-15615550D01*
X15935347Y-15615550D02*
X15954394Y-15586979D01*
X15954394Y-15586979D02*
X15963918Y-15567931D01*
X15963918Y-15567931D02*
X15973442Y-15539360D01*
X15973442Y-15539360D02*
X15982966Y-15491741D01*
X15982966Y-15491741D02*
X15982966Y-15453646D01*
X15982966Y-15453646D02*
X15973442Y-15406027D01*
X15973442Y-15406027D02*
X15963918Y-15377455D01*
X15963918Y-15377455D02*
X15954394Y-15358408D01*
X15954394Y-15358408D02*
X15935347Y-15329836D01*
X15935347Y-15329836D02*
X15925823Y-15320312D01*
M02*
