G04 #@! TF.GenerationSoftware,KiCad,Pcbnew,8.0.8+1*
G04 #@! TF.ProjectId,airsoft_bomb_v2,61697273-6f66-4745-9f62-6f6d625f7632,rev?*
G04 #@! TF.SameCoordinates,Original*
G04 #@! TF.FileFunction,Copper,L1,Top*
G04 #@! TF.FilePolarity,Positive*
%FSLAX46Y46*%
G04 Gerber Fmt 4.6, Leading zero omitted, Abs format (unit mm)*
%MOMM*%
%LPD*%
G01*
G04 APERTURE LIST*
G04 #@! TA.AperFunction,Profile*
%ADD10C,0.200000*%
G04 #@! TD*
G04 #@! TA.AperFunction,ComponentPad*
%ADD11R,1.700000X1.700000*%
G04 #@! TD*
G04 #@! TA.AperFunction,ComponentPad*
%ADD12O,1.700000X1.700000*%
G04 #@! TD*
G04 #@! TA.AperFunction,ComponentPad*
%ADD13R,2.000000X2.000000*%
G04 #@! TD*
G04 #@! TA.AperFunction,ComponentPad*
%ADD14C,2.000000*%
G04 #@! TD*
G04 #@! TA.AperFunction,ComponentPad*
%ADD15C,1.600000*%
G04 #@! TD*
G04 #@! TA.AperFunction,ComponentPad*
%ADD16O,1.600000X1.600000*%
G04 #@! TD*
G04 #@! TA.AperFunction,ComponentPad*
%ADD17O,1.905000X3.905000*%
G04 #@! TD*
G04 #@! TA.AperFunction,ComponentPad*
%ADD18C,1.440000*%
G04 #@! TD*
G04 #@! TA.AperFunction,ComponentPad*
%ADD19O,3.600000X1.800000*%
G04 #@! TD*
G04 #@! TA.AperFunction,ViaPad*
%ADD20C,0.600000*%
G04 #@! TD*
G04 #@! TA.AperFunction,Conductor*
%ADD21C,0.250000*%
G04 #@! TD*
G04 #@! TA.AperFunction,Conductor*
%ADD22C,0.500000*%
G04 #@! TD*
G04 APERTURE END LIST*
D10*
X178890534Y-60866736D02*
X175878500Y-58216800D01*
X116027200Y-134823200D02*
X111607600Y-131216400D01*
X131300000Y-58216800D02*
X131300000Y-63100000D01*
X178890534Y-60866736D02*
G75*
G02*
X178943000Y-72262999I-1827134J-5706664D01*
G01*
X111607601Y-98145600D02*
G75*
G02*
X112827677Y-95200077I4165599J0D01*
G01*
X175878500Y-58216800D02*
X131300000Y-58216800D01*
X118059200Y-89916000D02*
X118100000Y-70700000D01*
X116027200Y-134823200D02*
X178943000Y-134874000D01*
X178943000Y-134874000D02*
X178943000Y-72263000D01*
X123354416Y-64154416D02*
G75*
G02*
X125900000Y-63100001I2545584J-2545584D01*
G01*
X112827676Y-95200076D02*
X118059200Y-89916000D01*
X123354416Y-64154416D02*
X118100000Y-70700000D01*
X131300000Y-63100000D02*
X125900000Y-63100000D01*
X111607600Y-131216400D02*
X111607600Y-98145600D01*
D11*
X154140000Y-123975000D03*
D12*
X156680000Y-123975000D03*
X159220000Y-123975000D03*
X161760000Y-123975000D03*
X164300000Y-123975000D03*
X166840000Y-123975000D03*
X169380000Y-123975000D03*
X171920000Y-123975000D03*
X174460000Y-123975000D03*
X177000000Y-123975000D03*
D13*
X119481600Y-123708000D03*
D14*
X119481600Y-131308000D03*
D11*
X171470000Y-69075000D03*
D12*
X168930000Y-69075000D03*
X166390000Y-69075000D03*
X163850000Y-69075000D03*
X161310000Y-69075000D03*
X158770000Y-69075000D03*
X156230000Y-69075000D03*
X153690000Y-69075000D03*
X151150000Y-69075000D03*
X148610000Y-69075000D03*
X146070000Y-69075000D03*
X143530000Y-69075000D03*
X140990000Y-69075000D03*
X138450000Y-69075000D03*
X135910000Y-69075000D03*
X133370000Y-69075000D03*
D13*
X129604000Y-80301600D03*
D14*
X124604000Y-83801600D03*
D13*
X123211600Y-112324000D03*
D14*
X118211600Y-115824000D03*
D15*
X133553200Y-87122000D03*
D16*
X133553200Y-79502000D03*
D17*
X158490000Y-84344000D03*
X161030000Y-84344000D03*
X163570000Y-84344000D03*
X166110000Y-84344000D03*
X171190000Y-84344000D03*
X168650000Y-84344000D03*
X176270000Y-101584000D03*
X176270000Y-84344000D03*
X173730000Y-101584000D03*
X171190000Y-101584000D03*
X168650000Y-101584000D03*
X166110000Y-101584000D03*
X163570000Y-101584000D03*
X161030000Y-101584000D03*
X158490000Y-101584000D03*
X173730000Y-84344000D03*
D18*
X132732600Y-74015600D03*
X135272600Y-74015600D03*
X137812600Y-74015600D03*
D13*
X145224000Y-123473200D03*
D14*
X148724000Y-128473200D03*
G04 #@! TA.AperFunction,ComponentPad*
G36*
G01*
X172567000Y-112130000D02*
X175667000Y-112130000D01*
G75*
G02*
X175917000Y-112380000I0J-250000D01*
G01*
X175917000Y-113680000D01*
G75*
G02*
X175667000Y-113930000I-250000J0D01*
G01*
X172567000Y-113930000D01*
G75*
G02*
X172317000Y-113680000I0J250000D01*
G01*
X172317000Y-112380000D01*
G75*
G02*
X172567000Y-112130000I250000J0D01*
G01*
G37*
G04 #@! TD.AperFunction*
D19*
X174117000Y-116530000D03*
D20*
X176902748Y-104995348D03*
X154787600Y-81026000D03*
X149352000Y-84429600D03*
X160420141Y-80043599D03*
X151638000Y-106375200D03*
X172339000Y-105003600D03*
X162179000Y-105003600D03*
X158998378Y-81026000D03*
X155397200Y-107696000D03*
X158902400Y-112623600D03*
X119500000Y-93200000D03*
X149707600Y-85445600D03*
X151130000Y-77876400D03*
X136245600Y-105562400D03*
X132300000Y-77600000D03*
X158902400Y-111150400D03*
X144605000Y-72300000D03*
X157480000Y-108407200D03*
X145300000Y-72300000D03*
X134569200Y-123342400D03*
X146456400Y-105105200D03*
X171200000Y-76700000D03*
X146456400Y-93878400D03*
X158902400Y-109728000D03*
X128998138Y-106083978D03*
X152527000Y-87884000D03*
X129286000Y-86360000D03*
X157480000Y-111150400D03*
X146456400Y-102108000D03*
X146456400Y-96469200D03*
X143459200Y-95351600D03*
X152527000Y-101346000D03*
X143814800Y-84988400D03*
X143459200Y-107289600D03*
X143459200Y-100990400D03*
X161696400Y-77927200D03*
X135686800Y-97189800D03*
X135331200Y-126492000D03*
X141782800Y-78740000D03*
X146456400Y-99161600D03*
X157480000Y-112623600D03*
X149400000Y-121800000D03*
X140970000Y-111252000D03*
X146456400Y-108407200D03*
X129500000Y-91300000D03*
X163474400Y-108407200D03*
X162001200Y-108407200D03*
X142400000Y-120700000D03*
X119500000Y-92100000D03*
X119500000Y-95700000D03*
X152527000Y-94107000D03*
X139997000Y-78536800D03*
X126800000Y-94200000D03*
X165709600Y-77927200D03*
X133604000Y-126492000D03*
X127000000Y-105100000D03*
X157480000Y-109728000D03*
X136347200Y-123342400D03*
X165862000Y-81026000D03*
X142544800Y-113030000D03*
X162900000Y-71400000D03*
X147878800Y-111252000D03*
X143154400Y-80213200D03*
X141600000Y-122000000D03*
X135280400Y-105613200D03*
X125600000Y-94200000D03*
X143459200Y-103987600D03*
X143459200Y-90170000D03*
X149900000Y-117312200D03*
X140970000Y-87122000D03*
X164322400Y-71400000D03*
X163474400Y-81076800D03*
X131267200Y-77571600D03*
X141020800Y-127101600D03*
X163017200Y-77927200D03*
X140258800Y-123342400D03*
X146456400Y-91287600D03*
X125400000Y-105100000D03*
X119500000Y-90900000D03*
X127300000Y-91300000D03*
X149148800Y-79908400D03*
X143459200Y-92760800D03*
X144605000Y-71600000D03*
X144983200Y-83921600D03*
X162001200Y-109677200D03*
X160426400Y-109677200D03*
X157480000Y-114046000D03*
X122800000Y-92800000D03*
X121900000Y-93700000D03*
X152527000Y-84963000D03*
X149860000Y-113182400D03*
X164236400Y-77927200D03*
X121900000Y-92800000D03*
X123900000Y-91100000D03*
X147800000Y-121800000D03*
X119500000Y-94500000D03*
X131622800Y-86360000D03*
X142875000Y-116459000D03*
X139344400Y-106883200D03*
X125679200Y-74523600D03*
X160426400Y-108407200D03*
X143459200Y-98044000D03*
X140868400Y-90170000D03*
X125679200Y-73507600D03*
X137769600Y-97189800D03*
X160477200Y-77927200D03*
X145300000Y-71600000D03*
X164592000Y-81076800D03*
X162153600Y-81076800D03*
X148894800Y-78943200D03*
X168400000Y-71400000D03*
X165694000Y-71400000D03*
X146500000Y-117300000D03*
X138480800Y-123342400D03*
X148539200Y-86715600D03*
X144780000Y-77419200D03*
X152527000Y-90805000D03*
X139446000Y-109524800D03*
X142494000Y-86233000D03*
X167000000Y-71400000D03*
X158902400Y-108407200D03*
X137109200Y-126492000D03*
X128200000Y-106100000D03*
X145796000Y-127101600D03*
X126200000Y-105100000D03*
X150164800Y-78740000D03*
X152527000Y-97409000D03*
X139700000Y-87122000D03*
X160426400Y-111150400D03*
X139997000Y-77520800D03*
X132842000Y-123342400D03*
X149098000Y-115620800D03*
X148183600Y-114655600D03*
X164465000Y-78968600D03*
X146979658Y-84749658D03*
X167182800Y-78841600D03*
X146886340Y-87247140D03*
X145400000Y-73400000D03*
X139598400Y-81178400D03*
X154315844Y-106316356D03*
X153416000Y-107188000D03*
X134300000Y-129844800D03*
X132283200Y-90001600D03*
D21*
X153009600Y-105003600D02*
X155549600Y-105003600D01*
X166827200Y-80060800D02*
X167173458Y-80060800D01*
X163935320Y-79959200D02*
X164019720Y-80043600D01*
X151638000Y-106375200D02*
X153009600Y-105003600D01*
X154787600Y-81026000D02*
X152232900Y-81026000D01*
X172339000Y-105003600D02*
X162179000Y-105003600D01*
X176834800Y-81534000D02*
X172694600Y-81534000D01*
X155397200Y-105003600D02*
X155549600Y-105003600D01*
X176908838Y-104995348D02*
X178247500Y-103656686D01*
X164019720Y-80043600D02*
X166810000Y-80043600D01*
X158998378Y-81026000D02*
X154787600Y-81026000D01*
X178247500Y-103656686D02*
X178247500Y-82946700D01*
X166810000Y-80043600D02*
X166827200Y-80060800D01*
X149352000Y-83906900D02*
X149352000Y-84429600D01*
X176902748Y-104995348D02*
X176908838Y-104995348D01*
X160504540Y-79959200D02*
X163935320Y-79959200D01*
X178247500Y-82946700D02*
X176834800Y-81534000D01*
X172694600Y-81534000D02*
X171190000Y-83038600D01*
X155397200Y-107696000D02*
X155397200Y-105003600D01*
X152232900Y-81026000D02*
X149352000Y-83906900D01*
X160420141Y-80043599D02*
X160504540Y-79959200D01*
X167173458Y-80060800D02*
X171190000Y-84077342D01*
X155549600Y-105003600D02*
X162179000Y-105003600D01*
D22*
X149098000Y-115620800D02*
X158140400Y-115620800D01*
X165608000Y-108153200D02*
X172684235Y-108153200D01*
X177672500Y-103164935D02*
X177672500Y-86746500D01*
X177672500Y-86746500D02*
X176270000Y-85344000D01*
X158140400Y-115620800D02*
X165608000Y-108153200D01*
X172684235Y-108153200D02*
X177672500Y-103164935D01*
X148978739Y-116562200D02*
X174084800Y-116562200D01*
X148183600Y-115767061D02*
X148978739Y-116562200D01*
X148183600Y-114655600D02*
X148183600Y-115767061D01*
D21*
X151744716Y-78968600D02*
X146029716Y-84683600D01*
X164465000Y-78968600D02*
X151744716Y-78968600D01*
X145999200Y-84683600D02*
X142268200Y-88414600D01*
X121056400Y-104394000D02*
X118211600Y-107238800D01*
X121056400Y-95859600D02*
X121056400Y-104394000D01*
X118211600Y-107238800D02*
X118211600Y-115824000D01*
X128501400Y-88414600D02*
X121056400Y-95859600D01*
X146029716Y-84683600D02*
X145999200Y-84683600D01*
X142268200Y-88414600D02*
X128501400Y-88414600D01*
X166430800Y-79593600D02*
X167182800Y-78841600D01*
X164206116Y-79593600D02*
X166430800Y-79593600D01*
X151931112Y-79418600D02*
X164031116Y-79418600D01*
X145197400Y-120691196D02*
X148724000Y-124217796D01*
X148724000Y-124217796D02*
X148724000Y-128473200D01*
X146979658Y-84370054D02*
X151931112Y-79418600D01*
X146979658Y-84749658D02*
X146979658Y-84370054D01*
X164031116Y-79418600D02*
X164206116Y-79593600D01*
X146886340Y-87247140D02*
X145197400Y-88936080D01*
X145197400Y-88936080D02*
X145197400Y-120691196D01*
X141274800Y-79502000D02*
X139598400Y-81178400D01*
X143581084Y-79502000D02*
X141274800Y-79502000D01*
X145405000Y-73405000D02*
X145405000Y-77678084D01*
X145400000Y-73400000D02*
X145405000Y-73405000D01*
X145405000Y-77678084D02*
X143581084Y-79502000D01*
X154287644Y-106316356D02*
X154315844Y-106316356D01*
X153416000Y-107188000D02*
X154287644Y-106316356D01*
X144747400Y-120504800D02*
X144747400Y-88502196D01*
X159174862Y-80318600D02*
X161030000Y-82173738D01*
X135407400Y-129844800D02*
X144747400Y-120504800D01*
X152303904Y-80318600D02*
X159174862Y-80318600D01*
X148054658Y-84567846D02*
X152303904Y-80318600D01*
X134300000Y-129844800D02*
X135407400Y-129844800D01*
X148054658Y-85194938D02*
X148054658Y-84567846D01*
X144747400Y-88502196D02*
X148054658Y-85194938D01*
X161030000Y-82173738D02*
X161030000Y-85344000D01*
X132283200Y-90001600D02*
X133420200Y-88864600D01*
X159361258Y-79868600D02*
X163570000Y-84077342D01*
X147604658Y-85008542D02*
X147604658Y-84381450D01*
X143748600Y-88864600D02*
X147604658Y-85008542D01*
X133420200Y-88864600D02*
X143748600Y-88864600D01*
X152117508Y-79868600D02*
X159361258Y-79868600D01*
X147604658Y-84381450D02*
X152117508Y-79868600D01*
G04 #@! TA.AperFunction,Conductor*
G36*
X175709928Y-58736985D02*
G01*
X175724795Y-58748201D01*
X178533663Y-61219394D01*
X178543550Y-61229126D01*
X178564330Y-61252007D01*
X178564333Y-61252009D01*
X178580318Y-61262292D01*
X178595138Y-61273478D01*
X178609407Y-61286032D01*
X178637103Y-61299745D01*
X178649170Y-61306585D01*
X178675164Y-61323308D01*
X178675166Y-61323308D01*
X178675167Y-61323309D01*
X178693261Y-61329102D01*
X178710469Y-61336070D01*
X178727508Y-61344507D01*
X178734415Y-61345892D01*
X178747735Y-61348564D01*
X178766075Y-61353734D01*
X179164710Y-61500034D01*
X179174271Y-61504004D01*
X179581755Y-61693602D01*
X179590972Y-61698369D01*
X179981163Y-61921390D01*
X179989953Y-61926915D01*
X180360111Y-62181790D01*
X180368408Y-62188031D01*
X180715943Y-62472977D01*
X180723690Y-62479891D01*
X181038593Y-62785559D01*
X181046168Y-62792911D01*
X181053308Y-62800448D01*
X181348475Y-63139355D01*
X181354958Y-63147459D01*
X181461829Y-63293186D01*
X181620738Y-63509871D01*
X181626522Y-63518493D01*
X181842158Y-63870985D01*
X181861053Y-63901871D01*
X181866095Y-63910947D01*
X182067724Y-64312586D01*
X182071990Y-64322052D01*
X182239317Y-64739162D01*
X182242775Y-64748950D01*
X182329470Y-65031464D01*
X182374619Y-65178592D01*
X182377247Y-65188636D01*
X182472689Y-65627812D01*
X182474467Y-65638041D01*
X182532832Y-66083654D01*
X182533748Y-66093996D01*
X182554630Y-66542925D01*
X182554678Y-66553308D01*
X182537930Y-67002418D01*
X182537109Y-67012768D01*
X182482849Y-67458900D01*
X182481165Y-67469145D01*
X182389774Y-67909169D01*
X182387239Y-67919238D01*
X182259353Y-68350085D01*
X182255984Y-68359906D01*
X182092507Y-68778533D01*
X182088329Y-68788037D01*
X181890402Y-69191527D01*
X181885443Y-69200649D01*
X181654458Y-69586158D01*
X181648754Y-69594833D01*
X181386321Y-69959679D01*
X181379910Y-69967847D01*
X181087878Y-70309455D01*
X181080807Y-70317057D01*
X180761230Y-70633028D01*
X180753548Y-70640013D01*
X180408641Y-70928156D01*
X180400401Y-70934473D01*
X180032613Y-71192740D01*
X180023874Y-71198346D01*
X179635761Y-71424945D01*
X179626584Y-71429800D01*
X179220870Y-71623139D01*
X179211318Y-71627209D01*
X178799500Y-71782664D01*
X178787802Y-71786429D01*
X178749811Y-71796608D01*
X178749809Y-71796609D01*
X178748239Y-71797516D01*
X178725173Y-71807854D01*
X178723437Y-71808427D01*
X178683282Y-71834785D01*
X178677242Y-71838506D01*
X178635687Y-71862499D01*
X178635681Y-71862504D01*
X178634407Y-71863778D01*
X178614788Y-71879746D01*
X178613266Y-71880745D01*
X178581302Y-71916596D01*
X178576430Y-71921754D01*
X178542500Y-71955684D01*
X178542499Y-71955686D01*
X178541595Y-71957253D01*
X178526778Y-71977753D01*
X178525568Y-71979110D01*
X178525565Y-71979114D01*
X178503985Y-72021987D01*
X178500614Y-72028232D01*
X178476606Y-72069817D01*
X178476137Y-72071569D01*
X178467134Y-72095198D01*
X178466316Y-72096822D01*
X178466314Y-72096828D01*
X178456565Y-72143826D01*
X178454926Y-72150729D01*
X178442500Y-72197108D01*
X178442500Y-72198910D01*
X178439917Y-72224090D01*
X178439549Y-72225863D01*
X178442297Y-72273795D01*
X178442500Y-72280892D01*
X178442500Y-81957747D01*
X178422815Y-82024786D01*
X178370011Y-82070541D01*
X178300853Y-82080485D01*
X178237297Y-82051460D01*
X178230819Y-82045428D01*
X177327728Y-81142338D01*
X177327725Y-81142334D01*
X177327725Y-81142335D01*
X177320658Y-81135268D01*
X177320658Y-81135267D01*
X177233533Y-81048142D01*
X177233532Y-81048141D01*
X177233531Y-81048140D01*
X177182309Y-81013915D01*
X177160212Y-80999150D01*
X177131086Y-80979688D01*
X177131083Y-80979686D01*
X177131080Y-80979685D01*
X177045169Y-80944100D01*
X177045169Y-80944101D01*
X177045167Y-80944100D01*
X177017252Y-80932537D01*
X177017247Y-80932536D01*
X177017244Y-80932535D01*
X176954538Y-80920062D01*
X176954537Y-80920062D01*
X176896411Y-80908500D01*
X176896407Y-80908500D01*
X176896406Y-80908500D01*
X172632994Y-80908500D01*
X172512148Y-80932537D01*
X172484233Y-80944100D01*
X172484231Y-80944101D01*
X172484230Y-80944100D01*
X172398317Y-80979686D01*
X172398308Y-80979691D01*
X172295867Y-81048141D01*
X172295863Y-81048144D01*
X171477358Y-81866649D01*
X171416035Y-81900134D01*
X171370279Y-81901441D01*
X171304359Y-81891000D01*
X171304354Y-81891000D01*
X171075646Y-81891000D01*
X171031621Y-81897973D01*
X170849753Y-81926778D01*
X170849750Y-81926778D01*
X170632244Y-81997450D01*
X170428457Y-82101285D01*
X170323047Y-82177870D01*
X170257240Y-82201350D01*
X170189187Y-82185524D01*
X170162481Y-82165233D01*
X167663656Y-79666408D01*
X167663636Y-79666386D01*
X167662117Y-79664867D01*
X167661897Y-79664464D01*
X167655366Y-79657248D01*
X167655357Y-79657237D01*
X167657149Y-79655770D01*
X167628632Y-79603544D01*
X167633616Y-79533852D01*
X167675488Y-79477919D01*
X167683830Y-79472190D01*
X167685062Y-79471416D01*
X167812616Y-79343862D01*
X167908589Y-79191122D01*
X167968168Y-79020855D01*
X167974112Y-78968100D01*
X167988365Y-78841603D01*
X167988365Y-78841596D01*
X167968169Y-78662350D01*
X167968168Y-78662345D01*
X167953028Y-78619078D01*
X167908589Y-78492078D01*
X167892415Y-78466338D01*
X167830083Y-78367137D01*
X167812616Y-78339338D01*
X167685062Y-78211784D01*
X167639622Y-78183232D01*
X167532323Y-78115811D01*
X167362054Y-78056231D01*
X167362049Y-78056230D01*
X167182804Y-78036035D01*
X167182796Y-78036035D01*
X167003550Y-78056230D01*
X167003545Y-78056231D01*
X166833276Y-78115811D01*
X166680537Y-78211784D01*
X166552984Y-78339337D01*
X166457010Y-78492078D01*
X166397430Y-78662350D01*
X166392127Y-78709422D01*
X166365060Y-78773836D01*
X166356589Y-78783219D01*
X166299628Y-78840181D01*
X166232816Y-78906994D01*
X166208029Y-78931781D01*
X166146706Y-78965266D01*
X166120347Y-78968100D01*
X165381322Y-78968100D01*
X165314283Y-78948415D01*
X165268528Y-78895611D01*
X165258102Y-78857983D01*
X165250369Y-78789350D01*
X165250368Y-78789348D01*
X165250368Y-78789345D01*
X165190789Y-78619078D01*
X165094816Y-78466338D01*
X164967262Y-78338784D01*
X164866166Y-78275261D01*
X164814523Y-78242811D01*
X164644254Y-78183231D01*
X164644249Y-78183230D01*
X164465004Y-78163035D01*
X164464996Y-78163035D01*
X164285750Y-78183230D01*
X164285745Y-78183231D01*
X164115476Y-78242811D01*
X163986117Y-78324094D01*
X163920145Y-78343100D01*
X151812457Y-78343100D01*
X151812437Y-78343099D01*
X151806323Y-78343099D01*
X151683110Y-78343099D01*
X151582313Y-78363148D01*
X151582308Y-78363148D01*
X151562265Y-78367136D01*
X151562263Y-78367136D01*
X151515113Y-78386667D01*
X151448435Y-78414285D01*
X151448433Y-78414286D01*
X151345982Y-78482741D01*
X151345979Y-78482744D01*
X145701069Y-84127655D01*
X145682279Y-84143076D01*
X145600468Y-84197740D01*
X145556905Y-84241303D01*
X145513342Y-84284867D01*
X145513339Y-84284870D01*
X142045429Y-87752781D01*
X141984106Y-87786266D01*
X141957748Y-87789100D01*
X128439789Y-87789100D01*
X128379371Y-87801118D01*
X128318948Y-87813137D01*
X128318943Y-87813138D01*
X128284946Y-87827220D01*
X128271797Y-87832667D01*
X128249569Y-87841874D01*
X128205113Y-87860288D01*
X128194957Y-87867075D01*
X128194849Y-87867147D01*
X128102668Y-87928740D01*
X128059105Y-87972303D01*
X128015542Y-88015867D01*
X128015539Y-88015870D01*
X120657670Y-95373739D01*
X120657667Y-95373742D01*
X120614104Y-95417304D01*
X120570542Y-95460866D01*
X120539457Y-95507389D01*
X120539456Y-95507390D01*
X120502090Y-95563308D01*
X120502088Y-95563313D01*
X120471931Y-95636118D01*
X120471932Y-95636119D01*
X120454936Y-95677149D01*
X120454935Y-95677155D01*
X120430900Y-95797989D01*
X120430900Y-104083547D01*
X120411215Y-104150586D01*
X120394581Y-104171228D01*
X119068199Y-105497610D01*
X117812870Y-106752939D01*
X117812867Y-106752942D01*
X117769304Y-106796504D01*
X117725742Y-106840066D01*
X117696736Y-106883477D01*
X117696735Y-106883476D01*
X117657292Y-106942507D01*
X117657285Y-106942519D01*
X117631179Y-107005548D01*
X117631179Y-107005549D01*
X117610137Y-107056346D01*
X117610137Y-107056348D01*
X117588752Y-107163864D01*
X117586100Y-107177196D01*
X117586100Y-114382479D01*
X117566415Y-114449518D01*
X117521119Y-114491533D01*
X117388096Y-114563522D01*
X117388094Y-114563523D01*
X117191857Y-114716261D01*
X117023433Y-114899217D01*
X116887426Y-115107393D01*
X116787536Y-115335118D01*
X116726492Y-115576175D01*
X116726490Y-115576187D01*
X116705957Y-115823994D01*
X116705957Y-115824005D01*
X116726490Y-116071812D01*
X116726492Y-116071824D01*
X116787536Y-116312881D01*
X116887426Y-116540606D01*
X117023433Y-116748782D01*
X117023436Y-116748785D01*
X117191856Y-116931738D01*
X117388091Y-117084474D01*
X117606790Y-117202828D01*
X117841986Y-117283571D01*
X118087265Y-117324500D01*
X118335935Y-117324500D01*
X118581214Y-117283571D01*
X118816410Y-117202828D01*
X119035109Y-117084474D01*
X119231344Y-116931738D01*
X119399764Y-116748785D01*
X119535773Y-116540607D01*
X119635663Y-116312881D01*
X119696708Y-116071821D01*
X119696709Y-116071812D01*
X119717243Y-115824005D01*
X119717243Y-115823994D01*
X119696709Y-115576187D01*
X119696707Y-115576175D01*
X119635663Y-115335118D01*
X119535773Y-115107393D01*
X119399766Y-114899217D01*
X119366741Y-114863342D01*
X119231344Y-114716262D01*
X119035109Y-114563526D01*
X119035108Y-114563525D01*
X119035105Y-114563523D01*
X119035103Y-114563522D01*
X118902081Y-114491533D01*
X118852491Y-114442313D01*
X118837100Y-114382479D01*
X118837100Y-107549251D01*
X118856785Y-107482212D01*
X118873414Y-107461575D01*
X121455129Y-104879860D01*
X121455133Y-104879858D01*
X121542258Y-104792733D01*
X121610711Y-104690286D01*
X121610712Y-104690285D01*
X121610713Y-104690282D01*
X121610715Y-104690279D01*
X121625710Y-104654076D01*
X121657863Y-104576451D01*
X121669541Y-104517743D01*
X121681900Y-104455606D01*
X121681900Y-96170052D01*
X121701585Y-96103013D01*
X121718219Y-96082371D01*
X128724171Y-89076419D01*
X128785494Y-89042934D01*
X128811852Y-89040100D01*
X131879856Y-89040100D01*
X131946895Y-89059785D01*
X131992650Y-89112589D01*
X132002594Y-89181747D01*
X131973569Y-89245303D01*
X131939230Y-89271559D01*
X131939574Y-89272106D01*
X131780937Y-89371784D01*
X131653384Y-89499337D01*
X131557411Y-89652076D01*
X131497831Y-89822345D01*
X131497830Y-89822350D01*
X131477635Y-90001596D01*
X131477635Y-90001603D01*
X131497830Y-90180849D01*
X131497831Y-90180854D01*
X131557411Y-90351123D01*
X131653384Y-90503862D01*
X131780938Y-90631416D01*
X131933678Y-90727389D01*
X132103945Y-90786968D01*
X132103950Y-90786969D01*
X132283196Y-90807165D01*
X132283200Y-90807165D01*
X132283204Y-90807165D01*
X132462449Y-90786969D01*
X132462452Y-90786968D01*
X132462455Y-90786968D01*
X132632722Y-90727389D01*
X132785462Y-90631416D01*
X132913016Y-90503862D01*
X133008989Y-90351122D01*
X133068568Y-90180855D01*
X133073872Y-90133773D01*
X133100937Y-90069363D01*
X133109401Y-90059987D01*
X133642971Y-89526419D01*
X133704294Y-89492934D01*
X133730652Y-89490100D01*
X143810207Y-89490100D01*
X143870629Y-89478081D01*
X143931052Y-89466063D01*
X143950447Y-89458028D01*
X144019916Y-89450560D01*
X144082395Y-89481835D01*
X144118048Y-89541923D01*
X144121900Y-89572590D01*
X144121900Y-120194347D01*
X144102215Y-120261386D01*
X144085581Y-120282028D01*
X135184629Y-129182981D01*
X135123306Y-129216466D01*
X135096948Y-129219300D01*
X134844855Y-129219300D01*
X134778883Y-129200294D01*
X134649523Y-129119011D01*
X134479254Y-129059431D01*
X134479249Y-129059430D01*
X134300004Y-129039235D01*
X134299996Y-129039235D01*
X134120750Y-129059430D01*
X134120745Y-129059431D01*
X133950476Y-129119011D01*
X133797737Y-129214984D01*
X133670184Y-129342537D01*
X133574211Y-129495276D01*
X133514631Y-129665545D01*
X133514630Y-129665550D01*
X133494435Y-129844796D01*
X133494435Y-129844803D01*
X133514630Y-130024049D01*
X133514631Y-130024054D01*
X133574211Y-130194323D01*
X133605130Y-130243530D01*
X133670184Y-130347062D01*
X133797738Y-130474616D01*
X133950478Y-130570589D01*
X134120745Y-130630168D01*
X134120750Y-130630169D01*
X134299996Y-130650365D01*
X134300000Y-130650365D01*
X134300004Y-130650365D01*
X134479249Y-130630169D01*
X134479252Y-130630168D01*
X134479255Y-130630168D01*
X134649522Y-130570589D01*
X134778883Y-130489305D01*
X134844855Y-130470300D01*
X135469008Y-130470300D01*
X135469008Y-130470299D01*
X135533378Y-130457496D01*
X135533379Y-130457496D01*
X135552550Y-130453682D01*
X135589852Y-130446263D01*
X135623192Y-130432452D01*
X135703686Y-130399112D01*
X135754909Y-130364884D01*
X135806133Y-130330658D01*
X135893258Y-130243533D01*
X135893258Y-130243531D01*
X135903466Y-130233324D01*
X135903467Y-130233321D01*
X144791524Y-121345265D01*
X144852843Y-121311783D01*
X144922535Y-121316767D01*
X144966882Y-121345268D01*
X148062181Y-124440567D01*
X148095666Y-124501890D01*
X148098500Y-124528248D01*
X148098500Y-127031679D01*
X148078815Y-127098718D01*
X148033519Y-127140733D01*
X147900496Y-127212722D01*
X147900494Y-127212723D01*
X147704257Y-127365461D01*
X147535833Y-127548417D01*
X147399826Y-127756593D01*
X147299936Y-127984318D01*
X147238892Y-128225375D01*
X147238890Y-128225387D01*
X147218357Y-128473194D01*
X147218357Y-128473205D01*
X147238890Y-128721012D01*
X147238892Y-128721024D01*
X147299936Y-128962081D01*
X147399826Y-129189806D01*
X147535833Y-129397982D01*
X147535836Y-129397985D01*
X147704256Y-129580938D01*
X147900491Y-129733674D01*
X147900493Y-129733675D01*
X148112539Y-129848429D01*
X148119190Y-129852028D01*
X148354386Y-129932771D01*
X148599665Y-129973700D01*
X148848335Y-129973700D01*
X149093614Y-129932771D01*
X149328810Y-129852028D01*
X149547509Y-129733674D01*
X149743744Y-129580938D01*
X149912164Y-129397985D01*
X150048173Y-129189807D01*
X150148063Y-128962081D01*
X150209108Y-128721021D01*
X150229643Y-128473200D01*
X150209108Y-128225379D01*
X150148063Y-127984319D01*
X150048173Y-127756593D01*
X149912166Y-127548417D01*
X149890557Y-127524944D01*
X149743744Y-127365462D01*
X149547509Y-127212726D01*
X149547508Y-127212725D01*
X149547505Y-127212723D01*
X149547503Y-127212722D01*
X149414481Y-127140733D01*
X149364891Y-127091513D01*
X149349500Y-127031679D01*
X149349500Y-124285537D01*
X149349501Y-124285516D01*
X149349501Y-124156187D01*
X149325464Y-124035350D01*
X149325463Y-124035349D01*
X149325463Y-124035345D01*
X149310754Y-123999835D01*
X149305932Y-123988193D01*
X149300467Y-123975000D01*
X149296298Y-123964935D01*
X149278312Y-123921511D01*
X149209858Y-123819063D01*
X149209855Y-123819059D01*
X145859219Y-120468423D01*
X145825734Y-120407100D01*
X145822900Y-120380742D01*
X145822900Y-106375196D01*
X150832435Y-106375196D01*
X150832435Y-106375203D01*
X150852630Y-106554449D01*
X150852631Y-106554454D01*
X150912211Y-106724723D01*
X150984687Y-106840067D01*
X151008184Y-106877462D01*
X151135738Y-107005016D01*
X151288478Y-107100989D01*
X151329854Y-107115467D01*
X151458745Y-107160568D01*
X151458750Y-107160569D01*
X151637996Y-107180765D01*
X151638000Y-107180765D01*
X151638004Y-107180765D01*
X151817249Y-107160569D01*
X151817252Y-107160568D01*
X151817255Y-107160568D01*
X151987522Y-107100989D01*
X152140262Y-107005016D01*
X152267816Y-106877462D01*
X152363789Y-106724722D01*
X152423368Y-106554455D01*
X152428672Y-106507373D01*
X152455737Y-106442963D01*
X152464201Y-106433587D01*
X153232371Y-105665419D01*
X153293694Y-105631934D01*
X153320052Y-105629100D01*
X153577906Y-105629100D01*
X153644945Y-105648785D01*
X153690700Y-105701589D01*
X153700644Y-105770747D01*
X153682900Y-105819072D01*
X153590054Y-105966834D01*
X153530474Y-106137105D01*
X153528751Y-106152402D01*
X153501682Y-106216815D01*
X153493212Y-106226196D01*
X153357621Y-106361787D01*
X153296298Y-106395272D01*
X153283825Y-106397326D01*
X153236750Y-106402630D01*
X153066478Y-106462210D01*
X152913737Y-106558184D01*
X152786184Y-106685737D01*
X152690211Y-106838476D01*
X152630631Y-107008745D01*
X152630630Y-107008750D01*
X152610435Y-107187996D01*
X152610435Y-107188003D01*
X152630630Y-107367249D01*
X152630631Y-107367254D01*
X152690211Y-107537523D01*
X152710776Y-107570251D01*
X152786184Y-107690262D01*
X152913738Y-107817816D01*
X153066478Y-107913789D01*
X153236745Y-107973368D01*
X153236750Y-107973369D01*
X153415996Y-107993565D01*
X153416000Y-107993565D01*
X153416004Y-107993565D01*
X153595249Y-107973369D01*
X153595252Y-107973368D01*
X153595255Y-107973368D01*
X153765522Y-107913789D01*
X153918262Y-107817816D01*
X154045816Y-107690262D01*
X154141789Y-107537522D01*
X154201368Y-107367255D01*
X154206672Y-107320173D01*
X154233737Y-107255763D01*
X154242201Y-107246387D01*
X154342442Y-107146146D01*
X154403763Y-107112663D01*
X154416218Y-107110611D01*
X154495099Y-107101724D01*
X154495102Y-107101723D01*
X154495103Y-107101723D01*
X154538161Y-107086655D01*
X154583746Y-107070704D01*
X154653524Y-107067142D01*
X154714152Y-107101871D01*
X154746379Y-107163864D01*
X154739975Y-107233439D01*
X154729695Y-107253717D01*
X154671412Y-107346474D01*
X154611831Y-107516745D01*
X154611830Y-107516750D01*
X154591635Y-107695996D01*
X154591635Y-107696003D01*
X154611830Y-107875249D01*
X154611831Y-107875254D01*
X154671411Y-108045523D01*
X154767384Y-108198262D01*
X154894938Y-108325816D01*
X155047678Y-108421789D01*
X155217945Y-108481368D01*
X155217950Y-108481369D01*
X155397196Y-108501565D01*
X155397200Y-108501565D01*
X155397204Y-108501565D01*
X155576449Y-108481369D01*
X155576452Y-108481368D01*
X155576455Y-108481368D01*
X155746722Y-108421789D01*
X155899462Y-108325816D01*
X156027016Y-108198262D01*
X156122989Y-108045522D01*
X156182568Y-107875255D01*
X156202765Y-107696000D01*
X156202118Y-107690262D01*
X156182569Y-107516750D01*
X156182568Y-107516745D01*
X156163261Y-107461570D01*
X156122989Y-107346478D01*
X156122986Y-107346474D01*
X156041706Y-107217117D01*
X156022700Y-107151145D01*
X156022700Y-105753100D01*
X156042385Y-105686061D01*
X156095189Y-105640306D01*
X156146700Y-105629100D01*
X161634145Y-105629100D01*
X161700117Y-105648106D01*
X161816341Y-105721135D01*
X161829478Y-105729389D01*
X161976162Y-105780716D01*
X161999745Y-105788968D01*
X161999750Y-105788969D01*
X162178996Y-105809165D01*
X162179000Y-105809165D01*
X162179004Y-105809165D01*
X162358249Y-105788969D01*
X162358252Y-105788968D01*
X162358255Y-105788968D01*
X162528522Y-105729389D01*
X162657883Y-105648105D01*
X162723855Y-105629100D01*
X171794145Y-105629100D01*
X171860117Y-105648106D01*
X171976341Y-105721135D01*
X171989478Y-105729389D01*
X172136162Y-105780716D01*
X172159745Y-105788968D01*
X172159750Y-105788969D01*
X172338996Y-105809165D01*
X172339000Y-105809165D01*
X172339004Y-105809165D01*
X172518249Y-105788969D01*
X172518252Y-105788968D01*
X172518255Y-105788968D01*
X172688522Y-105729389D01*
X172841262Y-105633416D01*
X172968816Y-105505862D01*
X173064789Y-105353122D01*
X173124368Y-105182855D01*
X173144565Y-105003600D01*
X173124368Y-104824345D01*
X173064789Y-104654078D01*
X172968816Y-104501338D01*
X172841262Y-104373784D01*
X172817883Y-104359094D01*
X172688523Y-104277811D01*
X172518254Y-104218231D01*
X172518249Y-104218230D01*
X172339004Y-104198035D01*
X172338996Y-104198035D01*
X172159750Y-104218230D01*
X172159745Y-104218231D01*
X171989476Y-104277811D01*
X171860117Y-104359094D01*
X171794145Y-104378100D01*
X162723855Y-104378100D01*
X162657883Y-104359094D01*
X162528523Y-104277811D01*
X162358254Y-104218231D01*
X162358249Y-104218230D01*
X162179004Y-104198035D01*
X162178996Y-104198035D01*
X161999750Y-104218230D01*
X161999745Y-104218231D01*
X161829476Y-104277811D01*
X161700117Y-104359094D01*
X161634145Y-104378100D01*
X152947989Y-104378100D01*
X152887571Y-104390118D01*
X152844343Y-104398716D01*
X152827146Y-104402137D01*
X152713316Y-104449287D01*
X152713307Y-104449292D01*
X152610868Y-104517740D01*
X152570653Y-104557956D01*
X152523742Y-104604867D01*
X152523739Y-104604870D01*
X151579621Y-105548987D01*
X151518298Y-105582472D01*
X151505825Y-105584526D01*
X151458750Y-105589830D01*
X151288478Y-105649410D01*
X151135737Y-105745384D01*
X151008184Y-105872937D01*
X150912211Y-106025676D01*
X150852631Y-106195945D01*
X150852630Y-106195950D01*
X150832435Y-106375196D01*
X145822900Y-106375196D01*
X145822900Y-89246531D01*
X145842585Y-89179492D01*
X145859214Y-89158854D01*
X146944719Y-88073349D01*
X147006040Y-88039866D01*
X147018496Y-88037814D01*
X147065595Y-88032508D01*
X147235862Y-87972929D01*
X147388602Y-87876956D01*
X147516156Y-87749402D01*
X147612129Y-87596662D01*
X147671708Y-87426395D01*
X147691905Y-87247140D01*
X147673340Y-87082371D01*
X147671709Y-87067890D01*
X147671708Y-87067885D01*
X147612127Y-86897613D01*
X147519819Y-86750707D01*
X147500818Y-86683471D01*
X147521185Y-86616636D01*
X147537126Y-86597058D01*
X148453387Y-85680798D01*
X148453391Y-85680796D01*
X148540516Y-85593671D01*
X148574742Y-85542447D01*
X148608970Y-85491224D01*
X148646690Y-85400158D01*
X148656121Y-85377390D01*
X148664877Y-85333366D01*
X148673714Y-85288944D01*
X148673714Y-85288941D01*
X148680158Y-85256545D01*
X148680158Y-85177222D01*
X148699843Y-85110183D01*
X148752647Y-85064428D01*
X148821805Y-85054484D01*
X148870127Y-85072227D01*
X148930533Y-85110183D01*
X149002475Y-85155388D01*
X149172745Y-85214968D01*
X149172750Y-85214969D01*
X149351996Y-85235165D01*
X149352000Y-85235165D01*
X149352004Y-85235165D01*
X149531249Y-85214969D01*
X149531252Y-85214968D01*
X149531255Y-85214968D01*
X149701522Y-85155389D01*
X149854262Y-85059416D01*
X149981816Y-84931862D01*
X150077789Y-84779122D01*
X150137368Y-84608855D01*
X150137369Y-84608849D01*
X150157565Y-84429603D01*
X150157565Y-84429596D01*
X150137369Y-84250350D01*
X150137366Y-84250337D01*
X150099796Y-84142968D01*
X150096234Y-84073189D01*
X150129154Y-84014334D01*
X152455671Y-81687819D01*
X152516994Y-81654334D01*
X152543352Y-81651500D01*
X154242745Y-81651500D01*
X154308717Y-81670506D01*
X154427903Y-81745396D01*
X154438078Y-81751789D01*
X154563543Y-81795691D01*
X154608345Y-81811368D01*
X154608350Y-81811369D01*
X154787596Y-81831565D01*
X154787600Y-81831565D01*
X154787604Y-81831565D01*
X154966849Y-81811369D01*
X154966852Y-81811368D01*
X154966855Y-81811368D01*
X155137122Y-81751789D01*
X155266483Y-81670505D01*
X155332455Y-81651500D01*
X158312223Y-81651500D01*
X158379262Y-81671185D01*
X158425017Y-81723989D01*
X158434961Y-81793147D01*
X158405936Y-81856703D01*
X158347158Y-81894477D01*
X158331621Y-81897973D01*
X158149753Y-81926778D01*
X158149750Y-81926778D01*
X157932244Y-81997450D01*
X157728461Y-82101283D01*
X157623049Y-82177870D01*
X157543434Y-82235714D01*
X157543432Y-82235716D01*
X157543431Y-82235716D01*
X157381716Y-82397431D01*
X157381716Y-82397432D01*
X157381714Y-82397434D01*
X157363307Y-82422769D01*
X157247283Y-82582461D01*
X157143453Y-82786237D01*
X157124257Y-82845319D01*
X157084819Y-82902994D01*
X157020460Y-82930192D01*
X157006326Y-82931000D01*
X153035000Y-82931000D01*
X153035000Y-103251000D01*
X157123127Y-103251000D01*
X157190166Y-103270685D01*
X157233610Y-103318704D01*
X157247283Y-103345538D01*
X157381714Y-103530566D01*
X157543434Y-103692286D01*
X157728462Y-103826717D01*
X157868463Y-103898051D01*
X157932244Y-103930549D01*
X158149751Y-104001221D01*
X158149752Y-104001221D01*
X158149755Y-104001222D01*
X158375646Y-104037000D01*
X158375647Y-104037000D01*
X158604353Y-104037000D01*
X158604354Y-104037000D01*
X158830245Y-104001222D01*
X158830248Y-104001221D01*
X158830249Y-104001221D01*
X159047755Y-103930549D01*
X159047755Y-103930548D01*
X159047758Y-103930548D01*
X159251538Y-103826717D01*
X159436566Y-103692286D01*
X159598286Y-103530566D01*
X159659683Y-103446059D01*
X159715012Y-103403396D01*
X159784625Y-103397417D01*
X159846420Y-103430023D01*
X159860314Y-103446056D01*
X159921714Y-103530566D01*
X160083434Y-103692286D01*
X160268462Y-103826717D01*
X160408463Y-103898051D01*
X160472244Y-103930549D01*
X160689751Y-104001221D01*
X160689752Y-104001221D01*
X160689755Y-104001222D01*
X160915646Y-104037000D01*
X160915647Y-104037000D01*
X161144353Y-104037000D01*
X161144354Y-104037000D01*
X161370245Y-104001222D01*
X161370248Y-104001221D01*
X161370249Y-104001221D01*
X161587755Y-103930549D01*
X161587755Y-103930548D01*
X161587758Y-103930548D01*
X161791538Y-103826717D01*
X161976566Y-103692286D01*
X162138286Y-103530566D01*
X162199683Y-103446059D01*
X162255012Y-103403396D01*
X162324625Y-103397417D01*
X162386420Y-103430023D01*
X162400314Y-103446056D01*
X162461714Y-103530566D01*
X162623434Y-103692286D01*
X162808462Y-103826717D01*
X162948463Y-103898051D01*
X163012244Y-103930549D01*
X163229751Y-104001221D01*
X163229752Y-104001221D01*
X163229755Y-104001222D01*
X163455646Y-104037000D01*
X163455647Y-104037000D01*
X163684353Y-104037000D01*
X163684354Y-104037000D01*
X163910245Y-104001222D01*
X163910248Y-104001221D01*
X163910249Y-104001221D01*
X164127755Y-103930549D01*
X164127755Y-103930548D01*
X164127758Y-103930548D01*
X164331538Y-103826717D01*
X164516566Y-103692286D01*
X164678286Y-103530566D01*
X164739683Y-103446059D01*
X164795012Y-103403396D01*
X164864625Y-103397417D01*
X164926420Y-103430023D01*
X164940314Y-103446056D01*
X165001714Y-103530566D01*
X165163434Y-103692286D01*
X165348462Y-103826717D01*
X165488463Y-103898051D01*
X165552244Y-103930549D01*
X165769751Y-104001221D01*
X165769752Y-104001221D01*
X165769755Y-104001222D01*
X165995646Y-104037000D01*
X165995647Y-104037000D01*
X166224353Y-104037000D01*
X166224354Y-104037000D01*
X166450245Y-104001222D01*
X166450248Y-104001221D01*
X166450249Y-104001221D01*
X166667755Y-103930549D01*
X166667755Y-103930548D01*
X166667758Y-103930548D01*
X166871538Y-103826717D01*
X167056566Y-103692286D01*
X167218286Y-103530566D01*
X167279683Y-103446059D01*
X167335012Y-103403396D01*
X167404625Y-103397417D01*
X167466420Y-103430023D01*
X167480314Y-103446056D01*
X167541714Y-103530566D01*
X167703434Y-103692286D01*
X167888462Y-103826717D01*
X168028463Y-103898051D01*
X168092244Y-103930549D01*
X168309751Y-104001221D01*
X168309752Y-104001221D01*
X168309755Y-104001222D01*
X168535646Y-104037000D01*
X168535647Y-104037000D01*
X168764353Y-104037000D01*
X168764354Y-104037000D01*
X168990245Y-104001222D01*
X168990248Y-104001221D01*
X168990249Y-104001221D01*
X169207755Y-103930549D01*
X169207755Y-103930548D01*
X169207758Y-103930548D01*
X169411538Y-103826717D01*
X169596566Y-103692286D01*
X169758286Y-103530566D01*
X169819683Y-103446059D01*
X169875012Y-103403396D01*
X169944625Y-103397417D01*
X170006420Y-103430023D01*
X170020314Y-103446056D01*
X170081714Y-103530566D01*
X170243434Y-103692286D01*
X170428462Y-103826717D01*
X170568463Y-103898051D01*
X170632244Y-103930549D01*
X170849751Y-104001221D01*
X170849752Y-104001221D01*
X170849755Y-104001222D01*
X171075646Y-104037000D01*
X171075647Y-104037000D01*
X171304353Y-104037000D01*
X171304354Y-104037000D01*
X171530245Y-104001222D01*
X171530248Y-104001221D01*
X171530249Y-104001221D01*
X171747755Y-103930549D01*
X171747755Y-103930548D01*
X171747758Y-103930548D01*
X171951538Y-103826717D01*
X172136566Y-103692286D01*
X172298286Y-103530566D01*
X172359683Y-103446059D01*
X172415012Y-103403396D01*
X172484625Y-103397417D01*
X172546420Y-103430023D01*
X172560314Y-103446056D01*
X172621714Y-103530566D01*
X172783434Y-103692286D01*
X172968462Y-103826717D01*
X173108463Y-103898051D01*
X173172244Y-103930549D01*
X173389751Y-104001221D01*
X173389752Y-104001221D01*
X173389755Y-104001222D01*
X173615646Y-104037000D01*
X173615647Y-104037000D01*
X173844353Y-104037000D01*
X173844354Y-104037000D01*
X174070245Y-104001222D01*
X174070248Y-104001221D01*
X174070249Y-104001221D01*
X174287755Y-103930549D01*
X174287755Y-103930548D01*
X174287758Y-103930548D01*
X174491538Y-103826717D01*
X174676566Y-103692286D01*
X174838286Y-103530566D01*
X174899683Y-103446059D01*
X174955012Y-103403396D01*
X175024625Y-103397417D01*
X175086420Y-103430023D01*
X175100314Y-103446056D01*
X175161714Y-103530566D01*
X175323434Y-103692286D01*
X175508462Y-103826717D01*
X175577572Y-103861930D01*
X175648462Y-103898051D01*
X175699258Y-103946026D01*
X175716053Y-104013847D01*
X175693515Y-104079982D01*
X175679848Y-104096217D01*
X172409686Y-107366381D01*
X172348363Y-107399866D01*
X172322005Y-107402700D01*
X165534080Y-107402700D01*
X165389092Y-107431540D01*
X165389082Y-107431543D01*
X165252511Y-107488112D01*
X165252498Y-107488119D01*
X165129584Y-107570248D01*
X165129580Y-107570251D01*
X157865851Y-114833981D01*
X157804528Y-114867466D01*
X157778170Y-114870300D01*
X149397972Y-114870300D01*
X149357017Y-114863342D01*
X149277254Y-114835431D01*
X149277250Y-114835430D01*
X149095988Y-114815007D01*
X149031574Y-114787940D01*
X148992019Y-114730345D01*
X148986652Y-114677902D01*
X148989165Y-114655600D01*
X148989165Y-114655597D01*
X148968969Y-114476350D01*
X148968968Y-114476345D01*
X148909388Y-114306076D01*
X148813415Y-114153337D01*
X148685862Y-114025784D01*
X148533123Y-113929811D01*
X148362854Y-113870231D01*
X148362849Y-113870230D01*
X148183604Y-113850035D01*
X148183596Y-113850035D01*
X148004350Y-113870230D01*
X148004345Y-113870231D01*
X147834076Y-113929811D01*
X147681337Y-114025784D01*
X147553784Y-114153337D01*
X147457811Y-114306076D01*
X147398231Y-114476345D01*
X147398230Y-114476350D01*
X147378035Y-114655596D01*
X147378035Y-114655603D01*
X147398230Y-114834849D01*
X147398231Y-114834854D01*
X147426142Y-114914617D01*
X147433100Y-114955572D01*
X147433100Y-115840979D01*
X147433100Y-115840981D01*
X147433099Y-115840981D01*
X147461940Y-115985968D01*
X147461943Y-115985978D01*
X147518513Y-116122551D01*
X147518514Y-116122552D01*
X147518516Y-116122556D01*
X147543590Y-116160081D01*
X147543591Y-116160084D01*
X147600645Y-116245475D01*
X147600649Y-116245479D01*
X148500319Y-117145148D01*
X148500323Y-117145151D01*
X148623237Y-117227280D01*
X148623250Y-117227287D01*
X148759131Y-117283570D01*
X148759826Y-117283858D01*
X148759830Y-117283858D01*
X148759831Y-117283859D01*
X148904818Y-117312700D01*
X148904821Y-117312700D01*
X149052656Y-117312700D01*
X171991370Y-117312700D01*
X172058409Y-117332385D01*
X172091688Y-117363815D01*
X172148755Y-117442361D01*
X172148760Y-117442367D01*
X172304636Y-117598243D01*
X172304641Y-117598247D01*
X172460192Y-117711260D01*
X172482978Y-117727815D01*
X172611375Y-117793237D01*
X172679393Y-117827895D01*
X172679396Y-117827896D01*
X172784221Y-117861955D01*
X172889049Y-117896015D01*
X173106778Y-117930500D01*
X173106779Y-117930500D01*
X175127221Y-117930500D01*
X175127222Y-117930500D01*
X175344951Y-117896015D01*
X175554606Y-117827895D01*
X175751022Y-117727815D01*
X175929365Y-117598242D01*
X176085242Y-117442365D01*
X176214815Y-117264022D01*
X176314895Y-117067606D01*
X176383015Y-116857951D01*
X176417500Y-116640222D01*
X176417500Y-116419778D01*
X176383015Y-116202049D01*
X176314895Y-115992394D01*
X176314895Y-115992393D01*
X176237744Y-115840979D01*
X176214815Y-115795978D01*
X176123326Y-115670053D01*
X176085247Y-115617641D01*
X176085243Y-115617636D01*
X175929363Y-115461756D01*
X175929358Y-115461752D01*
X175751025Y-115332187D01*
X175751024Y-115332186D01*
X175751022Y-115332185D01*
X175688096Y-115300122D01*
X175554606Y-115232104D01*
X175554603Y-115232103D01*
X175344952Y-115163985D01*
X175236086Y-115146742D01*
X175127222Y-115129500D01*
X173106778Y-115129500D01*
X173034201Y-115140995D01*
X172889047Y-115163985D01*
X172679396Y-115232103D01*
X172679393Y-115232104D01*
X172482974Y-115332187D01*
X172304641Y-115461752D01*
X172304636Y-115461756D01*
X172148758Y-115617634D01*
X172110674Y-115670053D01*
X172044898Y-115760586D01*
X171989570Y-115803251D01*
X171944581Y-115811700D01*
X159310230Y-115811700D01*
X159243191Y-115792015D01*
X159197436Y-115739211D01*
X159187492Y-115670053D01*
X159216517Y-115606497D01*
X159222549Y-115600019D01*
X165882548Y-108940019D01*
X165943871Y-108906534D01*
X165970229Y-108903700D01*
X172758155Y-108903700D01*
X172855697Y-108884296D01*
X172903148Y-108874858D01*
X173039730Y-108818284D01*
X173088964Y-108785386D01*
X173162651Y-108736152D01*
X176252664Y-105646137D01*
X176313985Y-105612654D01*
X176383677Y-105617638D01*
X176406315Y-105628827D01*
X176553221Y-105721135D01*
X176553225Y-105721136D01*
X176553226Y-105721137D01*
X176576809Y-105729389D01*
X176723493Y-105780716D01*
X176723498Y-105780717D01*
X176902744Y-105800913D01*
X176902748Y-105800913D01*
X176902752Y-105800913D01*
X177081997Y-105780717D01*
X177082000Y-105780716D01*
X177082003Y-105780716D01*
X177252270Y-105721137D01*
X177405010Y-105625164D01*
X177532564Y-105497610D01*
X177628537Y-105344870D01*
X177688116Y-105174603D01*
X177692647Y-105134384D01*
X177719712Y-105069974D01*
X177728176Y-105060598D01*
X178230820Y-104557955D01*
X178292142Y-104524471D01*
X178361834Y-104529455D01*
X178417767Y-104571327D01*
X178442184Y-104636791D01*
X178442500Y-104645637D01*
X178442500Y-123313567D01*
X178422815Y-123380606D01*
X178370011Y-123426361D01*
X178300853Y-123436305D01*
X178237297Y-123407280D01*
X178206118Y-123365972D01*
X178174035Y-123297171D01*
X178174034Y-123297169D01*
X178038494Y-123103597D01*
X177871402Y-122936506D01*
X177871395Y-122936501D01*
X177677834Y-122800967D01*
X177677830Y-122800965D01*
X177677828Y-122800964D01*
X177463663Y-122701097D01*
X177463659Y-122701096D01*
X177463655Y-122701094D01*
X177235413Y-122639938D01*
X177235403Y-122639936D01*
X177000001Y-122619341D01*
X176999999Y-122619341D01*
X176764596Y-122639936D01*
X176764586Y-122639938D01*
X176536344Y-122701094D01*
X176536335Y-122701098D01*
X176322171Y-122800964D01*
X176322169Y-122800965D01*
X176128597Y-122936505D01*
X175961505Y-123103597D01*
X175831575Y-123289158D01*
X175776998Y-123332783D01*
X175707500Y-123339977D01*
X175645145Y-123308454D01*
X175628425Y-123289158D01*
X175498494Y-123103597D01*
X175331402Y-122936506D01*
X175331395Y-122936501D01*
X175137834Y-122800967D01*
X175137830Y-122800965D01*
X175137828Y-122800964D01*
X174923663Y-122701097D01*
X174923659Y-122701096D01*
X174923655Y-122701094D01*
X174695413Y-122639938D01*
X174695403Y-122639936D01*
X174460001Y-122619341D01*
X174459999Y-122619341D01*
X174224596Y-122639936D01*
X174224586Y-122639938D01*
X173996344Y-122701094D01*
X173996335Y-122701098D01*
X173782171Y-122800964D01*
X173782169Y-122800965D01*
X173588597Y-122936505D01*
X173421505Y-123103597D01*
X173291575Y-123289158D01*
X173236998Y-123332783D01*
X173167500Y-123339977D01*
X173105145Y-123308454D01*
X173088425Y-123289158D01*
X172958494Y-123103597D01*
X172791402Y-122936506D01*
X172791395Y-122936501D01*
X172597834Y-122800967D01*
X172597830Y-122800965D01*
X172597828Y-122800964D01*
X172383663Y-122701097D01*
X172383659Y-122701096D01*
X172383655Y-122701094D01*
X172155413Y-122639938D01*
X172155403Y-122639936D01*
X171920001Y-122619341D01*
X171919999Y-122619341D01*
X171684596Y-122639936D01*
X171684586Y-122639938D01*
X171456344Y-122701094D01*
X171456335Y-122701098D01*
X171242171Y-122800964D01*
X171242169Y-122800965D01*
X171048597Y-122936505D01*
X170881505Y-123103597D01*
X170751575Y-123289158D01*
X170696998Y-123332783D01*
X170627500Y-123339977D01*
X170565145Y-123308454D01*
X170548425Y-123289158D01*
X170418494Y-123103597D01*
X170251402Y-122936506D01*
X170251395Y-122936501D01*
X170057834Y-122800967D01*
X170057830Y-122800965D01*
X170057828Y-122800964D01*
X169843663Y-122701097D01*
X169843659Y-122701096D01*
X169843655Y-122701094D01*
X169615413Y-122639938D01*
X169615403Y-122639936D01*
X169380001Y-122619341D01*
X169379999Y-122619341D01*
X169144596Y-122639936D01*
X169144586Y-122639938D01*
X168916344Y-122701094D01*
X168916335Y-122701098D01*
X168702171Y-122800964D01*
X168702169Y-122800965D01*
X168508597Y-122936505D01*
X168341505Y-123103597D01*
X168211575Y-123289158D01*
X168156998Y-123332783D01*
X168087500Y-123339977D01*
X168025145Y-123308454D01*
X168008425Y-123289158D01*
X167878494Y-123103597D01*
X167711402Y-122936506D01*
X167711395Y-122936501D01*
X167517834Y-122800967D01*
X167517830Y-122800965D01*
X167517828Y-122800964D01*
X167303663Y-122701097D01*
X167303659Y-122701096D01*
X167303655Y-122701094D01*
X167075413Y-122639938D01*
X167075403Y-122639936D01*
X166840001Y-122619341D01*
X166839999Y-122619341D01*
X166604596Y-122639936D01*
X166604586Y-122639938D01*
X166376344Y-122701094D01*
X166376335Y-122701098D01*
X166162171Y-122800964D01*
X166162169Y-122800965D01*
X165968597Y-122936505D01*
X165801505Y-123103597D01*
X165671575Y-123289158D01*
X165616998Y-123332783D01*
X165547500Y-123339977D01*
X165485145Y-123308454D01*
X165468425Y-123289158D01*
X165338494Y-123103597D01*
X165171402Y-122936506D01*
X165171395Y-122936501D01*
X164977834Y-122800967D01*
X164977830Y-122800965D01*
X164977828Y-122800964D01*
X164763663Y-122701097D01*
X164763659Y-122701096D01*
X164763655Y-122701094D01*
X164535413Y-122639938D01*
X164535403Y-122639936D01*
X164300001Y-122619341D01*
X164299999Y-122619341D01*
X164064596Y-122639936D01*
X164064586Y-122639938D01*
X163836344Y-122701094D01*
X163836335Y-122701098D01*
X163622171Y-122800964D01*
X163622169Y-122800965D01*
X163428597Y-122936505D01*
X163261505Y-123103597D01*
X163131575Y-123289158D01*
X163076998Y-123332783D01*
X163007500Y-123339977D01*
X162945145Y-123308454D01*
X162928425Y-123289158D01*
X162798494Y-123103597D01*
X162631402Y-122936506D01*
X162631395Y-122936501D01*
X162437834Y-122800967D01*
X162437830Y-122800965D01*
X162437828Y-122800964D01*
X162223663Y-122701097D01*
X162223659Y-122701096D01*
X162223655Y-122701094D01*
X161995413Y-122639938D01*
X161995403Y-122639936D01*
X161760001Y-122619341D01*
X161759999Y-122619341D01*
X161524596Y-122639936D01*
X161524586Y-122639938D01*
X161296344Y-122701094D01*
X161296335Y-122701098D01*
X161082171Y-122800964D01*
X161082169Y-122800965D01*
X160888597Y-122936505D01*
X160721505Y-123103597D01*
X160591575Y-123289158D01*
X160536998Y-123332783D01*
X160467500Y-123339977D01*
X160405145Y-123308454D01*
X160388425Y-123289158D01*
X160258494Y-123103597D01*
X160091402Y-122936506D01*
X160091395Y-122936501D01*
X159897834Y-122800967D01*
X159897830Y-122800965D01*
X159897828Y-122800964D01*
X159683663Y-122701097D01*
X159683659Y-122701096D01*
X159683655Y-122701094D01*
X159455413Y-122639938D01*
X159455403Y-122639936D01*
X159220001Y-122619341D01*
X159219999Y-122619341D01*
X158984596Y-122639936D01*
X158984586Y-122639938D01*
X158756344Y-122701094D01*
X158756335Y-122701098D01*
X158542171Y-122800964D01*
X158542169Y-122800965D01*
X158348597Y-122936505D01*
X158181505Y-123103597D01*
X158051575Y-123289158D01*
X157996998Y-123332783D01*
X157927500Y-123339977D01*
X157865145Y-123308454D01*
X157848425Y-123289158D01*
X157718494Y-123103597D01*
X157551402Y-122936506D01*
X157551395Y-122936501D01*
X157357834Y-122800967D01*
X157357830Y-122800965D01*
X157357828Y-122800964D01*
X157143663Y-122701097D01*
X157143659Y-122701096D01*
X157143655Y-122701094D01*
X156915413Y-122639938D01*
X156915403Y-122639936D01*
X156680001Y-122619341D01*
X156679999Y-122619341D01*
X156444596Y-122639936D01*
X156444586Y-122639938D01*
X156216344Y-122701094D01*
X156216335Y-122701098D01*
X156002171Y-122800964D01*
X156002169Y-122800965D01*
X155808600Y-122936503D01*
X155686673Y-123058430D01*
X155625350Y-123091914D01*
X155555658Y-123086930D01*
X155499725Y-123045058D01*
X155482810Y-123014081D01*
X155433797Y-122882671D01*
X155433793Y-122882664D01*
X155347547Y-122767455D01*
X155347544Y-122767452D01*
X155232335Y-122681206D01*
X155232328Y-122681202D01*
X155097482Y-122630908D01*
X155097483Y-122630908D01*
X155037883Y-122624501D01*
X155037881Y-122624500D01*
X155037873Y-122624500D01*
X155037864Y-122624500D01*
X153242129Y-122624500D01*
X153242123Y-122624501D01*
X153182516Y-122630908D01*
X153047671Y-122681202D01*
X153047664Y-122681206D01*
X152932455Y-122767452D01*
X152932452Y-122767455D01*
X152846206Y-122882664D01*
X152846202Y-122882671D01*
X152795908Y-123017517D01*
X152789501Y-123077116D01*
X152789500Y-123077135D01*
X152789500Y-124872870D01*
X152789501Y-124872876D01*
X152795908Y-124932483D01*
X152846202Y-125067328D01*
X152846206Y-125067335D01*
X152932452Y-125182544D01*
X152932455Y-125182547D01*
X153047664Y-125268793D01*
X153047671Y-125268797D01*
X153182517Y-125319091D01*
X153182516Y-125319091D01*
X153189444Y-125319835D01*
X153242127Y-125325500D01*
X155037872Y-125325499D01*
X155097483Y-125319091D01*
X155232331Y-125268796D01*
X155347546Y-125182546D01*
X155433796Y-125067331D01*
X155482810Y-124935916D01*
X155524681Y-124879984D01*
X155590145Y-124855566D01*
X155658418Y-124870417D01*
X155686673Y-124891569D01*
X155808599Y-125013495D01*
X155905384Y-125081265D01*
X156002165Y-125149032D01*
X156002167Y-125149033D01*
X156002170Y-125149035D01*
X156216337Y-125248903D01*
X156444592Y-125310063D01*
X156621034Y-125325500D01*
X156679999Y-125330659D01*
X156680000Y-125330659D01*
X156680001Y-125330659D01*
X156738966Y-125325500D01*
X156915408Y-125310063D01*
X157143663Y-125248903D01*
X157357830Y-125149035D01*
X157551401Y-125013495D01*
X157718495Y-124846401D01*
X157848425Y-124660842D01*
X157903002Y-124617217D01*
X157972500Y-124610023D01*
X158034855Y-124641546D01*
X158051575Y-124660842D01*
X158181500Y-124846395D01*
X158181505Y-124846401D01*
X158348599Y-125013495D01*
X158445384Y-125081265D01*
X158542165Y-125149032D01*
X158542167Y-125149033D01*
X158542170Y-125149035D01*
X158756337Y-125248903D01*
X158984592Y-125310063D01*
X159161034Y-125325500D01*
X159219999Y-125330659D01*
X159220000Y-125330659D01*
X159220001Y-125330659D01*
X159278966Y-125325500D01*
X159455408Y-125310063D01*
X159683663Y-125248903D01*
X159897830Y-125149035D01*
X160091401Y-125013495D01*
X160258495Y-124846401D01*
X160388425Y-124660842D01*
X160443002Y-124617217D01*
X160512500Y-124610023D01*
X160574855Y-124641546D01*
X160591575Y-124660842D01*
X160721500Y-124846395D01*
X160721505Y-124846401D01*
X160888599Y-125013495D01*
X160985384Y-125081265D01*
X161082165Y-125149032D01*
X161082167Y-125149033D01*
X161082170Y-125149035D01*
X161296337Y-125248903D01*
X161524592Y-125310063D01*
X161701034Y-125325500D01*
X161759999Y-125330659D01*
X161760000Y-125330659D01*
X161760001Y-125330659D01*
X161818966Y-125325500D01*
X161995408Y-125310063D01*
X162223663Y-125248903D01*
X162437830Y-125149035D01*
X162631401Y-125013495D01*
X162798495Y-124846401D01*
X162928425Y-124660842D01*
X162983002Y-124617217D01*
X163052500Y-124610023D01*
X163114855Y-124641546D01*
X163131575Y-124660842D01*
X163261500Y-124846395D01*
X163261505Y-124846401D01*
X163428599Y-125013495D01*
X163525384Y-125081265D01*
X163622165Y-125149032D01*
X163622167Y-125149033D01*
X163622170Y-125149035D01*
X163836337Y-125248903D01*
X164064592Y-125310063D01*
X164241034Y-125325500D01*
X164299999Y-125330659D01*
X164300000Y-125330659D01*
X164300001Y-125330659D01*
X164358966Y-125325500D01*
X164535408Y-125310063D01*
X164763663Y-125248903D01*
X164977830Y-125149035D01*
X165171401Y-125013495D01*
X165338495Y-124846401D01*
X165468425Y-124660842D01*
X165523002Y-124617217D01*
X165592500Y-124610023D01*
X165654855Y-124641546D01*
X165671575Y-124660842D01*
X165801500Y-124846395D01*
X165801505Y-124846401D01*
X165968599Y-125013495D01*
X166065384Y-125081265D01*
X166162165Y-125149032D01*
X166162167Y-125149033D01*
X166162170Y-125149035D01*
X166376337Y-125248903D01*
X166604592Y-125310063D01*
X166781034Y-125325500D01*
X166839999Y-125330659D01*
X166840000Y-125330659D01*
X166840001Y-125330659D01*
X166898966Y-125325500D01*
X167075408Y-125310063D01*
X167303663Y-125248903D01*
X167517830Y-125149035D01*
X167711401Y-125013495D01*
X167878495Y-124846401D01*
X168008425Y-124660842D01*
X168063002Y-124617217D01*
X168132500Y-124610023D01*
X168194855Y-124641546D01*
X168211575Y-124660842D01*
X168341500Y-124846395D01*
X168341505Y-124846401D01*
X168508599Y-125013495D01*
X168605384Y-125081265D01*
X168702165Y-125149032D01*
X168702167Y-125149033D01*
X168702170Y-125149035D01*
X168916337Y-125248903D01*
X169144592Y-125310063D01*
X169321034Y-125325500D01*
X169379999Y-125330659D01*
X169380000Y-125330659D01*
X169380001Y-125330659D01*
X169438966Y-125325500D01*
X169615408Y-125310063D01*
X169843663Y-125248903D01*
X170057830Y-125149035D01*
X170251401Y-125013495D01*
X170418495Y-124846401D01*
X170548425Y-124660842D01*
X170603002Y-124617217D01*
X170672500Y-124610023D01*
X170734855Y-124641546D01*
X170751575Y-124660842D01*
X170881500Y-124846395D01*
X170881505Y-124846401D01*
X171048599Y-125013495D01*
X171145384Y-125081265D01*
X171242165Y-125149032D01*
X171242167Y-125149033D01*
X171242170Y-125149035D01*
X171456337Y-125248903D01*
X171684592Y-125310063D01*
X171861034Y-125325500D01*
X171919999Y-125330659D01*
X171920000Y-125330659D01*
X171920001Y-125330659D01*
X171978966Y-125325500D01*
X172155408Y-125310063D01*
X172383663Y-125248903D01*
X172597830Y-125149035D01*
X172791401Y-125013495D01*
X172958495Y-124846401D01*
X173088425Y-124660842D01*
X173143002Y-124617217D01*
X173212500Y-124610023D01*
X173274855Y-124641546D01*
X173291575Y-124660842D01*
X173421500Y-124846395D01*
X173421505Y-124846401D01*
X173588599Y-125013495D01*
X173685384Y-125081265D01*
X173782165Y-125149032D01*
X173782167Y-125149033D01*
X173782170Y-125149035D01*
X173996337Y-125248903D01*
X174224592Y-125310063D01*
X174401034Y-125325500D01*
X174459999Y-125330659D01*
X174460000Y-125330659D01*
X174460001Y-125330659D01*
X174518966Y-125325500D01*
X174695408Y-125310063D01*
X174923663Y-125248903D01*
X175137830Y-125149035D01*
X175331401Y-125013495D01*
X175498495Y-124846401D01*
X175628425Y-124660842D01*
X175683002Y-124617217D01*
X175752500Y-124610023D01*
X175814855Y-124641546D01*
X175831575Y-124660842D01*
X175961500Y-124846395D01*
X175961505Y-124846401D01*
X176128599Y-125013495D01*
X176225384Y-125081265D01*
X176322165Y-125149032D01*
X176322167Y-125149033D01*
X176322170Y-125149035D01*
X176536337Y-125248903D01*
X176764592Y-125310063D01*
X176941034Y-125325500D01*
X176999999Y-125330659D01*
X177000000Y-125330659D01*
X177000001Y-125330659D01*
X177058966Y-125325500D01*
X177235408Y-125310063D01*
X177463663Y-125248903D01*
X177677830Y-125149035D01*
X177871401Y-125013495D01*
X178038495Y-124846401D01*
X178174035Y-124652830D01*
X178206118Y-124584025D01*
X178252290Y-124531588D01*
X178319484Y-124512436D01*
X178386365Y-124532652D01*
X178431699Y-124585817D01*
X178442500Y-124636432D01*
X178442500Y-134248994D01*
X178422815Y-134316033D01*
X178370011Y-134361788D01*
X178318400Y-134372994D01*
X116249802Y-134322878D01*
X116182778Y-134303139D01*
X116171501Y-134294947D01*
X112511432Y-131307994D01*
X117975957Y-131307994D01*
X117975957Y-131308005D01*
X117996490Y-131555812D01*
X117996492Y-131555824D01*
X118057536Y-131796881D01*
X118157426Y-132024606D01*
X118293433Y-132232782D01*
X118293436Y-132232785D01*
X118461856Y-132415738D01*
X118658091Y-132568474D01*
X118876790Y-132686828D01*
X119111986Y-132767571D01*
X119357265Y-132808500D01*
X119605935Y-132808500D01*
X119851214Y-132767571D01*
X120086410Y-132686828D01*
X120305109Y-132568474D01*
X120501344Y-132415738D01*
X120669764Y-132232785D01*
X120805773Y-132024607D01*
X120905663Y-131796881D01*
X120966708Y-131555821D01*
X120967872Y-131541777D01*
X120987243Y-131308005D01*
X120987243Y-131307994D01*
X120966709Y-131060187D01*
X120966707Y-131060175D01*
X120905663Y-130819118D01*
X120805773Y-130591393D01*
X120669766Y-130383217D01*
X120621381Y-130330657D01*
X120501344Y-130200262D01*
X120305109Y-130047526D01*
X120305107Y-130047525D01*
X120305106Y-130047524D01*
X120086411Y-129929172D01*
X120086402Y-129929169D01*
X119851216Y-129848429D01*
X119605935Y-129807500D01*
X119357265Y-129807500D01*
X119111983Y-129848429D01*
X118876797Y-129929169D01*
X118876788Y-129929172D01*
X118658093Y-130047524D01*
X118461857Y-130200261D01*
X118293433Y-130383217D01*
X118157426Y-130591393D01*
X118057536Y-130819118D01*
X117996492Y-131060175D01*
X117996490Y-131060187D01*
X117975957Y-131307994D01*
X112511432Y-131307994D01*
X112153699Y-131016051D01*
X112114206Y-130958414D01*
X112108100Y-130919982D01*
X112108100Y-122660135D01*
X117981100Y-122660135D01*
X117981100Y-124755870D01*
X117981101Y-124755876D01*
X117987508Y-124815483D01*
X118037802Y-124950328D01*
X118037806Y-124950335D01*
X118124052Y-125065544D01*
X118124055Y-125065547D01*
X118239264Y-125151793D01*
X118239271Y-125151797D01*
X118374117Y-125202091D01*
X118374116Y-125202091D01*
X118381044Y-125202835D01*
X118433727Y-125208500D01*
X120529472Y-125208499D01*
X120589083Y-125202091D01*
X120723931Y-125151796D01*
X120839146Y-125065546D01*
X120925396Y-124950331D01*
X120975691Y-124815483D01*
X120982100Y-124755873D01*
X120982099Y-122660128D01*
X120975691Y-122600517D01*
X120925396Y-122465669D01*
X120925395Y-122465668D01*
X120925393Y-122465664D01*
X120839147Y-122350455D01*
X120839144Y-122350452D01*
X120723935Y-122264206D01*
X120723928Y-122264202D01*
X120589082Y-122213908D01*
X120589083Y-122213908D01*
X120529483Y-122207501D01*
X120529481Y-122207500D01*
X120529473Y-122207500D01*
X120529464Y-122207500D01*
X118433729Y-122207500D01*
X118433723Y-122207501D01*
X118374116Y-122213908D01*
X118239271Y-122264202D01*
X118239264Y-122264206D01*
X118124055Y-122350452D01*
X118124052Y-122350455D01*
X118037806Y-122465664D01*
X118037802Y-122465671D01*
X117987508Y-122600517D01*
X117981101Y-122660116D01*
X117981101Y-122660123D01*
X117981100Y-122660135D01*
X112108100Y-122660135D01*
X112108100Y-98221494D01*
X112108101Y-98221481D01*
X112108101Y-98148306D01*
X112108219Y-98142897D01*
X112110978Y-98079704D01*
X112111179Y-98075111D01*
X113922700Y-98075111D01*
X113922700Y-98317688D01*
X113954361Y-98558185D01*
X114017147Y-98792504D01*
X114106381Y-99007932D01*
X114109976Y-99016612D01*
X114231264Y-99226689D01*
X114231266Y-99226692D01*
X114231267Y-99226693D01*
X114378933Y-99419136D01*
X114378939Y-99419143D01*
X114550456Y-99590660D01*
X114550462Y-99590665D01*
X114742911Y-99738336D01*
X114952988Y-99859624D01*
X115177100Y-99952454D01*
X115411411Y-100015238D01*
X115591786Y-100038984D01*
X115651911Y-100046900D01*
X115651912Y-100046900D01*
X115894489Y-100046900D01*
X115942588Y-100040567D01*
X116134989Y-100015238D01*
X116369300Y-99952454D01*
X116593412Y-99859624D01*
X116803489Y-99738336D01*
X116995938Y-99590665D01*
X117167465Y-99419138D01*
X117315136Y-99226689D01*
X117436424Y-99016612D01*
X117529254Y-98792500D01*
X117592038Y-98558189D01*
X117623700Y-98317688D01*
X117623700Y-98075112D01*
X117592038Y-97834611D01*
X117529254Y-97600300D01*
X117436424Y-97376188D01*
X117315136Y-97166111D01*
X117167465Y-96973662D01*
X117167460Y-96973656D01*
X116995943Y-96802139D01*
X116995936Y-96802133D01*
X116803493Y-96654467D01*
X116803492Y-96654466D01*
X116803489Y-96654464D01*
X116593412Y-96533176D01*
X116593405Y-96533173D01*
X116369304Y-96440347D01*
X116134985Y-96377561D01*
X115894489Y-96345900D01*
X115894488Y-96345900D01*
X115651912Y-96345900D01*
X115651911Y-96345900D01*
X115411414Y-96377561D01*
X115177095Y-96440347D01*
X114952994Y-96533173D01*
X114952985Y-96533177D01*
X114742906Y-96654467D01*
X114550463Y-96802133D01*
X114550456Y-96802139D01*
X114378939Y-96973656D01*
X114378933Y-96973663D01*
X114231267Y-97166106D01*
X114109977Y-97376185D01*
X114109973Y-97376194D01*
X114017147Y-97600295D01*
X113954361Y-97834614D01*
X113922700Y-98075111D01*
X112111179Y-98075111D01*
X112121812Y-97831549D01*
X112122752Y-97820817D01*
X112163075Y-97514524D01*
X112164952Y-97503883D01*
X112193260Y-97376194D01*
X112231817Y-97202274D01*
X112234609Y-97191854D01*
X112327513Y-96897200D01*
X112331197Y-96887079D01*
X112449427Y-96601645D01*
X112453985Y-96591871D01*
X112596645Y-96317825D01*
X112602021Y-96308514D01*
X112768028Y-96047935D01*
X112774212Y-96039103D01*
X112962284Y-95794003D01*
X112969222Y-95785734D01*
X113179777Y-95555954D01*
X113183452Y-95552114D01*
X113228177Y-95507391D01*
X113228178Y-95507388D01*
X113231618Y-95503949D01*
X113235258Y-95499777D01*
X113273782Y-95460866D01*
X118413402Y-90269616D01*
X118413670Y-90269347D01*
X118459047Y-90224164D01*
X118459048Y-90224161D01*
X118459103Y-90224107D01*
X118459797Y-90223194D01*
X118460324Y-90222505D01*
X118461184Y-90221388D01*
X118461227Y-90221311D01*
X118461230Y-90221309D01*
X118492816Y-90165963D01*
X118493141Y-90165398D01*
X118525181Y-90110176D01*
X118525181Y-90110174D01*
X118525223Y-90110103D01*
X118525685Y-90108973D01*
X118526022Y-90108156D01*
X118526527Y-90106942D01*
X118526548Y-90106858D01*
X118526552Y-90106853D01*
X118542792Y-90045000D01*
X118542880Y-90044672D01*
X118559559Y-89982955D01*
X118559559Y-89982952D01*
X118559580Y-89982875D01*
X118559739Y-89981621D01*
X118559850Y-89980767D01*
X118560023Y-89979469D01*
X118560023Y-89979390D01*
X118559703Y-89915531D01*
X118559702Y-89915075D01*
X118572682Y-83801594D01*
X123098357Y-83801594D01*
X123098357Y-83801605D01*
X123118890Y-84049412D01*
X123118892Y-84049424D01*
X123179936Y-84290481D01*
X123279826Y-84518206D01*
X123415833Y-84726382D01*
X123415836Y-84726385D01*
X123584256Y-84909338D01*
X123780491Y-85062074D01*
X123999190Y-85180428D01*
X124234386Y-85261171D01*
X124479665Y-85302100D01*
X124728335Y-85302100D01*
X124973614Y-85261171D01*
X125208810Y-85180428D01*
X125427509Y-85062074D01*
X125623744Y-84909338D01*
X125792164Y-84726385D01*
X125928173Y-84518207D01*
X126028063Y-84290481D01*
X126089108Y-84049421D01*
X126109643Y-83801600D01*
X126089108Y-83553779D01*
X126028063Y-83312719D01*
X125928173Y-83084993D01*
X125875098Y-83003755D01*
X125792166Y-82876817D01*
X125763170Y-82845319D01*
X125623744Y-82693862D01*
X125427509Y-82541126D01*
X125427507Y-82541125D01*
X125427506Y-82541124D01*
X125208811Y-82422772D01*
X125208802Y-82422769D01*
X124973616Y-82342029D01*
X124728335Y-82301100D01*
X124479665Y-82301100D01*
X124234383Y-82342029D01*
X123999197Y-82422769D01*
X123999188Y-82422772D01*
X123780493Y-82541124D01*
X123584257Y-82693861D01*
X123415833Y-82876817D01*
X123279826Y-83084993D01*
X123179936Y-83312718D01*
X123118892Y-83553775D01*
X123118890Y-83553787D01*
X123098357Y-83801594D01*
X118572682Y-83801594D01*
X118582338Y-79253735D01*
X128103500Y-79253735D01*
X128103500Y-81349470D01*
X128103501Y-81349476D01*
X128109908Y-81409083D01*
X128160202Y-81543928D01*
X128160206Y-81543935D01*
X128246452Y-81659144D01*
X128246455Y-81659147D01*
X128361664Y-81745393D01*
X128361671Y-81745397D01*
X128496517Y-81795691D01*
X128496516Y-81795691D01*
X128503444Y-81796435D01*
X128556127Y-81802100D01*
X130651872Y-81802099D01*
X130711483Y-81795691D01*
X130846331Y-81745396D01*
X130961546Y-81659146D01*
X131047796Y-81543931D01*
X131098091Y-81409083D01*
X131104500Y-81349473D01*
X131104500Y-81178396D01*
X138792835Y-81178396D01*
X138792835Y-81178403D01*
X138813030Y-81357649D01*
X138813031Y-81357654D01*
X138872611Y-81527923D01*
X138955065Y-81659147D01*
X138968584Y-81680662D01*
X139096138Y-81808216D01*
X139133298Y-81831565D01*
X139244504Y-81901441D01*
X139248878Y-81904189D01*
X139401938Y-81957747D01*
X139419145Y-81963768D01*
X139419150Y-81963769D01*
X139598396Y-81983965D01*
X139598400Y-81983965D01*
X139598404Y-81983965D01*
X139777649Y-81963769D01*
X139777652Y-81963768D01*
X139777655Y-81963768D01*
X139947922Y-81904189D01*
X140100662Y-81808216D01*
X140228216Y-81680662D01*
X140324189Y-81527922D01*
X140383768Y-81357655D01*
X140389072Y-81310573D01*
X140416137Y-81246163D01*
X140424601Y-81236787D01*
X141497572Y-80163819D01*
X141558895Y-80130334D01*
X141585253Y-80127500D01*
X143642691Y-80127500D01*
X143703113Y-80115481D01*
X143763536Y-80103463D01*
X143821489Y-80079458D01*
X143877370Y-80056312D01*
X143931619Y-80020063D01*
X143931620Y-80020063D01*
X143963530Y-79998740D01*
X143979817Y-79987858D01*
X144066942Y-79900733D01*
X144066943Y-79900730D01*
X144074009Y-79893665D01*
X144074012Y-79893661D01*
X145803729Y-78163944D01*
X145803733Y-78163942D01*
X145890858Y-78076817D01*
X145959311Y-77974370D01*
X145959312Y-77974369D01*
X145959313Y-77974366D01*
X145959315Y-77974363D01*
X145969672Y-77949356D01*
X146006463Y-77860535D01*
X146030500Y-77739690D01*
X146030500Y-77616477D01*
X146030500Y-73936897D01*
X146049506Y-73870925D01*
X146125789Y-73749522D01*
X146185368Y-73579255D01*
X146205565Y-73400000D01*
X146186194Y-73228078D01*
X146185369Y-73220750D01*
X146185368Y-73220745D01*
X146125789Y-73050478D01*
X146029816Y-72897738D01*
X145902262Y-72770184D01*
X145749523Y-72674211D01*
X145579254Y-72614631D01*
X145579249Y-72614630D01*
X145400004Y-72594435D01*
X145399996Y-72594435D01*
X145220750Y-72614630D01*
X145220745Y-72614631D01*
X145050476Y-72674211D01*
X144897737Y-72770184D01*
X144770184Y-72897737D01*
X144674211Y-73050476D01*
X144614631Y-73220745D01*
X144614630Y-73220750D01*
X144594435Y-73399996D01*
X144594435Y-73400003D01*
X144614630Y-73579249D01*
X144614631Y-73579254D01*
X144674211Y-73749522D01*
X144760494Y-73886840D01*
X144779500Y-73952812D01*
X144779500Y-77367632D01*
X144759815Y-77434671D01*
X144743181Y-77455313D01*
X143358313Y-78840181D01*
X143296990Y-78873666D01*
X143270632Y-78876500D01*
X141342541Y-78876500D01*
X141342521Y-78876499D01*
X141336407Y-78876499D01*
X141213194Y-78876499D01*
X141112397Y-78896548D01*
X141112392Y-78896548D01*
X141092355Y-78900534D01*
X141092348Y-78900537D01*
X141076760Y-78906994D01*
X140978520Y-78947684D01*
X140978508Y-78947691D01*
X140876067Y-79016141D01*
X140876063Y-79016144D01*
X139540021Y-80352187D01*
X139478698Y-80385672D01*
X139466225Y-80387726D01*
X139419150Y-80393030D01*
X139248878Y-80452610D01*
X139096137Y-80548584D01*
X138968584Y-80676137D01*
X138872611Y-80828876D01*
X138813031Y-80999145D01*
X138813030Y-80999150D01*
X138792835Y-81178396D01*
X131104500Y-81178396D01*
X131104499Y-79501998D01*
X132247732Y-79501998D01*
X132247732Y-79502001D01*
X132267564Y-79728686D01*
X132267566Y-79728697D01*
X132326458Y-79948488D01*
X132326461Y-79948497D01*
X132422631Y-80154732D01*
X132422632Y-80154734D01*
X132553154Y-80341141D01*
X132714058Y-80502045D01*
X132714061Y-80502047D01*
X132900466Y-80632568D01*
X133106704Y-80728739D01*
X133326508Y-80787635D01*
X133488430Y-80801801D01*
X133553198Y-80807468D01*
X133553200Y-80807468D01*
X133553202Y-80807468D01*
X133609873Y-80802509D01*
X133779892Y-80787635D01*
X133999696Y-80728739D01*
X134205934Y-80632568D01*
X134392339Y-80502047D01*
X134553247Y-80341139D01*
X134683768Y-80154734D01*
X134779939Y-79948496D01*
X134838835Y-79728692D01*
X134858668Y-79502000D01*
X134838835Y-79275308D01*
X134780948Y-79059269D01*
X134779941Y-79055511D01*
X134779938Y-79055502D01*
X134761584Y-79016142D01*
X134683768Y-78849266D01*
X134553247Y-78662861D01*
X134553245Y-78662858D01*
X134392341Y-78501954D01*
X134205934Y-78371432D01*
X134205932Y-78371431D01*
X133999697Y-78275261D01*
X133999688Y-78275258D01*
X133779897Y-78216366D01*
X133779893Y-78216365D01*
X133779892Y-78216365D01*
X133779891Y-78216364D01*
X133779886Y-78216364D01*
X133553202Y-78196532D01*
X133553198Y-78196532D01*
X133326513Y-78216364D01*
X133326502Y-78216366D01*
X133106711Y-78275258D01*
X133106702Y-78275261D01*
X132900467Y-78371431D01*
X132900465Y-78371432D01*
X132714058Y-78501954D01*
X132553154Y-78662858D01*
X132422632Y-78849265D01*
X132422631Y-78849267D01*
X132326461Y-79055502D01*
X132326458Y-79055511D01*
X132267566Y-79275302D01*
X132267564Y-79275313D01*
X132247732Y-79501998D01*
X131104499Y-79501998D01*
X131104499Y-79253728D01*
X131098091Y-79194117D01*
X131096974Y-79191123D01*
X131047797Y-79059271D01*
X131047793Y-79059264D01*
X130961547Y-78944055D01*
X130961544Y-78944052D01*
X130846335Y-78857806D01*
X130846328Y-78857802D01*
X130711482Y-78807508D01*
X130711483Y-78807508D01*
X130651883Y-78801101D01*
X130651881Y-78801100D01*
X130651873Y-78801100D01*
X130651864Y-78801100D01*
X128556129Y-78801100D01*
X128556123Y-78801101D01*
X128496516Y-78807508D01*
X128361671Y-78857802D01*
X128361664Y-78857806D01*
X128246455Y-78944052D01*
X128246452Y-78944055D01*
X128160206Y-79059264D01*
X128160202Y-79059271D01*
X128109908Y-79194117D01*
X128103501Y-79253716D01*
X128103501Y-79253723D01*
X128103500Y-79253735D01*
X118582338Y-79253735D01*
X118593460Y-74015598D01*
X131507438Y-74015598D01*
X131507438Y-74015601D01*
X131526050Y-74228341D01*
X131526052Y-74228352D01*
X131581321Y-74434622D01*
X131581323Y-74434626D01*
X131581324Y-74434630D01*
X131623771Y-74525658D01*
X131671577Y-74628178D01*
X131794072Y-74803121D01*
X131945078Y-74954127D01*
X131945081Y-74954129D01*
X132120019Y-75076621D01*
X132120021Y-75076622D01*
X132120020Y-75076622D01*
X132184536Y-75106706D01*
X132313570Y-75166876D01*
X132519853Y-75222149D01*
X132671815Y-75235444D01*
X132732598Y-75240762D01*
X132732600Y-75240762D01*
X132732602Y-75240762D01*
X132785786Y-75236108D01*
X132945347Y-75222149D01*
X133151630Y-75166876D01*
X133345181Y-75076621D01*
X133520119Y-74954129D01*
X133671129Y-74803119D01*
X133793621Y-74628181D01*
X133883876Y-74434630D01*
X133883880Y-74434613D01*
X133885730Y-74429536D01*
X133887853Y-74430309D01*
X133919176Y-74378905D01*
X133982019Y-74348366D01*
X134051396Y-74356650D01*
X134105280Y-74401128D01*
X134118427Y-74429915D01*
X134119470Y-74429536D01*
X134121322Y-74434622D01*
X134121324Y-74434630D01*
X134163771Y-74525658D01*
X134211577Y-74628178D01*
X134334072Y-74803121D01*
X134485078Y-74954127D01*
X134485081Y-74954129D01*
X134660019Y-75076621D01*
X134660021Y-75076622D01*
X134660020Y-75076622D01*
X134724536Y-75106706D01*
X134853570Y-75166876D01*
X135059853Y-75222149D01*
X135211815Y-75235444D01*
X135272598Y-75240762D01*
X135272600Y-75240762D01*
X135272602Y-75240762D01*
X135325786Y-75236108D01*
X135485347Y-75222149D01*
X135691630Y-75166876D01*
X135885181Y-75076621D01*
X136060119Y-74954129D01*
X136211129Y-74803119D01*
X136333621Y-74628181D01*
X136423876Y-74434630D01*
X136479149Y-74228347D01*
X136497762Y-74015600D01*
X136479149Y-73802853D01*
X136423876Y-73596570D01*
X136333621Y-73403019D01*
X136211129Y-73228081D01*
X136211127Y-73228078D01*
X136060121Y-73077072D01*
X135885178Y-72954577D01*
X135885179Y-72954577D01*
X135756147Y-72894409D01*
X135691630Y-72864324D01*
X135691626Y-72864323D01*
X135691622Y-72864321D01*
X135485352Y-72809052D01*
X135485348Y-72809051D01*
X135485347Y-72809051D01*
X135485346Y-72809050D01*
X135485341Y-72809050D01*
X135272602Y-72790438D01*
X135272598Y-72790438D01*
X135059858Y-72809050D01*
X135059847Y-72809052D01*
X134853577Y-72864321D01*
X134853568Y-72864325D01*
X134660021Y-72954577D01*
X134485078Y-73077072D01*
X134334072Y-73228078D01*
X134211577Y-73403021D01*
X134121325Y-73596568D01*
X134119470Y-73601664D01*
X134117349Y-73600892D01*
X134086006Y-73652310D01*
X134023158Y-73682837D01*
X133953783Y-73674539D01*
X133899907Y-73630052D01*
X133886769Y-73601285D01*
X133885730Y-73601664D01*
X133883879Y-73596583D01*
X133883876Y-73596570D01*
X133793621Y-73403019D01*
X133671129Y-73228081D01*
X133671127Y-73228078D01*
X133520121Y-73077072D01*
X133345178Y-72954577D01*
X133345179Y-72954577D01*
X133216147Y-72894409D01*
X133151630Y-72864324D01*
X133151626Y-72864323D01*
X133151622Y-72864321D01*
X132945352Y-72809052D01*
X132945348Y-72809051D01*
X132945347Y-72809051D01*
X132945346Y-72809050D01*
X132945341Y-72809050D01*
X132732602Y-72790438D01*
X132732598Y-72790438D01*
X132519858Y-72809050D01*
X132519847Y-72809052D01*
X132313577Y-72864321D01*
X132313568Y-72864325D01*
X132120021Y-72954577D01*
X131945078Y-73077072D01*
X131794072Y-73228078D01*
X131671577Y-73403021D01*
X131581325Y-73596568D01*
X131581321Y-73596577D01*
X131526052Y-73802847D01*
X131526050Y-73802858D01*
X131507438Y-74015598D01*
X118593460Y-74015598D01*
X118600033Y-70919962D01*
X118619860Y-70852967D01*
X118627328Y-70842613D01*
X120046266Y-69074999D01*
X134554341Y-69074999D01*
X134554341Y-69075000D01*
X134574936Y-69310403D01*
X134574938Y-69310413D01*
X134636094Y-69538655D01*
X134636096Y-69538659D01*
X134636097Y-69538663D01*
X134660325Y-69590620D01*
X134735965Y-69752830D01*
X134735967Y-69752834D01*
X134803223Y-69848885D01*
X134871505Y-69946401D01*
X135038599Y-70113495D01*
X135135384Y-70181265D01*
X135232165Y-70249032D01*
X135232167Y-70249033D01*
X135232170Y-70249035D01*
X135446337Y-70348903D01*
X135674592Y-70410063D01*
X135851034Y-70425500D01*
X135909999Y-70430659D01*
X135910000Y-70430659D01*
X135910001Y-70430659D01*
X135968966Y-70425500D01*
X136145408Y-70410063D01*
X136373663Y-70348903D01*
X136587830Y-70249035D01*
X136781401Y-70113495D01*
X136948495Y-69946401D01*
X137078425Y-69760842D01*
X137133002Y-69717217D01*
X137202500Y-69710023D01*
X137264855Y-69741546D01*
X137281575Y-69760842D01*
X137411500Y-69946395D01*
X137411505Y-69946401D01*
X137578599Y-70113495D01*
X137675384Y-70181265D01*
X137772165Y-70249032D01*
X137772167Y-70249033D01*
X137772170Y-70249035D01*
X137986337Y-70348903D01*
X138214592Y-70410063D01*
X138391034Y-70425500D01*
X138449999Y-70430659D01*
X138450000Y-70430659D01*
X138450001Y-70430659D01*
X138508966Y-70425500D01*
X138685408Y-70410063D01*
X138913663Y-70348903D01*
X139127830Y-70249035D01*
X139321401Y-70113495D01*
X139488495Y-69946401D01*
X139618425Y-69760842D01*
X139673002Y-69717217D01*
X139742500Y-69710023D01*
X139804855Y-69741546D01*
X139821575Y-69760842D01*
X139951500Y-69946395D01*
X139951505Y-69946401D01*
X140118599Y-70113495D01*
X140215384Y-70181265D01*
X140312165Y-70249032D01*
X140312167Y-70249033D01*
X140312170Y-70249035D01*
X140526337Y-70348903D01*
X140754592Y-70410063D01*
X140931034Y-70425500D01*
X140989999Y-70430659D01*
X140990000Y-70430659D01*
X140990001Y-70430659D01*
X141048966Y-70425500D01*
X141225408Y-70410063D01*
X141453663Y-70348903D01*
X141667830Y-70249035D01*
X141861401Y-70113495D01*
X142028495Y-69946401D01*
X142158425Y-69760842D01*
X142213002Y-69717217D01*
X142282500Y-69710023D01*
X142344855Y-69741546D01*
X142361575Y-69760842D01*
X142491500Y-69946395D01*
X142491505Y-69946401D01*
X142658599Y-70113495D01*
X142755384Y-70181265D01*
X142852165Y-70249032D01*
X142852167Y-70249033D01*
X142852170Y-70249035D01*
X143066337Y-70348903D01*
X143294592Y-70410063D01*
X143471034Y-70425500D01*
X143529999Y-70430659D01*
X143530000Y-70430659D01*
X143530001Y-70430659D01*
X143588966Y-70425500D01*
X143765408Y-70410063D01*
X143993663Y-70348903D01*
X144207830Y-70249035D01*
X144401401Y-70113495D01*
X144568495Y-69946401D01*
X144698425Y-69760842D01*
X144753002Y-69717217D01*
X144822500Y-69710023D01*
X144884855Y-69741546D01*
X144901575Y-69760842D01*
X145031500Y-69946395D01*
X145031505Y-69946401D01*
X145198599Y-70113495D01*
X145295384Y-70181265D01*
X145392165Y-70249032D01*
X145392167Y-70249033D01*
X145392170Y-70249035D01*
X145606337Y-70348903D01*
X145834592Y-70410063D01*
X146011034Y-70425500D01*
X146069999Y-70430659D01*
X146070000Y-70430659D01*
X146070001Y-70430659D01*
X146128966Y-70425500D01*
X146305408Y-70410063D01*
X146533663Y-70348903D01*
X146747830Y-70249035D01*
X146941401Y-70113495D01*
X147108495Y-69946401D01*
X147244035Y-69752830D01*
X147343903Y-69538663D01*
X147405063Y-69310408D01*
X147425659Y-69075000D01*
X147425659Y-69074999D01*
X157414341Y-69074999D01*
X157414341Y-69075000D01*
X157434936Y-69310403D01*
X157434938Y-69310413D01*
X157496094Y-69538655D01*
X157496096Y-69538659D01*
X157496097Y-69538663D01*
X157520325Y-69590620D01*
X157595965Y-69752830D01*
X157595967Y-69752834D01*
X157663223Y-69848885D01*
X157731505Y-69946401D01*
X157898599Y-70113495D01*
X157995384Y-70181265D01*
X158092165Y-70249032D01*
X158092167Y-70249033D01*
X158092170Y-70249035D01*
X158306337Y-70348903D01*
X158534592Y-70410063D01*
X158711034Y-70425500D01*
X158769999Y-70430659D01*
X158770000Y-70430659D01*
X158770001Y-70430659D01*
X158828966Y-70425500D01*
X159005408Y-70410063D01*
X159233663Y-70348903D01*
X159447830Y-70249035D01*
X159641401Y-70113495D01*
X159808495Y-69946401D01*
X159938425Y-69760842D01*
X159993002Y-69717217D01*
X160062500Y-69710023D01*
X160124855Y-69741546D01*
X160141575Y-69760842D01*
X160271500Y-69946395D01*
X160271505Y-69946401D01*
X160438599Y-70113495D01*
X160535384Y-70181265D01*
X160632165Y-70249032D01*
X160632167Y-70249033D01*
X160632170Y-70249035D01*
X160846337Y-70348903D01*
X161074592Y-70410063D01*
X161251034Y-70425500D01*
X161309999Y-70430659D01*
X161310000Y-70430659D01*
X161310001Y-70430659D01*
X161368966Y-70425500D01*
X161545408Y-70410063D01*
X161773663Y-70348903D01*
X161987830Y-70249035D01*
X162181401Y-70113495D01*
X162348495Y-69946401D01*
X162478425Y-69760842D01*
X162533002Y-69717217D01*
X162602500Y-69710023D01*
X162664855Y-69741546D01*
X162681575Y-69760842D01*
X162811500Y-69946395D01*
X162811505Y-69946401D01*
X162978599Y-70113495D01*
X163075384Y-70181265D01*
X163172165Y-70249032D01*
X163172167Y-70249033D01*
X163172170Y-70249035D01*
X163386337Y-70348903D01*
X163614592Y-70410063D01*
X163791034Y-70425500D01*
X163849999Y-70430659D01*
X163850000Y-70430659D01*
X163850001Y-70430659D01*
X163908966Y-70425500D01*
X164085408Y-70410063D01*
X164313663Y-70348903D01*
X164527830Y-70249035D01*
X164721401Y-70113495D01*
X164888495Y-69946401D01*
X165018425Y-69760842D01*
X165073002Y-69717217D01*
X165142500Y-69710023D01*
X165204855Y-69741546D01*
X165221575Y-69760842D01*
X165351500Y-69946395D01*
X165351505Y-69946401D01*
X165518599Y-70113495D01*
X165615384Y-70181265D01*
X165712165Y-70249032D01*
X165712167Y-70249033D01*
X165712170Y-70249035D01*
X165926337Y-70348903D01*
X166154592Y-70410063D01*
X166331034Y-70425500D01*
X166389999Y-70430659D01*
X166390000Y-70430659D01*
X166390001Y-70430659D01*
X166448966Y-70425500D01*
X166625408Y-70410063D01*
X166853663Y-70348903D01*
X167067830Y-70249035D01*
X167261401Y-70113495D01*
X167428495Y-69946401D01*
X167558425Y-69760842D01*
X167613002Y-69717217D01*
X167682500Y-69710023D01*
X167744855Y-69741546D01*
X167761575Y-69760842D01*
X167891500Y-69946395D01*
X167891505Y-69946401D01*
X168058599Y-70113495D01*
X168155384Y-70181265D01*
X168252165Y-70249032D01*
X168252167Y-70249033D01*
X168252170Y-70249035D01*
X168466337Y-70348903D01*
X168694592Y-70410063D01*
X168871034Y-70425500D01*
X168929999Y-70430659D01*
X168930000Y-70430659D01*
X168930001Y-70430659D01*
X168988966Y-70425500D01*
X169165408Y-70410063D01*
X169393663Y-70348903D01*
X169607830Y-70249035D01*
X169801401Y-70113495D01*
X169923329Y-69991566D01*
X169984648Y-69958084D01*
X170054340Y-69963068D01*
X170110274Y-70004939D01*
X170127189Y-70035917D01*
X170176202Y-70167328D01*
X170176206Y-70167335D01*
X170262452Y-70282544D01*
X170262455Y-70282547D01*
X170377664Y-70368793D01*
X170377671Y-70368797D01*
X170512517Y-70419091D01*
X170512516Y-70419091D01*
X170519444Y-70419835D01*
X170572127Y-70425500D01*
X172367872Y-70425499D01*
X172427483Y-70419091D01*
X172562331Y-70368796D01*
X172677546Y-70282546D01*
X172763796Y-70167331D01*
X172814091Y-70032483D01*
X172820500Y-69972873D01*
X172820499Y-68177128D01*
X172814091Y-68117517D01*
X172812810Y-68114083D01*
X172763797Y-67982671D01*
X172763793Y-67982664D01*
X172677547Y-67867455D01*
X172677544Y-67867452D01*
X172562335Y-67781206D01*
X172562328Y-67781202D01*
X172427482Y-67730908D01*
X172427483Y-67730908D01*
X172367883Y-67724501D01*
X172367881Y-67724500D01*
X172367873Y-67724500D01*
X172367864Y-67724500D01*
X170572129Y-67724500D01*
X170572123Y-67724501D01*
X170512516Y-67730908D01*
X170377671Y-67781202D01*
X170377664Y-67781206D01*
X170262455Y-67867452D01*
X170262452Y-67867455D01*
X170176206Y-67982664D01*
X170176203Y-67982669D01*
X170127189Y-68114083D01*
X170085317Y-68170016D01*
X170019853Y-68194433D01*
X169951580Y-68179581D01*
X169923326Y-68158430D01*
X169801402Y-68036506D01*
X169801395Y-68036501D01*
X169607834Y-67900967D01*
X169607830Y-67900965D01*
X169607828Y-67900964D01*
X169393663Y-67801097D01*
X169393659Y-67801096D01*
X169393655Y-67801094D01*
X169165413Y-67739938D01*
X169165403Y-67739936D01*
X168930001Y-67719341D01*
X168929999Y-67719341D01*
X168694596Y-67739936D01*
X168694586Y-67739938D01*
X168466344Y-67801094D01*
X168466335Y-67801098D01*
X168252171Y-67900964D01*
X168252169Y-67900965D01*
X168058597Y-68036505D01*
X167891505Y-68203597D01*
X167761575Y-68389158D01*
X167706998Y-68432783D01*
X167637500Y-68439977D01*
X167575145Y-68408454D01*
X167558425Y-68389158D01*
X167428494Y-68203597D01*
X167261402Y-68036506D01*
X167261395Y-68036501D01*
X167067834Y-67900967D01*
X167067830Y-67900965D01*
X167067828Y-67900964D01*
X166853663Y-67801097D01*
X166853659Y-67801096D01*
X166853655Y-67801094D01*
X166625413Y-67739938D01*
X166625403Y-67739936D01*
X166390001Y-67719341D01*
X166389999Y-67719341D01*
X166154596Y-67739936D01*
X166154586Y-67739938D01*
X165926344Y-67801094D01*
X165926335Y-67801098D01*
X165712171Y-67900964D01*
X165712169Y-67900965D01*
X165518597Y-68036505D01*
X165351505Y-68203597D01*
X165221575Y-68389158D01*
X165166998Y-68432783D01*
X165097500Y-68439977D01*
X165035145Y-68408454D01*
X165018425Y-68389158D01*
X164888494Y-68203597D01*
X164721402Y-68036506D01*
X164721395Y-68036501D01*
X164527834Y-67900967D01*
X164527830Y-67900965D01*
X164527828Y-67900964D01*
X164313663Y-67801097D01*
X164313659Y-67801096D01*
X164313655Y-67801094D01*
X164085413Y-67739938D01*
X164085403Y-67739936D01*
X163850001Y-67719341D01*
X163849999Y-67719341D01*
X163614596Y-67739936D01*
X163614586Y-67739938D01*
X163386344Y-67801094D01*
X163386335Y-67801098D01*
X163172171Y-67900964D01*
X163172169Y-67900965D01*
X162978597Y-68036505D01*
X162811505Y-68203597D01*
X162681575Y-68389158D01*
X162626998Y-68432783D01*
X162557500Y-68439977D01*
X162495145Y-68408454D01*
X162478425Y-68389158D01*
X162348494Y-68203597D01*
X162181402Y-68036506D01*
X162181395Y-68036501D01*
X161987834Y-67900967D01*
X161987830Y-67900965D01*
X161987828Y-67900964D01*
X161773663Y-67801097D01*
X161773659Y-67801096D01*
X161773655Y-67801094D01*
X161545413Y-67739938D01*
X161545403Y-67739936D01*
X161310001Y-67719341D01*
X161309999Y-67719341D01*
X161074596Y-67739936D01*
X161074586Y-67739938D01*
X160846344Y-67801094D01*
X160846335Y-67801098D01*
X160632171Y-67900964D01*
X160632169Y-67900965D01*
X160438597Y-68036505D01*
X160271505Y-68203597D01*
X160141575Y-68389158D01*
X160086998Y-68432783D01*
X160017500Y-68439977D01*
X159955145Y-68408454D01*
X159938425Y-68389158D01*
X159808494Y-68203597D01*
X159641402Y-68036506D01*
X159641395Y-68036501D01*
X159447834Y-67900967D01*
X159447830Y-67900965D01*
X159447828Y-67900964D01*
X159233663Y-67801097D01*
X159233659Y-67801096D01*
X159233655Y-67801094D01*
X159005413Y-67739938D01*
X159005403Y-67739936D01*
X158770001Y-67719341D01*
X158769999Y-67719341D01*
X158534596Y-67739936D01*
X158534586Y-67739938D01*
X158306344Y-67801094D01*
X158306335Y-67801098D01*
X158092171Y-67900964D01*
X158092169Y-67900965D01*
X157898597Y-68036505D01*
X157731505Y-68203597D01*
X157595965Y-68397169D01*
X157595964Y-68397171D01*
X157496098Y-68611335D01*
X157496094Y-68611344D01*
X157434938Y-68839586D01*
X157434936Y-68839596D01*
X157414341Y-69074999D01*
X147425659Y-69074999D01*
X147405063Y-68839592D01*
X147343903Y-68611337D01*
X147244035Y-68397171D01*
X147238425Y-68389158D01*
X147108494Y-68203597D01*
X146941402Y-68036506D01*
X146941395Y-68036501D01*
X146747834Y-67900967D01*
X146747830Y-67900965D01*
X146747828Y-67900964D01*
X146533663Y-67801097D01*
X146533659Y-67801096D01*
X146533655Y-67801094D01*
X146305413Y-67739938D01*
X146305403Y-67739936D01*
X146070001Y-67719341D01*
X146069999Y-67719341D01*
X145834596Y-67739936D01*
X145834586Y-67739938D01*
X145606344Y-67801094D01*
X145606335Y-67801098D01*
X145392171Y-67900964D01*
X145392169Y-67900965D01*
X145198597Y-68036505D01*
X145031505Y-68203597D01*
X144901575Y-68389158D01*
X144846998Y-68432783D01*
X144777500Y-68439977D01*
X144715145Y-68408454D01*
X144698425Y-68389158D01*
X144568494Y-68203597D01*
X144401402Y-68036506D01*
X144401395Y-68036501D01*
X144207834Y-67900967D01*
X144207830Y-67900965D01*
X144207828Y-67900964D01*
X143993663Y-67801097D01*
X143993659Y-67801096D01*
X143993655Y-67801094D01*
X143765413Y-67739938D01*
X143765403Y-67739936D01*
X143530001Y-67719341D01*
X143529999Y-67719341D01*
X143294596Y-67739936D01*
X143294586Y-67739938D01*
X143066344Y-67801094D01*
X143066335Y-67801098D01*
X142852171Y-67900964D01*
X142852169Y-67900965D01*
X142658597Y-68036505D01*
X142491505Y-68203597D01*
X142361575Y-68389158D01*
X142306998Y-68432783D01*
X142237500Y-68439977D01*
X142175145Y-68408454D01*
X142158425Y-68389158D01*
X142028494Y-68203597D01*
X141861402Y-68036506D01*
X141861395Y-68036501D01*
X141667834Y-67900967D01*
X141667830Y-67900965D01*
X141667828Y-67900964D01*
X141453663Y-67801097D01*
X141453659Y-67801096D01*
X141453655Y-67801094D01*
X141225413Y-67739938D01*
X141225403Y-67739936D01*
X140990001Y-67719341D01*
X140989999Y-67719341D01*
X140754596Y-67739936D01*
X140754586Y-67739938D01*
X140526344Y-67801094D01*
X140526335Y-67801098D01*
X140312171Y-67900964D01*
X140312169Y-67900965D01*
X140118597Y-68036505D01*
X139951505Y-68203597D01*
X139821575Y-68389158D01*
X139766998Y-68432783D01*
X139697500Y-68439977D01*
X139635145Y-68408454D01*
X139618425Y-68389158D01*
X139488494Y-68203597D01*
X139321402Y-68036506D01*
X139321395Y-68036501D01*
X139127834Y-67900967D01*
X139127830Y-67900965D01*
X139127828Y-67900964D01*
X138913663Y-67801097D01*
X138913659Y-67801096D01*
X138913655Y-67801094D01*
X138685413Y-67739938D01*
X138685403Y-67739936D01*
X138450001Y-67719341D01*
X138449999Y-67719341D01*
X138214596Y-67739936D01*
X138214586Y-67739938D01*
X137986344Y-67801094D01*
X137986335Y-67801098D01*
X137772171Y-67900964D01*
X137772169Y-67900965D01*
X137578597Y-68036505D01*
X137411505Y-68203597D01*
X137281575Y-68389158D01*
X137226998Y-68432783D01*
X137157500Y-68439977D01*
X137095145Y-68408454D01*
X137078425Y-68389158D01*
X136948494Y-68203597D01*
X136781402Y-68036506D01*
X136781395Y-68036501D01*
X136587834Y-67900967D01*
X136587830Y-67900965D01*
X136587828Y-67900964D01*
X136373663Y-67801097D01*
X136373659Y-67801096D01*
X136373655Y-67801094D01*
X136145413Y-67739938D01*
X136145403Y-67739936D01*
X135910001Y-67719341D01*
X135909999Y-67719341D01*
X135674596Y-67739936D01*
X135674586Y-67739938D01*
X135446344Y-67801094D01*
X135446335Y-67801098D01*
X135232171Y-67900964D01*
X135232169Y-67900965D01*
X135038597Y-68036505D01*
X134871505Y-68203597D01*
X134735965Y-68397169D01*
X134735964Y-68397171D01*
X134636098Y-68611335D01*
X134636094Y-68611344D01*
X134574938Y-68839586D01*
X134574936Y-68839596D01*
X134554341Y-69074999D01*
X120046266Y-69074999D01*
X122009042Y-66629911D01*
X123981100Y-66629911D01*
X123981100Y-66872488D01*
X124012761Y-67112985D01*
X124075547Y-67347304D01*
X124150979Y-67529412D01*
X124168376Y-67571412D01*
X124289664Y-67781489D01*
X124289666Y-67781492D01*
X124289667Y-67781493D01*
X124437333Y-67973936D01*
X124437339Y-67973943D01*
X124608856Y-68145460D01*
X124608863Y-68145466D01*
X124650125Y-68177127D01*
X124801311Y-68293136D01*
X125011388Y-68414424D01*
X125235500Y-68507254D01*
X125469811Y-68570038D01*
X125650186Y-68593784D01*
X125710311Y-68601700D01*
X125710312Y-68601700D01*
X125952889Y-68601700D01*
X126000988Y-68595367D01*
X126193389Y-68570038D01*
X126427700Y-68507254D01*
X126651812Y-68414424D01*
X126861889Y-68293136D01*
X127054338Y-68145465D01*
X127225865Y-67973938D01*
X127373536Y-67781489D01*
X127494824Y-67571412D01*
X127587654Y-67347300D01*
X127650438Y-67112989D01*
X127682100Y-66872488D01*
X127682100Y-66629912D01*
X127658692Y-66452111D01*
X175212900Y-66452111D01*
X175212900Y-66694688D01*
X175244561Y-66935185D01*
X175307347Y-67169504D01*
X175400173Y-67393605D01*
X175400176Y-67393612D01*
X175521464Y-67603689D01*
X175521466Y-67603692D01*
X175521467Y-67603693D01*
X175669133Y-67796136D01*
X175669139Y-67796143D01*
X175840656Y-67967660D01*
X175840663Y-67967666D01*
X175953721Y-68054418D01*
X176033111Y-68115336D01*
X176243188Y-68236624D01*
X176467300Y-68329454D01*
X176701611Y-68392238D01*
X176870149Y-68414426D01*
X176942111Y-68423900D01*
X176942112Y-68423900D01*
X177184689Y-68423900D01*
X177256651Y-68414426D01*
X177425189Y-68392238D01*
X177659500Y-68329454D01*
X177883612Y-68236624D01*
X178093689Y-68115336D01*
X178286138Y-67967665D01*
X178457665Y-67796138D01*
X178605336Y-67603689D01*
X178726624Y-67393612D01*
X178819454Y-67169500D01*
X178882238Y-66935189D01*
X178913900Y-66694688D01*
X178913900Y-66452112D01*
X178882238Y-66211611D01*
X178819454Y-65977300D01*
X178726624Y-65753188D01*
X178605336Y-65543111D01*
X178462482Y-65356939D01*
X178457666Y-65350663D01*
X178457660Y-65350656D01*
X178286143Y-65179139D01*
X178286136Y-65179133D01*
X178093693Y-65031467D01*
X178093692Y-65031466D01*
X178093689Y-65031464D01*
X177883612Y-64910176D01*
X177860735Y-64900700D01*
X177659504Y-64817347D01*
X177425185Y-64754561D01*
X177184689Y-64722900D01*
X177184688Y-64722900D01*
X176942112Y-64722900D01*
X176942111Y-64722900D01*
X176701614Y-64754561D01*
X176467295Y-64817347D01*
X176243194Y-64910173D01*
X176243185Y-64910177D01*
X176033106Y-65031467D01*
X175840663Y-65179133D01*
X175840656Y-65179139D01*
X175669139Y-65350656D01*
X175669133Y-65350663D01*
X175521467Y-65543106D01*
X175400177Y-65753185D01*
X175400173Y-65753194D01*
X175307347Y-65977295D01*
X175244561Y-66211614D01*
X175212900Y-66452111D01*
X127658692Y-66452111D01*
X127650438Y-66389411D01*
X127587654Y-66155100D01*
X127494824Y-65930988D01*
X127373536Y-65720911D01*
X127225865Y-65528462D01*
X127225860Y-65528456D01*
X127054343Y-65356939D01*
X127054336Y-65356933D01*
X126861893Y-65209267D01*
X126861892Y-65209266D01*
X126861889Y-65209264D01*
X126651812Y-65087976D01*
X126651805Y-65087973D01*
X126427704Y-64995147D01*
X126193385Y-64932361D01*
X125952889Y-64900700D01*
X125952888Y-64900700D01*
X125710312Y-64900700D01*
X125710311Y-64900700D01*
X125469814Y-64932361D01*
X125235495Y-64995147D01*
X125011394Y-65087973D01*
X125011385Y-65087977D01*
X124801306Y-65209267D01*
X124608863Y-65356933D01*
X124608856Y-65356939D01*
X124437339Y-65528456D01*
X124437333Y-65528463D01*
X124289667Y-65720906D01*
X124168377Y-65930985D01*
X124168373Y-65930994D01*
X124075547Y-66155095D01*
X124012761Y-66389414D01*
X123981100Y-66629911D01*
X122009042Y-66629911D01*
X123716158Y-64503305D01*
X123729575Y-64489059D01*
X123929190Y-64308141D01*
X123938576Y-64300437D01*
X124173134Y-64126477D01*
X124183227Y-64119734D01*
X124433687Y-63969613D01*
X124444395Y-63963889D01*
X124708388Y-63839030D01*
X124719585Y-63834391D01*
X124994543Y-63736010D01*
X125006158Y-63732487D01*
X125289422Y-63661533D01*
X125301333Y-63659164D01*
X125590169Y-63616319D01*
X125602273Y-63615127D01*
X125897001Y-63600648D01*
X125903058Y-63600500D01*
X131365890Y-63600500D01*
X131365892Y-63600500D01*
X131493186Y-63566392D01*
X131607314Y-63500500D01*
X131700500Y-63407314D01*
X131766392Y-63293186D01*
X131800500Y-63165892D01*
X131800500Y-58841300D01*
X131820185Y-58774261D01*
X131872989Y-58728506D01*
X131924500Y-58717300D01*
X175642889Y-58717300D01*
X175709928Y-58736985D01*
G37*
G04 #@! TD.AperFunction*
G04 #@! TA.AperFunction,Conductor*
G36*
X175167325Y-82179185D02*
G01*
X175213080Y-82231989D01*
X175223024Y-82301147D01*
X175193999Y-82364703D01*
X175187967Y-82371181D01*
X175161716Y-82397431D01*
X175161716Y-82397432D01*
X175161714Y-82397434D01*
X175143307Y-82422769D01*
X175027283Y-82582461D01*
X174923450Y-82786244D01*
X174852778Y-83003750D01*
X174852778Y-83003753D01*
X174852778Y-83003755D01*
X174817000Y-83229646D01*
X174817000Y-85458354D01*
X174834889Y-85571299D01*
X174852778Y-85684246D01*
X174852778Y-85684249D01*
X174923450Y-85901755D01*
X174923452Y-85901758D01*
X175027283Y-86105538D01*
X175161714Y-86290566D01*
X175323434Y-86452286D01*
X175508462Y-86586717D01*
X175694394Y-86681454D01*
X175712244Y-86690549D01*
X175929751Y-86761221D01*
X175929752Y-86761221D01*
X175929755Y-86761222D01*
X176155646Y-86797000D01*
X176155647Y-86797000D01*
X176384353Y-86797000D01*
X176384354Y-86797000D01*
X176561318Y-86768971D01*
X176630610Y-86777925D01*
X176668396Y-86803763D01*
X176885681Y-87021048D01*
X176919166Y-87082371D01*
X176922000Y-87108729D01*
X176922000Y-99097401D01*
X176902315Y-99164440D01*
X176849511Y-99210195D01*
X176780353Y-99220139D01*
X176759682Y-99215332D01*
X176610248Y-99166778D01*
X176440826Y-99139944D01*
X176384354Y-99131000D01*
X176155646Y-99131000D01*
X176080349Y-99142926D01*
X175929753Y-99166778D01*
X175929750Y-99166778D01*
X175712244Y-99237450D01*
X175508461Y-99341283D01*
X175402896Y-99417980D01*
X175323434Y-99475714D01*
X175323432Y-99475716D01*
X175323431Y-99475716D01*
X175161715Y-99637432D01*
X175100318Y-99721938D01*
X175044987Y-99764603D01*
X174975374Y-99770582D01*
X174913579Y-99737976D01*
X174899682Y-99721938D01*
X174888773Y-99706923D01*
X174838286Y-99637434D01*
X174676566Y-99475714D01*
X174491538Y-99341283D01*
X174381999Y-99285470D01*
X174287755Y-99237450D01*
X174070248Y-99166778D01*
X173900826Y-99139944D01*
X173844354Y-99131000D01*
X173615646Y-99131000D01*
X173540349Y-99142926D01*
X173389753Y-99166778D01*
X173389750Y-99166778D01*
X173172244Y-99237450D01*
X172968461Y-99341283D01*
X172862896Y-99417980D01*
X172783434Y-99475714D01*
X172783432Y-99475716D01*
X172783431Y-99475716D01*
X172621715Y-99637432D01*
X172560318Y-99721938D01*
X172504987Y-99764603D01*
X172435374Y-99770582D01*
X172373579Y-99737976D01*
X172359682Y-99721938D01*
X172348773Y-99706923D01*
X172298286Y-99637434D01*
X172136566Y-99475714D01*
X171951538Y-99341283D01*
X171841999Y-99285470D01*
X171747755Y-99237450D01*
X171530248Y-99166778D01*
X171360826Y-99139944D01*
X171304354Y-99131000D01*
X171075646Y-99131000D01*
X171000349Y-99142926D01*
X170849753Y-99166778D01*
X170849750Y-99166778D01*
X170632244Y-99237450D01*
X170428461Y-99341283D01*
X170322896Y-99417980D01*
X170243434Y-99475714D01*
X170243432Y-99475716D01*
X170243431Y-99475716D01*
X170081715Y-99637432D01*
X170020318Y-99721938D01*
X169964987Y-99764603D01*
X169895374Y-99770582D01*
X169833579Y-99737976D01*
X169819682Y-99721938D01*
X169808773Y-99706923D01*
X169758286Y-99637434D01*
X169596566Y-99475714D01*
X169411538Y-99341283D01*
X169301999Y-99285470D01*
X169207755Y-99237450D01*
X168990248Y-99166778D01*
X168820826Y-99139944D01*
X168764354Y-99131000D01*
X168535646Y-99131000D01*
X168460349Y-99142926D01*
X168309753Y-99166778D01*
X168309750Y-99166778D01*
X168092244Y-99237450D01*
X167888461Y-99341283D01*
X167782896Y-99417980D01*
X167703434Y-99475714D01*
X167703432Y-99475716D01*
X167703431Y-99475716D01*
X167541715Y-99637432D01*
X167480318Y-99721938D01*
X167424987Y-99764603D01*
X167355374Y-99770582D01*
X167293579Y-99737976D01*
X167279682Y-99721938D01*
X167268773Y-99706923D01*
X167218286Y-99637434D01*
X167056566Y-99475714D01*
X166871538Y-99341283D01*
X166761999Y-99285470D01*
X166667755Y-99237450D01*
X166450248Y-99166778D01*
X166280826Y-99139944D01*
X166224354Y-99131000D01*
X165995646Y-99131000D01*
X165920349Y-99142926D01*
X165769753Y-99166778D01*
X165769750Y-99166778D01*
X165552244Y-99237450D01*
X165348461Y-99341283D01*
X165242896Y-99417980D01*
X165163434Y-99475714D01*
X165163432Y-99475716D01*
X165163431Y-99475716D01*
X165001715Y-99637432D01*
X164940318Y-99721938D01*
X164884987Y-99764603D01*
X164815374Y-99770582D01*
X164753579Y-99737976D01*
X164739682Y-99721938D01*
X164728773Y-99706923D01*
X164678286Y-99637434D01*
X164516566Y-99475714D01*
X164331538Y-99341283D01*
X164221999Y-99285470D01*
X164127755Y-99237450D01*
X163910248Y-99166778D01*
X163740826Y-99139944D01*
X163684354Y-99131000D01*
X163455646Y-99131000D01*
X163380349Y-99142926D01*
X163229753Y-99166778D01*
X163229750Y-99166778D01*
X163012244Y-99237450D01*
X162808461Y-99341283D01*
X162702896Y-99417980D01*
X162623434Y-99475714D01*
X162623432Y-99475716D01*
X162623431Y-99475716D01*
X162461715Y-99637432D01*
X162400318Y-99721938D01*
X162344987Y-99764603D01*
X162275374Y-99770582D01*
X162213579Y-99737976D01*
X162199682Y-99721938D01*
X162188773Y-99706923D01*
X162138286Y-99637434D01*
X161976566Y-99475714D01*
X161791538Y-99341283D01*
X161681999Y-99285470D01*
X161587755Y-99237450D01*
X161370248Y-99166778D01*
X161200826Y-99139944D01*
X161144354Y-99131000D01*
X160915646Y-99131000D01*
X160840349Y-99142926D01*
X160689753Y-99166778D01*
X160689750Y-99166778D01*
X160472244Y-99237450D01*
X160268461Y-99341283D01*
X160162896Y-99417980D01*
X160083434Y-99475714D01*
X160083432Y-99475716D01*
X160083431Y-99475716D01*
X159921715Y-99637432D01*
X159860318Y-99721938D01*
X159804987Y-99764603D01*
X159735374Y-99770582D01*
X159673579Y-99737976D01*
X159659682Y-99721938D01*
X159648773Y-99706923D01*
X159598286Y-99637434D01*
X159436566Y-99475714D01*
X159251538Y-99341283D01*
X159141999Y-99285470D01*
X159047755Y-99237450D01*
X158830247Y-99166778D01*
X158600602Y-99130405D01*
X158537467Y-99100476D01*
X158500536Y-99041164D01*
X158496000Y-99007932D01*
X158496000Y-86920067D01*
X158515685Y-86853028D01*
X158568489Y-86807273D01*
X158600602Y-86797594D01*
X158604352Y-86797000D01*
X158604354Y-86797000D01*
X158830245Y-86761222D01*
X158830248Y-86761221D01*
X158830249Y-86761221D01*
X159047755Y-86690549D01*
X159047755Y-86690548D01*
X159047758Y-86690548D01*
X159251538Y-86586717D01*
X159436566Y-86452286D01*
X159598286Y-86290566D01*
X159659683Y-86206059D01*
X159715012Y-86163396D01*
X159784625Y-86157417D01*
X159846420Y-86190023D01*
X159860314Y-86206056D01*
X159921714Y-86290566D01*
X160083434Y-86452286D01*
X160268462Y-86586717D01*
X160454394Y-86681454D01*
X160472244Y-86690549D01*
X160689751Y-86761221D01*
X160689752Y-86761221D01*
X160689755Y-86761222D01*
X160915646Y-86797000D01*
X160915647Y-86797000D01*
X161144353Y-86797000D01*
X161144354Y-86797000D01*
X161370245Y-86761222D01*
X161370248Y-86761221D01*
X161370249Y-86761221D01*
X161587755Y-86690549D01*
X161587755Y-86690548D01*
X161587758Y-86690548D01*
X161791538Y-86586717D01*
X161976566Y-86452286D01*
X162138286Y-86290566D01*
X162199683Y-86206059D01*
X162255012Y-86163396D01*
X162324625Y-86157417D01*
X162386420Y-86190023D01*
X162400314Y-86206056D01*
X162461714Y-86290566D01*
X162623434Y-86452286D01*
X162808462Y-86586717D01*
X162994394Y-86681454D01*
X163012244Y-86690549D01*
X163229751Y-86761221D01*
X163229752Y-86761221D01*
X163229755Y-86761222D01*
X163455646Y-86797000D01*
X163455647Y-86797000D01*
X163684353Y-86797000D01*
X163684354Y-86797000D01*
X163910245Y-86761222D01*
X163910248Y-86761221D01*
X163910249Y-86761221D01*
X164127755Y-86690549D01*
X164127755Y-86690548D01*
X164127758Y-86690548D01*
X164331538Y-86586717D01*
X164516566Y-86452286D01*
X164678286Y-86290566D01*
X164739683Y-86206059D01*
X164795012Y-86163396D01*
X164864625Y-86157417D01*
X164926420Y-86190023D01*
X164940314Y-86206056D01*
X165001714Y-86290566D01*
X165163434Y-86452286D01*
X165348462Y-86586717D01*
X165534394Y-86681454D01*
X165552244Y-86690549D01*
X165769751Y-86761221D01*
X165769752Y-86761221D01*
X165769755Y-86761222D01*
X165995646Y-86797000D01*
X165995647Y-86797000D01*
X166224353Y-86797000D01*
X166224354Y-86797000D01*
X166450245Y-86761222D01*
X166450248Y-86761221D01*
X166450249Y-86761221D01*
X166667755Y-86690549D01*
X166667755Y-86690548D01*
X166667758Y-86690548D01*
X166871538Y-86586717D01*
X167056566Y-86452286D01*
X167218286Y-86290566D01*
X167279683Y-86206059D01*
X167335012Y-86163396D01*
X167404625Y-86157417D01*
X167466420Y-86190023D01*
X167480314Y-86206056D01*
X167541714Y-86290566D01*
X167703434Y-86452286D01*
X167888462Y-86586717D01*
X168074394Y-86681454D01*
X168092244Y-86690549D01*
X168309751Y-86761221D01*
X168309752Y-86761221D01*
X168309755Y-86761222D01*
X168535646Y-86797000D01*
X168535647Y-86797000D01*
X168764353Y-86797000D01*
X168764354Y-86797000D01*
X168990245Y-86761222D01*
X168990248Y-86761221D01*
X168990249Y-86761221D01*
X169207755Y-86690549D01*
X169207755Y-86690548D01*
X169207758Y-86690548D01*
X169411538Y-86586717D01*
X169596566Y-86452286D01*
X169758286Y-86290566D01*
X169819683Y-86206059D01*
X169875012Y-86163396D01*
X169944625Y-86157417D01*
X170006420Y-86190023D01*
X170020314Y-86206056D01*
X170081714Y-86290566D01*
X170243434Y-86452286D01*
X170428462Y-86586717D01*
X170614394Y-86681454D01*
X170632244Y-86690549D01*
X170849751Y-86761221D01*
X170849752Y-86761221D01*
X170849755Y-86761222D01*
X171075646Y-86797000D01*
X171075647Y-86797000D01*
X171304353Y-86797000D01*
X171304354Y-86797000D01*
X171530245Y-86761222D01*
X171530248Y-86761221D01*
X171530249Y-86761221D01*
X171747755Y-86690549D01*
X171747755Y-86690548D01*
X171747758Y-86690548D01*
X171951538Y-86586717D01*
X172136566Y-86452286D01*
X172298286Y-86290566D01*
X172432717Y-86105538D01*
X172536548Y-85901758D01*
X172536549Y-85901755D01*
X172607221Y-85684249D01*
X172607221Y-85684248D01*
X172607222Y-85684245D01*
X172643000Y-85458354D01*
X172643000Y-83229646D01*
X172607222Y-83003755D01*
X172607221Y-83003751D01*
X172607221Y-83003750D01*
X172536548Y-82786242D01*
X172506700Y-82727662D01*
X172493803Y-82658993D01*
X172520079Y-82594252D01*
X172529484Y-82583704D01*
X172917373Y-82195816D01*
X172978695Y-82162334D01*
X173005053Y-82159500D01*
X175100286Y-82159500D01*
X175167325Y-82179185D01*
G37*
G04 #@! TD.AperFunction*
G04 #@! TA.AperFunction,Conductor*
G36*
X163717174Y-80597102D02*
G01*
X163717805Y-80595580D01*
X163723434Y-80597911D01*
X163723435Y-80597912D01*
X163764956Y-80615110D01*
X163764957Y-80615111D01*
X163764958Y-80615111D01*
X163837268Y-80645063D01*
X163857317Y-80649051D01*
X163890916Y-80655734D01*
X163958112Y-80669101D01*
X163958114Y-80669101D01*
X164087441Y-80669101D01*
X164087461Y-80669100D01*
X166666910Y-80669100D01*
X166691101Y-80671483D01*
X166765590Y-80686299D01*
X166765592Y-80686300D01*
X166765593Y-80686300D01*
X166765594Y-80686300D01*
X166863006Y-80686300D01*
X166930045Y-80705985D01*
X166950687Y-80722619D01*
X168059850Y-81831782D01*
X168093335Y-81893105D01*
X168088351Y-81962797D01*
X168046479Y-82018730D01*
X168028464Y-82029948D01*
X167888461Y-82101283D01*
X167783049Y-82177870D01*
X167703434Y-82235714D01*
X167703432Y-82235716D01*
X167703431Y-82235716D01*
X167541715Y-82397432D01*
X167480318Y-82481938D01*
X167424987Y-82524603D01*
X167355374Y-82530582D01*
X167293579Y-82497976D01*
X167279682Y-82481938D01*
X167236693Y-82422769D01*
X167218286Y-82397434D01*
X167056566Y-82235714D01*
X166871538Y-82101283D01*
X166830720Y-82080485D01*
X166667755Y-81997450D01*
X166450248Y-81926778D01*
X166268379Y-81897973D01*
X166224354Y-81891000D01*
X165995646Y-81891000D01*
X165951621Y-81897973D01*
X165769753Y-81926778D01*
X165769750Y-81926778D01*
X165552244Y-81997450D01*
X165348461Y-82101283D01*
X165243049Y-82177870D01*
X165163434Y-82235714D01*
X165163432Y-82235716D01*
X165163431Y-82235716D01*
X165001715Y-82397432D01*
X164940318Y-82481938D01*
X164884987Y-82524603D01*
X164815374Y-82530582D01*
X164753579Y-82497976D01*
X164739682Y-82481938D01*
X164696693Y-82422769D01*
X164678286Y-82397434D01*
X164516566Y-82235714D01*
X164331538Y-82101283D01*
X164290720Y-82080485D01*
X164127755Y-81997450D01*
X163910248Y-81926778D01*
X163728379Y-81897973D01*
X163684354Y-81891000D01*
X163455646Y-81891000D01*
X163411621Y-81897973D01*
X163229753Y-81926778D01*
X163229750Y-81926778D01*
X163012244Y-81997450D01*
X162808457Y-82101285D01*
X162703047Y-82177870D01*
X162637240Y-82201350D01*
X162569187Y-82185524D01*
X162542481Y-82165233D01*
X161173629Y-80796381D01*
X161140144Y-80735058D01*
X161145128Y-80665366D01*
X161187000Y-80609433D01*
X161252464Y-80585016D01*
X161261310Y-80584700D01*
X163667657Y-80584700D01*
X163717174Y-80597102D01*
G37*
G04 #@! TD.AperFunction*
M02*
