G04 #@! TF.GenerationSoftware,KiCad,Pcbnew,8.0.8+1*
G04 #@! TF.ProjectId,airsoft_bomb_v2,61697273-6f66-4745-9f62-6f6d625f7632,rev?*
G04 #@! TF.SameCoordinates,Original*
G04 #@! TF.FileFunction,Paste,Bot*
G04 #@! TF.FilePolarity,Positive*
%FSLAX46Y46*%
G04 Gerber Fmt 4.6, Leading zero omitted, Abs format (unit mm)*
%MOMM*%
%LPD*%
G01*
G04 APERTURE LIST*
G04 #@! TA.AperFunction,Profile*
%ADD10C,0.200000*%
G04 #@! TD*
%ADD11R,1.200000X1.200000*%
%ADD12R,1.500000X1.600000*%
G04 APERTURE END LIST*
D10*
X178890534Y-60866736D02*
X175878500Y-58216800D01*
X116027200Y-134823200D02*
X111607600Y-131216400D01*
X131300000Y-58216800D02*
X131300000Y-63100000D01*
X178890534Y-60866736D02*
G75*
G02*
X178943000Y-72262999I-1827134J-5706664D01*
G01*
X111607601Y-98145600D02*
G75*
G02*
X112827677Y-95200077I4165599J0D01*
G01*
X175878500Y-58216800D02*
X131300000Y-58216800D01*
X118059200Y-89916000D02*
X118100000Y-70700000D01*
X116027200Y-134823200D02*
X178943000Y-134874000D01*
X178943000Y-134874000D02*
X178943000Y-72263000D01*
X123354416Y-64154416D02*
G75*
G02*
X125900000Y-63100001I2545584J-2545584D01*
G01*
X112827676Y-95200076D02*
X118059200Y-89916000D01*
X123354416Y-64154416D02*
X118100000Y-70700000D01*
X131300000Y-63100000D02*
X125900000Y-63100000D01*
X111607600Y-131216400D02*
X111607600Y-98145600D01*
G36*
G01*
X144289200Y-80844500D02*
X143989200Y-80844500D01*
G75*
G02*
X143839200Y-80694500I0J150000D01*
G01*
X143839200Y-79519500D01*
G75*
G02*
X143989200Y-79369500I150000J0D01*
G01*
X144289200Y-79369500D01*
G75*
G02*
X144439200Y-79519500I0J-150000D01*
G01*
X144439200Y-80694500D01*
G75*
G02*
X144289200Y-80844500I-150000J0D01*
G01*
G37*
G36*
G01*
X142389200Y-80844500D02*
X142089200Y-80844500D01*
G75*
G02*
X141939200Y-80694500I0J150000D01*
G01*
X141939200Y-79519500D01*
G75*
G02*
X142089200Y-79369500I150000J0D01*
G01*
X142389200Y-79369500D01*
G75*
G02*
X142539200Y-79519500I0J-150000D01*
G01*
X142539200Y-80694500D01*
G75*
G02*
X142389200Y-80844500I-150000J0D01*
G01*
G37*
G36*
G01*
X143339200Y-78969500D02*
X143039200Y-78969500D01*
G75*
G02*
X142889200Y-78819500I0J150000D01*
G01*
X142889200Y-77644500D01*
G75*
G02*
X143039200Y-77494500I150000J0D01*
G01*
X143339200Y-77494500D01*
G75*
G02*
X143489200Y-77644500I0J-150000D01*
G01*
X143489200Y-78819500D01*
G75*
G02*
X143339200Y-78969500I-150000J0D01*
G01*
G37*
G36*
G01*
X129903800Y-97352200D02*
X129903800Y-96602200D01*
G75*
G02*
X130128800Y-96377200I225000J0D01*
G01*
X130578800Y-96377200D01*
G75*
G02*
X130803800Y-96602200I0J-225000D01*
G01*
X130803800Y-97352200D01*
G75*
G02*
X130578800Y-97577200I-225000J0D01*
G01*
X130128800Y-97577200D01*
G75*
G02*
X129903800Y-97352200I0J225000D01*
G01*
G37*
G36*
G01*
X133203800Y-97352200D02*
X133203800Y-96602200D01*
G75*
G02*
X133428800Y-96377200I225000J0D01*
G01*
X133878800Y-96377200D01*
G75*
G02*
X134103800Y-96602200I0J-225000D01*
G01*
X134103800Y-97352200D01*
G75*
G02*
X133878800Y-97577200I-225000J0D01*
G01*
X133428800Y-97577200D01*
G75*
G02*
X133203800Y-97352200I0J225000D01*
G01*
G37*
G36*
G01*
X170256000Y-80423600D02*
X170256000Y-81323600D01*
G75*
G02*
X170006000Y-81573600I-250000J0D01*
G01*
X169306000Y-81573600D01*
G75*
G02*
X169056000Y-81323600I0J250000D01*
G01*
X169056000Y-80423600D01*
G75*
G02*
X169306000Y-80173600I250000J0D01*
G01*
X170006000Y-80173600D01*
G75*
G02*
X170256000Y-80423600I0J-250000D01*
G01*
G37*
G36*
G01*
X168256000Y-80423600D02*
X168256000Y-81323600D01*
G75*
G02*
X168006000Y-81573600I-250000J0D01*
G01*
X167306000Y-81573600D01*
G75*
G02*
X167056000Y-81323600I0J250000D01*
G01*
X167056000Y-80423600D01*
G75*
G02*
X167306000Y-80173600I250000J0D01*
G01*
X168006000Y-80173600D01*
G75*
G02*
X168256000Y-80423600I0J-250000D01*
G01*
G37*
G36*
G01*
X129742600Y-73540600D02*
X129742600Y-74490600D01*
G75*
G02*
X129492600Y-74740600I-250000J0D01*
G01*
X128817600Y-74740600D01*
G75*
G02*
X128567600Y-74490600I0J250000D01*
G01*
X128567600Y-73540600D01*
G75*
G02*
X128817600Y-73290600I250000J0D01*
G01*
X129492600Y-73290600D01*
G75*
G02*
X129742600Y-73540600I0J-250000D01*
G01*
G37*
G36*
G01*
X127667600Y-73540600D02*
X127667600Y-74490600D01*
G75*
G02*
X127417600Y-74740600I-250000J0D01*
G01*
X126742600Y-74740600D01*
G75*
G02*
X126492600Y-74490600I0J250000D01*
G01*
X126492600Y-73540600D01*
G75*
G02*
X126742600Y-73290600I250000J0D01*
G01*
X127417600Y-73290600D01*
G75*
G02*
X127667600Y-73540600I0J-250000D01*
G01*
G37*
G36*
G01*
X125550000Y-99975000D02*
X126850000Y-99975000D01*
G75*
G02*
X127100000Y-100225000I0J-250000D01*
G01*
X127100000Y-101050000D01*
G75*
G02*
X126850000Y-101300000I-250000J0D01*
G01*
X125550000Y-101300000D01*
G75*
G02*
X125300000Y-101050000I0J250000D01*
G01*
X125300000Y-100225000D01*
G75*
G02*
X125550000Y-99975000I250000J0D01*
G01*
G37*
G36*
G01*
X125550000Y-103100000D02*
X126850000Y-103100000D01*
G75*
G02*
X127100000Y-103350000I0J-250000D01*
G01*
X127100000Y-104175000D01*
G75*
G02*
X126850000Y-104425000I-250000J0D01*
G01*
X125550000Y-104425000D01*
G75*
G02*
X125300000Y-104175000I0J250000D01*
G01*
X125300000Y-103350000D01*
G75*
G02*
X125550000Y-103100000I250000J0D01*
G01*
G37*
G36*
G01*
X141538400Y-82796800D02*
X141538400Y-81896800D01*
G75*
G02*
X141788400Y-81646800I250000J0D01*
G01*
X142488400Y-81646800D01*
G75*
G02*
X142738400Y-81896800I0J-250000D01*
G01*
X142738400Y-82796800D01*
G75*
G02*
X142488400Y-83046800I-250000J0D01*
G01*
X141788400Y-83046800D01*
G75*
G02*
X141538400Y-82796800I0J250000D01*
G01*
G37*
G36*
G01*
X143538400Y-82796800D02*
X143538400Y-81896800D01*
G75*
G02*
X143788400Y-81646800I250000J0D01*
G01*
X144488400Y-81646800D01*
G75*
G02*
X144738400Y-81896800I0J-250000D01*
G01*
X144738400Y-82796800D01*
G75*
G02*
X144488400Y-83046800I-250000J0D01*
G01*
X143788400Y-83046800D01*
G75*
G02*
X143538400Y-82796800I0J250000D01*
G01*
G37*
G36*
G01*
X135617800Y-86115600D02*
X136517800Y-86115600D01*
G75*
G02*
X136767800Y-86365600I0J-250000D01*
G01*
X136767800Y-87065600D01*
G75*
G02*
X136517800Y-87315600I-250000J0D01*
G01*
X135617800Y-87315600D01*
G75*
G02*
X135367800Y-87065600I0J250000D01*
G01*
X135367800Y-86365600D01*
G75*
G02*
X135617800Y-86115600I250000J0D01*
G01*
G37*
G36*
G01*
X135617800Y-88115600D02*
X136517800Y-88115600D01*
G75*
G02*
X136767800Y-88365600I0J-250000D01*
G01*
X136767800Y-89065600D01*
G75*
G02*
X136517800Y-89315600I-250000J0D01*
G01*
X135617800Y-89315600D01*
G75*
G02*
X135367800Y-89065600I0J250000D01*
G01*
X135367800Y-88365600D01*
G75*
G02*
X135617800Y-88115600I250000J0D01*
G01*
G37*
G36*
G01*
X165187000Y-110568600D02*
X165187000Y-110868600D01*
G75*
G02*
X165037000Y-111018600I-150000J0D01*
G01*
X163287000Y-111018600D01*
G75*
G02*
X163137000Y-110868600I0J150000D01*
G01*
X163137000Y-110568600D01*
G75*
G02*
X163287000Y-110418600I150000J0D01*
G01*
X165037000Y-110418600D01*
G75*
G02*
X165187000Y-110568600I0J-150000D01*
G01*
G37*
G36*
G01*
X165187000Y-111838600D02*
X165187000Y-112138600D01*
G75*
G02*
X165037000Y-112288600I-150000J0D01*
G01*
X163287000Y-112288600D01*
G75*
G02*
X163137000Y-112138600I0J150000D01*
G01*
X163137000Y-111838600D01*
G75*
G02*
X163287000Y-111688600I150000J0D01*
G01*
X165037000Y-111688600D01*
G75*
G02*
X165187000Y-111838600I0J-150000D01*
G01*
G37*
G36*
G01*
X165187000Y-113108600D02*
X165187000Y-113408600D01*
G75*
G02*
X165037000Y-113558600I-150000J0D01*
G01*
X163287000Y-113558600D01*
G75*
G02*
X163137000Y-113408600I0J150000D01*
G01*
X163137000Y-113108600D01*
G75*
G02*
X163287000Y-112958600I150000J0D01*
G01*
X165037000Y-112958600D01*
G75*
G02*
X165187000Y-113108600I0J-150000D01*
G01*
G37*
G36*
G01*
X165187000Y-114378600D02*
X165187000Y-114678600D01*
G75*
G02*
X165037000Y-114828600I-150000J0D01*
G01*
X163287000Y-114828600D01*
G75*
G02*
X163137000Y-114678600I0J150000D01*
G01*
X163137000Y-114378600D01*
G75*
G02*
X163287000Y-114228600I150000J0D01*
G01*
X165037000Y-114228600D01*
G75*
G02*
X165187000Y-114378600I0J-150000D01*
G01*
G37*
G36*
G01*
X165187000Y-115648600D02*
X165187000Y-115948600D01*
G75*
G02*
X165037000Y-116098600I-150000J0D01*
G01*
X163287000Y-116098600D01*
G75*
G02*
X163137000Y-115948600I0J150000D01*
G01*
X163137000Y-115648600D01*
G75*
G02*
X163287000Y-115498600I150000J0D01*
G01*
X165037000Y-115498600D01*
G75*
G02*
X165187000Y-115648600I0J-150000D01*
G01*
G37*
G36*
G01*
X165187000Y-116918600D02*
X165187000Y-117218600D01*
G75*
G02*
X165037000Y-117368600I-150000J0D01*
G01*
X163287000Y-117368600D01*
G75*
G02*
X163137000Y-117218600I0J150000D01*
G01*
X163137000Y-116918600D01*
G75*
G02*
X163287000Y-116768600I150000J0D01*
G01*
X165037000Y-116768600D01*
G75*
G02*
X165187000Y-116918600I0J-150000D01*
G01*
G37*
G36*
G01*
X165187000Y-118188600D02*
X165187000Y-118488600D01*
G75*
G02*
X165037000Y-118638600I-150000J0D01*
G01*
X163287000Y-118638600D01*
G75*
G02*
X163137000Y-118488600I0J150000D01*
G01*
X163137000Y-118188600D01*
G75*
G02*
X163287000Y-118038600I150000J0D01*
G01*
X165037000Y-118038600D01*
G75*
G02*
X165187000Y-118188600I0J-150000D01*
G01*
G37*
G36*
G01*
X165187000Y-119458600D02*
X165187000Y-119758600D01*
G75*
G02*
X165037000Y-119908600I-150000J0D01*
G01*
X163287000Y-119908600D01*
G75*
G02*
X163137000Y-119758600I0J150000D01*
G01*
X163137000Y-119458600D01*
G75*
G02*
X163287000Y-119308600I150000J0D01*
G01*
X165037000Y-119308600D01*
G75*
G02*
X165187000Y-119458600I0J-150000D01*
G01*
G37*
G36*
G01*
X155887000Y-119458600D02*
X155887000Y-119758600D01*
G75*
G02*
X155737000Y-119908600I-150000J0D01*
G01*
X153987000Y-119908600D01*
G75*
G02*
X153837000Y-119758600I0J150000D01*
G01*
X153837000Y-119458600D01*
G75*
G02*
X153987000Y-119308600I150000J0D01*
G01*
X155737000Y-119308600D01*
G75*
G02*
X155887000Y-119458600I0J-150000D01*
G01*
G37*
G36*
G01*
X155887000Y-118188600D02*
X155887000Y-118488600D01*
G75*
G02*
X155737000Y-118638600I-150000J0D01*
G01*
X153987000Y-118638600D01*
G75*
G02*
X153837000Y-118488600I0J150000D01*
G01*
X153837000Y-118188600D01*
G75*
G02*
X153987000Y-118038600I150000J0D01*
G01*
X155737000Y-118038600D01*
G75*
G02*
X155887000Y-118188600I0J-150000D01*
G01*
G37*
G36*
G01*
X155887000Y-116918600D02*
X155887000Y-117218600D01*
G75*
G02*
X155737000Y-117368600I-150000J0D01*
G01*
X153987000Y-117368600D01*
G75*
G02*
X153837000Y-117218600I0J150000D01*
G01*
X153837000Y-116918600D01*
G75*
G02*
X153987000Y-116768600I150000J0D01*
G01*
X155737000Y-116768600D01*
G75*
G02*
X155887000Y-116918600I0J-150000D01*
G01*
G37*
G36*
G01*
X155887000Y-115648600D02*
X155887000Y-115948600D01*
G75*
G02*
X155737000Y-116098600I-150000J0D01*
G01*
X153987000Y-116098600D01*
G75*
G02*
X153837000Y-115948600I0J150000D01*
G01*
X153837000Y-115648600D01*
G75*
G02*
X153987000Y-115498600I150000J0D01*
G01*
X155737000Y-115498600D01*
G75*
G02*
X155887000Y-115648600I0J-150000D01*
G01*
G37*
G36*
G01*
X155887000Y-114378600D02*
X155887000Y-114678600D01*
G75*
G02*
X155737000Y-114828600I-150000J0D01*
G01*
X153987000Y-114828600D01*
G75*
G02*
X153837000Y-114678600I0J150000D01*
G01*
X153837000Y-114378600D01*
G75*
G02*
X153987000Y-114228600I150000J0D01*
G01*
X155737000Y-114228600D01*
G75*
G02*
X155887000Y-114378600I0J-150000D01*
G01*
G37*
G36*
G01*
X155887000Y-113108600D02*
X155887000Y-113408600D01*
G75*
G02*
X155737000Y-113558600I-150000J0D01*
G01*
X153987000Y-113558600D01*
G75*
G02*
X153837000Y-113408600I0J150000D01*
G01*
X153837000Y-113108600D01*
G75*
G02*
X153987000Y-112958600I150000J0D01*
G01*
X155737000Y-112958600D01*
G75*
G02*
X155887000Y-113108600I0J-150000D01*
G01*
G37*
G36*
G01*
X155887000Y-111838600D02*
X155887000Y-112138600D01*
G75*
G02*
X155737000Y-112288600I-150000J0D01*
G01*
X153987000Y-112288600D01*
G75*
G02*
X153837000Y-112138600I0J150000D01*
G01*
X153837000Y-111838600D01*
G75*
G02*
X153987000Y-111688600I150000J0D01*
G01*
X155737000Y-111688600D01*
G75*
G02*
X155887000Y-111838600I0J-150000D01*
G01*
G37*
G36*
G01*
X155887000Y-110568600D02*
X155887000Y-110868600D01*
G75*
G02*
X155737000Y-111018600I-150000J0D01*
G01*
X153987000Y-111018600D01*
G75*
G02*
X153837000Y-110868600I0J150000D01*
G01*
X153837000Y-110568600D01*
G75*
G02*
X153987000Y-110418600I150000J0D01*
G01*
X155737000Y-110418600D01*
G75*
G02*
X155887000Y-110568600I0J-150000D01*
G01*
G37*
G36*
G01*
X171373600Y-78391600D02*
X171373600Y-79291600D01*
G75*
G02*
X171123600Y-79541600I-250000J0D01*
G01*
X170423600Y-79541600D01*
G75*
G02*
X170173600Y-79291600I0J250000D01*
G01*
X170173600Y-78391600D01*
G75*
G02*
X170423600Y-78141600I250000J0D01*
G01*
X171123600Y-78141600D01*
G75*
G02*
X171373600Y-78391600I0J-250000D01*
G01*
G37*
G36*
G01*
X169373600Y-78391600D02*
X169373600Y-79291600D01*
G75*
G02*
X169123600Y-79541600I-250000J0D01*
G01*
X168423600Y-79541600D01*
G75*
G02*
X168173600Y-79291600I0J250000D01*
G01*
X168173600Y-78391600D01*
G75*
G02*
X168423600Y-78141600I250000J0D01*
G01*
X169123600Y-78141600D01*
G75*
G02*
X169373600Y-78391600I0J-250000D01*
G01*
G37*
G36*
G01*
X137726000Y-90179600D02*
X138626000Y-90179600D01*
G75*
G02*
X138876000Y-90429600I0J-250000D01*
G01*
X138876000Y-91129600D01*
G75*
G02*
X138626000Y-91379600I-250000J0D01*
G01*
X137726000Y-91379600D01*
G75*
G02*
X137476000Y-91129600I0J250000D01*
G01*
X137476000Y-90429600D01*
G75*
G02*
X137726000Y-90179600I250000J0D01*
G01*
G37*
G36*
G01*
X137726000Y-92179600D02*
X138626000Y-92179600D01*
G75*
G02*
X138876000Y-92429600I0J-250000D01*
G01*
X138876000Y-93129600D01*
G75*
G02*
X138626000Y-93379600I-250000J0D01*
G01*
X137726000Y-93379600D01*
G75*
G02*
X137476000Y-93129600I0J250000D01*
G01*
X137476000Y-92429600D01*
G75*
G02*
X137726000Y-92179600I250000J0D01*
G01*
G37*
G36*
G01*
X171272000Y-104553600D02*
X171272000Y-105453600D01*
G75*
G02*
X171022000Y-105703600I-250000J0D01*
G01*
X170322000Y-105703600D01*
G75*
G02*
X170072000Y-105453600I0J250000D01*
G01*
X170072000Y-104553600D01*
G75*
G02*
X170322000Y-104303600I250000J0D01*
G01*
X171022000Y-104303600D01*
G75*
G02*
X171272000Y-104553600I0J-250000D01*
G01*
G37*
G36*
G01*
X169272000Y-104553600D02*
X169272000Y-105453600D01*
G75*
G02*
X169022000Y-105703600I-250000J0D01*
G01*
X168322000Y-105703600D01*
G75*
G02*
X168072000Y-105453600I0J250000D01*
G01*
X168072000Y-104553600D01*
G75*
G02*
X168322000Y-104303600I250000J0D01*
G01*
X169022000Y-104303600D01*
G75*
G02*
X169272000Y-104553600I0J-250000D01*
G01*
G37*
G36*
G01*
X129866500Y-129633800D02*
X129866500Y-129933800D01*
G75*
G02*
X129716500Y-130083800I-150000J0D01*
G01*
X128541500Y-130083800D01*
G75*
G02*
X128391500Y-129933800I0J150000D01*
G01*
X128391500Y-129633800D01*
G75*
G02*
X128541500Y-129483800I150000J0D01*
G01*
X129716500Y-129483800D01*
G75*
G02*
X129866500Y-129633800I0J-150000D01*
G01*
G37*
G36*
G01*
X129866500Y-131533800D02*
X129866500Y-131833800D01*
G75*
G02*
X129716500Y-131983800I-150000J0D01*
G01*
X128541500Y-131983800D01*
G75*
G02*
X128391500Y-131833800I0J150000D01*
G01*
X128391500Y-131533800D01*
G75*
G02*
X128541500Y-131383800I150000J0D01*
G01*
X129716500Y-131383800D01*
G75*
G02*
X129866500Y-131533800I0J-150000D01*
G01*
G37*
G36*
G01*
X127991500Y-130583800D02*
X127991500Y-130883800D01*
G75*
G02*
X127841500Y-131033800I-150000J0D01*
G01*
X126666500Y-131033800D01*
G75*
G02*
X126516500Y-130883800I0J150000D01*
G01*
X126516500Y-130583800D01*
G75*
G02*
X126666500Y-130433800I150000J0D01*
G01*
X127841500Y-130433800D01*
G75*
G02*
X127991500Y-130583800I0J-150000D01*
G01*
G37*
G36*
G01*
X137054500Y-101499000D02*
X138004500Y-101499000D01*
G75*
G02*
X138254500Y-101749000I0J-250000D01*
G01*
X138254500Y-102424000D01*
G75*
G02*
X138004500Y-102674000I-250000J0D01*
G01*
X137054500Y-102674000D01*
G75*
G02*
X136804500Y-102424000I0J250000D01*
G01*
X136804500Y-101749000D01*
G75*
G02*
X137054500Y-101499000I250000J0D01*
G01*
G37*
G36*
G01*
X137054500Y-103574000D02*
X138004500Y-103574000D01*
G75*
G02*
X138254500Y-103824000I0J-250000D01*
G01*
X138254500Y-104499000D01*
G75*
G02*
X138004500Y-104749000I-250000J0D01*
G01*
X137054500Y-104749000D01*
G75*
G02*
X136804500Y-104499000I0J250000D01*
G01*
X136804500Y-103824000D01*
G75*
G02*
X137054500Y-103574000I250000J0D01*
G01*
G37*
G36*
G01*
X135617800Y-82051600D02*
X136517800Y-82051600D01*
G75*
G02*
X136767800Y-82301600I0J-250000D01*
G01*
X136767800Y-83001600D01*
G75*
G02*
X136517800Y-83251600I-250000J0D01*
G01*
X135617800Y-83251600D01*
G75*
G02*
X135367800Y-83001600I0J250000D01*
G01*
X135367800Y-82301600D01*
G75*
G02*
X135617800Y-82051600I250000J0D01*
G01*
G37*
G36*
G01*
X135617800Y-84051600D02*
X136517800Y-84051600D01*
G75*
G02*
X136767800Y-84301600I0J-250000D01*
G01*
X136767800Y-85001600D01*
G75*
G02*
X136517800Y-85251600I-250000J0D01*
G01*
X135617800Y-85251600D01*
G75*
G02*
X135367800Y-85001600I0J250000D01*
G01*
X135367800Y-84301600D01*
G75*
G02*
X135617800Y-84051600I250000J0D01*
G01*
G37*
G36*
G01*
X139209400Y-77528000D02*
X139209400Y-78428000D01*
G75*
G02*
X138959400Y-78678000I-250000J0D01*
G01*
X138259400Y-78678000D01*
G75*
G02*
X138009400Y-78428000I0J250000D01*
G01*
X138009400Y-77528000D01*
G75*
G02*
X138259400Y-77278000I250000J0D01*
G01*
X138959400Y-77278000D01*
G75*
G02*
X139209400Y-77528000I0J-250000D01*
G01*
G37*
G36*
G01*
X137209400Y-77528000D02*
X137209400Y-78428000D01*
G75*
G02*
X136959400Y-78678000I-250000J0D01*
G01*
X136259400Y-78678000D01*
G75*
G02*
X136009400Y-78428000I0J250000D01*
G01*
X136009400Y-77528000D01*
G75*
G02*
X136259400Y-77278000I250000J0D01*
G01*
X136959400Y-77278000D01*
G75*
G02*
X137209400Y-77528000I0J-250000D01*
G01*
G37*
G36*
G01*
X131081500Y-124325800D02*
X131981500Y-124325800D01*
G75*
G02*
X132231500Y-124575800I0J-250000D01*
G01*
X132231500Y-125275800D01*
G75*
G02*
X131981500Y-125525800I-250000J0D01*
G01*
X131081500Y-125525800D01*
G75*
G02*
X130831500Y-125275800I0J250000D01*
G01*
X130831500Y-124575800D01*
G75*
G02*
X131081500Y-124325800I250000J0D01*
G01*
G37*
G36*
G01*
X131081500Y-126325800D02*
X131981500Y-126325800D01*
G75*
G02*
X132231500Y-126575800I0J-250000D01*
G01*
X132231500Y-127275800D01*
G75*
G02*
X131981500Y-127525800I-250000J0D01*
G01*
X131081500Y-127525800D01*
G75*
G02*
X130831500Y-127275800I0J250000D01*
G01*
X130831500Y-126575800D01*
G75*
G02*
X131081500Y-126325800I250000J0D01*
G01*
G37*
G36*
G01*
X128023200Y-87401600D02*
X128923200Y-87401600D01*
G75*
G02*
X129173200Y-87651600I0J-250000D01*
G01*
X129173200Y-88351600D01*
G75*
G02*
X128923200Y-88601600I-250000J0D01*
G01*
X128023200Y-88601600D01*
G75*
G02*
X127773200Y-88351600I0J250000D01*
G01*
X127773200Y-87651600D01*
G75*
G02*
X128023200Y-87401600I250000J0D01*
G01*
G37*
G36*
G01*
X128023200Y-89401600D02*
X128923200Y-89401600D01*
G75*
G02*
X129173200Y-89651600I0J-250000D01*
G01*
X129173200Y-90351600D01*
G75*
G02*
X128923200Y-90601600I-250000J0D01*
G01*
X128023200Y-90601600D01*
G75*
G02*
X127773200Y-90351600I0J250000D01*
G01*
X127773200Y-89651600D01*
G75*
G02*
X128023200Y-89401600I250000J0D01*
G01*
G37*
G36*
G01*
X127151000Y-87850800D02*
X127151000Y-88150800D01*
G75*
G02*
X127001000Y-88300800I-150000J0D01*
G01*
X125826000Y-88300800D01*
G75*
G02*
X125676000Y-88150800I0J150000D01*
G01*
X125676000Y-87850800D01*
G75*
G02*
X125826000Y-87700800I150000J0D01*
G01*
X127001000Y-87700800D01*
G75*
G02*
X127151000Y-87850800I0J-150000D01*
G01*
G37*
G36*
G01*
X127151000Y-89750800D02*
X127151000Y-90050800D01*
G75*
G02*
X127001000Y-90200800I-150000J0D01*
G01*
X125826000Y-90200800D01*
G75*
G02*
X125676000Y-90050800I0J150000D01*
G01*
X125676000Y-89750800D01*
G75*
G02*
X125826000Y-89600800I150000J0D01*
G01*
X127001000Y-89600800D01*
G75*
G02*
X127151000Y-89750800I0J-150000D01*
G01*
G37*
G36*
G01*
X125276000Y-88800800D02*
X125276000Y-89100800D01*
G75*
G02*
X125126000Y-89250800I-150000J0D01*
G01*
X123951000Y-89250800D01*
G75*
G02*
X123801000Y-89100800I0J150000D01*
G01*
X123801000Y-88800800D01*
G75*
G02*
X123951000Y-88650800I150000J0D01*
G01*
X125126000Y-88650800D01*
G75*
G02*
X125276000Y-88800800I0J-150000D01*
G01*
G37*
G36*
G01*
X130607000Y-132834800D02*
X130607000Y-131934800D01*
G75*
G02*
X130857000Y-131684800I250000J0D01*
G01*
X131557000Y-131684800D01*
G75*
G02*
X131807000Y-131934800I0J-250000D01*
G01*
X131807000Y-132834800D01*
G75*
G02*
X131557000Y-133084800I-250000J0D01*
G01*
X130857000Y-133084800D01*
G75*
G02*
X130607000Y-132834800I0J250000D01*
G01*
G37*
G36*
G01*
X132607000Y-132834800D02*
X132607000Y-131934800D01*
G75*
G02*
X132857000Y-131684800I250000J0D01*
G01*
X133557000Y-131684800D01*
G75*
G02*
X133807000Y-131934800I0J-250000D01*
G01*
X133807000Y-132834800D01*
G75*
G02*
X133557000Y-133084800I-250000J0D01*
G01*
X132857000Y-133084800D01*
G75*
G02*
X132607000Y-132834800I0J250000D01*
G01*
G37*
D11*
X132400000Y-75200000D03*
D12*
X135650000Y-74200000D03*
D11*
X132400000Y-73200000D03*
G36*
G01*
X163500000Y-105453600D02*
X163500000Y-104553600D01*
G75*
G02*
X163750000Y-104303600I250000J0D01*
G01*
X164450000Y-104303600D01*
G75*
G02*
X164700000Y-104553600I0J-250000D01*
G01*
X164700000Y-105453600D01*
G75*
G02*
X164450000Y-105703600I-250000J0D01*
G01*
X163750000Y-105703600D01*
G75*
G02*
X163500000Y-105453600I0J250000D01*
G01*
G37*
G36*
G01*
X165500000Y-105453600D02*
X165500000Y-104553600D01*
G75*
G02*
X165750000Y-104303600I250000J0D01*
G01*
X166450000Y-104303600D01*
G75*
G02*
X166700000Y-104553600I0J-250000D01*
G01*
X166700000Y-105453600D01*
G75*
G02*
X166450000Y-105703600I-250000J0D01*
G01*
X165750000Y-105703600D01*
G75*
G02*
X165500000Y-105453600I0J250000D01*
G01*
G37*
G36*
G01*
X146037400Y-81125200D02*
X146037400Y-80825200D01*
G75*
G02*
X146187400Y-80675200I150000J0D01*
G01*
X147937400Y-80675200D01*
G75*
G02*
X148087400Y-80825200I0J-150000D01*
G01*
X148087400Y-81125200D01*
G75*
G02*
X147937400Y-81275200I-150000J0D01*
G01*
X146187400Y-81275200D01*
G75*
G02*
X146037400Y-81125200I0J150000D01*
G01*
G37*
G36*
G01*
X146037400Y-79855200D02*
X146037400Y-79555200D01*
G75*
G02*
X146187400Y-79405200I150000J0D01*
G01*
X147937400Y-79405200D01*
G75*
G02*
X148087400Y-79555200I0J-150000D01*
G01*
X148087400Y-79855200D01*
G75*
G02*
X147937400Y-80005200I-150000J0D01*
G01*
X146187400Y-80005200D01*
G75*
G02*
X146037400Y-79855200I0J150000D01*
G01*
G37*
G36*
G01*
X146037400Y-78585200D02*
X146037400Y-78285200D01*
G75*
G02*
X146187400Y-78135200I150000J0D01*
G01*
X147937400Y-78135200D01*
G75*
G02*
X148087400Y-78285200I0J-150000D01*
G01*
X148087400Y-78585200D01*
G75*
G02*
X147937400Y-78735200I-150000J0D01*
G01*
X146187400Y-78735200D01*
G75*
G02*
X146037400Y-78585200I0J150000D01*
G01*
G37*
G36*
G01*
X146037400Y-77315200D02*
X146037400Y-77015200D01*
G75*
G02*
X146187400Y-76865200I150000J0D01*
G01*
X147937400Y-76865200D01*
G75*
G02*
X148087400Y-77015200I0J-150000D01*
G01*
X148087400Y-77315200D01*
G75*
G02*
X147937400Y-77465200I-150000J0D01*
G01*
X146187400Y-77465200D01*
G75*
G02*
X146037400Y-77315200I0J150000D01*
G01*
G37*
G36*
G01*
X146037400Y-76045200D02*
X146037400Y-75745200D01*
G75*
G02*
X146187400Y-75595200I150000J0D01*
G01*
X147937400Y-75595200D01*
G75*
G02*
X148087400Y-75745200I0J-150000D01*
G01*
X148087400Y-76045200D01*
G75*
G02*
X147937400Y-76195200I-150000J0D01*
G01*
X146187400Y-76195200D01*
G75*
G02*
X146037400Y-76045200I0J150000D01*
G01*
G37*
G36*
G01*
X146037400Y-74775200D02*
X146037400Y-74475200D01*
G75*
G02*
X146187400Y-74325200I150000J0D01*
G01*
X147937400Y-74325200D01*
G75*
G02*
X148087400Y-74475200I0J-150000D01*
G01*
X148087400Y-74775200D01*
G75*
G02*
X147937400Y-74925200I-150000J0D01*
G01*
X146187400Y-74925200D01*
G75*
G02*
X146037400Y-74775200I0J150000D01*
G01*
G37*
G36*
G01*
X146037400Y-73505200D02*
X146037400Y-73205200D01*
G75*
G02*
X146187400Y-73055200I150000J0D01*
G01*
X147937400Y-73055200D01*
G75*
G02*
X148087400Y-73205200I0J-150000D01*
G01*
X148087400Y-73505200D01*
G75*
G02*
X147937400Y-73655200I-150000J0D01*
G01*
X146187400Y-73655200D01*
G75*
G02*
X146037400Y-73505200I0J150000D01*
G01*
G37*
G36*
G01*
X146037400Y-72235200D02*
X146037400Y-71935200D01*
G75*
G02*
X146187400Y-71785200I150000J0D01*
G01*
X147937400Y-71785200D01*
G75*
G02*
X148087400Y-71935200I0J-150000D01*
G01*
X148087400Y-72235200D01*
G75*
G02*
X147937400Y-72385200I-150000J0D01*
G01*
X146187400Y-72385200D01*
G75*
G02*
X146037400Y-72235200I0J150000D01*
G01*
G37*
G36*
G01*
X155337400Y-72235200D02*
X155337400Y-71935200D01*
G75*
G02*
X155487400Y-71785200I150000J0D01*
G01*
X157237400Y-71785200D01*
G75*
G02*
X157387400Y-71935200I0J-150000D01*
G01*
X157387400Y-72235200D01*
G75*
G02*
X157237400Y-72385200I-150000J0D01*
G01*
X155487400Y-72385200D01*
G75*
G02*
X155337400Y-72235200I0J150000D01*
G01*
G37*
G36*
G01*
X155337400Y-73505200D02*
X155337400Y-73205200D01*
G75*
G02*
X155487400Y-73055200I150000J0D01*
G01*
X157237400Y-73055200D01*
G75*
G02*
X157387400Y-73205200I0J-150000D01*
G01*
X157387400Y-73505200D01*
G75*
G02*
X157237400Y-73655200I-150000J0D01*
G01*
X155487400Y-73655200D01*
G75*
G02*
X155337400Y-73505200I0J150000D01*
G01*
G37*
G36*
G01*
X155337400Y-74775200D02*
X155337400Y-74475200D01*
G75*
G02*
X155487400Y-74325200I150000J0D01*
G01*
X157237400Y-74325200D01*
G75*
G02*
X157387400Y-74475200I0J-150000D01*
G01*
X157387400Y-74775200D01*
G75*
G02*
X157237400Y-74925200I-150000J0D01*
G01*
X155487400Y-74925200D01*
G75*
G02*
X155337400Y-74775200I0J150000D01*
G01*
G37*
G36*
G01*
X155337400Y-76045200D02*
X155337400Y-75745200D01*
G75*
G02*
X155487400Y-75595200I150000J0D01*
G01*
X157237400Y-75595200D01*
G75*
G02*
X157387400Y-75745200I0J-150000D01*
G01*
X157387400Y-76045200D01*
G75*
G02*
X157237400Y-76195200I-150000J0D01*
G01*
X155487400Y-76195200D01*
G75*
G02*
X155337400Y-76045200I0J150000D01*
G01*
G37*
G36*
G01*
X155337400Y-77315200D02*
X155337400Y-77015200D01*
G75*
G02*
X155487400Y-76865200I150000J0D01*
G01*
X157237400Y-76865200D01*
G75*
G02*
X157387400Y-77015200I0J-150000D01*
G01*
X157387400Y-77315200D01*
G75*
G02*
X157237400Y-77465200I-150000J0D01*
G01*
X155487400Y-77465200D01*
G75*
G02*
X155337400Y-77315200I0J150000D01*
G01*
G37*
G36*
G01*
X155337400Y-78585200D02*
X155337400Y-78285200D01*
G75*
G02*
X155487400Y-78135200I150000J0D01*
G01*
X157237400Y-78135200D01*
G75*
G02*
X157387400Y-78285200I0J-150000D01*
G01*
X157387400Y-78585200D01*
G75*
G02*
X157237400Y-78735200I-150000J0D01*
G01*
X155487400Y-78735200D01*
G75*
G02*
X155337400Y-78585200I0J150000D01*
G01*
G37*
G36*
G01*
X155337400Y-79855200D02*
X155337400Y-79555200D01*
G75*
G02*
X155487400Y-79405200I150000J0D01*
G01*
X157237400Y-79405200D01*
G75*
G02*
X157387400Y-79555200I0J-150000D01*
G01*
X157387400Y-79855200D01*
G75*
G02*
X157237400Y-80005200I-150000J0D01*
G01*
X155487400Y-80005200D01*
G75*
G02*
X155337400Y-79855200I0J150000D01*
G01*
G37*
G36*
G01*
X155337400Y-81125200D02*
X155337400Y-80825200D01*
G75*
G02*
X155487400Y-80675200I150000J0D01*
G01*
X157237400Y-80675200D01*
G75*
G02*
X157387400Y-80825200I0J-150000D01*
G01*
X157387400Y-81125200D01*
G75*
G02*
X157237400Y-81275200I-150000J0D01*
G01*
X155487400Y-81275200D01*
G75*
G02*
X155337400Y-81125200I0J150000D01*
G01*
G37*
G36*
G01*
X138626000Y-85251600D02*
X137726000Y-85251600D01*
G75*
G02*
X137476000Y-85001600I0J250000D01*
G01*
X137476000Y-84301600D01*
G75*
G02*
X137726000Y-84051600I250000J0D01*
G01*
X138626000Y-84051600D01*
G75*
G02*
X138876000Y-84301600I0J-250000D01*
G01*
X138876000Y-85001600D01*
G75*
G02*
X138626000Y-85251600I-250000J0D01*
G01*
G37*
G36*
G01*
X138626000Y-83251600D02*
X137726000Y-83251600D01*
G75*
G02*
X137476000Y-83001600I0J250000D01*
G01*
X137476000Y-82301600D01*
G75*
G02*
X137726000Y-82051600I250000J0D01*
G01*
X138626000Y-82051600D01*
G75*
G02*
X138876000Y-82301600I0J-250000D01*
G01*
X138876000Y-83001600D01*
G75*
G02*
X138626000Y-83251600I-250000J0D01*
G01*
G37*
G36*
G01*
X145997600Y-83533400D02*
X145997600Y-82633400D01*
G75*
G02*
X146247600Y-82383400I250000J0D01*
G01*
X146947600Y-82383400D01*
G75*
G02*
X147197600Y-82633400I0J-250000D01*
G01*
X147197600Y-83533400D01*
G75*
G02*
X146947600Y-83783400I-250000J0D01*
G01*
X146247600Y-83783400D01*
G75*
G02*
X145997600Y-83533400I0J250000D01*
G01*
G37*
G36*
G01*
X147997600Y-83533400D02*
X147997600Y-82633400D01*
G75*
G02*
X148247600Y-82383400I250000J0D01*
G01*
X148947600Y-82383400D01*
G75*
G02*
X149197600Y-82633400I0J-250000D01*
G01*
X149197600Y-83533400D01*
G75*
G02*
X148947600Y-83783400I-250000J0D01*
G01*
X148247600Y-83783400D01*
G75*
G02*
X147997600Y-83533400I0J250000D01*
G01*
G37*
G36*
G01*
X136517800Y-93379600D02*
X135617800Y-93379600D01*
G75*
G02*
X135367800Y-93129600I0J250000D01*
G01*
X135367800Y-92429600D01*
G75*
G02*
X135617800Y-92179600I250000J0D01*
G01*
X136517800Y-92179600D01*
G75*
G02*
X136767800Y-92429600I0J-250000D01*
G01*
X136767800Y-93129600D01*
G75*
G02*
X136517800Y-93379600I-250000J0D01*
G01*
G37*
G36*
G01*
X136517800Y-91379600D02*
X135617800Y-91379600D01*
G75*
G02*
X135367800Y-91129600I0J250000D01*
G01*
X135367800Y-90429600D01*
G75*
G02*
X135617800Y-90179600I250000J0D01*
G01*
X136517800Y-90179600D01*
G75*
G02*
X136767800Y-90429600I0J-250000D01*
G01*
X136767800Y-91129600D01*
G75*
G02*
X136517800Y-91379600I-250000J0D01*
G01*
G37*
G36*
G01*
X128781500Y-124325800D02*
X129681500Y-124325800D01*
G75*
G02*
X129931500Y-124575800I0J-250000D01*
G01*
X129931500Y-125275800D01*
G75*
G02*
X129681500Y-125525800I-250000J0D01*
G01*
X128781500Y-125525800D01*
G75*
G02*
X128531500Y-125275800I0J250000D01*
G01*
X128531500Y-124575800D01*
G75*
G02*
X128781500Y-124325800I250000J0D01*
G01*
G37*
G36*
G01*
X128781500Y-126325800D02*
X129681500Y-126325800D01*
G75*
G02*
X129931500Y-126575800I0J-250000D01*
G01*
X129931500Y-127275800D01*
G75*
G02*
X129681500Y-127525800I-250000J0D01*
G01*
X128781500Y-127525800D01*
G75*
G02*
X128531500Y-127275800I0J250000D01*
G01*
X128531500Y-126575800D01*
G75*
G02*
X128781500Y-126325800I250000J0D01*
G01*
G37*
G36*
G01*
X122950000Y-91962500D02*
X121650000Y-91962500D01*
G75*
G02*
X121400000Y-91712500I0J250000D01*
G01*
X121400000Y-90887500D01*
G75*
G02*
X121650000Y-90637500I250000J0D01*
G01*
X122950000Y-90637500D01*
G75*
G02*
X123200000Y-90887500I0J-250000D01*
G01*
X123200000Y-91712500D01*
G75*
G02*
X122950000Y-91962500I-250000J0D01*
G01*
G37*
G36*
G01*
X122950000Y-88837500D02*
X121650000Y-88837500D01*
G75*
G02*
X121400000Y-88587500I0J250000D01*
G01*
X121400000Y-87762500D01*
G75*
G02*
X121650000Y-87512500I250000J0D01*
G01*
X122950000Y-87512500D01*
G75*
G02*
X123200000Y-87762500I0J-250000D01*
G01*
X123200000Y-88587500D01*
G75*
G02*
X122950000Y-88837500I-250000J0D01*
G01*
G37*
G36*
G01*
X130607000Y-130294800D02*
X130607000Y-129394800D01*
G75*
G02*
X130857000Y-129144800I250000J0D01*
G01*
X131557000Y-129144800D01*
G75*
G02*
X131807000Y-129394800I0J-250000D01*
G01*
X131807000Y-130294800D01*
G75*
G02*
X131557000Y-130544800I-250000J0D01*
G01*
X130857000Y-130544800D01*
G75*
G02*
X130607000Y-130294800I0J250000D01*
G01*
G37*
G36*
G01*
X132607000Y-130294800D02*
X132607000Y-129394800D01*
G75*
G02*
X132857000Y-129144800I250000J0D01*
G01*
X133557000Y-129144800D01*
G75*
G02*
X133807000Y-129394800I0J-250000D01*
G01*
X133807000Y-130294800D01*
G75*
G02*
X133557000Y-130544800I-250000J0D01*
G01*
X132857000Y-130544800D01*
G75*
G02*
X132607000Y-130294800I0J250000D01*
G01*
G37*
G36*
G01*
X138626000Y-89315600D02*
X137726000Y-89315600D01*
G75*
G02*
X137476000Y-89065600I0J250000D01*
G01*
X137476000Y-88365600D01*
G75*
G02*
X137726000Y-88115600I250000J0D01*
G01*
X138626000Y-88115600D01*
G75*
G02*
X138876000Y-88365600I0J-250000D01*
G01*
X138876000Y-89065600D01*
G75*
G02*
X138626000Y-89315600I-250000J0D01*
G01*
G37*
G36*
G01*
X138626000Y-87315600D02*
X137726000Y-87315600D01*
G75*
G02*
X137476000Y-87065600I0J250000D01*
G01*
X137476000Y-86365600D01*
G75*
G02*
X137726000Y-86115600I250000J0D01*
G01*
X138626000Y-86115600D01*
G75*
G02*
X138876000Y-86365600I0J-250000D01*
G01*
X138876000Y-87065600D01*
G75*
G02*
X138626000Y-87315600I-250000J0D01*
G01*
G37*
G36*
G01*
X126850000Y-99425000D02*
X125550000Y-99425000D01*
G75*
G02*
X125300000Y-99175000I0J250000D01*
G01*
X125300000Y-98350000D01*
G75*
G02*
X125550000Y-98100000I250000J0D01*
G01*
X126850000Y-98100000D01*
G75*
G02*
X127100000Y-98350000I0J-250000D01*
G01*
X127100000Y-99175000D01*
G75*
G02*
X126850000Y-99425000I-250000J0D01*
G01*
G37*
G36*
G01*
X126850000Y-96300000D02*
X125550000Y-96300000D01*
G75*
G02*
X125300000Y-96050000I0J250000D01*
G01*
X125300000Y-95225000D01*
G75*
G02*
X125550000Y-94975000I250000J0D01*
G01*
X126850000Y-94975000D01*
G75*
G02*
X127100000Y-95225000I0J-250000D01*
G01*
X127100000Y-96050000D01*
G75*
G02*
X126850000Y-96300000I-250000J0D01*
G01*
G37*
G36*
G01*
X127740700Y-104732200D02*
X127740700Y-103982200D01*
G75*
G02*
X128115700Y-103607200I375000J0D01*
G01*
X129365700Y-103607200D01*
G75*
G02*
X129740700Y-103982200I0J-375000D01*
G01*
X129740700Y-104732200D01*
G75*
G02*
X129365700Y-105107200I-375000J0D01*
G01*
X128115700Y-105107200D01*
G75*
G02*
X127740700Y-104732200I0J375000D01*
G01*
G37*
G36*
G01*
X127740700Y-102432200D02*
X127740700Y-101682200D01*
G75*
G02*
X128115700Y-101307200I375000J0D01*
G01*
X129365700Y-101307200D01*
G75*
G02*
X129740700Y-101682200I0J-375000D01*
G01*
X129740700Y-102432200D01*
G75*
G02*
X129365700Y-102807200I-375000J0D01*
G01*
X128115700Y-102807200D01*
G75*
G02*
X127740700Y-102432200I0J375000D01*
G01*
G37*
G36*
G01*
X134040700Y-103457200D02*
X134040700Y-100657200D01*
G75*
G02*
X134540700Y-100157200I500000J0D01*
G01*
X135540700Y-100157200D01*
G75*
G02*
X136040700Y-100657200I0J-500000D01*
G01*
X136040700Y-103457200D01*
G75*
G02*
X135540700Y-103957200I-500000J0D01*
G01*
X134540700Y-103957200D01*
G75*
G02*
X134040700Y-103457200I0J500000D01*
G01*
G37*
G36*
G01*
X127740700Y-100132200D02*
X127740700Y-99382200D01*
G75*
G02*
X128115700Y-99007200I375000J0D01*
G01*
X129365700Y-99007200D01*
G75*
G02*
X129740700Y-99382200I0J-375000D01*
G01*
X129740700Y-100132200D01*
G75*
G02*
X129365700Y-100507200I-375000J0D01*
G01*
X128115700Y-100507200D01*
G75*
G02*
X127740700Y-100132200I0J375000D01*
G01*
G37*
G36*
G01*
X130106000Y-87401600D02*
X131006000Y-87401600D01*
G75*
G02*
X131256000Y-87651600I0J-250000D01*
G01*
X131256000Y-88351600D01*
G75*
G02*
X131006000Y-88601600I-250000J0D01*
G01*
X130106000Y-88601600D01*
G75*
G02*
X129856000Y-88351600I0J250000D01*
G01*
X129856000Y-87651600D01*
G75*
G02*
X130106000Y-87401600I250000J0D01*
G01*
G37*
G36*
G01*
X130106000Y-89401600D02*
X131006000Y-89401600D01*
G75*
G02*
X131256000Y-89651600I0J-250000D01*
G01*
X131256000Y-90351600D01*
G75*
G02*
X131006000Y-90601600I-250000J0D01*
G01*
X130106000Y-90601600D01*
G75*
G02*
X129856000Y-90351600I0J250000D01*
G01*
X129856000Y-89651600D01*
G75*
G02*
X130106000Y-89401600I250000J0D01*
G01*
G37*
M02*
