G04 #@! TF.GenerationSoftware,KiCad,Pcbnew,8.0.8+1*
G04 #@! TF.ProjectId,airsoft_bomb_v2,61697273-6f66-4745-9f62-6f6d625f7632,rev?*
G04 #@! TF.SameCoordinates,Original*
G04 #@! TF.FileFunction,Legend,Bot*
G04 #@! TF.FilePolarity,Positive*
%FSLAX46Y46*%
G04 Gerber Fmt 4.6, Leading zero omitted, Abs format (unit mm)*
%MOMM*%
%LPD*%
G01*
G04 APERTURE LIST*
G04 #@! TA.AperFunction,Profile*
%ADD10C,0.200000*%
G04 #@! TD*
%ADD11C,0.100000*%
%ADD12C,0.150000*%
%ADD13C,0.101600*%
%ADD14C,0.120000*%
%ADD15C,0.000000*%
%ADD16C,0.127000*%
%ADD17R,1.700000X1.700000*%
%ADD18O,1.700000X1.700000*%
%ADD19R,2.000000X2.000000*%
%ADD20C,2.000000*%
%ADD21C,3.200000*%
%ADD22C,1.600000*%
%ADD23O,1.600000X1.600000*%
%ADD24O,2.108200X4.108200*%
%ADD25C,1.440000*%
%ADD26O,3.600000X1.800000*%
G04 APERTURE END LIST*
D10*
X178890534Y-60866736D02*
X175878500Y-58216800D01*
X116027200Y-134823200D02*
X111607600Y-131216400D01*
X131300000Y-58216800D02*
X131300000Y-63100000D01*
X178890534Y-60866736D02*
G75*
G02*
X178943000Y-72262999I-1827134J-5706664D01*
G01*
X111607601Y-98145600D02*
G75*
G02*
X112827677Y-95200077I4165599J0D01*
G01*
X175878500Y-58216800D02*
X131300000Y-58216800D01*
X118059200Y-89916000D02*
X118100000Y-70700000D01*
X116027200Y-134823200D02*
X178943000Y-134874000D01*
X178943000Y-134874000D02*
X178943000Y-72263000D01*
X123354416Y-64154416D02*
G75*
G02*
X125900000Y-63100001I2545584J-2545584D01*
G01*
X112827676Y-95200076D02*
X118059200Y-89916000D01*
X123354416Y-64154416D02*
X118100000Y-70700000D01*
X131300000Y-63100000D02*
X125900000Y-63100000D01*
X111607600Y-131216400D02*
X111607600Y-98145600D01*
D11*
X175768000Y-125476000D02*
X178308000Y-125476000D01*
X178308000Y-134112000D01*
X175768000Y-134112000D01*
X175768000Y-125476000D01*
G36*
X175768000Y-125476000D02*
G01*
X178308000Y-125476000D01*
X178308000Y-134112000D01*
X175768000Y-134112000D01*
X175768000Y-125476000D01*
G37*
X152908000Y-125476000D02*
X155448000Y-125476000D01*
X155448000Y-134112000D01*
X152908000Y-134112000D01*
X152908000Y-125476000D01*
G36*
X152908000Y-125476000D02*
G01*
X155448000Y-125476000D01*
X155448000Y-134112000D01*
X152908000Y-134112000D01*
X152908000Y-125476000D01*
G37*
X170180000Y-58928000D02*
X172720000Y-58928000D01*
X172720000Y-67564000D01*
X170180000Y-67564000D01*
X170180000Y-58928000D01*
G36*
X170180000Y-58928000D02*
G01*
X172720000Y-58928000D01*
X172720000Y-67564000D01*
X170180000Y-67564000D01*
X170180000Y-58928000D01*
G37*
X132080000Y-58928000D02*
X134620000Y-58928000D01*
X134620000Y-67564000D01*
X132080000Y-67564000D01*
X132080000Y-58928000D01*
G36*
X132080000Y-58928000D02*
G01*
X134620000Y-58928000D01*
X134620000Y-67564000D01*
X132080000Y-67564000D01*
X132080000Y-58928000D01*
G37*
X132039180Y-123717953D02*
X132039180Y-123098906D01*
X132039180Y-123098906D02*
X131658228Y-123432239D01*
X131658228Y-123432239D02*
X131658228Y-123289382D01*
X131658228Y-123289382D02*
X131610609Y-123194144D01*
X131610609Y-123194144D02*
X131562990Y-123146525D01*
X131562990Y-123146525D02*
X131467752Y-123098906D01*
X131467752Y-123098906D02*
X131229657Y-123098906D01*
X131229657Y-123098906D02*
X131134419Y-123146525D01*
X131134419Y-123146525D02*
X131086800Y-123194144D01*
X131086800Y-123194144D02*
X131039180Y-123289382D01*
X131039180Y-123289382D02*
X131039180Y-123575096D01*
X131039180Y-123575096D02*
X131086800Y-123670334D01*
X131086800Y-123670334D02*
X131134419Y-123717953D01*
X132039180Y-122813191D02*
X131039180Y-122479858D01*
X131039180Y-122479858D02*
X132039180Y-122146525D01*
X132039180Y-121908429D02*
X132039180Y-121289382D01*
X132039180Y-121289382D02*
X131658228Y-121622715D01*
X131658228Y-121622715D02*
X131658228Y-121479858D01*
X131658228Y-121479858D02*
X131610609Y-121384620D01*
X131610609Y-121384620D02*
X131562990Y-121337001D01*
X131562990Y-121337001D02*
X131467752Y-121289382D01*
X131467752Y-121289382D02*
X131229657Y-121289382D01*
X131229657Y-121289382D02*
X131134419Y-121337001D01*
X131134419Y-121337001D02*
X131086800Y-121384620D01*
X131086800Y-121384620D02*
X131039180Y-121479858D01*
X131039180Y-121479858D02*
X131039180Y-121765572D01*
X131039180Y-121765572D02*
X131086800Y-121860810D01*
X131086800Y-121860810D02*
X131134419Y-121908429D01*
D12*
X138671428Y-94188152D02*
X138671428Y-94854819D01*
X138909523Y-93807200D02*
X139147618Y-94521485D01*
X139147618Y-94521485D02*
X138528571Y-94521485D01*
X138147618Y-94854819D02*
X138147618Y-93854819D01*
X138052380Y-94473866D02*
X137766666Y-94854819D01*
X137766666Y-94188152D02*
X138147618Y-94569104D01*
X137433332Y-93854819D02*
X136766666Y-93854819D01*
X136766666Y-93854819D02*
X137195237Y-94854819D01*
X136480951Y-94854819D02*
X135957142Y-94188152D01*
X136480951Y-94188152D02*
X135957142Y-94854819D01*
X135147618Y-93854819D02*
X135338094Y-93854819D01*
X135338094Y-93854819D02*
X135433332Y-93902438D01*
X135433332Y-93902438D02*
X135480951Y-93950057D01*
X135480951Y-93950057D02*
X135576189Y-94092914D01*
X135576189Y-94092914D02*
X135623808Y-94283390D01*
X135623808Y-94283390D02*
X135623808Y-94664342D01*
X135623808Y-94664342D02*
X135576189Y-94759580D01*
X135576189Y-94759580D02*
X135528570Y-94807200D01*
X135528570Y-94807200D02*
X135433332Y-94854819D01*
X135433332Y-94854819D02*
X135242856Y-94854819D01*
X135242856Y-94854819D02*
X135147618Y-94807200D01*
X135147618Y-94807200D02*
X135099999Y-94759580D01*
X135099999Y-94759580D02*
X135052380Y-94664342D01*
X135052380Y-94664342D02*
X135052380Y-94426247D01*
X135052380Y-94426247D02*
X135099999Y-94331009D01*
X135099999Y-94331009D02*
X135147618Y-94283390D01*
X135147618Y-94283390D02*
X135242856Y-94235771D01*
X135242856Y-94235771D02*
X135433332Y-94235771D01*
X135433332Y-94235771D02*
X135528570Y-94283390D01*
X135528570Y-94283390D02*
X135576189Y-94331009D01*
X135576189Y-94331009D02*
X135623808Y-94426247D01*
D11*
X129829380Y-123019525D02*
X129829380Y-123495715D01*
X129829380Y-123495715D02*
X129353190Y-123543334D01*
X129353190Y-123543334D02*
X129400809Y-123495715D01*
X129400809Y-123495715D02*
X129448428Y-123400477D01*
X129448428Y-123400477D02*
X129448428Y-123162382D01*
X129448428Y-123162382D02*
X129400809Y-123067144D01*
X129400809Y-123067144D02*
X129353190Y-123019525D01*
X129353190Y-123019525D02*
X129257952Y-122971906D01*
X129257952Y-122971906D02*
X129019857Y-122971906D01*
X129019857Y-122971906D02*
X128924619Y-123019525D01*
X128924619Y-123019525D02*
X128877000Y-123067144D01*
X128877000Y-123067144D02*
X128829380Y-123162382D01*
X128829380Y-123162382D02*
X128829380Y-123400477D01*
X128829380Y-123400477D02*
X128877000Y-123495715D01*
X128877000Y-123495715D02*
X128924619Y-123543334D01*
X129829380Y-122686191D02*
X128829380Y-122352858D01*
X128829380Y-122352858D02*
X129829380Y-122019525D01*
D12*
X141266057Y-78035161D02*
X141218438Y-77939923D01*
X141218438Y-77939923D02*
X141123200Y-77844685D01*
X141123200Y-77844685D02*
X140980342Y-77701828D01*
X140980342Y-77701828D02*
X140932723Y-77606590D01*
X140932723Y-77606590D02*
X140932723Y-77511352D01*
X141170819Y-77558971D02*
X141123200Y-77463733D01*
X141123200Y-77463733D02*
X141027961Y-77368495D01*
X141027961Y-77368495D02*
X140837485Y-77320876D01*
X140837485Y-77320876D02*
X140504152Y-77320876D01*
X140504152Y-77320876D02*
X140313676Y-77368495D01*
X140313676Y-77368495D02*
X140218438Y-77463733D01*
X140218438Y-77463733D02*
X140170819Y-77558971D01*
X140170819Y-77558971D02*
X140170819Y-77749447D01*
X140170819Y-77749447D02*
X140218438Y-77844685D01*
X140218438Y-77844685D02*
X140313676Y-77939923D01*
X140313676Y-77939923D02*
X140504152Y-77987542D01*
X140504152Y-77987542D02*
X140837485Y-77987542D01*
X140837485Y-77987542D02*
X141027961Y-77939923D01*
X141027961Y-77939923D02*
X141123200Y-77844685D01*
X141123200Y-77844685D02*
X141170819Y-77749447D01*
X141170819Y-77749447D02*
X141170819Y-77558971D01*
X140266057Y-78368495D02*
X140218438Y-78416114D01*
X140218438Y-78416114D02*
X140170819Y-78511352D01*
X140170819Y-78511352D02*
X140170819Y-78749447D01*
X140170819Y-78749447D02*
X140218438Y-78844685D01*
X140218438Y-78844685D02*
X140266057Y-78892304D01*
X140266057Y-78892304D02*
X140361295Y-78939923D01*
X140361295Y-78939923D02*
X140456533Y-78939923D01*
X140456533Y-78939923D02*
X140599390Y-78892304D01*
X140599390Y-78892304D02*
X141170819Y-78320876D01*
X141170819Y-78320876D02*
X141170819Y-78939923D01*
X126708819Y-82318266D02*
X127423104Y-82318266D01*
X127423104Y-82318266D02*
X127565961Y-82270647D01*
X127565961Y-82270647D02*
X127661200Y-82175409D01*
X127661200Y-82175409D02*
X127708819Y-82032552D01*
X127708819Y-82032552D02*
X127708819Y-81937314D01*
X126708819Y-83270647D02*
X126708819Y-82794457D01*
X126708819Y-82794457D02*
X127185009Y-82746838D01*
X127185009Y-82746838D02*
X127137390Y-82794457D01*
X127137390Y-82794457D02*
X127089771Y-82889695D01*
X127089771Y-82889695D02*
X127089771Y-83127790D01*
X127089771Y-83127790D02*
X127137390Y-83223028D01*
X127137390Y-83223028D02*
X127185009Y-83270647D01*
X127185009Y-83270647D02*
X127280247Y-83318266D01*
X127280247Y-83318266D02*
X127518342Y-83318266D01*
X127518342Y-83318266D02*
X127613580Y-83270647D01*
X127613580Y-83270647D02*
X127661200Y-83223028D01*
X127661200Y-83223028D02*
X127708819Y-83127790D01*
X127708819Y-83127790D02*
X127708819Y-82889695D01*
X127708819Y-82889695D02*
X127661200Y-82794457D01*
X127661200Y-82794457D02*
X127613580Y-82746838D01*
X119816419Y-114340666D02*
X120530704Y-114340666D01*
X120530704Y-114340666D02*
X120673561Y-114293047D01*
X120673561Y-114293047D02*
X120768800Y-114197809D01*
X120768800Y-114197809D02*
X120816419Y-114054952D01*
X120816419Y-114054952D02*
X120816419Y-113959714D01*
X119816419Y-114721619D02*
X119816419Y-115340666D01*
X119816419Y-115340666D02*
X120197371Y-115007333D01*
X120197371Y-115007333D02*
X120197371Y-115150190D01*
X120197371Y-115150190D02*
X120244990Y-115245428D01*
X120244990Y-115245428D02*
X120292609Y-115293047D01*
X120292609Y-115293047D02*
X120387847Y-115340666D01*
X120387847Y-115340666D02*
X120625942Y-115340666D01*
X120625942Y-115340666D02*
X120721180Y-115293047D01*
X120721180Y-115293047D02*
X120768800Y-115245428D01*
X120768800Y-115245428D02*
X120816419Y-115150190D01*
X120816419Y-115150190D02*
X120816419Y-114864476D01*
X120816419Y-114864476D02*
X120768800Y-114769238D01*
X120768800Y-114769238D02*
X120721180Y-114721619D01*
X171619047Y-81254819D02*
X172190475Y-81254819D01*
X171904761Y-81254819D02*
X171904761Y-80254819D01*
X171904761Y-80254819D02*
X171999999Y-80397676D01*
X171999999Y-80397676D02*
X172095237Y-80492914D01*
X172095237Y-80492914D02*
X172190475Y-80540533D01*
X171190475Y-81254819D02*
X171190475Y-80254819D01*
X171095237Y-80873866D02*
X170809523Y-81254819D01*
X170809523Y-80588152D02*
X171190475Y-80969104D01*
X129236647Y-72854819D02*
X129808075Y-72854819D01*
X129522361Y-72854819D02*
X129522361Y-71854819D01*
X129522361Y-71854819D02*
X129617599Y-71997676D01*
X129617599Y-71997676D02*
X129712837Y-72092914D01*
X129712837Y-72092914D02*
X129808075Y-72140533D01*
X128617599Y-71854819D02*
X128522361Y-71854819D01*
X128522361Y-71854819D02*
X128427123Y-71902438D01*
X128427123Y-71902438D02*
X128379504Y-71950057D01*
X128379504Y-71950057D02*
X128331885Y-72045295D01*
X128331885Y-72045295D02*
X128284266Y-72235771D01*
X128284266Y-72235771D02*
X128284266Y-72473866D01*
X128284266Y-72473866D02*
X128331885Y-72664342D01*
X128331885Y-72664342D02*
X128379504Y-72759580D01*
X128379504Y-72759580D02*
X128427123Y-72807200D01*
X128427123Y-72807200D02*
X128522361Y-72854819D01*
X128522361Y-72854819D02*
X128617599Y-72854819D01*
X128617599Y-72854819D02*
X128712837Y-72807200D01*
X128712837Y-72807200D02*
X128760456Y-72759580D01*
X128760456Y-72759580D02*
X128808075Y-72664342D01*
X128808075Y-72664342D02*
X128855694Y-72473866D01*
X128855694Y-72473866D02*
X128855694Y-72235771D01*
X128855694Y-72235771D02*
X128808075Y-72045295D01*
X128808075Y-72045295D02*
X128760456Y-71950057D01*
X128760456Y-71950057D02*
X128712837Y-71902438D01*
X128712837Y-71902438D02*
X128617599Y-71854819D01*
X127665218Y-71854819D02*
X127569980Y-71854819D01*
X127569980Y-71854819D02*
X127474742Y-71902438D01*
X127474742Y-71902438D02*
X127427123Y-71950057D01*
X127427123Y-71950057D02*
X127379504Y-72045295D01*
X127379504Y-72045295D02*
X127331885Y-72235771D01*
X127331885Y-72235771D02*
X127331885Y-72473866D01*
X127331885Y-72473866D02*
X127379504Y-72664342D01*
X127379504Y-72664342D02*
X127427123Y-72759580D01*
X127427123Y-72759580D02*
X127474742Y-72807200D01*
X127474742Y-72807200D02*
X127569980Y-72854819D01*
X127569980Y-72854819D02*
X127665218Y-72854819D01*
X127665218Y-72854819D02*
X127760456Y-72807200D01*
X127760456Y-72807200D02*
X127808075Y-72759580D01*
X127808075Y-72759580D02*
X127855694Y-72664342D01*
X127855694Y-72664342D02*
X127903313Y-72473866D01*
X127903313Y-72473866D02*
X127903313Y-72235771D01*
X127903313Y-72235771D02*
X127855694Y-72045295D01*
X127855694Y-72045295D02*
X127808075Y-71950057D01*
X127808075Y-71950057D02*
X127760456Y-71902438D01*
X127760456Y-71902438D02*
X127665218Y-71854819D01*
X126903313Y-72188152D02*
X126903313Y-72854819D01*
X126903313Y-72283390D02*
X126855694Y-72235771D01*
X126855694Y-72235771D02*
X126760456Y-72188152D01*
X126760456Y-72188152D02*
X126617599Y-72188152D01*
X126617599Y-72188152D02*
X126522361Y-72235771D01*
X126522361Y-72235771D02*
X126474742Y-72331009D01*
X126474742Y-72331009D02*
X126474742Y-72854819D01*
X124854819Y-101080952D02*
X124854819Y-100509524D01*
X124854819Y-100795238D02*
X123854819Y-100795238D01*
X123854819Y-100795238D02*
X123997676Y-100700000D01*
X123997676Y-100700000D02*
X124092914Y-100604762D01*
X124092914Y-100604762D02*
X124140533Y-100509524D01*
X123854819Y-101700000D02*
X123854819Y-101795238D01*
X123854819Y-101795238D02*
X123902438Y-101890476D01*
X123902438Y-101890476D02*
X123950057Y-101938095D01*
X123950057Y-101938095D02*
X124045295Y-101985714D01*
X124045295Y-101985714D02*
X124235771Y-102033333D01*
X124235771Y-102033333D02*
X124473866Y-102033333D01*
X124473866Y-102033333D02*
X124664342Y-101985714D01*
X124664342Y-101985714D02*
X124759580Y-101938095D01*
X124759580Y-101938095D02*
X124807200Y-101890476D01*
X124807200Y-101890476D02*
X124854819Y-101795238D01*
X124854819Y-101795238D02*
X124854819Y-101700000D01*
X124854819Y-101700000D02*
X124807200Y-101604762D01*
X124807200Y-101604762D02*
X124759580Y-101557143D01*
X124759580Y-101557143D02*
X124664342Y-101509524D01*
X124664342Y-101509524D02*
X124473866Y-101461905D01*
X124473866Y-101461905D02*
X124235771Y-101461905D01*
X124235771Y-101461905D02*
X124045295Y-101509524D01*
X124045295Y-101509524D02*
X123950057Y-101557143D01*
X123950057Y-101557143D02*
X123902438Y-101604762D01*
X123902438Y-101604762D02*
X123854819Y-101700000D01*
X123854819Y-102652381D02*
X123854819Y-102747619D01*
X123854819Y-102747619D02*
X123902438Y-102842857D01*
X123902438Y-102842857D02*
X123950057Y-102890476D01*
X123950057Y-102890476D02*
X124045295Y-102938095D01*
X124045295Y-102938095D02*
X124235771Y-102985714D01*
X124235771Y-102985714D02*
X124473866Y-102985714D01*
X124473866Y-102985714D02*
X124664342Y-102938095D01*
X124664342Y-102938095D02*
X124759580Y-102890476D01*
X124759580Y-102890476D02*
X124807200Y-102842857D01*
X124807200Y-102842857D02*
X124854819Y-102747619D01*
X124854819Y-102747619D02*
X124854819Y-102652381D01*
X124854819Y-102652381D02*
X124807200Y-102557143D01*
X124807200Y-102557143D02*
X124759580Y-102509524D01*
X124759580Y-102509524D02*
X124664342Y-102461905D01*
X124664342Y-102461905D02*
X124473866Y-102414286D01*
X124473866Y-102414286D02*
X124235771Y-102414286D01*
X124235771Y-102414286D02*
X124045295Y-102461905D01*
X124045295Y-102461905D02*
X123950057Y-102509524D01*
X123950057Y-102509524D02*
X123902438Y-102557143D01*
X123902438Y-102557143D02*
X123854819Y-102652381D01*
X124188152Y-103842857D02*
X124854819Y-103842857D01*
X124188152Y-103414286D02*
X124711961Y-103414286D01*
X124711961Y-103414286D02*
X124807200Y-103461905D01*
X124807200Y-103461905D02*
X124854819Y-103557143D01*
X124854819Y-103557143D02*
X124854819Y-103700000D01*
X124854819Y-103700000D02*
X124807200Y-103795238D01*
X124807200Y-103795238D02*
X124759580Y-103842857D01*
X140505037Y-82810268D02*
X141076465Y-82810268D01*
X140790751Y-82810268D02*
X140790751Y-81810268D01*
X140790751Y-81810268D02*
X140885989Y-81953125D01*
X140885989Y-81953125D02*
X140981227Y-82048363D01*
X140981227Y-82048363D02*
X141076465Y-82095982D01*
X140076465Y-82810268D02*
X140076465Y-81810268D01*
X139981227Y-82429315D02*
X139695513Y-82810268D01*
X139695513Y-82143601D02*
X140076465Y-82524553D01*
X160273904Y-108518419D02*
X160273904Y-109327942D01*
X160273904Y-109327942D02*
X160226285Y-109423180D01*
X160226285Y-109423180D02*
X160178666Y-109470800D01*
X160178666Y-109470800D02*
X160083428Y-109518419D01*
X160083428Y-109518419D02*
X159892952Y-109518419D01*
X159892952Y-109518419D02*
X159797714Y-109470800D01*
X159797714Y-109470800D02*
X159750095Y-109423180D01*
X159750095Y-109423180D02*
X159702476Y-109327942D01*
X159702476Y-109327942D02*
X159702476Y-108518419D01*
X158702476Y-109518419D02*
X159273904Y-109518419D01*
X158988190Y-109518419D02*
X158988190Y-108518419D01*
X158988190Y-108518419D02*
X159083428Y-108661276D01*
X159083428Y-108661276D02*
X159178666Y-108756514D01*
X159178666Y-108756514D02*
X159273904Y-108804133D01*
X162695237Y-119854819D02*
X162695237Y-118854819D01*
X162695237Y-118854819D02*
X162314285Y-118854819D01*
X162314285Y-118854819D02*
X162219047Y-118902438D01*
X162219047Y-118902438D02*
X162171428Y-118950057D01*
X162171428Y-118950057D02*
X162123809Y-119045295D01*
X162123809Y-119045295D02*
X162123809Y-119188152D01*
X162123809Y-119188152D02*
X162171428Y-119283390D01*
X162171428Y-119283390D02*
X162219047Y-119331009D01*
X162219047Y-119331009D02*
X162314285Y-119378628D01*
X162314285Y-119378628D02*
X162695237Y-119378628D01*
X161123809Y-119759580D02*
X161171428Y-119807200D01*
X161171428Y-119807200D02*
X161314285Y-119854819D01*
X161314285Y-119854819D02*
X161409523Y-119854819D01*
X161409523Y-119854819D02*
X161552380Y-119807200D01*
X161552380Y-119807200D02*
X161647618Y-119711961D01*
X161647618Y-119711961D02*
X161695237Y-119616723D01*
X161695237Y-119616723D02*
X161742856Y-119426247D01*
X161742856Y-119426247D02*
X161742856Y-119283390D01*
X161742856Y-119283390D02*
X161695237Y-119092914D01*
X161695237Y-119092914D02*
X161647618Y-118997676D01*
X161647618Y-118997676D02*
X161552380Y-118902438D01*
X161552380Y-118902438D02*
X161409523Y-118854819D01*
X161409523Y-118854819D02*
X161314285Y-118854819D01*
X161314285Y-118854819D02*
X161171428Y-118902438D01*
X161171428Y-118902438D02*
X161123809Y-118950057D01*
X160361904Y-119331009D02*
X160695237Y-119331009D01*
X160695237Y-119854819D02*
X160695237Y-118854819D01*
X160695237Y-118854819D02*
X160219047Y-118854819D01*
X159695237Y-119283390D02*
X159790475Y-119235771D01*
X159790475Y-119235771D02*
X159838094Y-119188152D01*
X159838094Y-119188152D02*
X159885713Y-119092914D01*
X159885713Y-119092914D02*
X159885713Y-119045295D01*
X159885713Y-119045295D02*
X159838094Y-118950057D01*
X159838094Y-118950057D02*
X159790475Y-118902438D01*
X159790475Y-118902438D02*
X159695237Y-118854819D01*
X159695237Y-118854819D02*
X159504761Y-118854819D01*
X159504761Y-118854819D02*
X159409523Y-118902438D01*
X159409523Y-118902438D02*
X159361904Y-118950057D01*
X159361904Y-118950057D02*
X159314285Y-119045295D01*
X159314285Y-119045295D02*
X159314285Y-119092914D01*
X159314285Y-119092914D02*
X159361904Y-119188152D01*
X159361904Y-119188152D02*
X159409523Y-119235771D01*
X159409523Y-119235771D02*
X159504761Y-119283390D01*
X159504761Y-119283390D02*
X159695237Y-119283390D01*
X159695237Y-119283390D02*
X159790475Y-119331009D01*
X159790475Y-119331009D02*
X159838094Y-119378628D01*
X159838094Y-119378628D02*
X159885713Y-119473866D01*
X159885713Y-119473866D02*
X159885713Y-119664342D01*
X159885713Y-119664342D02*
X159838094Y-119759580D01*
X159838094Y-119759580D02*
X159790475Y-119807200D01*
X159790475Y-119807200D02*
X159695237Y-119854819D01*
X159695237Y-119854819D02*
X159504761Y-119854819D01*
X159504761Y-119854819D02*
X159409523Y-119807200D01*
X159409523Y-119807200D02*
X159361904Y-119759580D01*
X159361904Y-119759580D02*
X159314285Y-119664342D01*
X159314285Y-119664342D02*
X159314285Y-119473866D01*
X159314285Y-119473866D02*
X159361904Y-119378628D01*
X159361904Y-119378628D02*
X159409523Y-119331009D01*
X159409523Y-119331009D02*
X159504761Y-119283390D01*
X158409523Y-118854819D02*
X158885713Y-118854819D01*
X158885713Y-118854819D02*
X158933332Y-119331009D01*
X158933332Y-119331009D02*
X158885713Y-119283390D01*
X158885713Y-119283390D02*
X158790475Y-119235771D01*
X158790475Y-119235771D02*
X158552380Y-119235771D01*
X158552380Y-119235771D02*
X158457142Y-119283390D01*
X158457142Y-119283390D02*
X158409523Y-119331009D01*
X158409523Y-119331009D02*
X158361904Y-119426247D01*
X158361904Y-119426247D02*
X158361904Y-119664342D01*
X158361904Y-119664342D02*
X158409523Y-119759580D01*
X158409523Y-119759580D02*
X158457142Y-119807200D01*
X158457142Y-119807200D02*
X158552380Y-119854819D01*
X158552380Y-119854819D02*
X158790475Y-119854819D01*
X158790475Y-119854819D02*
X158885713Y-119807200D01*
X158885713Y-119807200D02*
X158933332Y-119759580D01*
X158028570Y-118854819D02*
X157361904Y-118854819D01*
X157361904Y-118854819D02*
X157790475Y-119854819D01*
X156552380Y-119188152D02*
X156552380Y-119854819D01*
X156790475Y-118807200D02*
X157028570Y-119521485D01*
X157028570Y-119521485D02*
X156409523Y-119521485D01*
X172719047Y-79354819D02*
X173290475Y-79354819D01*
X173004761Y-79354819D02*
X173004761Y-78354819D01*
X173004761Y-78354819D02*
X173099999Y-78497676D01*
X173099999Y-78497676D02*
X173195237Y-78592914D01*
X173195237Y-78592914D02*
X173290475Y-78640533D01*
X172290475Y-79354819D02*
X172290475Y-78354819D01*
X172195237Y-78973866D02*
X171909523Y-79354819D01*
X171909523Y-78688152D02*
X172290475Y-79069104D01*
X170362476Y-106488152D02*
X170362476Y-107154819D01*
X170600571Y-106107200D02*
X170838666Y-106821485D01*
X170838666Y-106821485D02*
X170219619Y-106821485D01*
X169838666Y-107154819D02*
X169838666Y-106154819D01*
X169743428Y-106773866D02*
X169457714Y-107154819D01*
X169457714Y-106488152D02*
X169838666Y-106869104D01*
X169124380Y-106154819D02*
X168457714Y-106154819D01*
X168457714Y-106154819D02*
X168886285Y-107154819D01*
X128295238Y-133750057D02*
X128390476Y-133702438D01*
X128390476Y-133702438D02*
X128485714Y-133607200D01*
X128485714Y-133607200D02*
X128628571Y-133464342D01*
X128628571Y-133464342D02*
X128723809Y-133416723D01*
X128723809Y-133416723D02*
X128819047Y-133416723D01*
X128771428Y-133654819D02*
X128866666Y-133607200D01*
X128866666Y-133607200D02*
X128961904Y-133511961D01*
X128961904Y-133511961D02*
X129009523Y-133321485D01*
X129009523Y-133321485D02*
X129009523Y-132988152D01*
X129009523Y-132988152D02*
X128961904Y-132797676D01*
X128961904Y-132797676D02*
X128866666Y-132702438D01*
X128866666Y-132702438D02*
X128771428Y-132654819D01*
X128771428Y-132654819D02*
X128580952Y-132654819D01*
X128580952Y-132654819D02*
X128485714Y-132702438D01*
X128485714Y-132702438D02*
X128390476Y-132797676D01*
X128390476Y-132797676D02*
X128342857Y-132988152D01*
X128342857Y-132988152D02*
X128342857Y-133321485D01*
X128342857Y-133321485D02*
X128390476Y-133511961D01*
X128390476Y-133511961D02*
X128485714Y-133607200D01*
X128485714Y-133607200D02*
X128580952Y-133654819D01*
X128580952Y-133654819D02*
X128771428Y-133654819D01*
X127485714Y-132988152D02*
X127485714Y-133654819D01*
X127723809Y-132607200D02*
X127961904Y-133321485D01*
X127961904Y-133321485D02*
X127342857Y-133321485D01*
X139664319Y-102004952D02*
X139664319Y-101433524D01*
X139664319Y-101719238D02*
X138664319Y-101719238D01*
X138664319Y-101719238D02*
X138807176Y-101624000D01*
X138807176Y-101624000D02*
X138902414Y-101528762D01*
X138902414Y-101528762D02*
X138950033Y-101433524D01*
X138664319Y-102624000D02*
X138664319Y-102719238D01*
X138664319Y-102719238D02*
X138711938Y-102814476D01*
X138711938Y-102814476D02*
X138759557Y-102862095D01*
X138759557Y-102862095D02*
X138854795Y-102909714D01*
X138854795Y-102909714D02*
X139045271Y-102957333D01*
X139045271Y-102957333D02*
X139283366Y-102957333D01*
X139283366Y-102957333D02*
X139473842Y-102909714D01*
X139473842Y-102909714D02*
X139569080Y-102862095D01*
X139569080Y-102862095D02*
X139616700Y-102814476D01*
X139616700Y-102814476D02*
X139664319Y-102719238D01*
X139664319Y-102719238D02*
X139664319Y-102624000D01*
X139664319Y-102624000D02*
X139616700Y-102528762D01*
X139616700Y-102528762D02*
X139569080Y-102481143D01*
X139569080Y-102481143D02*
X139473842Y-102433524D01*
X139473842Y-102433524D02*
X139283366Y-102385905D01*
X139283366Y-102385905D02*
X139045271Y-102385905D01*
X139045271Y-102385905D02*
X138854795Y-102433524D01*
X138854795Y-102433524D02*
X138759557Y-102481143D01*
X138759557Y-102481143D02*
X138711938Y-102528762D01*
X138711938Y-102528762D02*
X138664319Y-102624000D01*
X138664319Y-103576381D02*
X138664319Y-103671619D01*
X138664319Y-103671619D02*
X138711938Y-103766857D01*
X138711938Y-103766857D02*
X138759557Y-103814476D01*
X138759557Y-103814476D02*
X138854795Y-103862095D01*
X138854795Y-103862095D02*
X139045271Y-103909714D01*
X139045271Y-103909714D02*
X139283366Y-103909714D01*
X139283366Y-103909714D02*
X139473842Y-103862095D01*
X139473842Y-103862095D02*
X139569080Y-103814476D01*
X139569080Y-103814476D02*
X139616700Y-103766857D01*
X139616700Y-103766857D02*
X139664319Y-103671619D01*
X139664319Y-103671619D02*
X139664319Y-103576381D01*
X139664319Y-103576381D02*
X139616700Y-103481143D01*
X139616700Y-103481143D02*
X139569080Y-103433524D01*
X139569080Y-103433524D02*
X139473842Y-103385905D01*
X139473842Y-103385905D02*
X139283366Y-103338286D01*
X139283366Y-103338286D02*
X139045271Y-103338286D01*
X139045271Y-103338286D02*
X138854795Y-103385905D01*
X138854795Y-103385905D02*
X138759557Y-103433524D01*
X138759557Y-103433524D02*
X138711938Y-103481143D01*
X138711938Y-103481143D02*
X138664319Y-103576381D01*
X138997652Y-104338286D02*
X139664319Y-104338286D01*
X139092890Y-104338286D02*
X139045271Y-104385905D01*
X139045271Y-104385905D02*
X138997652Y-104481143D01*
X138997652Y-104481143D02*
X138997652Y-104624000D01*
X138997652Y-104624000D02*
X139045271Y-104719238D01*
X139045271Y-104719238D02*
X139140509Y-104766857D01*
X139140509Y-104766857D02*
X139664319Y-104766857D01*
X133054819Y-82185714D02*
X133054819Y-82804761D01*
X133054819Y-82804761D02*
X133435771Y-82471428D01*
X133435771Y-82471428D02*
X133435771Y-82614285D01*
X133435771Y-82614285D02*
X133483390Y-82709523D01*
X133483390Y-82709523D02*
X133531009Y-82757142D01*
X133531009Y-82757142D02*
X133626247Y-82804761D01*
X133626247Y-82804761D02*
X133864342Y-82804761D01*
X133864342Y-82804761D02*
X133959580Y-82757142D01*
X133959580Y-82757142D02*
X134007200Y-82709523D01*
X134007200Y-82709523D02*
X134054819Y-82614285D01*
X134054819Y-82614285D02*
X134054819Y-82328571D01*
X134054819Y-82328571D02*
X134007200Y-82233333D01*
X134007200Y-82233333D02*
X133959580Y-82185714D01*
X133054819Y-83423809D02*
X133054819Y-83519047D01*
X133054819Y-83519047D02*
X133102438Y-83614285D01*
X133102438Y-83614285D02*
X133150057Y-83661904D01*
X133150057Y-83661904D02*
X133245295Y-83709523D01*
X133245295Y-83709523D02*
X133435771Y-83757142D01*
X133435771Y-83757142D02*
X133673866Y-83757142D01*
X133673866Y-83757142D02*
X133864342Y-83709523D01*
X133864342Y-83709523D02*
X133959580Y-83661904D01*
X133959580Y-83661904D02*
X134007200Y-83614285D01*
X134007200Y-83614285D02*
X134054819Y-83519047D01*
X134054819Y-83519047D02*
X134054819Y-83423809D01*
X134054819Y-83423809D02*
X134007200Y-83328571D01*
X134007200Y-83328571D02*
X133959580Y-83280952D01*
X133959580Y-83280952D02*
X133864342Y-83233333D01*
X133864342Y-83233333D02*
X133673866Y-83185714D01*
X133673866Y-83185714D02*
X133435771Y-83185714D01*
X133435771Y-83185714D02*
X133245295Y-83233333D01*
X133245295Y-83233333D02*
X133150057Y-83280952D01*
X133150057Y-83280952D02*
X133102438Y-83328571D01*
X133102438Y-83328571D02*
X133054819Y-83423809D01*
X134054819Y-84185714D02*
X133054819Y-84185714D01*
X133673866Y-84280952D02*
X134054819Y-84566666D01*
X133388152Y-84566666D02*
X133769104Y-84185714D01*
X138714285Y-79054819D02*
X138095238Y-79054819D01*
X138095238Y-79054819D02*
X138428571Y-79435771D01*
X138428571Y-79435771D02*
X138285714Y-79435771D01*
X138285714Y-79435771D02*
X138190476Y-79483390D01*
X138190476Y-79483390D02*
X138142857Y-79531009D01*
X138142857Y-79531009D02*
X138095238Y-79626247D01*
X138095238Y-79626247D02*
X138095238Y-79864342D01*
X138095238Y-79864342D02*
X138142857Y-79959580D01*
X138142857Y-79959580D02*
X138190476Y-80007200D01*
X138190476Y-80007200D02*
X138285714Y-80054819D01*
X138285714Y-80054819D02*
X138571428Y-80054819D01*
X138571428Y-80054819D02*
X138666666Y-80007200D01*
X138666666Y-80007200D02*
X138714285Y-79959580D01*
X137476190Y-79054819D02*
X137380952Y-79054819D01*
X137380952Y-79054819D02*
X137285714Y-79102438D01*
X137285714Y-79102438D02*
X137238095Y-79150057D01*
X137238095Y-79150057D02*
X137190476Y-79245295D01*
X137190476Y-79245295D02*
X137142857Y-79435771D01*
X137142857Y-79435771D02*
X137142857Y-79673866D01*
X137142857Y-79673866D02*
X137190476Y-79864342D01*
X137190476Y-79864342D02*
X137238095Y-79959580D01*
X137238095Y-79959580D02*
X137285714Y-80007200D01*
X137285714Y-80007200D02*
X137380952Y-80054819D01*
X137380952Y-80054819D02*
X137476190Y-80054819D01*
X137476190Y-80054819D02*
X137571428Y-80007200D01*
X137571428Y-80007200D02*
X137619047Y-79959580D01*
X137619047Y-79959580D02*
X137666666Y-79864342D01*
X137666666Y-79864342D02*
X137714285Y-79673866D01*
X137714285Y-79673866D02*
X137714285Y-79435771D01*
X137714285Y-79435771D02*
X137666666Y-79245295D01*
X137666666Y-79245295D02*
X137619047Y-79150057D01*
X137619047Y-79150057D02*
X137571428Y-79102438D01*
X137571428Y-79102438D02*
X137476190Y-79054819D01*
X136714285Y-80054819D02*
X136714285Y-79054819D01*
X136619047Y-79673866D02*
X136333333Y-80054819D01*
X136333333Y-79388152D02*
X136714285Y-79769104D01*
D13*
X180704173Y-101508967D02*
X179758326Y-101508967D01*
X179758326Y-101508967D02*
X179647050Y-101453329D01*
X179647050Y-101453329D02*
X179591412Y-101397691D01*
X179591412Y-101397691D02*
X179535773Y-101286415D01*
X179535773Y-101286415D02*
X179535773Y-101063862D01*
X179535773Y-101063862D02*
X179591412Y-100952586D01*
X179591412Y-100952586D02*
X179647050Y-100896948D01*
X179647050Y-100896948D02*
X179758326Y-100841310D01*
X179758326Y-100841310D02*
X180704173Y-100841310D01*
X180704173Y-100396205D02*
X180704173Y-99672910D01*
X180704173Y-99672910D02*
X180259069Y-100062377D01*
X180259069Y-100062377D02*
X180259069Y-99895462D01*
X180259069Y-99895462D02*
X180203431Y-99784186D01*
X180203431Y-99784186D02*
X180147792Y-99728548D01*
X180147792Y-99728548D02*
X180036516Y-99672910D01*
X180036516Y-99672910D02*
X179758326Y-99672910D01*
X179758326Y-99672910D02*
X179647050Y-99728548D01*
X179647050Y-99728548D02*
X179591412Y-99784186D01*
X179591412Y-99784186D02*
X179535773Y-99895462D01*
X179535773Y-99895462D02*
X179535773Y-100229291D01*
X179535773Y-100229291D02*
X179591412Y-100340567D01*
X179591412Y-100340567D02*
X179647050Y-100396205D01*
X153945878Y-101675881D02*
X154001516Y-101620243D01*
X154001516Y-101620243D02*
X154057154Y-101508967D01*
X154057154Y-101508967D02*
X153945878Y-101286415D01*
X153945878Y-101286415D02*
X154001516Y-101175138D01*
X154001516Y-101175138D02*
X154057154Y-101119500D01*
D12*
X155885895Y-94074839D02*
X155885895Y-93598649D01*
X155600180Y-94170077D02*
X156600180Y-93836744D01*
X156600180Y-93836744D02*
X155600180Y-93503411D01*
X155600180Y-93170077D02*
X156600180Y-93170077D01*
X156600180Y-93170077D02*
X155600180Y-92598649D01*
X155600180Y-92598649D02*
X156600180Y-92598649D01*
X156600180Y-92265315D02*
X156600180Y-91693887D01*
X155600180Y-91979601D02*
X156600180Y-91979601D01*
X130954819Y-128152381D02*
X130954819Y-128247619D01*
X130954819Y-128247619D02*
X131002438Y-128342857D01*
X131002438Y-128342857D02*
X131050057Y-128390476D01*
X131050057Y-128390476D02*
X131145295Y-128438095D01*
X131145295Y-128438095D02*
X131335771Y-128485714D01*
X131335771Y-128485714D02*
X131573866Y-128485714D01*
X131573866Y-128485714D02*
X131764342Y-128438095D01*
X131764342Y-128438095D02*
X131859580Y-128390476D01*
X131859580Y-128390476D02*
X131907200Y-128342857D01*
X131907200Y-128342857D02*
X131954819Y-128247619D01*
X131954819Y-128247619D02*
X131954819Y-128152381D01*
X131954819Y-128152381D02*
X131907200Y-128057143D01*
X131907200Y-128057143D02*
X131859580Y-128009524D01*
X131859580Y-128009524D02*
X131764342Y-127961905D01*
X131764342Y-127961905D02*
X131573866Y-127914286D01*
X131573866Y-127914286D02*
X131335771Y-127914286D01*
X131335771Y-127914286D02*
X131145295Y-127961905D01*
X131145295Y-127961905D02*
X131050057Y-128009524D01*
X131050057Y-128009524D02*
X131002438Y-128057143D01*
X131002438Y-128057143D02*
X130954819Y-128152381D01*
X128288152Y-91609523D02*
X128954819Y-91609523D01*
X127907200Y-91371428D02*
X128621485Y-91133333D01*
X128621485Y-91133333D02*
X128621485Y-91752380D01*
X128954819Y-92133333D02*
X127954819Y-92133333D01*
X128573866Y-92228571D02*
X128954819Y-92514285D01*
X128288152Y-92514285D02*
X128669104Y-92133333D01*
X127954819Y-92847619D02*
X127954819Y-93514285D01*
X127954819Y-93514285D02*
X128954819Y-93085714D01*
X125571238Y-91888457D02*
X125666476Y-91840838D01*
X125666476Y-91840838D02*
X125761714Y-91745600D01*
X125761714Y-91745600D02*
X125904571Y-91602742D01*
X125904571Y-91602742D02*
X125999809Y-91555123D01*
X125999809Y-91555123D02*
X126095047Y-91555123D01*
X126047428Y-91793219D02*
X126142666Y-91745600D01*
X126142666Y-91745600D02*
X126237904Y-91650361D01*
X126237904Y-91650361D02*
X126285523Y-91459885D01*
X126285523Y-91459885D02*
X126285523Y-91126552D01*
X126285523Y-91126552D02*
X126237904Y-90936076D01*
X126237904Y-90936076D02*
X126142666Y-90840838D01*
X126142666Y-90840838D02*
X126047428Y-90793219D01*
X126047428Y-90793219D02*
X125856952Y-90793219D01*
X125856952Y-90793219D02*
X125761714Y-90840838D01*
X125761714Y-90840838D02*
X125666476Y-90936076D01*
X125666476Y-90936076D02*
X125618857Y-91126552D01*
X125618857Y-91126552D02*
X125618857Y-91459885D01*
X125618857Y-91459885D02*
X125666476Y-91650361D01*
X125666476Y-91650361D02*
X125761714Y-91745600D01*
X125761714Y-91745600D02*
X125856952Y-91793219D01*
X125856952Y-91793219D02*
X126047428Y-91793219D01*
X124714095Y-90793219D02*
X125190285Y-90793219D01*
X125190285Y-90793219D02*
X125237904Y-91269409D01*
X125237904Y-91269409D02*
X125190285Y-91221790D01*
X125190285Y-91221790D02*
X125095047Y-91174171D01*
X125095047Y-91174171D02*
X124856952Y-91174171D01*
X124856952Y-91174171D02*
X124761714Y-91221790D01*
X124761714Y-91221790D02*
X124714095Y-91269409D01*
X124714095Y-91269409D02*
X124666476Y-91364647D01*
X124666476Y-91364647D02*
X124666476Y-91602742D01*
X124666476Y-91602742D02*
X124714095Y-91697980D01*
X124714095Y-91697980D02*
X124761714Y-91745600D01*
X124761714Y-91745600D02*
X124856952Y-91793219D01*
X124856952Y-91793219D02*
X125095047Y-91793219D01*
X125095047Y-91793219D02*
X125190285Y-91745600D01*
X125190285Y-91745600D02*
X125237904Y-91697980D01*
X136090476Y-132188152D02*
X136090476Y-132854819D01*
X136328571Y-131807200D02*
X136566666Y-132521485D01*
X136566666Y-132521485D02*
X135947619Y-132521485D01*
X135566666Y-132854819D02*
X135566666Y-131854819D01*
X135471428Y-132473866D02*
X135185714Y-132854819D01*
X135185714Y-132188152D02*
X135566666Y-132569104D01*
X134852380Y-131854819D02*
X134185714Y-131854819D01*
X134185714Y-131854819D02*
X134614285Y-132854819D01*
X136095238Y-76054819D02*
X136666666Y-76054819D01*
X136380952Y-76054819D02*
X136380952Y-75054819D01*
X136380952Y-75054819D02*
X136476190Y-75197676D01*
X136476190Y-75197676D02*
X136571428Y-75292914D01*
X136571428Y-75292914D02*
X136666666Y-75340533D01*
X135476190Y-75054819D02*
X135380952Y-75054819D01*
X135380952Y-75054819D02*
X135285714Y-75102438D01*
X135285714Y-75102438D02*
X135238095Y-75150057D01*
X135238095Y-75150057D02*
X135190476Y-75245295D01*
X135190476Y-75245295D02*
X135142857Y-75435771D01*
X135142857Y-75435771D02*
X135142857Y-75673866D01*
X135142857Y-75673866D02*
X135190476Y-75864342D01*
X135190476Y-75864342D02*
X135238095Y-75959580D01*
X135238095Y-75959580D02*
X135285714Y-76007200D01*
X135285714Y-76007200D02*
X135380952Y-76054819D01*
X135380952Y-76054819D02*
X135476190Y-76054819D01*
X135476190Y-76054819D02*
X135571428Y-76007200D01*
X135571428Y-76007200D02*
X135619047Y-75959580D01*
X135619047Y-75959580D02*
X135666666Y-75864342D01*
X135666666Y-75864342D02*
X135714285Y-75673866D01*
X135714285Y-75673866D02*
X135714285Y-75435771D01*
X135714285Y-75435771D02*
X135666666Y-75245295D01*
X135666666Y-75245295D02*
X135619047Y-75150057D01*
X135619047Y-75150057D02*
X135571428Y-75102438D01*
X135571428Y-75102438D02*
X135476190Y-75054819D01*
X134714285Y-76054819D02*
X134714285Y-75054819D01*
X134619047Y-75673866D02*
X134333333Y-76054819D01*
X134333333Y-75388152D02*
X134714285Y-75769104D01*
X165790476Y-106588152D02*
X165790476Y-107254819D01*
X166028571Y-106207200D02*
X166266666Y-106921485D01*
X166266666Y-106921485D02*
X165647619Y-106921485D01*
X165266666Y-107254819D02*
X165266666Y-106254819D01*
X165171428Y-106873866D02*
X164885714Y-107254819D01*
X164885714Y-106588152D02*
X165266666Y-106969104D01*
X164552380Y-106254819D02*
X163885714Y-106254819D01*
X163885714Y-106254819D02*
X164314285Y-107254819D01*
X152474304Y-75985019D02*
X152474304Y-76794542D01*
X152474304Y-76794542D02*
X152426685Y-76889780D01*
X152426685Y-76889780D02*
X152379066Y-76937400D01*
X152379066Y-76937400D02*
X152283828Y-76985019D01*
X152283828Y-76985019D02*
X152093352Y-76985019D01*
X152093352Y-76985019D02*
X151998114Y-76937400D01*
X151998114Y-76937400D02*
X151950495Y-76889780D01*
X151950495Y-76889780D02*
X151902876Y-76794542D01*
X151902876Y-76794542D02*
X151902876Y-75985019D01*
X151474304Y-76080257D02*
X151426685Y-76032638D01*
X151426685Y-76032638D02*
X151331447Y-75985019D01*
X151331447Y-75985019D02*
X151093352Y-75985019D01*
X151093352Y-75985019D02*
X150998114Y-76032638D01*
X150998114Y-76032638D02*
X150950495Y-76080257D01*
X150950495Y-76080257D02*
X150902876Y-76175495D01*
X150902876Y-76175495D02*
X150902876Y-76270733D01*
X150902876Y-76270733D02*
X150950495Y-76413590D01*
X150950495Y-76413590D02*
X151521923Y-76985019D01*
X151521923Y-76985019D02*
X150902876Y-76985019D01*
X154807637Y-72754819D02*
X154807637Y-71754819D01*
X154807637Y-71754819D02*
X154426685Y-71754819D01*
X154426685Y-71754819D02*
X154331447Y-71802438D01*
X154331447Y-71802438D02*
X154283828Y-71850057D01*
X154283828Y-71850057D02*
X154236209Y-71945295D01*
X154236209Y-71945295D02*
X154236209Y-72088152D01*
X154236209Y-72088152D02*
X154283828Y-72183390D01*
X154283828Y-72183390D02*
X154331447Y-72231009D01*
X154331447Y-72231009D02*
X154426685Y-72278628D01*
X154426685Y-72278628D02*
X154807637Y-72278628D01*
X153236209Y-72659580D02*
X153283828Y-72707200D01*
X153283828Y-72707200D02*
X153426685Y-72754819D01*
X153426685Y-72754819D02*
X153521923Y-72754819D01*
X153521923Y-72754819D02*
X153664780Y-72707200D01*
X153664780Y-72707200D02*
X153760018Y-72611961D01*
X153760018Y-72611961D02*
X153807637Y-72516723D01*
X153807637Y-72516723D02*
X153855256Y-72326247D01*
X153855256Y-72326247D02*
X153855256Y-72183390D01*
X153855256Y-72183390D02*
X153807637Y-71992914D01*
X153807637Y-71992914D02*
X153760018Y-71897676D01*
X153760018Y-71897676D02*
X153664780Y-71802438D01*
X153664780Y-71802438D02*
X153521923Y-71754819D01*
X153521923Y-71754819D02*
X153426685Y-71754819D01*
X153426685Y-71754819D02*
X153283828Y-71802438D01*
X153283828Y-71802438D02*
X153236209Y-71850057D01*
X152474304Y-72231009D02*
X152807637Y-72231009D01*
X152807637Y-72754819D02*
X152807637Y-71754819D01*
X152807637Y-71754819D02*
X152331447Y-71754819D01*
X151807637Y-72183390D02*
X151902875Y-72135771D01*
X151902875Y-72135771D02*
X151950494Y-72088152D01*
X151950494Y-72088152D02*
X151998113Y-71992914D01*
X151998113Y-71992914D02*
X151998113Y-71945295D01*
X151998113Y-71945295D02*
X151950494Y-71850057D01*
X151950494Y-71850057D02*
X151902875Y-71802438D01*
X151902875Y-71802438D02*
X151807637Y-71754819D01*
X151807637Y-71754819D02*
X151617161Y-71754819D01*
X151617161Y-71754819D02*
X151521923Y-71802438D01*
X151521923Y-71802438D02*
X151474304Y-71850057D01*
X151474304Y-71850057D02*
X151426685Y-71945295D01*
X151426685Y-71945295D02*
X151426685Y-71992914D01*
X151426685Y-71992914D02*
X151474304Y-72088152D01*
X151474304Y-72088152D02*
X151521923Y-72135771D01*
X151521923Y-72135771D02*
X151617161Y-72183390D01*
X151617161Y-72183390D02*
X151807637Y-72183390D01*
X151807637Y-72183390D02*
X151902875Y-72231009D01*
X151902875Y-72231009D02*
X151950494Y-72278628D01*
X151950494Y-72278628D02*
X151998113Y-72373866D01*
X151998113Y-72373866D02*
X151998113Y-72564342D01*
X151998113Y-72564342D02*
X151950494Y-72659580D01*
X151950494Y-72659580D02*
X151902875Y-72707200D01*
X151902875Y-72707200D02*
X151807637Y-72754819D01*
X151807637Y-72754819D02*
X151617161Y-72754819D01*
X151617161Y-72754819D02*
X151521923Y-72707200D01*
X151521923Y-72707200D02*
X151474304Y-72659580D01*
X151474304Y-72659580D02*
X151426685Y-72564342D01*
X151426685Y-72564342D02*
X151426685Y-72373866D01*
X151426685Y-72373866D02*
X151474304Y-72278628D01*
X151474304Y-72278628D02*
X151521923Y-72231009D01*
X151521923Y-72231009D02*
X151617161Y-72183390D01*
X150521923Y-71754819D02*
X150998113Y-71754819D01*
X150998113Y-71754819D02*
X151045732Y-72231009D01*
X151045732Y-72231009D02*
X150998113Y-72183390D01*
X150998113Y-72183390D02*
X150902875Y-72135771D01*
X150902875Y-72135771D02*
X150664780Y-72135771D01*
X150664780Y-72135771D02*
X150569542Y-72183390D01*
X150569542Y-72183390D02*
X150521923Y-72231009D01*
X150521923Y-72231009D02*
X150474304Y-72326247D01*
X150474304Y-72326247D02*
X150474304Y-72564342D01*
X150474304Y-72564342D02*
X150521923Y-72659580D01*
X150521923Y-72659580D02*
X150569542Y-72707200D01*
X150569542Y-72707200D02*
X150664780Y-72754819D01*
X150664780Y-72754819D02*
X150902875Y-72754819D01*
X150902875Y-72754819D02*
X150998113Y-72707200D01*
X150998113Y-72707200D02*
X151045732Y-72659580D01*
X150140970Y-71754819D02*
X149474304Y-71754819D01*
X149474304Y-71754819D02*
X149902875Y-72754819D01*
X148664780Y-72088152D02*
X148664780Y-72754819D01*
X148902875Y-71707200D02*
X149140970Y-72421485D01*
X149140970Y-72421485D02*
X148521923Y-72421485D01*
X150519047Y-83554819D02*
X151090475Y-83554819D01*
X150804761Y-83554819D02*
X150804761Y-82554819D01*
X150804761Y-82554819D02*
X150899999Y-82697676D01*
X150899999Y-82697676D02*
X150995237Y-82792914D01*
X150995237Y-82792914D02*
X151090475Y-82840533D01*
X150090475Y-83554819D02*
X150090475Y-82554819D01*
X149995237Y-83173866D02*
X149709523Y-83554819D01*
X149709523Y-82888152D02*
X150090475Y-83269104D01*
X128654819Y-128152381D02*
X128654819Y-128247619D01*
X128654819Y-128247619D02*
X128702438Y-128342857D01*
X128702438Y-128342857D02*
X128750057Y-128390476D01*
X128750057Y-128390476D02*
X128845295Y-128438095D01*
X128845295Y-128438095D02*
X129035771Y-128485714D01*
X129035771Y-128485714D02*
X129273866Y-128485714D01*
X129273866Y-128485714D02*
X129464342Y-128438095D01*
X129464342Y-128438095D02*
X129559580Y-128390476D01*
X129559580Y-128390476D02*
X129607200Y-128342857D01*
X129607200Y-128342857D02*
X129654819Y-128247619D01*
X129654819Y-128247619D02*
X129654819Y-128152381D01*
X129654819Y-128152381D02*
X129607200Y-128057143D01*
X129607200Y-128057143D02*
X129559580Y-128009524D01*
X129559580Y-128009524D02*
X129464342Y-127961905D01*
X129464342Y-127961905D02*
X129273866Y-127914286D01*
X129273866Y-127914286D02*
X129035771Y-127914286D01*
X129035771Y-127914286D02*
X128845295Y-127961905D01*
X128845295Y-127961905D02*
X128750057Y-128009524D01*
X128750057Y-128009524D02*
X128702438Y-128057143D01*
X128702438Y-128057143D02*
X128654819Y-128152381D01*
X147240666Y-126868380D02*
X147240666Y-126154095D01*
X147240666Y-126154095D02*
X147193047Y-126011238D01*
X147193047Y-126011238D02*
X147097809Y-125916000D01*
X147097809Y-125916000D02*
X146954952Y-125868380D01*
X146954952Y-125868380D02*
X146859714Y-125868380D01*
X148145428Y-126535047D02*
X148145428Y-125868380D01*
X147907333Y-126916000D02*
X147669238Y-126201714D01*
X147669238Y-126201714D02*
X148288285Y-126201714D01*
X120904819Y-88618452D02*
X120904819Y-88047024D01*
X120904819Y-88332738D02*
X119904819Y-88332738D01*
X119904819Y-88332738D02*
X120047676Y-88237500D01*
X120047676Y-88237500D02*
X120142914Y-88142262D01*
X120142914Y-88142262D02*
X120190533Y-88047024D01*
X119904819Y-89237500D02*
X119904819Y-89332738D01*
X119904819Y-89332738D02*
X119952438Y-89427976D01*
X119952438Y-89427976D02*
X120000057Y-89475595D01*
X120000057Y-89475595D02*
X120095295Y-89523214D01*
X120095295Y-89523214D02*
X120285771Y-89570833D01*
X120285771Y-89570833D02*
X120523866Y-89570833D01*
X120523866Y-89570833D02*
X120714342Y-89523214D01*
X120714342Y-89523214D02*
X120809580Y-89475595D01*
X120809580Y-89475595D02*
X120857200Y-89427976D01*
X120857200Y-89427976D02*
X120904819Y-89332738D01*
X120904819Y-89332738D02*
X120904819Y-89237500D01*
X120904819Y-89237500D02*
X120857200Y-89142262D01*
X120857200Y-89142262D02*
X120809580Y-89094643D01*
X120809580Y-89094643D02*
X120714342Y-89047024D01*
X120714342Y-89047024D02*
X120523866Y-88999405D01*
X120523866Y-88999405D02*
X120285771Y-88999405D01*
X120285771Y-88999405D02*
X120095295Y-89047024D01*
X120095295Y-89047024D02*
X120000057Y-89094643D01*
X120000057Y-89094643D02*
X119952438Y-89142262D01*
X119952438Y-89142262D02*
X119904819Y-89237500D01*
X119904819Y-90189881D02*
X119904819Y-90285119D01*
X119904819Y-90285119D02*
X119952438Y-90380357D01*
X119952438Y-90380357D02*
X120000057Y-90427976D01*
X120000057Y-90427976D02*
X120095295Y-90475595D01*
X120095295Y-90475595D02*
X120285771Y-90523214D01*
X120285771Y-90523214D02*
X120523866Y-90523214D01*
X120523866Y-90523214D02*
X120714342Y-90475595D01*
X120714342Y-90475595D02*
X120809580Y-90427976D01*
X120809580Y-90427976D02*
X120857200Y-90380357D01*
X120857200Y-90380357D02*
X120904819Y-90285119D01*
X120904819Y-90285119D02*
X120904819Y-90189881D01*
X120904819Y-90189881D02*
X120857200Y-90094643D01*
X120857200Y-90094643D02*
X120809580Y-90047024D01*
X120809580Y-90047024D02*
X120714342Y-89999405D01*
X120714342Y-89999405D02*
X120523866Y-89951786D01*
X120523866Y-89951786D02*
X120285771Y-89951786D01*
X120285771Y-89951786D02*
X120095295Y-89999405D01*
X120095295Y-89999405D02*
X120000057Y-90047024D01*
X120000057Y-90047024D02*
X119952438Y-90094643D01*
X119952438Y-90094643D02*
X119904819Y-90189881D01*
X120238152Y-91380357D02*
X120904819Y-91380357D01*
X120238152Y-90951786D02*
X120761961Y-90951786D01*
X120761961Y-90951786D02*
X120857200Y-90999405D01*
X120857200Y-90999405D02*
X120904819Y-91094643D01*
X120904819Y-91094643D02*
X120904819Y-91237500D01*
X120904819Y-91237500D02*
X120857200Y-91332738D01*
X120857200Y-91332738D02*
X120809580Y-91380357D01*
X136019047Y-130354819D02*
X136590475Y-130354819D01*
X136304761Y-130354819D02*
X136304761Y-129354819D01*
X136304761Y-129354819D02*
X136399999Y-129497676D01*
X136399999Y-129497676D02*
X136495237Y-129592914D01*
X136495237Y-129592914D02*
X136590475Y-129640533D01*
X135590475Y-130354819D02*
X135590475Y-129354819D01*
X135495237Y-129973866D02*
X135209523Y-130354819D01*
X135209523Y-129688152D02*
X135590475Y-130069104D01*
X176504319Y-114391666D02*
X177218604Y-114391666D01*
X177218604Y-114391666D02*
X177361461Y-114344047D01*
X177361461Y-114344047D02*
X177456700Y-114248809D01*
X177456700Y-114248809D02*
X177504319Y-114105952D01*
X177504319Y-114105952D02*
X177504319Y-114010714D01*
X176504319Y-115296428D02*
X176504319Y-115105952D01*
X176504319Y-115105952D02*
X176551938Y-115010714D01*
X176551938Y-115010714D02*
X176599557Y-114963095D01*
X176599557Y-114963095D02*
X176742414Y-114867857D01*
X176742414Y-114867857D02*
X176932890Y-114820238D01*
X176932890Y-114820238D02*
X177313842Y-114820238D01*
X177313842Y-114820238D02*
X177409080Y-114867857D01*
X177409080Y-114867857D02*
X177456700Y-114915476D01*
X177456700Y-114915476D02*
X177504319Y-115010714D01*
X177504319Y-115010714D02*
X177504319Y-115201190D01*
X177504319Y-115201190D02*
X177456700Y-115296428D01*
X177456700Y-115296428D02*
X177409080Y-115344047D01*
X177409080Y-115344047D02*
X177313842Y-115391666D01*
X177313842Y-115391666D02*
X177075747Y-115391666D01*
X177075747Y-115391666D02*
X176980509Y-115344047D01*
X176980509Y-115344047D02*
X176932890Y-115296428D01*
X176932890Y-115296428D02*
X176885271Y-115201190D01*
X176885271Y-115201190D02*
X176885271Y-115010714D01*
X176885271Y-115010714D02*
X176932890Y-114915476D01*
X176932890Y-114915476D02*
X176980509Y-114867857D01*
X176980509Y-114867857D02*
X177075747Y-114820238D01*
X124804819Y-96080952D02*
X124804819Y-95509524D01*
X124804819Y-95795238D02*
X123804819Y-95795238D01*
X123804819Y-95795238D02*
X123947676Y-95700000D01*
X123947676Y-95700000D02*
X124042914Y-95604762D01*
X124042914Y-95604762D02*
X124090533Y-95509524D01*
X123804819Y-96700000D02*
X123804819Y-96795238D01*
X123804819Y-96795238D02*
X123852438Y-96890476D01*
X123852438Y-96890476D02*
X123900057Y-96938095D01*
X123900057Y-96938095D02*
X123995295Y-96985714D01*
X123995295Y-96985714D02*
X124185771Y-97033333D01*
X124185771Y-97033333D02*
X124423866Y-97033333D01*
X124423866Y-97033333D02*
X124614342Y-96985714D01*
X124614342Y-96985714D02*
X124709580Y-96938095D01*
X124709580Y-96938095D02*
X124757200Y-96890476D01*
X124757200Y-96890476D02*
X124804819Y-96795238D01*
X124804819Y-96795238D02*
X124804819Y-96700000D01*
X124804819Y-96700000D02*
X124757200Y-96604762D01*
X124757200Y-96604762D02*
X124709580Y-96557143D01*
X124709580Y-96557143D02*
X124614342Y-96509524D01*
X124614342Y-96509524D02*
X124423866Y-96461905D01*
X124423866Y-96461905D02*
X124185771Y-96461905D01*
X124185771Y-96461905D02*
X123995295Y-96509524D01*
X123995295Y-96509524D02*
X123900057Y-96557143D01*
X123900057Y-96557143D02*
X123852438Y-96604762D01*
X123852438Y-96604762D02*
X123804819Y-96700000D01*
X123804819Y-97652381D02*
X123804819Y-97747619D01*
X123804819Y-97747619D02*
X123852438Y-97842857D01*
X123852438Y-97842857D02*
X123900057Y-97890476D01*
X123900057Y-97890476D02*
X123995295Y-97938095D01*
X123995295Y-97938095D02*
X124185771Y-97985714D01*
X124185771Y-97985714D02*
X124423866Y-97985714D01*
X124423866Y-97985714D02*
X124614342Y-97938095D01*
X124614342Y-97938095D02*
X124709580Y-97890476D01*
X124709580Y-97890476D02*
X124757200Y-97842857D01*
X124757200Y-97842857D02*
X124804819Y-97747619D01*
X124804819Y-97747619D02*
X124804819Y-97652381D01*
X124804819Y-97652381D02*
X124757200Y-97557143D01*
X124757200Y-97557143D02*
X124709580Y-97509524D01*
X124709580Y-97509524D02*
X124614342Y-97461905D01*
X124614342Y-97461905D02*
X124423866Y-97414286D01*
X124423866Y-97414286D02*
X124185771Y-97414286D01*
X124185771Y-97414286D02*
X123995295Y-97461905D01*
X123995295Y-97461905D02*
X123900057Y-97509524D01*
X123900057Y-97509524D02*
X123852438Y-97557143D01*
X123852438Y-97557143D02*
X123804819Y-97652381D01*
X124138152Y-98842857D02*
X124804819Y-98842857D01*
X124138152Y-98414286D02*
X124661961Y-98414286D01*
X124661961Y-98414286D02*
X124757200Y-98461905D01*
X124757200Y-98461905D02*
X124804819Y-98557143D01*
X124804819Y-98557143D02*
X124804819Y-98700000D01*
X124804819Y-98700000D02*
X124757200Y-98795238D01*
X124757200Y-98795238D02*
X124709580Y-98842857D01*
X132652604Y-106012019D02*
X132652604Y-106821542D01*
X132652604Y-106821542D02*
X132604985Y-106916780D01*
X132604985Y-106916780D02*
X132557366Y-106964400D01*
X132557366Y-106964400D02*
X132462128Y-107012019D01*
X132462128Y-107012019D02*
X132271652Y-107012019D01*
X132271652Y-107012019D02*
X132176414Y-106964400D01*
X132176414Y-106964400D02*
X132128795Y-106916780D01*
X132128795Y-106916780D02*
X132081176Y-106821542D01*
X132081176Y-106821542D02*
X132081176Y-106012019D01*
X131176414Y-106345352D02*
X131176414Y-107012019D01*
X131414509Y-105964400D02*
X131652604Y-106678685D01*
X131652604Y-106678685D02*
X131033557Y-106678685D01*
X131054819Y-91680952D02*
X131054819Y-91109524D01*
X131054819Y-91395238D02*
X130054819Y-91395238D01*
X130054819Y-91395238D02*
X130197676Y-91300000D01*
X130197676Y-91300000D02*
X130292914Y-91204762D01*
X130292914Y-91204762D02*
X130340533Y-91109524D01*
X131054819Y-92109524D02*
X130054819Y-92109524D01*
X130673866Y-92204762D02*
X131054819Y-92490476D01*
X130388152Y-92490476D02*
X130769104Y-92109524D01*
D14*
X141629200Y-78519500D02*
X141629200Y-79169500D01*
X141629200Y-79819500D02*
X141629200Y-79169500D01*
X144749200Y-78519500D02*
X144749200Y-79169500D01*
X144749200Y-79819500D02*
X144749200Y-79169500D01*
X145029200Y-80572000D02*
X144699200Y-80332000D01*
X145029200Y-80092000D01*
X145029200Y-80572000D01*
G36*
X145029200Y-80572000D02*
G01*
X144699200Y-80332000D01*
X145029200Y-80092000D01*
X145029200Y-80572000D01*
G37*
X120904000Y-86851600D02*
X120904000Y-78551600D01*
X131304000Y-86801600D02*
X131304000Y-78551600D01*
X131904000Y-85551600D02*
X120104000Y-85551600D01*
X120104000Y-78551600D02*
X132004000Y-78551600D01*
X132004000Y-86851600D01*
X120104000Y-86851600D01*
X120104000Y-78551600D01*
X114511600Y-118874000D02*
X114511600Y-110574000D01*
X124911600Y-118824000D02*
X124911600Y-110574000D01*
X125511600Y-117574000D02*
X113711600Y-117574000D01*
X113711600Y-110574000D02*
X125611600Y-110574000D01*
X125611600Y-118874000D01*
X113711600Y-118874000D01*
X113711600Y-110574000D01*
X168428936Y-80138600D02*
X168883064Y-80138600D01*
X168428936Y-81608600D02*
X168883064Y-81608600D01*
D15*
G36*
X121997738Y-108136026D02*
G01*
X122084976Y-108145719D01*
X122084976Y-108604523D01*
X121929887Y-108604523D01*
X121700485Y-108538288D01*
X121622940Y-108355735D01*
X121645557Y-108241034D01*
X121706947Y-108173183D01*
X121797415Y-108140872D01*
X121904039Y-108132795D01*
X121997738Y-108136026D01*
G37*
G36*
X122084976Y-109476898D02*
G01*
X121992892Y-109486591D01*
X121894346Y-109489822D01*
X121761874Y-109478514D01*
X121647173Y-109436511D01*
X121564782Y-109349273D01*
X121532472Y-109205493D01*
X121624556Y-108997092D01*
X121871729Y-108934087D01*
X122084976Y-108934087D01*
X122084976Y-109476898D01*
G37*
G36*
X124449363Y-108800000D02*
G01*
X123400000Y-110374044D01*
X122861497Y-110374044D01*
X121926656Y-110374044D01*
X120033279Y-110374044D01*
X118278837Y-110374044D01*
X116317609Y-110374044D01*
X115938503Y-110374044D01*
X115400000Y-110374044D01*
X114804056Y-109480129D01*
X116317609Y-109480129D01*
X116317609Y-109809693D01*
X117622940Y-109809693D01*
X117958966Y-109809693D01*
X118278837Y-109809693D01*
X118371998Y-109588009D01*
X118470544Y-109366685D01*
X118574475Y-109145719D01*
X118683791Y-108924753D01*
X118798492Y-108703428D01*
X118918578Y-108481745D01*
X118918578Y-109809693D01*
X119277221Y-109809693D01*
X119277221Y-108139257D01*
X119506624Y-108139257D01*
X120033279Y-108139257D01*
X120033279Y-109809693D01*
X120433926Y-109809693D01*
X120433926Y-109205493D01*
X121141519Y-109205493D01*
X121156866Y-109371486D01*
X121202908Y-109507593D01*
X121369305Y-109701454D01*
X121484006Y-109763651D01*
X121618094Y-109804847D01*
X121767124Y-109827868D01*
X121926656Y-109835541D01*
X122061551Y-109831906D01*
X122201292Y-109821002D01*
X122342649Y-109802827D01*
X122482391Y-109777383D01*
X122482391Y-107835541D01*
X122233603Y-107801616D01*
X121965428Y-107787076D01*
X121760258Y-107798788D01*
X121597092Y-107833926D01*
X121374152Y-107956704D01*
X121264297Y-108126333D01*
X121235218Y-108313732D01*
X121252585Y-108447819D01*
X121304685Y-108565751D01*
X121490468Y-108740226D01*
X121319628Y-108827464D01*
X121214216Y-108940549D01*
X121159693Y-109069790D01*
X121141519Y-109205493D01*
X120433926Y-109205493D01*
X120433926Y-108139257D01*
X120960582Y-108139257D01*
X120960582Y-107809693D01*
X119506624Y-107809693D01*
X119506624Y-108139257D01*
X119277221Y-108139257D01*
X119277221Y-107809693D01*
X118957351Y-107809693D01*
X118866882Y-107957916D01*
X118776414Y-108118255D01*
X118687157Y-108284249D01*
X118600323Y-108449435D01*
X118517932Y-108611793D01*
X118442003Y-108769305D01*
X118374556Y-108914701D01*
X118317609Y-109040711D01*
X118317609Y-107809693D01*
X117958966Y-107809693D01*
X117958966Y-109809693D01*
X117622940Y-109809693D01*
X117631018Y-109728918D01*
X117629402Y-109661066D01*
X117614459Y-109505977D01*
X117569628Y-109363813D01*
X117501777Y-109233360D01*
X117417771Y-109113409D01*
X117322456Y-109002746D01*
X117220679Y-108900162D01*
X117118901Y-108803635D01*
X117023586Y-108711147D01*
X116871729Y-108536672D01*
X116811955Y-108365428D01*
X116886268Y-108176414D01*
X117073667Y-108110178D01*
X117270759Y-108155412D01*
X117474313Y-108307270D01*
X117671405Y-108029402D01*
X117532068Y-107911470D01*
X117372536Y-107829079D01*
X117203312Y-107780614D01*
X117034895Y-107764459D01*
X116799031Y-107800000D01*
X116598708Y-107906624D01*
X116459774Y-108085945D01*
X116408078Y-108336349D01*
X116446850Y-108535057D01*
X116550242Y-108720840D01*
X116695638Y-108895315D01*
X116860420Y-109056866D01*
X116957351Y-109148950D01*
X117060743Y-109258805D01*
X117143134Y-109373506D01*
X117177060Y-109480129D01*
X116317609Y-109480129D01*
X114804056Y-109480129D01*
X114350637Y-108800000D01*
X115400000Y-107225956D01*
X115938503Y-107225956D01*
X122861497Y-107225956D01*
X123400000Y-107225956D01*
X124449363Y-108800000D01*
G37*
D14*
X127856348Y-73280600D02*
X128378852Y-73280600D01*
X127856348Y-74750600D02*
X128378852Y-74750600D01*
D15*
G36*
X124961551Y-76026333D02*
G01*
X125026171Y-76034410D01*
X125026171Y-76635380D01*
X124938934Y-76635380D01*
X124763651Y-76615590D01*
X124644911Y-76556220D01*
X124554443Y-76331664D01*
X124578675Y-76194346D01*
X124651373Y-76099031D01*
X124763651Y-76043296D01*
X124906624Y-76024717D01*
X124961551Y-76026333D01*
G37*
G36*
X130293089Y-76700000D02*
G01*
X129238341Y-78282122D01*
X128699838Y-78282122D01*
X128079483Y-78282122D01*
X127039095Y-78282122D01*
X124018094Y-78282122D01*
X123778998Y-78282122D01*
X121220032Y-78282122D01*
X120900162Y-78282122D01*
X120361659Y-78282122D01*
X119974655Y-77701616D01*
X120900162Y-77701616D01*
X121220032Y-77701616D01*
X121313193Y-77479932D01*
X121411739Y-77258607D01*
X121515670Y-77037641D01*
X121624987Y-76816676D01*
X121739688Y-76595351D01*
X121859774Y-76373667D01*
X121859774Y-77701616D01*
X122218417Y-77701616D01*
X122218417Y-77372052D01*
X122496284Y-77372052D01*
X122496284Y-77701616D01*
X123778998Y-77701616D01*
X124018094Y-77701616D01*
X124434895Y-77701616D01*
X124515267Y-77511389D01*
X124607754Y-77328433D01*
X124709935Y-77147900D01*
X124819386Y-76964943D01*
X125026171Y-76964943D01*
X125026171Y-77701616D01*
X125423586Y-77701616D01*
X125423586Y-76031179D01*
X125769305Y-76031179D01*
X126202262Y-76031179D01*
X126202262Y-77372052D01*
X125769305Y-77372052D01*
X125769305Y-77701616D01*
X127039095Y-77701616D01*
X127039095Y-77372052D01*
X126602908Y-77372052D01*
X126602908Y-77155574D01*
X127342811Y-77155574D01*
X127388449Y-77404766D01*
X127525363Y-77590145D01*
X127668067Y-77675408D01*
X127852773Y-77726566D01*
X128079483Y-77743619D01*
X128303231Y-77730291D01*
X128476898Y-77690307D01*
X128699838Y-77591761D01*
X128583522Y-77268659D01*
X128375121Y-77365590D01*
X128240630Y-77399515D01*
X128079483Y-77410824D01*
X127913086Y-77389822D01*
X127808078Y-77331664D01*
X127754766Y-77247658D01*
X127740226Y-77152342D01*
X127775767Y-77042488D01*
X127866236Y-76956866D01*
X127989015Y-76889015D01*
X128124717Y-76832472D01*
X128312116Y-76758158D01*
X128488207Y-76651535D01*
X128619063Y-76491599D01*
X128670759Y-76254120D01*
X128625121Y-76003716D01*
X128488207Y-75814701D01*
X128351248Y-75726746D01*
X128183773Y-75673972D01*
X127985784Y-75656381D01*
X127813328Y-75666882D01*
X127664297Y-75698384D01*
X127433279Y-75792084D01*
X127549596Y-76099031D01*
X127728918Y-76021486D01*
X127956704Y-75989176D01*
X128132615Y-76014665D01*
X128238162Y-76091133D01*
X128273344Y-76218578D01*
X128241034Y-76320355D01*
X128158643Y-76397900D01*
X128045557Y-76457674D01*
X127921163Y-76506139D01*
X127725687Y-76585299D01*
X127538288Y-76701616D01*
X127397738Y-76882553D01*
X127356543Y-77004927D01*
X127342811Y-77155574D01*
X126602908Y-77155574D01*
X126602908Y-76031179D01*
X127039095Y-76031179D01*
X127039095Y-75701616D01*
X125769305Y-75701616D01*
X125769305Y-76031179D01*
X125423586Y-76031179D01*
X125423586Y-75730695D01*
X125295961Y-75706462D01*
X125155412Y-75690307D01*
X125019709Y-75682229D01*
X124906624Y-75678998D01*
X124743457Y-75688691D01*
X124596446Y-75717771D01*
X124467205Y-75767044D01*
X124357351Y-75837318D01*
X124203877Y-76042488D01*
X124163893Y-76177787D01*
X124150565Y-76334895D01*
X124168336Y-76501292D01*
X124221648Y-76651535D01*
X124316155Y-76776737D01*
X124457512Y-76868013D01*
X124341195Y-77053796D01*
X124221648Y-77267044D01*
X124110178Y-77489984D01*
X124018094Y-77701616D01*
X123778998Y-77701616D01*
X123778998Y-75701616D01*
X122567367Y-75701616D01*
X122567367Y-76031179D01*
X123381583Y-76031179D01*
X123381583Y-76480291D01*
X122673990Y-76480291D01*
X122673990Y-76809855D01*
X123381583Y-76809855D01*
X123381583Y-77372052D01*
X122496284Y-77372052D01*
X122218417Y-77372052D01*
X122218417Y-75701616D01*
X121898546Y-75701616D01*
X121808078Y-75849838D01*
X121717609Y-76010178D01*
X121628352Y-76176171D01*
X121541519Y-76341357D01*
X121459128Y-76503716D01*
X121383199Y-76661228D01*
X121315751Y-76806624D01*
X121258805Y-76932633D01*
X121258805Y-75701616D01*
X120900162Y-75701616D01*
X120900162Y-77701616D01*
X119974655Y-77701616D01*
X119306911Y-76700000D01*
X120361659Y-75117878D01*
X120900162Y-75117878D01*
X128699838Y-75117878D01*
X129238341Y-75117878D01*
X130293089Y-76700000D01*
G37*
D14*
X125290000Y-102911252D02*
X125290000Y-101488748D01*
X127110000Y-102911252D02*
X127110000Y-101488748D01*
X143365464Y-81611800D02*
X142911336Y-81611800D01*
X143365464Y-83081800D02*
X142911336Y-83081800D01*
X135332800Y-87942664D02*
X135332800Y-87488536D01*
X136802800Y-87942664D02*
X136802800Y-87488536D01*
X155652000Y-109903600D02*
X159512000Y-109903600D01*
X155652000Y-110158600D02*
X155652000Y-109903600D01*
X155652000Y-120168600D02*
X155652000Y-120423600D01*
X155652000Y-120423600D02*
X159512000Y-120423600D01*
X163372000Y-109903600D02*
X159512000Y-109903600D01*
X163372000Y-110158600D02*
X163372000Y-109903600D01*
X163372000Y-120168600D02*
X163372000Y-120423600D01*
X163372000Y-120423600D02*
X159512000Y-120423600D01*
X164224500Y-110158600D02*
X163884500Y-109688600D01*
X164564500Y-109688600D01*
X164224500Y-110158600D01*
G36*
X164224500Y-110158600D02*
G01*
X163884500Y-109688600D01*
X164564500Y-109688600D01*
X164224500Y-110158600D01*
G37*
X169546536Y-78106600D02*
X170000664Y-78106600D01*
X169546536Y-79576600D02*
X170000664Y-79576600D01*
D15*
G36*
X119757933Y-79473072D02*
G01*
X119757933Y-79742323D01*
X119757933Y-84341677D01*
X119757933Y-84610928D01*
X119126000Y-85032217D01*
X118494067Y-84610928D01*
X118494067Y-84341677D01*
X118494067Y-84088042D01*
X118763318Y-84088042D01*
X119044417Y-84088042D01*
X119044417Y-84341677D01*
X119207583Y-84341677D01*
X119207583Y-84088042D01*
X119488682Y-84088042D01*
X119488682Y-83916798D01*
X119207583Y-83916798D01*
X119207583Y-83663163D01*
X119044417Y-83663163D01*
X119044417Y-83916798D01*
X118763318Y-83916798D01*
X118763318Y-84088042D01*
X118494067Y-84088042D01*
X118494067Y-83916798D01*
X118494067Y-80184973D01*
X119018569Y-80184973D01*
X119214045Y-80184973D01*
X119214045Y-79742323D01*
X119018569Y-79742323D01*
X119018569Y-80184973D01*
X118494067Y-80184973D01*
X118494067Y-79742323D01*
X118494067Y-79473072D01*
X119126000Y-79051783D01*
X119757933Y-79473072D01*
G37*
D14*
X137441000Y-92006664D02*
X137441000Y-91552536D01*
X138911000Y-92006664D02*
X138911000Y-91552536D01*
X169444936Y-104268600D02*
X169899064Y-104268600D01*
X169444936Y-105738600D02*
X169899064Y-105738600D01*
X127541500Y-129173800D02*
X128191500Y-129173800D01*
X127541500Y-132293800D02*
X128191500Y-132293800D01*
X128841500Y-129173800D02*
X128191500Y-129173800D01*
X128841500Y-132293800D02*
X128191500Y-132293800D01*
X129354000Y-129223800D02*
X129114000Y-128893800D01*
X129594000Y-128893800D01*
X129354000Y-129223800D01*
G36*
X129354000Y-129223800D02*
G01*
X129114000Y-128893800D01*
X129594000Y-128893800D01*
X129354000Y-129223800D01*
G37*
X136794500Y-103385252D02*
X136794500Y-102862748D01*
X138264500Y-103385252D02*
X138264500Y-102862748D01*
X135332800Y-83878664D02*
X135332800Y-83424536D01*
X136802800Y-83878664D02*
X136802800Y-83424536D01*
X132183200Y-80042000D02*
X132183200Y-86582000D01*
X132183200Y-86582000D02*
X132513200Y-86582000D01*
X132513200Y-80042000D02*
X132183200Y-80042000D01*
X134593200Y-80042000D02*
X134923200Y-80042000D01*
X134923200Y-80042000D02*
X134923200Y-86582000D01*
X134923200Y-86582000D02*
X134593200Y-86582000D01*
X137382336Y-77243000D02*
X137836464Y-77243000D01*
X137382336Y-78713000D02*
X137836464Y-78713000D01*
D15*
G36*
X168798788Y-72788611D02*
G01*
X168837561Y-72938853D01*
X168871486Y-73087884D01*
X168901777Y-73242973D01*
X168608562Y-73242973D01*
X168637641Y-73087884D01*
X168670355Y-72938853D01*
X168709128Y-72788611D01*
X168753958Y-72627464D01*
X168798788Y-72788611D01*
G37*
G36*
X166435501Y-75619891D02*
G01*
X166514863Y-75720759D01*
X166551212Y-75824017D01*
X166573021Y-75954470D01*
X166580291Y-76112116D01*
X166573021Y-76271109D01*
X166551212Y-76402369D01*
X166514863Y-76505897D01*
X166435501Y-76606765D01*
X166328271Y-76640388D01*
X166325848Y-76639638D01*
X166219527Y-76606765D01*
X166140468Y-76505897D01*
X166104793Y-76402369D01*
X166083387Y-76271109D01*
X166076252Y-76112116D01*
X166077349Y-76087884D01*
X166192569Y-76087884D01*
X166230129Y-76200565D01*
X166325848Y-76247819D01*
X166425202Y-76200565D01*
X166461551Y-76087884D01*
X166425202Y-75973990D01*
X166325848Y-75925525D01*
X166230129Y-75973990D01*
X166192569Y-76087884D01*
X166077349Y-76087884D01*
X166083387Y-75954470D01*
X166104793Y-75824017D01*
X166140468Y-75720759D01*
X166219527Y-75619891D01*
X166328271Y-75586268D01*
X166435501Y-75619891D01*
G37*
G36*
X170070396Y-75619891D02*
G01*
X170149758Y-75720759D01*
X170186107Y-75824017D01*
X170207916Y-75954470D01*
X170215186Y-76112116D01*
X170207916Y-76271109D01*
X170186107Y-76402369D01*
X170149758Y-76505897D01*
X170070396Y-76606765D01*
X169963166Y-76640388D01*
X169960743Y-76639638D01*
X169854422Y-76606765D01*
X169775363Y-76505897D01*
X169739688Y-76402369D01*
X169718282Y-76271109D01*
X169711147Y-76112116D01*
X169712244Y-76087884D01*
X169827464Y-76087884D01*
X169865024Y-76200565D01*
X169960743Y-76247819D01*
X170060097Y-76200565D01*
X170096446Y-76087884D01*
X170060097Y-75973990D01*
X169960743Y-75925525D01*
X169865024Y-75973990D01*
X169827464Y-76087884D01*
X169712244Y-76087884D01*
X169718282Y-75954470D01*
X169739688Y-75824017D01*
X169775363Y-75720759D01*
X169854422Y-75619891D01*
X169963166Y-75586268D01*
X170070396Y-75619891D01*
G37*
G36*
X174799851Y-72103818D02*
G01*
X174922185Y-72112842D01*
X175043929Y-72127858D01*
X175164789Y-72148829D01*
X175284475Y-72175705D01*
X175402698Y-72208422D01*
X175519174Y-72246900D01*
X175633621Y-72291047D01*
X175745764Y-72340757D01*
X175855332Y-72395909D01*
X175962063Y-72456371D01*
X176065698Y-72521998D01*
X176165988Y-72592630D01*
X176262692Y-72668098D01*
X176355576Y-72748221D01*
X176444417Y-72832804D01*
X176529001Y-72921645D01*
X176609123Y-73014529D01*
X176684591Y-73111233D01*
X176755224Y-73211523D01*
X176820850Y-73315158D01*
X176881312Y-73421889D01*
X176936464Y-73531458D01*
X176986174Y-73643601D01*
X177030321Y-73758047D01*
X177068799Y-73874523D01*
X177101516Y-73992746D01*
X177128392Y-74112432D01*
X177149364Y-74233292D01*
X177164379Y-74355036D01*
X177173403Y-74477370D01*
X177176413Y-74600000D01*
X177173403Y-74722630D01*
X177164379Y-74844964D01*
X177149364Y-74966708D01*
X177128392Y-75087568D01*
X177101516Y-75207254D01*
X177068799Y-75325477D01*
X177030321Y-75441953D01*
X176986174Y-75556399D01*
X176936464Y-75668542D01*
X176881312Y-75778111D01*
X176820850Y-75884842D01*
X176755224Y-75988477D01*
X176684591Y-76088767D01*
X176609123Y-76185471D01*
X176529001Y-76278355D01*
X176444417Y-76367196D01*
X176355576Y-76451779D01*
X176262692Y-76531902D01*
X176165988Y-76607370D01*
X176065698Y-76678002D01*
X175962063Y-76743629D01*
X175855332Y-76804091D01*
X175745764Y-76859243D01*
X175633621Y-76908953D01*
X175519174Y-76953100D01*
X175402698Y-76991578D01*
X175284475Y-77024295D01*
X175164789Y-77051171D01*
X175043929Y-77072142D01*
X174922185Y-77087158D01*
X174799851Y-77096182D01*
X174677221Y-77099192D01*
X174172375Y-77099192D01*
X173753150Y-77099192D01*
X171872698Y-77099192D01*
X171836349Y-77099192D01*
X171172375Y-77099192D01*
X169963166Y-77099192D01*
X168487399Y-77099192D01*
X167026171Y-77099192D01*
X166328271Y-77099192D01*
X164602908Y-77099192D01*
X164021325Y-77099192D01*
X163427625Y-77099192D01*
X162922779Y-77099192D01*
X162800149Y-77096182D01*
X162677815Y-77087158D01*
X162556071Y-77072142D01*
X162435210Y-77051171D01*
X162315524Y-77024295D01*
X162197301Y-76991578D01*
X162080826Y-76953100D01*
X161966379Y-76908953D01*
X161854236Y-76859243D01*
X161744668Y-76804091D01*
X161637937Y-76743629D01*
X161534302Y-76678002D01*
X161434012Y-76607370D01*
X161337308Y-76531902D01*
X161244424Y-76451779D01*
X161203274Y-76412601D01*
X163427625Y-76412601D01*
X163463974Y-76605250D01*
X163575444Y-76759128D01*
X163659653Y-76817286D01*
X163762035Y-76860905D01*
X163882593Y-76888166D01*
X164021325Y-76897254D01*
X164140065Y-76889984D01*
X164256381Y-76871809D01*
X164356947Y-76846365D01*
X164426010Y-76819709D01*
X164376713Y-76618578D01*
X164602908Y-76618578D01*
X164602908Y-76865751D01*
X165581906Y-76865751D01*
X165587964Y-76805170D01*
X165586753Y-76754281D01*
X165575545Y-76637964D01*
X165541922Y-76531341D01*
X165491034Y-76433502D01*
X165428029Y-76343538D01*
X165356543Y-76260541D01*
X165280210Y-76183603D01*
X165204834Y-76112116D01*
X165807270Y-76112116D01*
X165815600Y-76298102D01*
X165840590Y-76458643D01*
X165882239Y-76593740D01*
X165940549Y-76703393D01*
X166042865Y-76811093D01*
X166172105Y-76875714D01*
X166328271Y-76897254D01*
X166484437Y-76875714D01*
X166613678Y-76811093D01*
X166715993Y-76703393D01*
X166761095Y-76618578D01*
X167026171Y-76618578D01*
X167026171Y-76865751D01*
X168005170Y-76865751D01*
X168011228Y-76805170D01*
X168010016Y-76754281D01*
X167998808Y-76637964D01*
X167965186Y-76531341D01*
X167914297Y-76433502D01*
X167851292Y-76343538D01*
X167779806Y-76260541D01*
X167703473Y-76183603D01*
X167628097Y-76112116D01*
X169442165Y-76112116D01*
X169450495Y-76298102D01*
X169475485Y-76458643D01*
X169517134Y-76593740D01*
X169575444Y-76703393D01*
X169677760Y-76811093D01*
X169807000Y-76875714D01*
X169963166Y-76897254D01*
X170119332Y-76875714D01*
X170248573Y-76811093D01*
X170350888Y-76703393D01*
X170366352Y-76674313D01*
X170956704Y-76674313D01*
X171022132Y-76836672D01*
X171172375Y-76892407D01*
X171254766Y-76877868D01*
X171323829Y-76835460D01*
X171372294Y-76767609D01*
X171390468Y-76674313D01*
X171379321Y-76618578D01*
X171872698Y-76618578D01*
X171872698Y-76865751D01*
X172851696Y-76865751D01*
X172857754Y-76805170D01*
X172856543Y-76754281D01*
X172845335Y-76637964D01*
X172811712Y-76531341D01*
X172760824Y-76433502D01*
X172697819Y-76343538D01*
X172626333Y-76260541D01*
X172550000Y-76183603D01*
X172473667Y-76111208D01*
X172402181Y-76041842D01*
X172288287Y-75910985D01*
X172243457Y-75782553D01*
X172299192Y-75640792D01*
X172439741Y-75591115D01*
X172587561Y-75625040D01*
X172740226Y-75738934D01*
X172888045Y-75530533D01*
X172783542Y-75442084D01*
X172663893Y-75380291D01*
X172613124Y-75365751D01*
X173021325Y-75365751D01*
X173053736Y-75519628D01*
X173092811Y-75690468D01*
X173138247Y-75874334D01*
X173189741Y-76067286D01*
X173227302Y-76199758D01*
X173267286Y-76333845D01*
X173309693Y-76469548D01*
X173353850Y-76604577D01*
X173399084Y-76736645D01*
X173445396Y-76865751D01*
X173753150Y-76865751D01*
X173813126Y-76687641D01*
X173876737Y-76487722D01*
X173919548Y-76347307D01*
X173960743Y-76207162D01*
X174000323Y-76067286D01*
X174037749Y-75930102D01*
X174072482Y-75798034D01*
X174104523Y-75671082D01*
X174144507Y-75501454D01*
X174172375Y-75365751D01*
X173857350Y-75365751D01*
X173839176Y-75491458D01*
X173813732Y-75635945D01*
X173783138Y-75792246D01*
X173749515Y-75953393D01*
X173713166Y-76115751D01*
X173674394Y-76275687D01*
X173634713Y-76426232D01*
X173595638Y-76560420D01*
X173556866Y-76428049D01*
X173518094Y-76278110D01*
X173480533Y-76118174D01*
X173445396Y-75955816D01*
X173412682Y-75794366D01*
X173382391Y-75637157D01*
X173355735Y-75491761D01*
X173333926Y-75365751D01*
X173021325Y-75365751D01*
X172613124Y-75365751D01*
X172536975Y-75343942D01*
X172410662Y-75331826D01*
X172233764Y-75358481D01*
X172083522Y-75438449D01*
X171979321Y-75572940D01*
X171940549Y-75760743D01*
X171969628Y-75909774D01*
X172047173Y-76049111D01*
X172156220Y-76179968D01*
X172279806Y-76301131D01*
X172352504Y-76370194D01*
X172430048Y-76452585D01*
X172491842Y-76538611D01*
X172517286Y-76618578D01*
X171872698Y-76618578D01*
X171379321Y-76618578D01*
X171372294Y-76583441D01*
X171323829Y-76516801D01*
X171254766Y-76475606D01*
X171218417Y-76469191D01*
X171172375Y-76461066D01*
X171022132Y-76516801D01*
X170956704Y-76674313D01*
X170366352Y-76674313D01*
X170409198Y-76593740D01*
X170450848Y-76458643D01*
X170475838Y-76298102D01*
X170484168Y-76112116D01*
X170475687Y-75928251D01*
X170450242Y-75769225D01*
X170407835Y-75635036D01*
X170348465Y-75525687D01*
X170245342Y-75417986D01*
X170116909Y-75353366D01*
X169963166Y-75331826D01*
X169807000Y-75353231D01*
X169677760Y-75417447D01*
X169631179Y-75466173D01*
X169575444Y-75524475D01*
X169517134Y-75633446D01*
X169475485Y-75767710D01*
X169450495Y-75927267D01*
X169442165Y-76112116D01*
X167628097Y-76112116D01*
X167627140Y-76111208D01*
X167555654Y-76041842D01*
X167441761Y-75910985D01*
X167396930Y-75782553D01*
X167452666Y-75640792D01*
X167593215Y-75591115D01*
X167741034Y-75625040D01*
X167893699Y-75738934D01*
X168041518Y-75530533D01*
X167937015Y-75442084D01*
X167817367Y-75380291D01*
X167690448Y-75343942D01*
X167564136Y-75331826D01*
X167387237Y-75358481D01*
X167285460Y-75412653D01*
X167236995Y-75438449D01*
X167132795Y-75572940D01*
X167094023Y-75760743D01*
X167123102Y-75909774D01*
X167200646Y-76049111D01*
X167309693Y-76179968D01*
X167433279Y-76301131D01*
X167505977Y-76370194D01*
X167583522Y-76452585D01*
X167645315Y-76538611D01*
X167670759Y-76618578D01*
X167026171Y-76618578D01*
X166761095Y-76618578D01*
X166774303Y-76593740D01*
X166815953Y-76458643D01*
X166840943Y-76298102D01*
X166849273Y-76112116D01*
X166840792Y-75928251D01*
X166815347Y-75769225D01*
X166772940Y-75635036D01*
X166713570Y-75525687D01*
X166610447Y-75417986D01*
X166482014Y-75353366D01*
X166328271Y-75331826D01*
X166178029Y-75352419D01*
X166172105Y-75353231D01*
X166042865Y-75417447D01*
X165940549Y-75524475D01*
X165882239Y-75633446D01*
X165840590Y-75767710D01*
X165815600Y-75927267D01*
X165807270Y-76112116D01*
X165204834Y-76112116D01*
X165203877Y-76111208D01*
X165132391Y-76041842D01*
X165018497Y-75910985D01*
X164973667Y-75782553D01*
X165029402Y-75640792D01*
X165169951Y-75591115D01*
X165317771Y-75625040D01*
X165470436Y-75738934D01*
X165618255Y-75530533D01*
X165513752Y-75442084D01*
X165394103Y-75380291D01*
X165267185Y-75343942D01*
X165140872Y-75331826D01*
X164963974Y-75358481D01*
X164813732Y-75438449D01*
X164709531Y-75572940D01*
X164670759Y-75760743D01*
X164699838Y-75909774D01*
X164777383Y-76049111D01*
X164886430Y-76179968D01*
X165010016Y-76301131D01*
X165082714Y-76370194D01*
X165160258Y-76452585D01*
X165222052Y-76538611D01*
X165247496Y-76618578D01*
X164602908Y-76618578D01*
X164376713Y-76618578D01*
X164365428Y-76572536D01*
X164229725Y-76621002D01*
X164137035Y-76637359D01*
X164023748Y-76642811D01*
X163879564Y-76623425D01*
X163789903Y-76573748D01*
X163745073Y-76504685D01*
X163732956Y-76424717D01*
X163753554Y-76309612D01*
X163835945Y-76219952D01*
X164011632Y-76161793D01*
X164143094Y-76146345D01*
X164309693Y-76141195D01*
X164287884Y-75939762D01*
X164270921Y-75742569D01*
X164258199Y-75550828D01*
X164249111Y-75365751D01*
X163483360Y-75365751D01*
X163483360Y-75612924D01*
X163999515Y-75612924D01*
X164011632Y-75775283D01*
X164023748Y-75913409D01*
X163840388Y-75938180D01*
X163690953Y-75986645D01*
X163575444Y-76058805D01*
X163493322Y-76154120D01*
X163444049Y-76272052D01*
X163427625Y-76412601D01*
X161203274Y-76412601D01*
X161155583Y-76367196D01*
X161070999Y-76278355D01*
X160990877Y-76185471D01*
X160915409Y-76088767D01*
X160844776Y-75988477D01*
X160779150Y-75884842D01*
X160718688Y-75778111D01*
X160663536Y-75668542D01*
X160613826Y-75556399D01*
X160569679Y-75441952D01*
X160531201Y-75325477D01*
X160498484Y-75207254D01*
X160471608Y-75087568D01*
X160450636Y-74966708D01*
X160435621Y-74844964D01*
X160426597Y-74722630D01*
X160423587Y-74600000D01*
X160426597Y-74477370D01*
X160435621Y-74355036D01*
X160450636Y-74233292D01*
X160471608Y-74112432D01*
X160498484Y-73992746D01*
X160531201Y-73874523D01*
X160569679Y-73758048D01*
X160613826Y-73643601D01*
X160663536Y-73531458D01*
X160718688Y-73421889D01*
X160779150Y-73315158D01*
X160844776Y-73211523D01*
X160915409Y-73111233D01*
X160990877Y-73014529D01*
X161070999Y-72921645D01*
X161155583Y-72832804D01*
X161244424Y-72748221D01*
X161337308Y-72668098D01*
X161434012Y-72592630D01*
X161446486Y-72583845D01*
X165783037Y-72583845D01*
X166178029Y-72583845D01*
X166178029Y-73836672D01*
X166478514Y-73836672D01*
X167045557Y-73836672D01*
X167285460Y-73836672D01*
X167355331Y-73670409D01*
X167429241Y-73504416D01*
X167507189Y-73338691D01*
X167589176Y-73172967D01*
X167675202Y-73006974D01*
X167765266Y-72840711D01*
X167765266Y-73836672D01*
X168034249Y-73836672D01*
X168167528Y-73836672D01*
X168487399Y-73836672D01*
X168557674Y-73490145D01*
X168957512Y-73490145D01*
X169025363Y-73836672D01*
X169335541Y-73836672D01*
X169292795Y-73662439D01*
X169249855Y-73494507D01*
X169231877Y-73427141D01*
X170665913Y-73427141D01*
X170700141Y-73614035D01*
X170802827Y-73753069D01*
X170909855Y-73817017D01*
X171048384Y-73855385D01*
X171218417Y-73868174D01*
X171386228Y-73858179D01*
X171479642Y-73836672D01*
X171836349Y-73836672D01*
X172110178Y-73836672D01*
X172095638Y-72671082D01*
X172279806Y-73305977D01*
X172497900Y-73305977D01*
X172674798Y-72671082D01*
X172662682Y-73836672D01*
X172936510Y-73836672D01*
X173018901Y-73836672D01*
X173355735Y-73836672D01*
X173432068Y-73653716D01*
X173484471Y-73556785D01*
X173542326Y-73462278D01*
X173604422Y-73372011D01*
X173669548Y-73287803D01*
X173796769Y-73150889D01*
X173796769Y-73836672D01*
X174094830Y-73836672D01*
X174094830Y-72336672D01*
X173796769Y-72336672D01*
X173796769Y-72959451D01*
X173685299Y-72809208D01*
X173575040Y-72644426D01*
X173479321Y-72482068D01*
X173406624Y-72336672D01*
X173069790Y-72336672D01*
X173150969Y-72485703D01*
X173201555Y-72571123D01*
X173258804Y-72660178D01*
X173321506Y-72751959D01*
X173388449Y-72845557D01*
X173459027Y-72938247D01*
X173532633Y-73027302D01*
X173456906Y-73105452D01*
X173379968Y-73194507D01*
X173304544Y-73292347D01*
X173233360Y-73396850D01*
X173167629Y-73505897D01*
X173108562Y-73617367D01*
X173058279Y-73728534D01*
X173018901Y-73836672D01*
X172936510Y-73836672D01*
X172928938Y-73648869D01*
X172920759Y-73453796D01*
X172911975Y-73255695D01*
X172902585Y-73058805D01*
X172891983Y-72865549D01*
X172879564Y-72678352D01*
X172865327Y-72500848D01*
X172849273Y-72336672D01*
X172602100Y-72336672D01*
X172559693Y-72467528D01*
X172505170Y-72639580D01*
X172447011Y-72826171D01*
X172391276Y-73000646D01*
X172330695Y-72815267D01*
X172270113Y-72631099D01*
X172216801Y-72465105D01*
X172173182Y-72336672D01*
X171926010Y-72336672D01*
X171909350Y-72530533D01*
X171893296Y-72719548D01*
X171878756Y-72905230D01*
X171866640Y-73089095D01*
X171856644Y-73272658D01*
X171848465Y-73457431D01*
X171841801Y-73644931D01*
X171836349Y-73836672D01*
X171479642Y-73836672D01*
X171516478Y-73828191D01*
X171683683Y-73754281D01*
X171596446Y-73511955D01*
X171440145Y-73584653D01*
X171339277Y-73610097D01*
X171218417Y-73618578D01*
X171093619Y-73602827D01*
X171014863Y-73559208D01*
X170974879Y-73496204D01*
X170963974Y-73424717D01*
X170990630Y-73342326D01*
X171058481Y-73278110D01*
X171150565Y-73227221D01*
X171252342Y-73184814D01*
X171392892Y-73129079D01*
X171524960Y-73049111D01*
X171623102Y-72929160D01*
X171661874Y-72751050D01*
X171627645Y-72563247D01*
X171524960Y-72421486D01*
X171422240Y-72355520D01*
X171296634Y-72315940D01*
X171148142Y-72302746D01*
X171018800Y-72310622D01*
X170907027Y-72334249D01*
X170733764Y-72404523D01*
X170821002Y-72634733D01*
X170955493Y-72576575D01*
X171126333Y-72552342D01*
X171258266Y-72571459D01*
X171337426Y-72628810D01*
X171363813Y-72724394D01*
X171339580Y-72800727D01*
X171277787Y-72858885D01*
X171192972Y-72903716D01*
X171099677Y-72940065D01*
X170953069Y-72999435D01*
X170812520Y-73086672D01*
X170707108Y-73222375D01*
X170676212Y-73314156D01*
X170665913Y-73427141D01*
X169231877Y-73427141D01*
X169214416Y-73361712D01*
X169631179Y-73361712D01*
X170295153Y-73361712D01*
X170295153Y-73068498D01*
X169631179Y-73068498D01*
X169631179Y-73361712D01*
X169214416Y-73361712D01*
X169206720Y-73332876D01*
X169163392Y-73177544D01*
X169119871Y-73028514D01*
X169065802Y-72848511D01*
X169012641Y-72673203D01*
X168960390Y-72502590D01*
X168909047Y-72336672D01*
X168584329Y-72336672D01*
X168531093Y-72503953D01*
X168478009Y-72676232D01*
X168425076Y-72853509D01*
X168372294Y-73035784D01*
X168330371Y-73186074D01*
X168288934Y-73341309D01*
X168247981Y-73501486D01*
X168207512Y-73666607D01*
X168167528Y-73836672D01*
X168034249Y-73836672D01*
X168034249Y-72336672D01*
X167794346Y-72336672D01*
X167726494Y-72447839D01*
X167658643Y-72568094D01*
X167591700Y-72692589D01*
X167526575Y-72816478D01*
X167464782Y-72938247D01*
X167407835Y-73056381D01*
X167357250Y-73165428D01*
X167314539Y-73259935D01*
X167314539Y-72336672D01*
X167045557Y-72336672D01*
X167045557Y-73836672D01*
X166478514Y-73836672D01*
X166478514Y-72583845D01*
X166873506Y-72583845D01*
X166873506Y-72336672D01*
X165783037Y-72336672D01*
X165783037Y-72583845D01*
X161446486Y-72583845D01*
X161534302Y-72521998D01*
X161637937Y-72456371D01*
X161744668Y-72395909D01*
X161854236Y-72340757D01*
X161966379Y-72291047D01*
X162080826Y-72246900D01*
X162197301Y-72208422D01*
X162315524Y-72175705D01*
X162435210Y-72148829D01*
X162556071Y-72127858D01*
X162677815Y-72112842D01*
X162800149Y-72103818D01*
X162922779Y-72100808D01*
X163427625Y-72100808D01*
X174172375Y-72100808D01*
X174677221Y-72100808D01*
X174799851Y-72103818D01*
G37*
D16*
X155020000Y-101964000D02*
X155020000Y-83964000D01*
D14*
X157070000Y-83964000D02*
X155020000Y-83964000D01*
X157070000Y-83964000D02*
X157073600Y-101964000D01*
D16*
X157073600Y-101964000D02*
X155020000Y-101964000D01*
X177720000Y-88464000D02*
X177720000Y-83964000D01*
X177720000Y-88464000D02*
X179020000Y-88464000D01*
X177720000Y-97464000D02*
X179020000Y-97464000D01*
X177720000Y-101964000D02*
X177720000Y-97464000D01*
X179020000Y-97464000D02*
X179020000Y-88464000D01*
D14*
X130796500Y-126152864D02*
X130796500Y-125698736D01*
X132266500Y-126152864D02*
X132266500Y-125698736D01*
X127738200Y-89228664D02*
X127738200Y-88774536D01*
X129208200Y-89228664D02*
X129208200Y-88774536D01*
X124826000Y-87390800D02*
X125476000Y-87390800D01*
X124826000Y-90510800D02*
X125476000Y-90510800D01*
X126126000Y-87390800D02*
X125476000Y-87390800D01*
X126126000Y-90510800D02*
X125476000Y-90510800D01*
X126638500Y-87440800D02*
X126398500Y-87110800D01*
X126878500Y-87110800D01*
X126638500Y-87440800D01*
G36*
X126638500Y-87440800D02*
G01*
X126398500Y-87110800D01*
X126878500Y-87110800D01*
X126638500Y-87440800D01*
G37*
D15*
G36*
X150292892Y-118624717D02*
G01*
X150380129Y-118634410D01*
X150380129Y-119093215D01*
X150225040Y-119093215D01*
X149995638Y-119026979D01*
X149918094Y-118844426D01*
X149940711Y-118729725D01*
X150002100Y-118661874D01*
X150092569Y-118629564D01*
X150199192Y-118621486D01*
X150292892Y-118624717D01*
G37*
G36*
X150380129Y-119965590D02*
G01*
X150288045Y-119975283D01*
X150189499Y-119978514D01*
X150057027Y-119967205D01*
X149942326Y-119925202D01*
X149859935Y-119837964D01*
X149827625Y-119694184D01*
X149919709Y-119485784D01*
X150166882Y-119422779D01*
X150380129Y-119422779D01*
X150380129Y-119965590D01*
G37*
G36*
X152741824Y-119300000D02*
G01*
X151700000Y-120862736D01*
X151161497Y-120862736D01*
X150221809Y-120862736D01*
X148328433Y-120862736D01*
X146573990Y-120862736D01*
X144622456Y-120862736D01*
X144238503Y-120862736D01*
X143700000Y-120862736D01*
X143104057Y-119968821D01*
X144622456Y-119968821D01*
X144622456Y-120298384D01*
X145837318Y-120298384D01*
X146254120Y-120298384D01*
X146573990Y-120298384D01*
X146667151Y-120076701D01*
X146765697Y-119855376D01*
X146869628Y-119634410D01*
X146978945Y-119413445D01*
X147093646Y-119192120D01*
X147213732Y-118970436D01*
X147213732Y-120298384D01*
X147572375Y-120298384D01*
X147572375Y-118627948D01*
X147801777Y-118627948D01*
X148328433Y-118627948D01*
X148328433Y-120298384D01*
X148729079Y-120298384D01*
X148729079Y-119694184D01*
X149436672Y-119694184D01*
X149452019Y-119860178D01*
X149498061Y-119996284D01*
X149664459Y-120190145D01*
X149779160Y-120252342D01*
X149913247Y-120293538D01*
X150062278Y-120316559D01*
X150221809Y-120324233D01*
X150356704Y-120320598D01*
X150496446Y-120309693D01*
X150637803Y-120291519D01*
X150777544Y-120266074D01*
X150777544Y-118324233D01*
X150528756Y-118290307D01*
X150260582Y-118275767D01*
X150055412Y-118287480D01*
X149892246Y-118322617D01*
X149669305Y-118445396D01*
X149559451Y-118615024D01*
X149530372Y-118802423D01*
X149547738Y-118936511D01*
X149599838Y-119054443D01*
X149785622Y-119228918D01*
X149614782Y-119316155D01*
X149509370Y-119429241D01*
X149454847Y-119558481D01*
X149436672Y-119694184D01*
X148729079Y-119694184D01*
X148729079Y-118627948D01*
X149255735Y-118627948D01*
X149255735Y-118298384D01*
X147801777Y-118298384D01*
X147801777Y-118627948D01*
X147572375Y-118627948D01*
X147572375Y-118298384D01*
X147252504Y-118298384D01*
X147162036Y-118446607D01*
X147071567Y-118606947D01*
X146982310Y-118772940D01*
X146895477Y-118938126D01*
X146813086Y-119100485D01*
X146737157Y-119257997D01*
X146669709Y-119403393D01*
X146612763Y-119529402D01*
X146612763Y-118298384D01*
X146254120Y-118298384D01*
X146254120Y-120298384D01*
X145837318Y-120298384D01*
X145837318Y-119968821D01*
X145417286Y-119968821D01*
X145417286Y-118850889D01*
X145624071Y-118965590D01*
X145821163Y-119044750D01*
X145950404Y-118715186D01*
X145782391Y-118640872D01*
X145601454Y-118540711D01*
X145430210Y-118424394D01*
X145291276Y-118298384D01*
X145019871Y-118298384D01*
X145019871Y-119968821D01*
X144622456Y-119968821D01*
X143104057Y-119968821D01*
X142658176Y-119300000D01*
X143700000Y-117737264D01*
X144238503Y-117737264D01*
X151161497Y-117737264D01*
X151700000Y-117737264D01*
X152741824Y-119300000D01*
G37*
D14*
X132434064Y-131649800D02*
X131979936Y-131649800D01*
X132434064Y-133119800D02*
X131979936Y-133119800D01*
X130387600Y-71485600D02*
X140157600Y-71485600D01*
X130387600Y-76555600D02*
X130387600Y-71485600D01*
X130387600Y-76555600D02*
X140157600Y-76555600D01*
X140157600Y-76555600D02*
X140157600Y-71485600D01*
D15*
G36*
X151053279Y-64001333D02*
G01*
X151111438Y-64009410D01*
X151111438Y-65353514D01*
X151075897Y-65356745D01*
X151040355Y-65356745D01*
X150812569Y-65305048D01*
X150663942Y-65162884D01*
X150583166Y-64948021D01*
X150564992Y-64817569D01*
X150558934Y-64675000D01*
X150578320Y-64422981D01*
X150646171Y-64206502D01*
X150778643Y-64056260D01*
X150995121Y-63999717D01*
X151053279Y-64001333D01*
G37*
G36*
X157474748Y-64675000D02*
G01*
X156420000Y-66257122D01*
X155881497Y-66257122D01*
X153428078Y-66257122D01*
X152342456Y-66257122D01*
X151082359Y-66257122D01*
X148958503Y-66257122D01*
X148420000Y-66257122D01*
X147365252Y-64675000D01*
X150155057Y-64675000D01*
X150172423Y-64932270D01*
X150224523Y-65148344D01*
X150307318Y-65325646D01*
X150416769Y-65466599D01*
X150551260Y-65572819D01*
X150709176Y-65645921D01*
X150887286Y-65688328D01*
X151082359Y-65702464D01*
X151290759Y-65691155D01*
X151508853Y-65653998D01*
X151508853Y-65579685D01*
X151783489Y-65579685D01*
X152011276Y-65675000D01*
X152165961Y-65707714D01*
X152342456Y-65718619D01*
X152602373Y-65688463D01*
X152817774Y-65597994D01*
X152988659Y-65447213D01*
X153053770Y-65347052D01*
X153428078Y-65347052D01*
X153428078Y-65676616D01*
X154684943Y-65676616D01*
X154684943Y-63676616D01*
X154284297Y-63676616D01*
X154284297Y-65347052D01*
X153428078Y-65347052D01*
X153053770Y-65347052D01*
X153086195Y-65297173D01*
X153155864Y-65118457D01*
X153197666Y-64911066D01*
X153211599Y-64675000D01*
X153194637Y-64439943D01*
X153143748Y-64232351D01*
X153062569Y-64053433D01*
X152954733Y-63904402D01*
X152822262Y-63786470D01*
X152667173Y-63700848D01*
X152493102Y-63648748D01*
X152303683Y-63631381D01*
X152111438Y-63649152D01*
X151961195Y-63689540D01*
X151852956Y-63738005D01*
X151786721Y-63776777D01*
X151890113Y-64093417D01*
X152069435Y-64011026D01*
X152310145Y-63977100D01*
X152492698Y-64011026D01*
X152651018Y-64124111D01*
X152764103Y-64335743D01*
X152796817Y-64484370D01*
X152807722Y-64665307D01*
X152794619Y-64875862D01*
X152755308Y-65050875D01*
X152689790Y-65190347D01*
X152534297Y-65327262D01*
X152303683Y-65372900D01*
X152046817Y-65337359D01*
X151883651Y-65266276D01*
X151783489Y-65579685D01*
X151508853Y-65579685D01*
X151508853Y-63702464D01*
X151253603Y-63663691D01*
X151030662Y-63653998D01*
X150842052Y-63668538D01*
X150670404Y-63712157D01*
X150519758Y-63786874D01*
X150394152Y-63894709D01*
X150293586Y-64036066D01*
X150218061Y-64211349D01*
X150170808Y-64423384D01*
X150155057Y-64675000D01*
X147365252Y-64675000D01*
X148420000Y-63092878D01*
X148958503Y-63092878D01*
X155881497Y-63092878D01*
X156420000Y-63092878D01*
X157474748Y-64675000D01*
G37*
D14*
X165327064Y-104268600D02*
X164872936Y-104268600D01*
X165327064Y-105738600D02*
X164872936Y-105738600D01*
X147852400Y-71270200D02*
X151712400Y-71270200D01*
X147852400Y-71525200D02*
X147852400Y-71270200D01*
X147852400Y-81535200D02*
X147852400Y-81790200D01*
X147852400Y-81790200D02*
X151712400Y-81790200D01*
X155572400Y-71270200D02*
X151712400Y-71270200D01*
X155572400Y-71525200D02*
X155572400Y-71270200D01*
X155572400Y-81535200D02*
X155572400Y-81790200D01*
X155572400Y-81790200D02*
X151712400Y-81790200D01*
X147339900Y-82005200D02*
X146659900Y-82005200D01*
X146999900Y-81535200D01*
X147339900Y-82005200D01*
G36*
X147339900Y-82005200D02*
G01*
X146659900Y-82005200D01*
X146999900Y-81535200D01*
X147339900Y-82005200D01*
G37*
X137441000Y-83424536D02*
X137441000Y-83878664D01*
X138911000Y-83424536D02*
X138911000Y-83878664D01*
X147824664Y-82348400D02*
X147370536Y-82348400D01*
X147824664Y-83818400D02*
X147370536Y-83818400D01*
D15*
G36*
X163268821Y-127000969D02*
G01*
X163320517Y-127201292D01*
X163365751Y-127400000D01*
X163406139Y-127606785D01*
X163015186Y-127606785D01*
X163053958Y-127400000D01*
X163097577Y-127201292D01*
X163149273Y-127000969D01*
X163209047Y-126786107D01*
X163268821Y-127000969D01*
G37*
G36*
X164958643Y-126723102D02*
G01*
X165057189Y-126731179D01*
X165057189Y-127377383D01*
X164895638Y-127377383D01*
X164728433Y-127358401D01*
X164608078Y-127301454D01*
X164535380Y-127198465D01*
X164511147Y-127041357D01*
X164534976Y-126892326D01*
X164606462Y-126794184D01*
X164717528Y-126739661D01*
X164860097Y-126721486D01*
X164958643Y-126723102D01*
G37*
G36*
X161768013Y-126723102D02*
G01*
X161826171Y-126731179D01*
X161826171Y-128075283D01*
X161790630Y-128078514D01*
X161755089Y-128078514D01*
X161527302Y-128026817D01*
X161378675Y-127884653D01*
X161297900Y-127669790D01*
X161279725Y-127539338D01*
X161273667Y-127396769D01*
X161293053Y-127144750D01*
X161360905Y-126928271D01*
X161493376Y-126778029D01*
X161709855Y-126721486D01*
X161768013Y-126723102D01*
G37*
G36*
X171910537Y-127400000D02*
G01*
X170868713Y-128962736D01*
X170330210Y-128962736D01*
X169344750Y-128962736D01*
X168656543Y-128962736D01*
X166233279Y-128962736D01*
X165057189Y-128962736D01*
X162853635Y-128962736D01*
X161797092Y-128962736D01*
X160869790Y-128962736D01*
X160331287Y-128962736D01*
X159289463Y-127400000D01*
X159291617Y-127396769D01*
X160869790Y-127396769D01*
X160887157Y-127654039D01*
X160939257Y-127870113D01*
X161022052Y-128047415D01*
X161131502Y-128188368D01*
X161265994Y-128294588D01*
X161423910Y-128367690D01*
X161602019Y-128410097D01*
X161797092Y-128424233D01*
X162005493Y-128412924D01*
X162090836Y-128398384D01*
X162427141Y-128398384D01*
X162853635Y-128398384D01*
X162947334Y-127936349D01*
X163480452Y-127936349D01*
X163570921Y-128398384D01*
X163984491Y-128398384D01*
X163927496Y-128166074D01*
X163870242Y-127942165D01*
X163812730Y-127726656D01*
X163754960Y-127519548D01*
X163696931Y-127320840D01*
X163624838Y-127080836D01*
X163613846Y-127044588D01*
X164104039Y-127044588D01*
X164127553Y-127261605D01*
X164198097Y-127434464D01*
X164315670Y-127563166D01*
X164476324Y-127652019D01*
X164676108Y-127705331D01*
X164915024Y-127723102D01*
X165057189Y-127723102D01*
X165057189Y-128398384D01*
X165454604Y-128398384D01*
X165454604Y-126424233D01*
X165323748Y-126401616D01*
X165291070Y-126398384D01*
X165667851Y-126398384D01*
X165729241Y-126560743D01*
X165790630Y-126718255D01*
X165853635Y-126872536D01*
X165919871Y-127025202D01*
X165990145Y-127176656D01*
X166065267Y-127327302D01*
X166146042Y-127479564D01*
X166233279Y-127635864D01*
X166233279Y-128398384D01*
X166633926Y-128398384D01*
X166633926Y-128068821D01*
X167373829Y-128068821D01*
X167373829Y-128398384D01*
X168656543Y-128398384D01*
X168895638Y-128398384D01*
X169344750Y-128398384D01*
X169446527Y-128154443D01*
X169516397Y-128025202D01*
X169593538Y-127899192D01*
X169676333Y-127778837D01*
X169763166Y-127666559D01*
X169932795Y-127484006D01*
X169932795Y-128398384D01*
X170330210Y-128398384D01*
X170330210Y-126398384D01*
X169932795Y-126398384D01*
X169932795Y-127228756D01*
X169784168Y-127028433D01*
X169637157Y-126808724D01*
X169509532Y-126592246D01*
X169412601Y-126398384D01*
X168963489Y-126398384D01*
X169071729Y-126597092D01*
X169139176Y-126710985D01*
X169215509Y-126829725D01*
X169299111Y-126952100D01*
X169388368Y-127076898D01*
X169482472Y-127200485D01*
X169580614Y-127319225D01*
X169479645Y-127423425D01*
X169377060Y-127542165D01*
X169276494Y-127672617D01*
X169181583Y-127811955D01*
X169093942Y-127957351D01*
X169015186Y-128105977D01*
X168948142Y-128254200D01*
X168895638Y-128398384D01*
X168656543Y-128398384D01*
X168656543Y-126398384D01*
X167444911Y-126398384D01*
X167444911Y-126727948D01*
X168259128Y-126727948D01*
X168259128Y-127177060D01*
X167551535Y-127177060D01*
X167551535Y-127506624D01*
X168259128Y-127506624D01*
X168259128Y-128068821D01*
X167373829Y-128068821D01*
X166633926Y-128068821D01*
X166633926Y-127639095D01*
X166747550Y-127431772D01*
X166851481Y-127227679D01*
X166945719Y-127026817D01*
X167033854Y-126824161D01*
X167119476Y-126614683D01*
X167202585Y-126398384D01*
X166776090Y-126398384D01*
X166697738Y-126633037D01*
X166611309Y-126871729D01*
X166519225Y-127102342D01*
X166423910Y-127312763D01*
X166341519Y-127125363D01*
X166247819Y-126886268D01*
X166201777Y-126759451D01*
X166157351Y-126631018D01*
X166078191Y-126398384D01*
X165667851Y-126398384D01*
X165291070Y-126398384D01*
X165176737Y-126387076D01*
X165031341Y-126378998D01*
X164905331Y-126375767D01*
X164670185Y-126393179D01*
X164473093Y-126445414D01*
X164314055Y-126532472D01*
X164197379Y-126659020D01*
X164127374Y-126829725D01*
X164104039Y-127044588D01*
X163613846Y-127044588D01*
X163553958Y-126847092D01*
X163484289Y-126619608D01*
X163415832Y-126398384D01*
X162982876Y-126398384D01*
X162911894Y-126621426D01*
X162841115Y-126851131D01*
X162770537Y-127087500D01*
X162700162Y-127330533D01*
X162644265Y-127530921D01*
X162589015Y-127737900D01*
X162534410Y-127951470D01*
X162480452Y-128171632D01*
X162427141Y-128398384D01*
X162090836Y-128398384D01*
X162223586Y-128375767D01*
X162223586Y-126424233D01*
X161968336Y-126385460D01*
X161745396Y-126375767D01*
X161556785Y-126390307D01*
X161385137Y-126433926D01*
X161234491Y-126508643D01*
X161108885Y-126616478D01*
X161008320Y-126757835D01*
X160932795Y-126933118D01*
X160885541Y-127145153D01*
X160869790Y-127396769D01*
X159291617Y-127396769D01*
X160331287Y-125837264D01*
X160869790Y-125837264D01*
X170330210Y-125837264D01*
X170868713Y-125837264D01*
X171910537Y-127400000D01*
G37*
D14*
X135332800Y-91552536D02*
X135332800Y-92006664D01*
X136802800Y-91552536D02*
X136802800Y-92006664D01*
X128496500Y-126152864D02*
X128496500Y-125698736D01*
X129966500Y-126152864D02*
X129966500Y-125698736D01*
X150474000Y-121173200D02*
X150474000Y-132973200D01*
X151724000Y-121773200D02*
X143474000Y-121773200D01*
X151774000Y-132173200D02*
X143474000Y-132173200D01*
X143474000Y-132973200D02*
X151774000Y-132973200D01*
X151774000Y-121073200D01*
X143474000Y-121073200D01*
X143474000Y-132973200D01*
X121390000Y-89026248D02*
X121390000Y-90448752D01*
X123210000Y-89026248D02*
X123210000Y-90448752D01*
D15*
G36*
X171663866Y-110800000D02*
G01*
X171663866Y-111338503D01*
X171663866Y-118261497D01*
X171663866Y-118800000D01*
X170400000Y-119642578D01*
X169136134Y-118800000D01*
X169136134Y-118261497D01*
X169136134Y-117276575D01*
X169674637Y-117276575D01*
X170236834Y-117276575D01*
X170236834Y-117783845D01*
X170563166Y-117783845D01*
X170563166Y-117276575D01*
X171125363Y-117276575D01*
X171125363Y-116934087D01*
X170563166Y-116934087D01*
X170563166Y-116426817D01*
X170236834Y-116426817D01*
X170236834Y-116934087D01*
X169674637Y-116934087D01*
X169674637Y-117276575D01*
X169136134Y-117276575D01*
X169136134Y-116934087D01*
X169136134Y-112701454D01*
X170185137Y-112701454D01*
X170576090Y-112701454D01*
X170576090Y-111816155D01*
X170185137Y-111816155D01*
X170185137Y-112701454D01*
X169136134Y-112701454D01*
X169136134Y-111816155D01*
X169136134Y-111338503D01*
X169136134Y-110800000D01*
X170400000Y-109957422D01*
X171663866Y-110800000D01*
G37*
D14*
X132434064Y-129109800D02*
X131979936Y-129109800D01*
X132434064Y-130579800D02*
X131979936Y-130579800D01*
X171517000Y-112730000D02*
X172117000Y-113030000D01*
X171517000Y-113330000D02*
X171517000Y-112730000D01*
X172117000Y-113030000D02*
X171517000Y-113330000D01*
X172807000Y-111980000D02*
X172807000Y-110470000D01*
X172807000Y-115480000D02*
X172807000Y-114080000D01*
X172807000Y-117580000D02*
X172807000Y-119090000D01*
X172807000Y-119090000D02*
X182227000Y-119090000D01*
X178917000Y-119090000D02*
X178917000Y-110470000D01*
X182227000Y-110470000D02*
X172807000Y-110470000D01*
X182227000Y-119090000D02*
X182227000Y-110470000D01*
X137441000Y-87488536D02*
X137441000Y-87942664D01*
X138911000Y-87488536D02*
X138911000Y-87942664D01*
X125290000Y-96488748D02*
X125290000Y-97911252D01*
X127110000Y-96488748D02*
X127110000Y-97911252D01*
X133800700Y-98647200D02*
X130040700Y-98647200D01*
X133800700Y-99907200D02*
X133800700Y-98647200D01*
X133800700Y-104207200D02*
X133800700Y-105467200D01*
X133800700Y-105467200D02*
X130040700Y-105467200D01*
X129000700Y-105697200D02*
X128520700Y-105697200D01*
X128760700Y-105367200D01*
X129000700Y-105697200D01*
G36*
X129000700Y-105697200D02*
G01*
X128520700Y-105697200D01*
X128760700Y-105367200D01*
X129000700Y-105697200D01*
G37*
X129821000Y-89228664D02*
X129821000Y-88774536D01*
X131291000Y-89228664D02*
X131291000Y-88774536D01*
%LPC*%
D17*
X154140000Y-123975000D03*
D18*
X156680000Y-123975000D03*
X159220000Y-123975000D03*
X161760000Y-123975000D03*
X164300000Y-123975000D03*
X166840000Y-123975000D03*
X169380000Y-123975000D03*
X171920000Y-123975000D03*
X174460000Y-123975000D03*
X177000000Y-123975000D03*
D19*
X119481600Y-123708000D03*
D20*
X119481600Y-131308000D03*
D17*
X171470000Y-69075000D03*
D18*
X168930000Y-69075000D03*
X166390000Y-69075000D03*
X163850000Y-69075000D03*
X161310000Y-69075000D03*
X158770000Y-69075000D03*
X156230000Y-69075000D03*
X153690000Y-69075000D03*
X151150000Y-69075000D03*
X148610000Y-69075000D03*
X146070000Y-69075000D03*
X143530000Y-69075000D03*
X140990000Y-69075000D03*
X138450000Y-69075000D03*
X135910000Y-69075000D03*
X133370000Y-69075000D03*
G36*
G01*
X144289200Y-80844500D02*
X143989200Y-80844500D01*
G75*
G02*
X143839200Y-80694500I0J150000D01*
G01*
X143839200Y-79519500D01*
G75*
G02*
X143989200Y-79369500I150000J0D01*
G01*
X144289200Y-79369500D01*
G75*
G02*
X144439200Y-79519500I0J-150000D01*
G01*
X144439200Y-80694500D01*
G75*
G02*
X144289200Y-80844500I-150000J0D01*
G01*
G37*
G36*
G01*
X142389200Y-80844500D02*
X142089200Y-80844500D01*
G75*
G02*
X141939200Y-80694500I0J150000D01*
G01*
X141939200Y-79519500D01*
G75*
G02*
X142089200Y-79369500I150000J0D01*
G01*
X142389200Y-79369500D01*
G75*
G02*
X142539200Y-79519500I0J-150000D01*
G01*
X142539200Y-80694500D01*
G75*
G02*
X142389200Y-80844500I-150000J0D01*
G01*
G37*
G36*
G01*
X143339200Y-78969500D02*
X143039200Y-78969500D01*
G75*
G02*
X142889200Y-78819500I0J150000D01*
G01*
X142889200Y-77644500D01*
G75*
G02*
X143039200Y-77494500I150000J0D01*
G01*
X143339200Y-77494500D01*
G75*
G02*
X143489200Y-77644500I0J-150000D01*
G01*
X143489200Y-78819500D01*
G75*
G02*
X143339200Y-78969500I-150000J0D01*
G01*
G37*
D21*
X115773200Y-98196400D03*
D19*
X129604000Y-80301600D03*
D20*
X124604000Y-83801600D03*
D19*
X123211600Y-112324000D03*
D20*
X118211600Y-115824000D03*
D21*
X177063400Y-66573400D03*
G36*
G01*
X170256000Y-80423600D02*
X170256000Y-81323600D01*
G75*
G02*
X170006000Y-81573600I-250000J0D01*
G01*
X169306000Y-81573600D01*
G75*
G02*
X169056000Y-81323600I0J250000D01*
G01*
X169056000Y-80423600D01*
G75*
G02*
X169306000Y-80173600I250000J0D01*
G01*
X170006000Y-80173600D01*
G75*
G02*
X170256000Y-80423600I0J-250000D01*
G01*
G37*
G36*
G01*
X168256000Y-80423600D02*
X168256000Y-81323600D01*
G75*
G02*
X168006000Y-81573600I-250000J0D01*
G01*
X167306000Y-81573600D01*
G75*
G02*
X167056000Y-81323600I0J250000D01*
G01*
X167056000Y-80423600D01*
G75*
G02*
X167306000Y-80173600I250000J0D01*
G01*
X168006000Y-80173600D01*
G75*
G02*
X168256000Y-80423600I0J-250000D01*
G01*
G37*
G36*
G01*
X129742600Y-73540600D02*
X129742600Y-74490600D01*
G75*
G02*
X129492600Y-74740600I-250000J0D01*
G01*
X128817600Y-74740600D01*
G75*
G02*
X128567600Y-74490600I0J250000D01*
G01*
X128567600Y-73540600D01*
G75*
G02*
X128817600Y-73290600I250000J0D01*
G01*
X129492600Y-73290600D01*
G75*
G02*
X129742600Y-73540600I0J-250000D01*
G01*
G37*
G36*
G01*
X127667600Y-73540600D02*
X127667600Y-74490600D01*
G75*
G02*
X127417600Y-74740600I-250000J0D01*
G01*
X126742600Y-74740600D01*
G75*
G02*
X126492600Y-74490600I0J250000D01*
G01*
X126492600Y-73540600D01*
G75*
G02*
X126742600Y-73290600I250000J0D01*
G01*
X127417600Y-73290600D01*
G75*
G02*
X127667600Y-73540600I0J-250000D01*
G01*
G37*
G36*
G01*
X125550000Y-99975000D02*
X126850000Y-99975000D01*
G75*
G02*
X127100000Y-100225000I0J-250000D01*
G01*
X127100000Y-101050000D01*
G75*
G02*
X126850000Y-101300000I-250000J0D01*
G01*
X125550000Y-101300000D01*
G75*
G02*
X125300000Y-101050000I0J250000D01*
G01*
X125300000Y-100225000D01*
G75*
G02*
X125550000Y-99975000I250000J0D01*
G01*
G37*
G36*
G01*
X125550000Y-103100000D02*
X126850000Y-103100000D01*
G75*
G02*
X127100000Y-103350000I0J-250000D01*
G01*
X127100000Y-104175000D01*
G75*
G02*
X126850000Y-104425000I-250000J0D01*
G01*
X125550000Y-104425000D01*
G75*
G02*
X125300000Y-104175000I0J250000D01*
G01*
X125300000Y-103350000D01*
G75*
G02*
X125550000Y-103100000I250000J0D01*
G01*
G37*
G36*
G01*
X141538400Y-82796800D02*
X141538400Y-81896800D01*
G75*
G02*
X141788400Y-81646800I250000J0D01*
G01*
X142488400Y-81646800D01*
G75*
G02*
X142738400Y-81896800I0J-250000D01*
G01*
X142738400Y-82796800D01*
G75*
G02*
X142488400Y-83046800I-250000J0D01*
G01*
X141788400Y-83046800D01*
G75*
G02*
X141538400Y-82796800I0J250000D01*
G01*
G37*
G36*
G01*
X143538400Y-82796800D02*
X143538400Y-81896800D01*
G75*
G02*
X143788400Y-81646800I250000J0D01*
G01*
X144488400Y-81646800D01*
G75*
G02*
X144738400Y-81896800I0J-250000D01*
G01*
X144738400Y-82796800D01*
G75*
G02*
X144488400Y-83046800I-250000J0D01*
G01*
X143788400Y-83046800D01*
G75*
G02*
X143538400Y-82796800I0J250000D01*
G01*
G37*
G36*
G01*
X135617800Y-86115600D02*
X136517800Y-86115600D01*
G75*
G02*
X136767800Y-86365600I0J-250000D01*
G01*
X136767800Y-87065600D01*
G75*
G02*
X136517800Y-87315600I-250000J0D01*
G01*
X135617800Y-87315600D01*
G75*
G02*
X135367800Y-87065600I0J250000D01*
G01*
X135367800Y-86365600D01*
G75*
G02*
X135617800Y-86115600I250000J0D01*
G01*
G37*
G36*
G01*
X135617800Y-88115600D02*
X136517800Y-88115600D01*
G75*
G02*
X136767800Y-88365600I0J-250000D01*
G01*
X136767800Y-89065600D01*
G75*
G02*
X136517800Y-89315600I-250000J0D01*
G01*
X135617800Y-89315600D01*
G75*
G02*
X135367800Y-89065600I0J250000D01*
G01*
X135367800Y-88365600D01*
G75*
G02*
X135617800Y-88115600I250000J0D01*
G01*
G37*
G36*
G01*
X165187000Y-110568600D02*
X165187000Y-110868600D01*
G75*
G02*
X165037000Y-111018600I-150000J0D01*
G01*
X163287000Y-111018600D01*
G75*
G02*
X163137000Y-110868600I0J150000D01*
G01*
X163137000Y-110568600D01*
G75*
G02*
X163287000Y-110418600I150000J0D01*
G01*
X165037000Y-110418600D01*
G75*
G02*
X165187000Y-110568600I0J-150000D01*
G01*
G37*
G36*
G01*
X165187000Y-111838600D02*
X165187000Y-112138600D01*
G75*
G02*
X165037000Y-112288600I-150000J0D01*
G01*
X163287000Y-112288600D01*
G75*
G02*
X163137000Y-112138600I0J150000D01*
G01*
X163137000Y-111838600D01*
G75*
G02*
X163287000Y-111688600I150000J0D01*
G01*
X165037000Y-111688600D01*
G75*
G02*
X165187000Y-111838600I0J-150000D01*
G01*
G37*
G36*
G01*
X165187000Y-113108600D02*
X165187000Y-113408600D01*
G75*
G02*
X165037000Y-113558600I-150000J0D01*
G01*
X163287000Y-113558600D01*
G75*
G02*
X163137000Y-113408600I0J150000D01*
G01*
X163137000Y-113108600D01*
G75*
G02*
X163287000Y-112958600I150000J0D01*
G01*
X165037000Y-112958600D01*
G75*
G02*
X165187000Y-113108600I0J-150000D01*
G01*
G37*
G36*
G01*
X165187000Y-114378600D02*
X165187000Y-114678600D01*
G75*
G02*
X165037000Y-114828600I-150000J0D01*
G01*
X163287000Y-114828600D01*
G75*
G02*
X163137000Y-114678600I0J150000D01*
G01*
X163137000Y-114378600D01*
G75*
G02*
X163287000Y-114228600I150000J0D01*
G01*
X165037000Y-114228600D01*
G75*
G02*
X165187000Y-114378600I0J-150000D01*
G01*
G37*
G36*
G01*
X165187000Y-115648600D02*
X165187000Y-115948600D01*
G75*
G02*
X165037000Y-116098600I-150000J0D01*
G01*
X163287000Y-116098600D01*
G75*
G02*
X163137000Y-115948600I0J150000D01*
G01*
X163137000Y-115648600D01*
G75*
G02*
X163287000Y-115498600I150000J0D01*
G01*
X165037000Y-115498600D01*
G75*
G02*
X165187000Y-115648600I0J-150000D01*
G01*
G37*
G36*
G01*
X165187000Y-116918600D02*
X165187000Y-117218600D01*
G75*
G02*
X165037000Y-117368600I-150000J0D01*
G01*
X163287000Y-117368600D01*
G75*
G02*
X163137000Y-117218600I0J150000D01*
G01*
X163137000Y-116918600D01*
G75*
G02*
X163287000Y-116768600I150000J0D01*
G01*
X165037000Y-116768600D01*
G75*
G02*
X165187000Y-116918600I0J-150000D01*
G01*
G37*
G36*
G01*
X165187000Y-118188600D02*
X165187000Y-118488600D01*
G75*
G02*
X165037000Y-118638600I-150000J0D01*
G01*
X163287000Y-118638600D01*
G75*
G02*
X163137000Y-118488600I0J150000D01*
G01*
X163137000Y-118188600D01*
G75*
G02*
X163287000Y-118038600I150000J0D01*
G01*
X165037000Y-118038600D01*
G75*
G02*
X165187000Y-118188600I0J-150000D01*
G01*
G37*
G36*
G01*
X165187000Y-119458600D02*
X165187000Y-119758600D01*
G75*
G02*
X165037000Y-119908600I-150000J0D01*
G01*
X163287000Y-119908600D01*
G75*
G02*
X163137000Y-119758600I0J150000D01*
G01*
X163137000Y-119458600D01*
G75*
G02*
X163287000Y-119308600I150000J0D01*
G01*
X165037000Y-119308600D01*
G75*
G02*
X165187000Y-119458600I0J-150000D01*
G01*
G37*
G36*
G01*
X155887000Y-119458600D02*
X155887000Y-119758600D01*
G75*
G02*
X155737000Y-119908600I-150000J0D01*
G01*
X153987000Y-119908600D01*
G75*
G02*
X153837000Y-119758600I0J150000D01*
G01*
X153837000Y-119458600D01*
G75*
G02*
X153987000Y-119308600I150000J0D01*
G01*
X155737000Y-119308600D01*
G75*
G02*
X155887000Y-119458600I0J-150000D01*
G01*
G37*
G36*
G01*
X155887000Y-118188600D02*
X155887000Y-118488600D01*
G75*
G02*
X155737000Y-118638600I-150000J0D01*
G01*
X153987000Y-118638600D01*
G75*
G02*
X153837000Y-118488600I0J150000D01*
G01*
X153837000Y-118188600D01*
G75*
G02*
X153987000Y-118038600I150000J0D01*
G01*
X155737000Y-118038600D01*
G75*
G02*
X155887000Y-118188600I0J-150000D01*
G01*
G37*
G36*
G01*
X155887000Y-116918600D02*
X155887000Y-117218600D01*
G75*
G02*
X155737000Y-117368600I-150000J0D01*
G01*
X153987000Y-117368600D01*
G75*
G02*
X153837000Y-117218600I0J150000D01*
G01*
X153837000Y-116918600D01*
G75*
G02*
X153987000Y-116768600I150000J0D01*
G01*
X155737000Y-116768600D01*
G75*
G02*
X155887000Y-116918600I0J-150000D01*
G01*
G37*
G36*
G01*
X155887000Y-115648600D02*
X155887000Y-115948600D01*
G75*
G02*
X155737000Y-116098600I-150000J0D01*
G01*
X153987000Y-116098600D01*
G75*
G02*
X153837000Y-115948600I0J150000D01*
G01*
X153837000Y-115648600D01*
G75*
G02*
X153987000Y-115498600I150000J0D01*
G01*
X155737000Y-115498600D01*
G75*
G02*
X155887000Y-115648600I0J-150000D01*
G01*
G37*
G36*
G01*
X155887000Y-114378600D02*
X155887000Y-114678600D01*
G75*
G02*
X155737000Y-114828600I-150000J0D01*
G01*
X153987000Y-114828600D01*
G75*
G02*
X153837000Y-114678600I0J150000D01*
G01*
X153837000Y-114378600D01*
G75*
G02*
X153987000Y-114228600I150000J0D01*
G01*
X155737000Y-114228600D01*
G75*
G02*
X155887000Y-114378600I0J-150000D01*
G01*
G37*
G36*
G01*
X155887000Y-113108600D02*
X155887000Y-113408600D01*
G75*
G02*
X155737000Y-113558600I-150000J0D01*
G01*
X153987000Y-113558600D01*
G75*
G02*
X153837000Y-113408600I0J150000D01*
G01*
X153837000Y-113108600D01*
G75*
G02*
X153987000Y-112958600I150000J0D01*
G01*
X155737000Y-112958600D01*
G75*
G02*
X155887000Y-113108600I0J-150000D01*
G01*
G37*
G36*
G01*
X155887000Y-111838600D02*
X155887000Y-112138600D01*
G75*
G02*
X155737000Y-112288600I-150000J0D01*
G01*
X153987000Y-112288600D01*
G75*
G02*
X153837000Y-112138600I0J150000D01*
G01*
X153837000Y-111838600D01*
G75*
G02*
X153987000Y-111688600I150000J0D01*
G01*
X155737000Y-111688600D01*
G75*
G02*
X155887000Y-111838600I0J-150000D01*
G01*
G37*
G36*
G01*
X155887000Y-110568600D02*
X155887000Y-110868600D01*
G75*
G02*
X155737000Y-111018600I-150000J0D01*
G01*
X153987000Y-111018600D01*
G75*
G02*
X153837000Y-110868600I0J150000D01*
G01*
X153837000Y-110568600D01*
G75*
G02*
X153987000Y-110418600I150000J0D01*
G01*
X155737000Y-110418600D01*
G75*
G02*
X155887000Y-110568600I0J-150000D01*
G01*
G37*
G36*
G01*
X171373600Y-78391600D02*
X171373600Y-79291600D01*
G75*
G02*
X171123600Y-79541600I-250000J0D01*
G01*
X170423600Y-79541600D01*
G75*
G02*
X170173600Y-79291600I0J250000D01*
G01*
X170173600Y-78391600D01*
G75*
G02*
X170423600Y-78141600I250000J0D01*
G01*
X171123600Y-78141600D01*
G75*
G02*
X171373600Y-78391600I0J-250000D01*
G01*
G37*
G36*
G01*
X169373600Y-78391600D02*
X169373600Y-79291600D01*
G75*
G02*
X169123600Y-79541600I-250000J0D01*
G01*
X168423600Y-79541600D01*
G75*
G02*
X168173600Y-79291600I0J250000D01*
G01*
X168173600Y-78391600D01*
G75*
G02*
X168423600Y-78141600I250000J0D01*
G01*
X169123600Y-78141600D01*
G75*
G02*
X169373600Y-78391600I0J-250000D01*
G01*
G37*
G36*
G01*
X137726000Y-90179600D02*
X138626000Y-90179600D01*
G75*
G02*
X138876000Y-90429600I0J-250000D01*
G01*
X138876000Y-91129600D01*
G75*
G02*
X138626000Y-91379600I-250000J0D01*
G01*
X137726000Y-91379600D01*
G75*
G02*
X137476000Y-91129600I0J250000D01*
G01*
X137476000Y-90429600D01*
G75*
G02*
X137726000Y-90179600I250000J0D01*
G01*
G37*
G36*
G01*
X137726000Y-92179600D02*
X138626000Y-92179600D01*
G75*
G02*
X138876000Y-92429600I0J-250000D01*
G01*
X138876000Y-93129600D01*
G75*
G02*
X138626000Y-93379600I-250000J0D01*
G01*
X137726000Y-93379600D01*
G75*
G02*
X137476000Y-93129600I0J250000D01*
G01*
X137476000Y-92429600D01*
G75*
G02*
X137726000Y-92179600I250000J0D01*
G01*
G37*
G36*
G01*
X171272000Y-104553600D02*
X171272000Y-105453600D01*
G75*
G02*
X171022000Y-105703600I-250000J0D01*
G01*
X170322000Y-105703600D01*
G75*
G02*
X170072000Y-105453600I0J250000D01*
G01*
X170072000Y-104553600D01*
G75*
G02*
X170322000Y-104303600I250000J0D01*
G01*
X171022000Y-104303600D01*
G75*
G02*
X171272000Y-104553600I0J-250000D01*
G01*
G37*
G36*
G01*
X169272000Y-104553600D02*
X169272000Y-105453600D01*
G75*
G02*
X169022000Y-105703600I-250000J0D01*
G01*
X168322000Y-105703600D01*
G75*
G02*
X168072000Y-105453600I0J250000D01*
G01*
X168072000Y-104553600D01*
G75*
G02*
X168322000Y-104303600I250000J0D01*
G01*
X169022000Y-104303600D01*
G75*
G02*
X169272000Y-104553600I0J-250000D01*
G01*
G37*
G36*
G01*
X129866500Y-129633800D02*
X129866500Y-129933800D01*
G75*
G02*
X129716500Y-130083800I-150000J0D01*
G01*
X128541500Y-130083800D01*
G75*
G02*
X128391500Y-129933800I0J150000D01*
G01*
X128391500Y-129633800D01*
G75*
G02*
X128541500Y-129483800I150000J0D01*
G01*
X129716500Y-129483800D01*
G75*
G02*
X129866500Y-129633800I0J-150000D01*
G01*
G37*
G36*
G01*
X129866500Y-131533800D02*
X129866500Y-131833800D01*
G75*
G02*
X129716500Y-131983800I-150000J0D01*
G01*
X128541500Y-131983800D01*
G75*
G02*
X128391500Y-131833800I0J150000D01*
G01*
X128391500Y-131533800D01*
G75*
G02*
X128541500Y-131383800I150000J0D01*
G01*
X129716500Y-131383800D01*
G75*
G02*
X129866500Y-131533800I0J-150000D01*
G01*
G37*
G36*
G01*
X127991500Y-130583800D02*
X127991500Y-130883800D01*
G75*
G02*
X127841500Y-131033800I-150000J0D01*
G01*
X126666500Y-131033800D01*
G75*
G02*
X126516500Y-130883800I0J150000D01*
G01*
X126516500Y-130583800D01*
G75*
G02*
X126666500Y-130433800I150000J0D01*
G01*
X127841500Y-130433800D01*
G75*
G02*
X127991500Y-130583800I0J-150000D01*
G01*
G37*
G36*
G01*
X137054500Y-101499000D02*
X138004500Y-101499000D01*
G75*
G02*
X138254500Y-101749000I0J-250000D01*
G01*
X138254500Y-102424000D01*
G75*
G02*
X138004500Y-102674000I-250000J0D01*
G01*
X137054500Y-102674000D01*
G75*
G02*
X136804500Y-102424000I0J250000D01*
G01*
X136804500Y-101749000D01*
G75*
G02*
X137054500Y-101499000I250000J0D01*
G01*
G37*
G36*
G01*
X137054500Y-103574000D02*
X138004500Y-103574000D01*
G75*
G02*
X138254500Y-103824000I0J-250000D01*
G01*
X138254500Y-104499000D01*
G75*
G02*
X138004500Y-104749000I-250000J0D01*
G01*
X137054500Y-104749000D01*
G75*
G02*
X136804500Y-104499000I0J250000D01*
G01*
X136804500Y-103824000D01*
G75*
G02*
X137054500Y-103574000I250000J0D01*
G01*
G37*
G36*
G01*
X135617800Y-82051600D02*
X136517800Y-82051600D01*
G75*
G02*
X136767800Y-82301600I0J-250000D01*
G01*
X136767800Y-83001600D01*
G75*
G02*
X136517800Y-83251600I-250000J0D01*
G01*
X135617800Y-83251600D01*
G75*
G02*
X135367800Y-83001600I0J250000D01*
G01*
X135367800Y-82301600D01*
G75*
G02*
X135617800Y-82051600I250000J0D01*
G01*
G37*
G36*
G01*
X135617800Y-84051600D02*
X136517800Y-84051600D01*
G75*
G02*
X136767800Y-84301600I0J-250000D01*
G01*
X136767800Y-85001600D01*
G75*
G02*
X136517800Y-85251600I-250000J0D01*
G01*
X135617800Y-85251600D01*
G75*
G02*
X135367800Y-85001600I0J250000D01*
G01*
X135367800Y-84301600D01*
G75*
G02*
X135617800Y-84051600I250000J0D01*
G01*
G37*
D22*
X133553200Y-87122000D03*
D23*
X133553200Y-79502000D03*
G36*
G01*
X139209400Y-77528000D02*
X139209400Y-78428000D01*
G75*
G02*
X138959400Y-78678000I-250000J0D01*
G01*
X138259400Y-78678000D01*
G75*
G02*
X138009400Y-78428000I0J250000D01*
G01*
X138009400Y-77528000D01*
G75*
G02*
X138259400Y-77278000I250000J0D01*
G01*
X138959400Y-77278000D01*
G75*
G02*
X139209400Y-77528000I0J-250000D01*
G01*
G37*
G36*
G01*
X137209400Y-77528000D02*
X137209400Y-78428000D01*
G75*
G02*
X136959400Y-78678000I-250000J0D01*
G01*
X136259400Y-78678000D01*
G75*
G02*
X136009400Y-78428000I0J250000D01*
G01*
X136009400Y-77528000D01*
G75*
G02*
X136259400Y-77278000I250000J0D01*
G01*
X136959400Y-77278000D01*
G75*
G02*
X137209400Y-77528000I0J-250000D01*
G01*
G37*
D24*
X158490000Y-84344000D03*
X161030000Y-84344000D03*
X163570000Y-84344000D03*
X166110000Y-84344000D03*
X171190000Y-84344000D03*
X168650000Y-84344000D03*
X176270000Y-101584000D03*
X176270000Y-84344000D03*
X173730000Y-101584000D03*
X171190000Y-101584000D03*
X168650000Y-101584000D03*
X166110000Y-101584000D03*
X163570000Y-101584000D03*
X161030000Y-101584000D03*
X158490000Y-101584000D03*
X173730000Y-84344000D03*
D21*
X125831600Y-66751200D03*
G36*
G01*
X131081500Y-124325800D02*
X131981500Y-124325800D01*
G75*
G02*
X132231500Y-124575800I0J-250000D01*
G01*
X132231500Y-125275800D01*
G75*
G02*
X131981500Y-125525800I-250000J0D01*
G01*
X131081500Y-125525800D01*
G75*
G02*
X130831500Y-125275800I0J250000D01*
G01*
X130831500Y-124575800D01*
G75*
G02*
X131081500Y-124325800I250000J0D01*
G01*
G37*
G36*
G01*
X131081500Y-126325800D02*
X131981500Y-126325800D01*
G75*
G02*
X132231500Y-126575800I0J-250000D01*
G01*
X132231500Y-127275800D01*
G75*
G02*
X131981500Y-127525800I-250000J0D01*
G01*
X131081500Y-127525800D01*
G75*
G02*
X130831500Y-127275800I0J250000D01*
G01*
X130831500Y-126575800D01*
G75*
G02*
X131081500Y-126325800I250000J0D01*
G01*
G37*
G36*
G01*
X128023200Y-87401600D02*
X128923200Y-87401600D01*
G75*
G02*
X129173200Y-87651600I0J-250000D01*
G01*
X129173200Y-88351600D01*
G75*
G02*
X128923200Y-88601600I-250000J0D01*
G01*
X128023200Y-88601600D01*
G75*
G02*
X127773200Y-88351600I0J250000D01*
G01*
X127773200Y-87651600D01*
G75*
G02*
X128023200Y-87401600I250000J0D01*
G01*
G37*
G36*
G01*
X128023200Y-89401600D02*
X128923200Y-89401600D01*
G75*
G02*
X129173200Y-89651600I0J-250000D01*
G01*
X129173200Y-90351600D01*
G75*
G02*
X128923200Y-90601600I-250000J0D01*
G01*
X128023200Y-90601600D01*
G75*
G02*
X127773200Y-90351600I0J250000D01*
G01*
X127773200Y-89651600D01*
G75*
G02*
X128023200Y-89401600I250000J0D01*
G01*
G37*
G36*
G01*
X127151000Y-87850800D02*
X127151000Y-88150800D01*
G75*
G02*
X127001000Y-88300800I-150000J0D01*
G01*
X125826000Y-88300800D01*
G75*
G02*
X125676000Y-88150800I0J150000D01*
G01*
X125676000Y-87850800D01*
G75*
G02*
X125826000Y-87700800I150000J0D01*
G01*
X127001000Y-87700800D01*
G75*
G02*
X127151000Y-87850800I0J-150000D01*
G01*
G37*
G36*
G01*
X127151000Y-89750800D02*
X127151000Y-90050800D01*
G75*
G02*
X127001000Y-90200800I-150000J0D01*
G01*
X125826000Y-90200800D01*
G75*
G02*
X125676000Y-90050800I0J150000D01*
G01*
X125676000Y-89750800D01*
G75*
G02*
X125826000Y-89600800I150000J0D01*
G01*
X127001000Y-89600800D01*
G75*
G02*
X127151000Y-89750800I0J-150000D01*
G01*
G37*
G36*
G01*
X125276000Y-88800800D02*
X125276000Y-89100800D01*
G75*
G02*
X125126000Y-89250800I-150000J0D01*
G01*
X123951000Y-89250800D01*
G75*
G02*
X123801000Y-89100800I0J150000D01*
G01*
X123801000Y-88800800D01*
G75*
G02*
X123951000Y-88650800I150000J0D01*
G01*
X125126000Y-88650800D01*
G75*
G02*
X125276000Y-88800800I0J-150000D01*
G01*
G37*
G36*
G01*
X130607000Y-132834800D02*
X130607000Y-131934800D01*
G75*
G02*
X130857000Y-131684800I250000J0D01*
G01*
X131557000Y-131684800D01*
G75*
G02*
X131807000Y-131934800I0J-250000D01*
G01*
X131807000Y-132834800D01*
G75*
G02*
X131557000Y-133084800I-250000J0D01*
G01*
X130857000Y-133084800D01*
G75*
G02*
X130607000Y-132834800I0J250000D01*
G01*
G37*
G36*
G01*
X132607000Y-132834800D02*
X132607000Y-131934800D01*
G75*
G02*
X132857000Y-131684800I250000J0D01*
G01*
X133557000Y-131684800D01*
G75*
G02*
X133807000Y-131934800I0J-250000D01*
G01*
X133807000Y-132834800D01*
G75*
G02*
X133557000Y-133084800I-250000J0D01*
G01*
X132857000Y-133084800D01*
G75*
G02*
X132607000Y-132834800I0J250000D01*
G01*
G37*
D25*
X132732600Y-74015600D03*
X135272600Y-74015600D03*
X137812600Y-74015600D03*
G36*
G01*
X163500000Y-105453600D02*
X163500000Y-104553600D01*
G75*
G02*
X163750000Y-104303600I250000J0D01*
G01*
X164450000Y-104303600D01*
G75*
G02*
X164700000Y-104553600I0J-250000D01*
G01*
X164700000Y-105453600D01*
G75*
G02*
X164450000Y-105703600I-250000J0D01*
G01*
X163750000Y-105703600D01*
G75*
G02*
X163500000Y-105453600I0J250000D01*
G01*
G37*
G36*
G01*
X165500000Y-105453600D02*
X165500000Y-104553600D01*
G75*
G02*
X165750000Y-104303600I250000J0D01*
G01*
X166450000Y-104303600D01*
G75*
G02*
X166700000Y-104553600I0J-250000D01*
G01*
X166700000Y-105453600D01*
G75*
G02*
X166450000Y-105703600I-250000J0D01*
G01*
X165750000Y-105703600D01*
G75*
G02*
X165500000Y-105453600I0J250000D01*
G01*
G37*
G36*
G01*
X146037400Y-81125200D02*
X146037400Y-80825200D01*
G75*
G02*
X146187400Y-80675200I150000J0D01*
G01*
X147937400Y-80675200D01*
G75*
G02*
X148087400Y-80825200I0J-150000D01*
G01*
X148087400Y-81125200D01*
G75*
G02*
X147937400Y-81275200I-150000J0D01*
G01*
X146187400Y-81275200D01*
G75*
G02*
X146037400Y-81125200I0J150000D01*
G01*
G37*
G36*
G01*
X146037400Y-79855200D02*
X146037400Y-79555200D01*
G75*
G02*
X146187400Y-79405200I150000J0D01*
G01*
X147937400Y-79405200D01*
G75*
G02*
X148087400Y-79555200I0J-150000D01*
G01*
X148087400Y-79855200D01*
G75*
G02*
X147937400Y-80005200I-150000J0D01*
G01*
X146187400Y-80005200D01*
G75*
G02*
X146037400Y-79855200I0J150000D01*
G01*
G37*
G36*
G01*
X146037400Y-78585200D02*
X146037400Y-78285200D01*
G75*
G02*
X146187400Y-78135200I150000J0D01*
G01*
X147937400Y-78135200D01*
G75*
G02*
X148087400Y-78285200I0J-150000D01*
G01*
X148087400Y-78585200D01*
G75*
G02*
X147937400Y-78735200I-150000J0D01*
G01*
X146187400Y-78735200D01*
G75*
G02*
X146037400Y-78585200I0J150000D01*
G01*
G37*
G36*
G01*
X146037400Y-77315200D02*
X146037400Y-77015200D01*
G75*
G02*
X146187400Y-76865200I150000J0D01*
G01*
X147937400Y-76865200D01*
G75*
G02*
X148087400Y-77015200I0J-150000D01*
G01*
X148087400Y-77315200D01*
G75*
G02*
X147937400Y-77465200I-150000J0D01*
G01*
X146187400Y-77465200D01*
G75*
G02*
X146037400Y-77315200I0J150000D01*
G01*
G37*
G36*
G01*
X146037400Y-76045200D02*
X146037400Y-75745200D01*
G75*
G02*
X146187400Y-75595200I150000J0D01*
G01*
X147937400Y-75595200D01*
G75*
G02*
X148087400Y-75745200I0J-150000D01*
G01*
X148087400Y-76045200D01*
G75*
G02*
X147937400Y-76195200I-150000J0D01*
G01*
X146187400Y-76195200D01*
G75*
G02*
X146037400Y-76045200I0J150000D01*
G01*
G37*
G36*
G01*
X146037400Y-74775200D02*
X146037400Y-74475200D01*
G75*
G02*
X146187400Y-74325200I150000J0D01*
G01*
X147937400Y-74325200D01*
G75*
G02*
X148087400Y-74475200I0J-150000D01*
G01*
X148087400Y-74775200D01*
G75*
G02*
X147937400Y-74925200I-150000J0D01*
G01*
X146187400Y-74925200D01*
G75*
G02*
X146037400Y-74775200I0J150000D01*
G01*
G37*
G36*
G01*
X146037400Y-73505200D02*
X146037400Y-73205200D01*
G75*
G02*
X146187400Y-73055200I150000J0D01*
G01*
X147937400Y-73055200D01*
G75*
G02*
X148087400Y-73205200I0J-150000D01*
G01*
X148087400Y-73505200D01*
G75*
G02*
X147937400Y-73655200I-150000J0D01*
G01*
X146187400Y-73655200D01*
G75*
G02*
X146037400Y-73505200I0J150000D01*
G01*
G37*
G36*
G01*
X146037400Y-72235200D02*
X146037400Y-71935200D01*
G75*
G02*
X146187400Y-71785200I150000J0D01*
G01*
X147937400Y-71785200D01*
G75*
G02*
X148087400Y-71935200I0J-150000D01*
G01*
X148087400Y-72235200D01*
G75*
G02*
X147937400Y-72385200I-150000J0D01*
G01*
X146187400Y-72385200D01*
G75*
G02*
X146037400Y-72235200I0J150000D01*
G01*
G37*
G36*
G01*
X155337400Y-72235200D02*
X155337400Y-71935200D01*
G75*
G02*
X155487400Y-71785200I150000J0D01*
G01*
X157237400Y-71785200D01*
G75*
G02*
X157387400Y-71935200I0J-150000D01*
G01*
X157387400Y-72235200D01*
G75*
G02*
X157237400Y-72385200I-150000J0D01*
G01*
X155487400Y-72385200D01*
G75*
G02*
X155337400Y-72235200I0J150000D01*
G01*
G37*
G36*
G01*
X155337400Y-73505200D02*
X155337400Y-73205200D01*
G75*
G02*
X155487400Y-73055200I150000J0D01*
G01*
X157237400Y-73055200D01*
G75*
G02*
X157387400Y-73205200I0J-150000D01*
G01*
X157387400Y-73505200D01*
G75*
G02*
X157237400Y-73655200I-150000J0D01*
G01*
X155487400Y-73655200D01*
G75*
G02*
X155337400Y-73505200I0J150000D01*
G01*
G37*
G36*
G01*
X155337400Y-74775200D02*
X155337400Y-74475200D01*
G75*
G02*
X155487400Y-74325200I150000J0D01*
G01*
X157237400Y-74325200D01*
G75*
G02*
X157387400Y-74475200I0J-150000D01*
G01*
X157387400Y-74775200D01*
G75*
G02*
X157237400Y-74925200I-150000J0D01*
G01*
X155487400Y-74925200D01*
G75*
G02*
X155337400Y-74775200I0J150000D01*
G01*
G37*
G36*
G01*
X155337400Y-76045200D02*
X155337400Y-75745200D01*
G75*
G02*
X155487400Y-75595200I150000J0D01*
G01*
X157237400Y-75595200D01*
G75*
G02*
X157387400Y-75745200I0J-150000D01*
G01*
X157387400Y-76045200D01*
G75*
G02*
X157237400Y-76195200I-150000J0D01*
G01*
X155487400Y-76195200D01*
G75*
G02*
X155337400Y-76045200I0J150000D01*
G01*
G37*
G36*
G01*
X155337400Y-77315200D02*
X155337400Y-77015200D01*
G75*
G02*
X155487400Y-76865200I150000J0D01*
G01*
X157237400Y-76865200D01*
G75*
G02*
X157387400Y-77015200I0J-150000D01*
G01*
X157387400Y-77315200D01*
G75*
G02*
X157237400Y-77465200I-150000J0D01*
G01*
X155487400Y-77465200D01*
G75*
G02*
X155337400Y-77315200I0J150000D01*
G01*
G37*
G36*
G01*
X155337400Y-78585200D02*
X155337400Y-78285200D01*
G75*
G02*
X155487400Y-78135200I150000J0D01*
G01*
X157237400Y-78135200D01*
G75*
G02*
X157387400Y-78285200I0J-150000D01*
G01*
X157387400Y-78585200D01*
G75*
G02*
X157237400Y-78735200I-150000J0D01*
G01*
X155487400Y-78735200D01*
G75*
G02*
X155337400Y-78585200I0J150000D01*
G01*
G37*
G36*
G01*
X155337400Y-79855200D02*
X155337400Y-79555200D01*
G75*
G02*
X155487400Y-79405200I150000J0D01*
G01*
X157237400Y-79405200D01*
G75*
G02*
X157387400Y-79555200I0J-150000D01*
G01*
X157387400Y-79855200D01*
G75*
G02*
X157237400Y-80005200I-150000J0D01*
G01*
X155487400Y-80005200D01*
G75*
G02*
X155337400Y-79855200I0J150000D01*
G01*
G37*
G36*
G01*
X155337400Y-81125200D02*
X155337400Y-80825200D01*
G75*
G02*
X155487400Y-80675200I150000J0D01*
G01*
X157237400Y-80675200D01*
G75*
G02*
X157387400Y-80825200I0J-150000D01*
G01*
X157387400Y-81125200D01*
G75*
G02*
X157237400Y-81275200I-150000J0D01*
G01*
X155487400Y-81275200D01*
G75*
G02*
X155337400Y-81125200I0J150000D01*
G01*
G37*
G36*
G01*
X138626000Y-85251600D02*
X137726000Y-85251600D01*
G75*
G02*
X137476000Y-85001600I0J250000D01*
G01*
X137476000Y-84301600D01*
G75*
G02*
X137726000Y-84051600I250000J0D01*
G01*
X138626000Y-84051600D01*
G75*
G02*
X138876000Y-84301600I0J-250000D01*
G01*
X138876000Y-85001600D01*
G75*
G02*
X138626000Y-85251600I-250000J0D01*
G01*
G37*
G36*
G01*
X138626000Y-83251600D02*
X137726000Y-83251600D01*
G75*
G02*
X137476000Y-83001600I0J250000D01*
G01*
X137476000Y-82301600D01*
G75*
G02*
X137726000Y-82051600I250000J0D01*
G01*
X138626000Y-82051600D01*
G75*
G02*
X138876000Y-82301600I0J-250000D01*
G01*
X138876000Y-83001600D01*
G75*
G02*
X138626000Y-83251600I-250000J0D01*
G01*
G37*
G36*
G01*
X145997600Y-83533400D02*
X145997600Y-82633400D01*
G75*
G02*
X146247600Y-82383400I250000J0D01*
G01*
X146947600Y-82383400D01*
G75*
G02*
X147197600Y-82633400I0J-250000D01*
G01*
X147197600Y-83533400D01*
G75*
G02*
X146947600Y-83783400I-250000J0D01*
G01*
X146247600Y-83783400D01*
G75*
G02*
X145997600Y-83533400I0J250000D01*
G01*
G37*
G36*
G01*
X147997600Y-83533400D02*
X147997600Y-82633400D01*
G75*
G02*
X148247600Y-82383400I250000J0D01*
G01*
X148947600Y-82383400D01*
G75*
G02*
X149197600Y-82633400I0J-250000D01*
G01*
X149197600Y-83533400D01*
G75*
G02*
X148947600Y-83783400I-250000J0D01*
G01*
X148247600Y-83783400D01*
G75*
G02*
X147997600Y-83533400I0J250000D01*
G01*
G37*
G36*
G01*
X136517800Y-93379600D02*
X135617800Y-93379600D01*
G75*
G02*
X135367800Y-93129600I0J250000D01*
G01*
X135367800Y-92429600D01*
G75*
G02*
X135617800Y-92179600I250000J0D01*
G01*
X136517800Y-92179600D01*
G75*
G02*
X136767800Y-92429600I0J-250000D01*
G01*
X136767800Y-93129600D01*
G75*
G02*
X136517800Y-93379600I-250000J0D01*
G01*
G37*
G36*
G01*
X136517800Y-91379600D02*
X135617800Y-91379600D01*
G75*
G02*
X135367800Y-91129600I0J250000D01*
G01*
X135367800Y-90429600D01*
G75*
G02*
X135617800Y-90179600I250000J0D01*
G01*
X136517800Y-90179600D01*
G75*
G02*
X136767800Y-90429600I0J-250000D01*
G01*
X136767800Y-91129600D01*
G75*
G02*
X136517800Y-91379600I-250000J0D01*
G01*
G37*
G36*
G01*
X128781500Y-124325800D02*
X129681500Y-124325800D01*
G75*
G02*
X129931500Y-124575800I0J-250000D01*
G01*
X129931500Y-125275800D01*
G75*
G02*
X129681500Y-125525800I-250000J0D01*
G01*
X128781500Y-125525800D01*
G75*
G02*
X128531500Y-125275800I0J250000D01*
G01*
X128531500Y-124575800D01*
G75*
G02*
X128781500Y-124325800I250000J0D01*
G01*
G37*
G36*
G01*
X128781500Y-126325800D02*
X129681500Y-126325800D01*
G75*
G02*
X129931500Y-126575800I0J-250000D01*
G01*
X129931500Y-127275800D01*
G75*
G02*
X129681500Y-127525800I-250000J0D01*
G01*
X128781500Y-127525800D01*
G75*
G02*
X128531500Y-127275800I0J250000D01*
G01*
X128531500Y-126575800D01*
G75*
G02*
X128781500Y-126325800I250000J0D01*
G01*
G37*
D19*
X145224000Y-123473200D03*
D20*
X148724000Y-128473200D03*
G36*
G01*
X122950000Y-91962500D02*
X121650000Y-91962500D01*
G75*
G02*
X121400000Y-91712500I0J250000D01*
G01*
X121400000Y-90887500D01*
G75*
G02*
X121650000Y-90637500I250000J0D01*
G01*
X122950000Y-90637500D01*
G75*
G02*
X123200000Y-90887500I0J-250000D01*
G01*
X123200000Y-91712500D01*
G75*
G02*
X122950000Y-91962500I-250000J0D01*
G01*
G37*
G36*
G01*
X122950000Y-88837500D02*
X121650000Y-88837500D01*
G75*
G02*
X121400000Y-88587500I0J250000D01*
G01*
X121400000Y-87762500D01*
G75*
G02*
X121650000Y-87512500I250000J0D01*
G01*
X122950000Y-87512500D01*
G75*
G02*
X123200000Y-87762500I0J-250000D01*
G01*
X123200000Y-88587500D01*
G75*
G02*
X122950000Y-88837500I-250000J0D01*
G01*
G37*
G36*
G01*
X130607000Y-130294800D02*
X130607000Y-129394800D01*
G75*
G02*
X130857000Y-129144800I250000J0D01*
G01*
X131557000Y-129144800D01*
G75*
G02*
X131807000Y-129394800I0J-250000D01*
G01*
X131807000Y-130294800D01*
G75*
G02*
X131557000Y-130544800I-250000J0D01*
G01*
X130857000Y-130544800D01*
G75*
G02*
X130607000Y-130294800I0J250000D01*
G01*
G37*
G36*
G01*
X132607000Y-130294800D02*
X132607000Y-129394800D01*
G75*
G02*
X132857000Y-129144800I250000J0D01*
G01*
X133557000Y-129144800D01*
G75*
G02*
X133807000Y-129394800I0J-250000D01*
G01*
X133807000Y-130294800D01*
G75*
G02*
X133557000Y-130544800I-250000J0D01*
G01*
X132857000Y-130544800D01*
G75*
G02*
X132607000Y-130294800I0J250000D01*
G01*
G37*
G36*
G01*
X172567000Y-112130000D02*
X175667000Y-112130000D01*
G75*
G02*
X175917000Y-112380000I0J-250000D01*
G01*
X175917000Y-113680000D01*
G75*
G02*
X175667000Y-113930000I-250000J0D01*
G01*
X172567000Y-113930000D01*
G75*
G02*
X172317000Y-113680000I0J250000D01*
G01*
X172317000Y-112380000D01*
G75*
G02*
X172567000Y-112130000I250000J0D01*
G01*
G37*
D26*
X174117000Y-116530000D03*
G36*
G01*
X138626000Y-89315600D02*
X137726000Y-89315600D01*
G75*
G02*
X137476000Y-89065600I0J250000D01*
G01*
X137476000Y-88365600D01*
G75*
G02*
X137726000Y-88115600I250000J0D01*
G01*
X138626000Y-88115600D01*
G75*
G02*
X138876000Y-88365600I0J-250000D01*
G01*
X138876000Y-89065600D01*
G75*
G02*
X138626000Y-89315600I-250000J0D01*
G01*
G37*
G36*
G01*
X138626000Y-87315600D02*
X137726000Y-87315600D01*
G75*
G02*
X137476000Y-87065600I0J250000D01*
G01*
X137476000Y-86365600D01*
G75*
G02*
X137726000Y-86115600I250000J0D01*
G01*
X138626000Y-86115600D01*
G75*
G02*
X138876000Y-86365600I0J-250000D01*
G01*
X138876000Y-87065600D01*
G75*
G02*
X138626000Y-87315600I-250000J0D01*
G01*
G37*
G36*
G01*
X126850000Y-99425000D02*
X125550000Y-99425000D01*
G75*
G02*
X125300000Y-99175000I0J250000D01*
G01*
X125300000Y-98350000D01*
G75*
G02*
X125550000Y-98100000I250000J0D01*
G01*
X126850000Y-98100000D01*
G75*
G02*
X127100000Y-98350000I0J-250000D01*
G01*
X127100000Y-99175000D01*
G75*
G02*
X126850000Y-99425000I-250000J0D01*
G01*
G37*
G36*
G01*
X126850000Y-96300000D02*
X125550000Y-96300000D01*
G75*
G02*
X125300000Y-96050000I0J250000D01*
G01*
X125300000Y-95225000D01*
G75*
G02*
X125550000Y-94975000I250000J0D01*
G01*
X126850000Y-94975000D01*
G75*
G02*
X127100000Y-95225000I0J-250000D01*
G01*
X127100000Y-96050000D01*
G75*
G02*
X126850000Y-96300000I-250000J0D01*
G01*
G37*
G36*
G01*
X127740700Y-104732200D02*
X127740700Y-103982200D01*
G75*
G02*
X128115700Y-103607200I375000J0D01*
G01*
X129365700Y-103607200D01*
G75*
G02*
X129740700Y-103982200I0J-375000D01*
G01*
X129740700Y-104732200D01*
G75*
G02*
X129365700Y-105107200I-375000J0D01*
G01*
X128115700Y-105107200D01*
G75*
G02*
X127740700Y-104732200I0J375000D01*
G01*
G37*
G36*
G01*
X127740700Y-102432200D02*
X127740700Y-101682200D01*
G75*
G02*
X128115700Y-101307200I375000J0D01*
G01*
X129365700Y-101307200D01*
G75*
G02*
X129740700Y-101682200I0J-375000D01*
G01*
X129740700Y-102432200D01*
G75*
G02*
X129365700Y-102807200I-375000J0D01*
G01*
X128115700Y-102807200D01*
G75*
G02*
X127740700Y-102432200I0J375000D01*
G01*
G37*
G36*
G01*
X134040700Y-103457200D02*
X134040700Y-100657200D01*
G75*
G02*
X134540700Y-100157200I500000J0D01*
G01*
X135540700Y-100157200D01*
G75*
G02*
X136040700Y-100657200I0J-500000D01*
G01*
X136040700Y-103457200D01*
G75*
G02*
X135540700Y-103957200I-500000J0D01*
G01*
X134540700Y-103957200D01*
G75*
G02*
X134040700Y-103457200I0J500000D01*
G01*
G37*
G36*
G01*
X127740700Y-100132200D02*
X127740700Y-99382200D01*
G75*
G02*
X128115700Y-99007200I375000J0D01*
G01*
X129365700Y-99007200D01*
G75*
G02*
X129740700Y-99382200I0J-375000D01*
G01*
X129740700Y-100132200D01*
G75*
G02*
X129365700Y-100507200I-375000J0D01*
G01*
X128115700Y-100507200D01*
G75*
G02*
X127740700Y-100132200I0J375000D01*
G01*
G37*
G36*
G01*
X130106000Y-87401600D02*
X131006000Y-87401600D01*
G75*
G02*
X131256000Y-87651600I0J-250000D01*
G01*
X131256000Y-88351600D01*
G75*
G02*
X131006000Y-88601600I-250000J0D01*
G01*
X130106000Y-88601600D01*
G75*
G02*
X129856000Y-88351600I0J250000D01*
G01*
X129856000Y-87651600D01*
G75*
G02*
X130106000Y-87401600I250000J0D01*
G01*
G37*
G36*
G01*
X130106000Y-89401600D02*
X131006000Y-89401600D01*
G75*
G02*
X131256000Y-89651600I0J-250000D01*
G01*
X131256000Y-90351600D01*
G75*
G02*
X131006000Y-90601600I-250000J0D01*
G01*
X130106000Y-90601600D01*
G75*
G02*
X129856000Y-90351600I0J250000D01*
G01*
X129856000Y-89651600D01*
G75*
G02*
X130106000Y-89401600I250000J0D01*
G01*
G37*
%LPD*%
M02*
