M48
; FORMAT={-:-/ absolute / metric / decimal}
; #@! TF.GenerationSoftware,Kicad,Pcbnew,8.0.8+1
; #@! TF.FileFunction,Plated,1,2,PTH
FMAT,2
METRIC
; #@! TA.AperFunction,Plated,PTH,ViaDrill
T1C0.300
; #@! TA.AperFunction,Plated,PTH,ComponentDrill
T2C0.800
; #@! TA.AperFunction,Plated,PTH,ComponentDrill
T3C1.000
; #@! TA.AperFunction,Plated,PTH,ComponentDrill
T4C1.200
; #@! TA.AperFunction,Plated,PTH,ComponentDrill
T5C1.270
; #@! TA.AperFunction,Plated,PTH,ComponentDrill
T6C1.300
%
G90
G05
T1
X119.5Y-90.9
X119.5Y-92.1
X119.5Y-93.2
X119.5Y-94.5
X119.5Y-95.7
X121.9Y-92.8
X121.9Y-93.7
X122.8Y-92.8
X123.9Y-91.1
X125.4Y-105.1
X125.6Y-94.2
X125.679Y-73.508
X125.679Y-74.524
X126.2Y-105.1
X126.8Y-94.2
X127.0Y-105.1
X127.3Y-91.3
X128.2Y-106.1
X128.998Y-106.084
X129.286Y-86.36
X129.5Y-91.3
X131.267Y-77.572
X131.623Y-86.36
X132.3Y-77.6
X132.842Y-123.342
X133.604Y-126.492
X134.3Y-129.845
X134.569Y-123.342
X135.28Y-105.613
X135.331Y-126.492
X135.687Y-97.19
X136.246Y-105.562
X136.347Y-123.342
X137.109Y-126.492
X137.77Y-97.19
X138.481Y-123.342
X139.344Y-106.883
X139.446Y-109.525
X139.598Y-81.178
X139.7Y-87.122
X139.997Y-77.521
X139.997Y-78.537
X140.259Y-123.342
X140.868Y-90.17
X140.97Y-87.122
X140.97Y-111.252
X141.021Y-127.102
X141.6Y-122.0
X141.783Y-78.74
X142.4Y-120.7
X142.494Y-86.233
X142.545Y-113.03
X142.875Y-116.459
X143.154Y-80.213
X143.459Y-90.17
X143.459Y-92.761
X143.459Y-95.352
X143.459Y-98.044
X143.459Y-100.99
X143.459Y-103.988
X143.459Y-107.29
X143.815Y-84.988
X144.605Y-71.6
X144.605Y-72.3
X144.78Y-77.419
X144.983Y-83.922
X145.3Y-71.6
X145.3Y-72.3
X145.4Y-73.4
X145.796Y-127.102
X146.456Y-91.288
X146.456Y-93.878
X146.456Y-96.469
X146.456Y-99.162
X146.456Y-102.108
X146.456Y-105.105
X146.456Y-108.407
X146.5Y-117.3
X146.886Y-87.247
X146.98Y-84.75
X147.8Y-121.8
X147.879Y-111.252
X148.184Y-114.656
X148.539Y-86.716
X148.895Y-78.943
X149.098Y-115.621
X149.149Y-79.908
X149.352Y-84.43
X149.4Y-121.8
X149.708Y-85.446
X149.86Y-113.182
X149.9Y-117.312
X150.114Y-104.14
X150.165Y-78.74
X151.13Y-77.876
X151.638Y-106.375
X152.527Y-84.963
X152.527Y-87.884
X152.527Y-90.805
X152.527Y-94.107
X152.527Y-97.409
X152.527Y-101.346
X153.416Y-107.188
X154.316Y-106.316
X154.788Y-81.026
X155.397Y-107.696
X157.48Y-108.407
X157.48Y-109.728
X157.48Y-111.15
X157.48Y-112.624
X157.48Y-114.046
X158.902Y-108.407
X158.902Y-109.728
X158.902Y-111.15
X158.902Y-112.624
X158.998Y-81.026
X160.42Y-80.044
X160.426Y-108.407
X160.426Y-109.677
X160.426Y-111.15
X160.477Y-77.927
X161.696Y-77.927
X162.001Y-108.407
X162.001Y-109.677
X162.154Y-81.077
X162.179Y-105.004
X162.9Y-71.4
X163.017Y-77.927
X163.474Y-81.077
X163.474Y-108.407
X164.236Y-77.927
X164.322Y-71.4
X164.465Y-78.969
X164.592Y-81.077
X165.694Y-71.4
X165.71Y-77.927
X165.862Y-81.026
X167.0Y-71.4
X167.183Y-78.842
X168.4Y-71.4
X171.2Y-76.7
X172.339Y-105.004
X176.903Y-104.995
T2
X133.553Y-79.502
X133.553Y-87.122
T3
X119.482Y-123.708
X119.482Y-131.308
X133.37Y-69.075
X135.91Y-69.075
X138.45Y-69.075
X140.99Y-69.075
X143.53Y-69.075
X146.07Y-69.075
X148.61Y-69.075
X151.15Y-69.075
X153.69Y-69.075
X154.14Y-123.975
X156.23Y-69.075
X156.68Y-123.975
X158.77Y-69.075
X159.22Y-123.975
X161.31Y-69.075
X161.76Y-123.975
X163.85Y-69.075
X164.3Y-123.975
X166.39Y-69.075
X166.84Y-123.975
X168.93Y-69.075
X169.38Y-123.975
X171.47Y-69.075
X171.92Y-123.975
X174.46Y-123.975
X177.0Y-123.975
T4
X174.117Y-113.03
X174.117Y-116.53
T5
X158.49Y-85.344
X158.49Y-100.584
X161.03Y-85.344
X161.03Y-100.584
X163.57Y-85.344
X163.57Y-100.584
X166.11Y-85.344
X166.11Y-100.584
X168.65Y-85.344
X168.65Y-100.584
X171.19Y-85.344
X171.19Y-100.584
X173.73Y-85.344
X173.73Y-100.584
X176.27Y-85.344
X176.27Y-100.584
T6
X118.212Y-115.824
X123.212Y-112.324
X124.604Y-83.802
X129.604Y-80.302
X145.224Y-123.473
X148.724Y-128.473
M30
