%TF.GenerationSoftware,KiCad,Pcbnew,8.0.8+1*%
%TF.ProjectId,airsoft_bomb_v2,61697273-6f66-4745-9f62-6f6d625f7632,rev?*%
%TF.SameCoordinates,Original*%
%TF.FileFunction,Drillmap*%
%TF.FilePolarity,Positive*%
%FSLAX45Y45*%
G04 Gerber Fmt 4.5, Leading zero omitted, Abs format (unit mm)*
%MOMM*%
%LPD*%
G01*
G04 APERTURE LIST*
%ADD10C,0.200000*%
%ADD11C,0.320000*%
G04 APERTURE END LIST*
D10*
X17889053Y-6086674D02*
X17587850Y-5821680D01*
X11602720Y-13482320D02*
X11160760Y-13121640D01*
X17889053Y-6086674D02*
G75*
G02*
X17894300Y-7226300I-182713J-570666D01*
G01*
X11160760Y-9814560D02*
G75*
G02*
X11282768Y-9520008I416560J0D01*
G01*
X17587850Y-5821680D02*
X12598400Y-5821680D01*
X11805920Y-8991600D02*
X11806160Y-6624080D01*
X11602720Y-13482320D02*
X17894300Y-13487400D01*
X17894300Y-13487400D02*
X17894300Y-7226300D01*
X11282768Y-9520008D02*
X11805920Y-8991600D01*
X11806160Y-6624080D02*
X12598400Y-5821680D01*
X11160760Y-13121640D02*
X11160760Y-9814560D01*
D11*
X11417320Y-9659640D02*
X11737320Y-9979640D01*
X11737320Y-9659640D02*
X11417320Y-9979640D01*
X12423160Y-6515120D02*
X12743160Y-6835120D01*
X12743160Y-6515120D02*
X12423160Y-6835120D01*
X17546340Y-6497340D02*
X17866340Y-6817340D01*
X17866340Y-6497340D02*
X17546340Y-6817340D01*
D10*
X11411537Y-13808884D02*
X11411537Y-13608884D01*
X11411537Y-13608884D02*
X11459156Y-13608884D01*
X11459156Y-13608884D02*
X11487727Y-13618408D01*
X11487727Y-13618408D02*
X11506775Y-13637455D01*
X11506775Y-13637455D02*
X11516299Y-13656503D01*
X11516299Y-13656503D02*
X11525822Y-13694598D01*
X11525822Y-13694598D02*
X11525822Y-13723169D01*
X11525822Y-13723169D02*
X11516299Y-13761265D01*
X11516299Y-13761265D02*
X11506775Y-13780312D01*
X11506775Y-13780312D02*
X11487727Y-13799360D01*
X11487727Y-13799360D02*
X11459156Y-13808884D01*
X11459156Y-13808884D02*
X11411537Y-13808884D01*
X11611537Y-13808884D02*
X11611537Y-13675550D01*
X11611537Y-13713646D02*
X11621061Y-13694598D01*
X11621061Y-13694598D02*
X11630584Y-13685074D01*
X11630584Y-13685074D02*
X11649632Y-13675550D01*
X11649632Y-13675550D02*
X11668680Y-13675550D01*
X11735346Y-13808884D02*
X11735346Y-13675550D01*
X11735346Y-13608884D02*
X11725822Y-13618408D01*
X11725822Y-13618408D02*
X11735346Y-13627931D01*
X11735346Y-13627931D02*
X11744870Y-13618408D01*
X11744870Y-13618408D02*
X11735346Y-13608884D01*
X11735346Y-13608884D02*
X11735346Y-13627931D01*
X11859156Y-13808884D02*
X11840108Y-13799360D01*
X11840108Y-13799360D02*
X11830584Y-13780312D01*
X11830584Y-13780312D02*
X11830584Y-13608884D01*
X11963918Y-13808884D02*
X11944870Y-13799360D01*
X11944870Y-13799360D02*
X11935346Y-13780312D01*
X11935346Y-13780312D02*
X11935346Y-13608884D01*
X12192489Y-13808884D02*
X12192489Y-13608884D01*
X12192489Y-13608884D02*
X12259156Y-13751741D01*
X12259156Y-13751741D02*
X12325822Y-13608884D01*
X12325822Y-13608884D02*
X12325822Y-13808884D01*
X12506775Y-13808884D02*
X12506775Y-13704122D01*
X12506775Y-13704122D02*
X12497251Y-13685074D01*
X12497251Y-13685074D02*
X12478203Y-13675550D01*
X12478203Y-13675550D02*
X12440108Y-13675550D01*
X12440108Y-13675550D02*
X12421061Y-13685074D01*
X12506775Y-13799360D02*
X12487727Y-13808884D01*
X12487727Y-13808884D02*
X12440108Y-13808884D01*
X12440108Y-13808884D02*
X12421061Y-13799360D01*
X12421061Y-13799360D02*
X12411537Y-13780312D01*
X12411537Y-13780312D02*
X12411537Y-13761265D01*
X12411537Y-13761265D02*
X12421061Y-13742217D01*
X12421061Y-13742217D02*
X12440108Y-13732693D01*
X12440108Y-13732693D02*
X12487727Y-13732693D01*
X12487727Y-13732693D02*
X12506775Y-13723169D01*
X12602013Y-13675550D02*
X12602013Y-13875550D01*
X12602013Y-13685074D02*
X12621061Y-13675550D01*
X12621061Y-13675550D02*
X12659156Y-13675550D01*
X12659156Y-13675550D02*
X12678203Y-13685074D01*
X12678203Y-13685074D02*
X12687727Y-13694598D01*
X12687727Y-13694598D02*
X12697251Y-13713646D01*
X12697251Y-13713646D02*
X12697251Y-13770788D01*
X12697251Y-13770788D02*
X12687727Y-13789836D01*
X12687727Y-13789836D02*
X12678203Y-13799360D01*
X12678203Y-13799360D02*
X12659156Y-13808884D01*
X12659156Y-13808884D02*
X12621061Y-13808884D01*
X12621061Y-13808884D02*
X12602013Y-13799360D01*
X12782965Y-13789836D02*
X12792489Y-13799360D01*
X12792489Y-13799360D02*
X12782965Y-13808884D01*
X12782965Y-13808884D02*
X12773442Y-13799360D01*
X12773442Y-13799360D02*
X12782965Y-13789836D01*
X12782965Y-13789836D02*
X12782965Y-13808884D01*
X12782965Y-13685074D02*
X12792489Y-13694598D01*
X12792489Y-13694598D02*
X12782965Y-13704122D01*
X12782965Y-13704122D02*
X12773442Y-13694598D01*
X12773442Y-13694598D02*
X12782965Y-13685074D01*
X12782965Y-13685074D02*
X12782965Y-13704122D01*
X10950760Y-14037400D02*
X11150760Y-14237400D01*
X11150760Y-14037400D02*
X10950760Y-14237400D01*
X11392489Y-14028884D02*
X11516299Y-14028884D01*
X11516299Y-14028884D02*
X11449632Y-14105074D01*
X11449632Y-14105074D02*
X11478203Y-14105074D01*
X11478203Y-14105074D02*
X11497251Y-14114598D01*
X11497251Y-14114598D02*
X11506775Y-14124122D01*
X11506775Y-14124122D02*
X11516299Y-14143169D01*
X11516299Y-14143169D02*
X11516299Y-14190788D01*
X11516299Y-14190788D02*
X11506775Y-14209836D01*
X11506775Y-14209836D02*
X11497251Y-14219360D01*
X11497251Y-14219360D02*
X11478203Y-14228884D01*
X11478203Y-14228884D02*
X11421061Y-14228884D01*
X11421061Y-14228884D02*
X11402013Y-14219360D01*
X11402013Y-14219360D02*
X11392489Y-14209836D01*
X11602013Y-14209836D02*
X11611537Y-14219360D01*
X11611537Y-14219360D02*
X11602013Y-14228884D01*
X11602013Y-14228884D02*
X11592489Y-14219360D01*
X11592489Y-14219360D02*
X11602013Y-14209836D01*
X11602013Y-14209836D02*
X11602013Y-14228884D01*
X11687727Y-14047931D02*
X11697251Y-14038408D01*
X11697251Y-14038408D02*
X11716299Y-14028884D01*
X11716299Y-14028884D02*
X11763918Y-14028884D01*
X11763918Y-14028884D02*
X11782965Y-14038408D01*
X11782965Y-14038408D02*
X11792489Y-14047931D01*
X11792489Y-14047931D02*
X11802013Y-14066979D01*
X11802013Y-14066979D02*
X11802013Y-14086027D01*
X11802013Y-14086027D02*
X11792489Y-14114598D01*
X11792489Y-14114598D02*
X11678203Y-14228884D01*
X11678203Y-14228884D02*
X11802013Y-14228884D01*
X11925822Y-14028884D02*
X11944870Y-14028884D01*
X11944870Y-14028884D02*
X11963918Y-14038408D01*
X11963918Y-14038408D02*
X11973442Y-14047931D01*
X11973442Y-14047931D02*
X11982965Y-14066979D01*
X11982965Y-14066979D02*
X11992489Y-14105074D01*
X11992489Y-14105074D02*
X11992489Y-14152693D01*
X11992489Y-14152693D02*
X11982965Y-14190788D01*
X11982965Y-14190788D02*
X11973442Y-14209836D01*
X11973442Y-14209836D02*
X11963918Y-14219360D01*
X11963918Y-14219360D02*
X11944870Y-14228884D01*
X11944870Y-14228884D02*
X11925822Y-14228884D01*
X11925822Y-14228884D02*
X11906775Y-14219360D01*
X11906775Y-14219360D02*
X11897251Y-14209836D01*
X11897251Y-14209836D02*
X11887727Y-14190788D01*
X11887727Y-14190788D02*
X11878203Y-14152693D01*
X11878203Y-14152693D02*
X11878203Y-14105074D01*
X11878203Y-14105074D02*
X11887727Y-14066979D01*
X11887727Y-14066979D02*
X11897251Y-14047931D01*
X11897251Y-14047931D02*
X11906775Y-14038408D01*
X11906775Y-14038408D02*
X11925822Y-14028884D01*
X12116299Y-14028884D02*
X12135346Y-14028884D01*
X12135346Y-14028884D02*
X12154394Y-14038408D01*
X12154394Y-14038408D02*
X12163918Y-14047931D01*
X12163918Y-14047931D02*
X12173442Y-14066979D01*
X12173442Y-14066979D02*
X12182965Y-14105074D01*
X12182965Y-14105074D02*
X12182965Y-14152693D01*
X12182965Y-14152693D02*
X12173442Y-14190788D01*
X12173442Y-14190788D02*
X12163918Y-14209836D01*
X12163918Y-14209836D02*
X12154394Y-14219360D01*
X12154394Y-14219360D02*
X12135346Y-14228884D01*
X12135346Y-14228884D02*
X12116299Y-14228884D01*
X12116299Y-14228884D02*
X12097251Y-14219360D01*
X12097251Y-14219360D02*
X12087727Y-14209836D01*
X12087727Y-14209836D02*
X12078203Y-14190788D01*
X12078203Y-14190788D02*
X12068680Y-14152693D01*
X12068680Y-14152693D02*
X12068680Y-14105074D01*
X12068680Y-14105074D02*
X12078203Y-14066979D01*
X12078203Y-14066979D02*
X12087727Y-14047931D01*
X12087727Y-14047931D02*
X12097251Y-14038408D01*
X12097251Y-14038408D02*
X12116299Y-14028884D01*
X12268680Y-14228884D02*
X12268680Y-14095550D01*
X12268680Y-14114598D02*
X12278203Y-14105074D01*
X12278203Y-14105074D02*
X12297251Y-14095550D01*
X12297251Y-14095550D02*
X12325823Y-14095550D01*
X12325823Y-14095550D02*
X12344870Y-14105074D01*
X12344870Y-14105074D02*
X12354394Y-14124122D01*
X12354394Y-14124122D02*
X12354394Y-14228884D01*
X12354394Y-14124122D02*
X12363918Y-14105074D01*
X12363918Y-14105074D02*
X12382965Y-14095550D01*
X12382965Y-14095550D02*
X12411537Y-14095550D01*
X12411537Y-14095550D02*
X12430584Y-14105074D01*
X12430584Y-14105074D02*
X12440108Y-14124122D01*
X12440108Y-14124122D02*
X12440108Y-14228884D01*
X12535346Y-14228884D02*
X12535346Y-14095550D01*
X12535346Y-14114598D02*
X12544870Y-14105074D01*
X12544870Y-14105074D02*
X12563918Y-14095550D01*
X12563918Y-14095550D02*
X12592489Y-14095550D01*
X12592489Y-14095550D02*
X12611537Y-14105074D01*
X12611537Y-14105074D02*
X12621061Y-14124122D01*
X12621061Y-14124122D02*
X12621061Y-14228884D01*
X12621061Y-14124122D02*
X12630584Y-14105074D01*
X12630584Y-14105074D02*
X12649632Y-14095550D01*
X12649632Y-14095550D02*
X12678203Y-14095550D01*
X12678203Y-14095550D02*
X12697251Y-14105074D01*
X12697251Y-14105074D02*
X12706775Y-14124122D01*
X12706775Y-14124122D02*
X12706775Y-14228884D01*
X13097251Y-14019360D02*
X12925823Y-14276503D01*
X13354394Y-14028884D02*
X13373442Y-14028884D01*
X13373442Y-14028884D02*
X13392489Y-14038408D01*
X13392489Y-14038408D02*
X13402013Y-14047931D01*
X13402013Y-14047931D02*
X13411537Y-14066979D01*
X13411537Y-14066979D02*
X13421061Y-14105074D01*
X13421061Y-14105074D02*
X13421061Y-14152693D01*
X13421061Y-14152693D02*
X13411537Y-14190788D01*
X13411537Y-14190788D02*
X13402013Y-14209836D01*
X13402013Y-14209836D02*
X13392489Y-14219360D01*
X13392489Y-14219360D02*
X13373442Y-14228884D01*
X13373442Y-14228884D02*
X13354394Y-14228884D01*
X13354394Y-14228884D02*
X13335346Y-14219360D01*
X13335346Y-14219360D02*
X13325823Y-14209836D01*
X13325823Y-14209836D02*
X13316299Y-14190788D01*
X13316299Y-14190788D02*
X13306775Y-14152693D01*
X13306775Y-14152693D02*
X13306775Y-14105074D01*
X13306775Y-14105074D02*
X13316299Y-14066979D01*
X13316299Y-14066979D02*
X13325823Y-14047931D01*
X13325823Y-14047931D02*
X13335346Y-14038408D01*
X13335346Y-14038408D02*
X13354394Y-14028884D01*
X13506775Y-14209836D02*
X13516299Y-14219360D01*
X13516299Y-14219360D02*
X13506775Y-14228884D01*
X13506775Y-14228884D02*
X13497251Y-14219360D01*
X13497251Y-14219360D02*
X13506775Y-14209836D01*
X13506775Y-14209836D02*
X13506775Y-14228884D01*
X13706775Y-14228884D02*
X13592489Y-14228884D01*
X13649632Y-14228884D02*
X13649632Y-14028884D01*
X13649632Y-14028884D02*
X13630585Y-14057455D01*
X13630585Y-14057455D02*
X13611537Y-14076503D01*
X13611537Y-14076503D02*
X13592489Y-14086027D01*
X13782966Y-14047931D02*
X13792489Y-14038408D01*
X13792489Y-14038408D02*
X13811537Y-14028884D01*
X13811537Y-14028884D02*
X13859156Y-14028884D01*
X13859156Y-14028884D02*
X13878204Y-14038408D01*
X13878204Y-14038408D02*
X13887727Y-14047931D01*
X13887727Y-14047931D02*
X13897251Y-14066979D01*
X13897251Y-14066979D02*
X13897251Y-14086027D01*
X13897251Y-14086027D02*
X13887727Y-14114598D01*
X13887727Y-14114598D02*
X13773442Y-14228884D01*
X13773442Y-14228884D02*
X13897251Y-14228884D01*
X14068680Y-14028884D02*
X14030585Y-14028884D01*
X14030585Y-14028884D02*
X14011537Y-14038408D01*
X14011537Y-14038408D02*
X14002013Y-14047931D01*
X14002013Y-14047931D02*
X13982966Y-14076503D01*
X13982966Y-14076503D02*
X13973442Y-14114598D01*
X13973442Y-14114598D02*
X13973442Y-14190788D01*
X13973442Y-14190788D02*
X13982966Y-14209836D01*
X13982966Y-14209836D02*
X13992489Y-14219360D01*
X13992489Y-14219360D02*
X14011537Y-14228884D01*
X14011537Y-14228884D02*
X14049632Y-14228884D01*
X14049632Y-14228884D02*
X14068680Y-14219360D01*
X14068680Y-14219360D02*
X14078204Y-14209836D01*
X14078204Y-14209836D02*
X14087727Y-14190788D01*
X14087727Y-14190788D02*
X14087727Y-14143169D01*
X14087727Y-14143169D02*
X14078204Y-14124122D01*
X14078204Y-14124122D02*
X14068680Y-14114598D01*
X14068680Y-14114598D02*
X14049632Y-14105074D01*
X14049632Y-14105074D02*
X14011537Y-14105074D01*
X14011537Y-14105074D02*
X13992489Y-14114598D01*
X13992489Y-14114598D02*
X13982966Y-14124122D01*
X13982966Y-14124122D02*
X13973442Y-14143169D01*
X14211537Y-14028884D02*
X14230585Y-14028884D01*
X14230585Y-14028884D02*
X14249632Y-14038408D01*
X14249632Y-14038408D02*
X14259156Y-14047931D01*
X14259156Y-14047931D02*
X14268680Y-14066979D01*
X14268680Y-14066979D02*
X14278204Y-14105074D01*
X14278204Y-14105074D02*
X14278204Y-14152693D01*
X14278204Y-14152693D02*
X14268680Y-14190788D01*
X14268680Y-14190788D02*
X14259156Y-14209836D01*
X14259156Y-14209836D02*
X14249632Y-14219360D01*
X14249632Y-14219360D02*
X14230585Y-14228884D01*
X14230585Y-14228884D02*
X14211537Y-14228884D01*
X14211537Y-14228884D02*
X14192489Y-14219360D01*
X14192489Y-14219360D02*
X14182966Y-14209836D01*
X14182966Y-14209836D02*
X14173442Y-14190788D01*
X14173442Y-14190788D02*
X14163918Y-14152693D01*
X14163918Y-14152693D02*
X14163918Y-14105074D01*
X14163918Y-14105074D02*
X14173442Y-14066979D01*
X14173442Y-14066979D02*
X14182966Y-14047931D01*
X14182966Y-14047931D02*
X14192489Y-14038408D01*
X14192489Y-14038408D02*
X14211537Y-14028884D01*
X14354394Y-14028884D02*
X14354394Y-14066979D01*
X14430585Y-14028884D02*
X14430585Y-14066979D01*
X14725823Y-14305074D02*
X14716299Y-14295550D01*
X14716299Y-14295550D02*
X14697251Y-14266979D01*
X14697251Y-14266979D02*
X14687728Y-14247931D01*
X14687728Y-14247931D02*
X14678204Y-14219360D01*
X14678204Y-14219360D02*
X14668680Y-14171741D01*
X14668680Y-14171741D02*
X14668680Y-14133646D01*
X14668680Y-14133646D02*
X14678204Y-14086027D01*
X14678204Y-14086027D02*
X14687728Y-14057455D01*
X14687728Y-14057455D02*
X14697251Y-14038408D01*
X14697251Y-14038408D02*
X14716299Y-14009836D01*
X14716299Y-14009836D02*
X14725823Y-14000312D01*
X14782966Y-14028884D02*
X14906775Y-14028884D01*
X14906775Y-14028884D02*
X14840108Y-14105074D01*
X14840108Y-14105074D02*
X14868680Y-14105074D01*
X14868680Y-14105074D02*
X14887728Y-14114598D01*
X14887728Y-14114598D02*
X14897251Y-14124122D01*
X14897251Y-14124122D02*
X14906775Y-14143169D01*
X14906775Y-14143169D02*
X14906775Y-14190788D01*
X14906775Y-14190788D02*
X14897251Y-14209836D01*
X14897251Y-14209836D02*
X14887728Y-14219360D01*
X14887728Y-14219360D02*
X14868680Y-14228884D01*
X14868680Y-14228884D02*
X14811537Y-14228884D01*
X14811537Y-14228884D02*
X14792489Y-14219360D01*
X14792489Y-14219360D02*
X14782966Y-14209836D01*
X15144870Y-14228884D02*
X15144870Y-14028884D01*
X15230585Y-14228884D02*
X15230585Y-14124122D01*
X15230585Y-14124122D02*
X15221061Y-14105074D01*
X15221061Y-14105074D02*
X15202013Y-14095550D01*
X15202013Y-14095550D02*
X15173442Y-14095550D01*
X15173442Y-14095550D02*
X15154394Y-14105074D01*
X15154394Y-14105074D02*
X15144870Y-14114598D01*
X15354394Y-14228884D02*
X15335347Y-14219360D01*
X15335347Y-14219360D02*
X15325823Y-14209836D01*
X15325823Y-14209836D02*
X15316299Y-14190788D01*
X15316299Y-14190788D02*
X15316299Y-14133646D01*
X15316299Y-14133646D02*
X15325823Y-14114598D01*
X15325823Y-14114598D02*
X15335347Y-14105074D01*
X15335347Y-14105074D02*
X15354394Y-14095550D01*
X15354394Y-14095550D02*
X15382966Y-14095550D01*
X15382966Y-14095550D02*
X15402013Y-14105074D01*
X15402013Y-14105074D02*
X15411537Y-14114598D01*
X15411537Y-14114598D02*
X15421061Y-14133646D01*
X15421061Y-14133646D02*
X15421061Y-14190788D01*
X15421061Y-14190788D02*
X15411537Y-14209836D01*
X15411537Y-14209836D02*
X15402013Y-14219360D01*
X15402013Y-14219360D02*
X15382966Y-14228884D01*
X15382966Y-14228884D02*
X15354394Y-14228884D01*
X15535347Y-14228884D02*
X15516299Y-14219360D01*
X15516299Y-14219360D02*
X15506775Y-14200312D01*
X15506775Y-14200312D02*
X15506775Y-14028884D01*
X15687728Y-14219360D02*
X15668680Y-14228884D01*
X15668680Y-14228884D02*
X15630585Y-14228884D01*
X15630585Y-14228884D02*
X15611537Y-14219360D01*
X15611537Y-14219360D02*
X15602013Y-14200312D01*
X15602013Y-14200312D02*
X15602013Y-14124122D01*
X15602013Y-14124122D02*
X15611537Y-14105074D01*
X15611537Y-14105074D02*
X15630585Y-14095550D01*
X15630585Y-14095550D02*
X15668680Y-14095550D01*
X15668680Y-14095550D02*
X15687728Y-14105074D01*
X15687728Y-14105074D02*
X15697251Y-14124122D01*
X15697251Y-14124122D02*
X15697251Y-14143169D01*
X15697251Y-14143169D02*
X15602013Y-14162217D01*
X15773442Y-14219360D02*
X15792490Y-14228884D01*
X15792490Y-14228884D02*
X15830585Y-14228884D01*
X15830585Y-14228884D02*
X15849632Y-14219360D01*
X15849632Y-14219360D02*
X15859156Y-14200312D01*
X15859156Y-14200312D02*
X15859156Y-14190788D01*
X15859156Y-14190788D02*
X15849632Y-14171741D01*
X15849632Y-14171741D02*
X15830585Y-14162217D01*
X15830585Y-14162217D02*
X15802013Y-14162217D01*
X15802013Y-14162217D02*
X15782966Y-14152693D01*
X15782966Y-14152693D02*
X15773442Y-14133646D01*
X15773442Y-14133646D02*
X15773442Y-14124122D01*
X15773442Y-14124122D02*
X15782966Y-14105074D01*
X15782966Y-14105074D02*
X15802013Y-14095550D01*
X15802013Y-14095550D02*
X15830585Y-14095550D01*
X15830585Y-14095550D02*
X15849632Y-14105074D01*
X15925823Y-14305074D02*
X15935347Y-14295550D01*
X15935347Y-14295550D02*
X15954394Y-14266979D01*
X15954394Y-14266979D02*
X15963918Y-14247931D01*
X15963918Y-14247931D02*
X15973442Y-14219360D01*
X15973442Y-14219360D02*
X15982966Y-14171741D01*
X15982966Y-14171741D02*
X15982966Y-14133646D01*
X15982966Y-14133646D02*
X15973442Y-14086027D01*
X15973442Y-14086027D02*
X15963918Y-14057455D01*
X15963918Y-14057455D02*
X15954394Y-14038408D01*
X15954394Y-14038408D02*
X15935347Y-14009836D01*
X15935347Y-14009836D02*
X15925823Y-14000312D01*
X16287728Y-14305074D02*
X16278204Y-14295550D01*
X16278204Y-14295550D02*
X16259156Y-14266979D01*
X16259156Y-14266979D02*
X16249632Y-14247931D01*
X16249632Y-14247931D02*
X16240109Y-14219360D01*
X16240109Y-14219360D02*
X16230585Y-14171741D01*
X16230585Y-14171741D02*
X16230585Y-14133646D01*
X16230585Y-14133646D02*
X16240109Y-14086027D01*
X16240109Y-14086027D02*
X16249632Y-14057455D01*
X16249632Y-14057455D02*
X16259156Y-14038408D01*
X16259156Y-14038408D02*
X16278204Y-14009836D01*
X16278204Y-14009836D02*
X16287728Y-14000312D01*
X16363918Y-14095550D02*
X16363918Y-14228884D01*
X16363918Y-14114598D02*
X16373442Y-14105074D01*
X16373442Y-14105074D02*
X16392490Y-14095550D01*
X16392490Y-14095550D02*
X16421061Y-14095550D01*
X16421061Y-14095550D02*
X16440109Y-14105074D01*
X16440109Y-14105074D02*
X16449632Y-14124122D01*
X16449632Y-14124122D02*
X16449632Y-14228884D01*
X16573442Y-14228884D02*
X16554394Y-14219360D01*
X16554394Y-14219360D02*
X16544871Y-14209836D01*
X16544871Y-14209836D02*
X16535347Y-14190788D01*
X16535347Y-14190788D02*
X16535347Y-14133646D01*
X16535347Y-14133646D02*
X16544871Y-14114598D01*
X16544871Y-14114598D02*
X16554394Y-14105074D01*
X16554394Y-14105074D02*
X16573442Y-14095550D01*
X16573442Y-14095550D02*
X16602013Y-14095550D01*
X16602013Y-14095550D02*
X16621061Y-14105074D01*
X16621061Y-14105074D02*
X16630585Y-14114598D01*
X16630585Y-14114598D02*
X16640109Y-14133646D01*
X16640109Y-14133646D02*
X16640109Y-14190788D01*
X16640109Y-14190788D02*
X16630585Y-14209836D01*
X16630585Y-14209836D02*
X16621061Y-14219360D01*
X16621061Y-14219360D02*
X16602013Y-14228884D01*
X16602013Y-14228884D02*
X16573442Y-14228884D01*
X16697252Y-14095550D02*
X16773442Y-14095550D01*
X16725823Y-14028884D02*
X16725823Y-14200312D01*
X16725823Y-14200312D02*
X16735347Y-14219360D01*
X16735347Y-14219360D02*
X16754394Y-14228884D01*
X16754394Y-14228884D02*
X16773442Y-14228884D01*
X16992490Y-14095550D02*
X16992490Y-14295550D01*
X16992490Y-14105074D02*
X17011537Y-14095550D01*
X17011537Y-14095550D02*
X17049633Y-14095550D01*
X17049633Y-14095550D02*
X17068680Y-14105074D01*
X17068680Y-14105074D02*
X17078204Y-14114598D01*
X17078204Y-14114598D02*
X17087728Y-14133646D01*
X17087728Y-14133646D02*
X17087728Y-14190788D01*
X17087728Y-14190788D02*
X17078204Y-14209836D01*
X17078204Y-14209836D02*
X17068680Y-14219360D01*
X17068680Y-14219360D02*
X17049633Y-14228884D01*
X17049633Y-14228884D02*
X17011537Y-14228884D01*
X17011537Y-14228884D02*
X16992490Y-14219360D01*
X17202014Y-14228884D02*
X17182966Y-14219360D01*
X17182966Y-14219360D02*
X17173442Y-14200312D01*
X17173442Y-14200312D02*
X17173442Y-14028884D01*
X17363918Y-14228884D02*
X17363918Y-14124122D01*
X17363918Y-14124122D02*
X17354395Y-14105074D01*
X17354395Y-14105074D02*
X17335347Y-14095550D01*
X17335347Y-14095550D02*
X17297252Y-14095550D01*
X17297252Y-14095550D02*
X17278204Y-14105074D01*
X17363918Y-14219360D02*
X17344871Y-14228884D01*
X17344871Y-14228884D02*
X17297252Y-14228884D01*
X17297252Y-14228884D02*
X17278204Y-14219360D01*
X17278204Y-14219360D02*
X17268680Y-14200312D01*
X17268680Y-14200312D02*
X17268680Y-14181265D01*
X17268680Y-14181265D02*
X17278204Y-14162217D01*
X17278204Y-14162217D02*
X17297252Y-14152693D01*
X17297252Y-14152693D02*
X17344871Y-14152693D01*
X17344871Y-14152693D02*
X17363918Y-14143169D01*
X17430585Y-14095550D02*
X17506775Y-14095550D01*
X17459156Y-14028884D02*
X17459156Y-14200312D01*
X17459156Y-14200312D02*
X17468680Y-14219360D01*
X17468680Y-14219360D02*
X17487728Y-14228884D01*
X17487728Y-14228884D02*
X17506775Y-14228884D01*
X17649633Y-14219360D02*
X17630585Y-14228884D01*
X17630585Y-14228884D02*
X17592490Y-14228884D01*
X17592490Y-14228884D02*
X17573442Y-14219360D01*
X17573442Y-14219360D02*
X17563918Y-14200312D01*
X17563918Y-14200312D02*
X17563918Y-14124122D01*
X17563918Y-14124122D02*
X17573442Y-14105074D01*
X17573442Y-14105074D02*
X17592490Y-14095550D01*
X17592490Y-14095550D02*
X17630585Y-14095550D01*
X17630585Y-14095550D02*
X17649633Y-14105074D01*
X17649633Y-14105074D02*
X17659156Y-14124122D01*
X17659156Y-14124122D02*
X17659156Y-14143169D01*
X17659156Y-14143169D02*
X17563918Y-14162217D01*
X17830585Y-14228884D02*
X17830585Y-14028884D01*
X17830585Y-14219360D02*
X17811537Y-14228884D01*
X17811537Y-14228884D02*
X17773442Y-14228884D01*
X17773442Y-14228884D02*
X17754395Y-14219360D01*
X17754395Y-14219360D02*
X17744871Y-14209836D01*
X17744871Y-14209836D02*
X17735347Y-14190788D01*
X17735347Y-14190788D02*
X17735347Y-14133646D01*
X17735347Y-14133646D02*
X17744871Y-14114598D01*
X17744871Y-14114598D02*
X17754395Y-14105074D01*
X17754395Y-14105074D02*
X17773442Y-14095550D01*
X17773442Y-14095550D02*
X17811537Y-14095550D01*
X17811537Y-14095550D02*
X17830585Y-14105074D01*
X17906776Y-14305074D02*
X17916299Y-14295550D01*
X17916299Y-14295550D02*
X17935347Y-14266979D01*
X17935347Y-14266979D02*
X17944871Y-14247931D01*
X17944871Y-14247931D02*
X17954395Y-14219360D01*
X17954395Y-14219360D02*
X17963918Y-14171741D01*
X17963918Y-14171741D02*
X17963918Y-14133646D01*
X17963918Y-14133646D02*
X17954395Y-14086027D01*
X17954395Y-14086027D02*
X17944871Y-14057455D01*
X17944871Y-14057455D02*
X17935347Y-14038408D01*
X17935347Y-14038408D02*
X17916299Y-14009836D01*
X17916299Y-14009836D02*
X17906776Y-14000312D01*
M02*
